<svg width="137" height="124" viewBox="0 0 137 124" fill="none" xmlns="http://www.w3.org/2000/svg">
<g clip-path="url(#clip0_69_11005)">
<path d="M36.0466 85.2256C34.6349 84.2074 33.3971 83.5857 29.6467 83.8167C25.8963 84.0477 23.6974 85.3454 20.6087 88.6623C19.7702 89.5635 18.9973 92.4184 19.3538 92.598C19.7131 92.7777 19.9213 91.9193 21.1734 91.597C22.4254 91.2747 22.7591 92.1446 23.6632 91.9649C24.5701 91.7852 23.7373 91.2548 25.3231 90.5104C26.9088 89.766 29.3615 91.2433 30.4852 92.1988C32.5729 93.9756 36.1407 99.8194 37.0534 99.6083C37.966 99.3973 37.3243 93.2683 37.2445 91.4173C37.1646 89.5664 37.4612 86.2438 36.0495 85.2256H36.0466Z" fill="#C5ECB3"/>
<path d="M28.3526 92.9154C27.7822 92.385 26.3077 92.0285 25.6518 92.5504C24.9958 93.0723 25.224 94.8462 25.0871 94.9375C24.9502 95.0288 22.5459 92.9154 21.4023 93.9279C20.2586 94.9404 21.4479 96.8655 21.7987 97.3617C21.7217 97.4302 19.7082 96.5403 18.9324 97.3132C18.1567 98.0861 18.9666 99.9713 19.2262 100.294C21.1285 102.649 22.9538 105.079 25.0215 107.284C26.7584 109.141 28.9972 110.361 31.4841 111.037C35.1119 112.021 37.7072 109.643 37.1768 105.909C36.3525 100.125 28.9259 93.4459 28.3555 92.9183L28.3526 92.9154Z" fill="#C5ECB3"/>
<path d="M40.9067 62.367C41.7737 63.2825 42.6493 63.7388 43.8642 63.736C45.5755 63.7303 47.2867 63.793 48.9979 63.793C59.9268 63.793 70.8586 63.793 81.7875 63.7845C83.5444 63.7845 85.2983 63.7616 87.0552 63.7388C88.4413 63.7189 89.8473 64.8026 90.5518 65.296C91.2562 65.7894 91.9721 66.6222 92.3 67.0015C92.6252 67.3808 92.9474 67.7801 92.7164 68.2421C92.4826 68.7042 91.5813 68.747 90.9596 68.7812C90.335 68.8126 87.8566 69.3088 86.4591 69.9676C83.1365 71.5334 80.507 76.9265 84.7308 80.2976C88.1447 83.0213 95.2005 82.545 98.2151 79.3707C99.8065 77.6966 100.793 75.7857 100.893 73.4043C100.933 72.4688 101.133 71.0428 101.726 70.732C102.989 70.0703 102.727 69.3145 102.442 68.4218C102.094 67.3409 101.737 66.2457 101.244 65.2276C99.8607 62.3756 99.8579 62.4212 102.159 60.3763C109.215 54.1076 112.079 46.3387 110.564 36.9669C110.376 35.7976 110.639 34.5456 110.744 33.3363C110.955 30.9378 111.6 28.5022 111.36 26.1549C110.678 19.4926 107.031 14.6071 100.853 12.2371C94.9039 9.95549 89.1742 11.1391 84.1148 15.1861C83.7155 15.5055 82.9026 15.5569 82.3722 15.4085C81.3312 15.1176 80.3872 14.4588 79.3433 14.1964C71.7227 12.2856 64.2048 12.3027 56.9693 15.7708C55.9967 16.2356 55.4748 16.036 54.7561 15.3743C51.6217 12.4909 47.9056 10.9765 43.6247 11.0307C39.8914 11.0792 36.8454 12.7847 33.9079 14.9608C28.2438 19.1561 26.7892 28.7959 29.376 34.2832C29.7582 35.0932 29.8437 36.2112 29.6527 37.0981C28.0954 44.3194 29.9692 50.6709 34.6123 56.2066C36.4918 58.4483 38.896 60.2394 40.9181 62.3698L40.9067 62.367Z" fill="#C5ECB3"/>
<path d="M40.114 83.8195C39.304 84.1104 39.1357 84.4869 39.13 85.2456C39.1015 89.5207 39.0103 93.7988 38.9817 98.0739C38.9646 100.549 39.0873 100.675 41.5371 100.678C56.4161 100.678 71.2979 100.666 86.1769 100.652C88.0678 100.652 88.6553 100.099 88.6981 98.188C88.7893 94.0554 88.8093 89.92 88.9034 85.7846C88.9234 84.9119 88.6382 84.6466 87.7797 84.3814C86.2995 83.9222 84.8051 83.309 83.5274 82.4477C79.9795 80.0549 79.0269 75.5344 81.2087 71.8525C82.5349 69.6165 84.46 68.0393 86.9184 67.1381C87.2436 67.0183 87.5459 66.8386 88.1762 66.5335C87.5316 66.2483 87.2093 65.983 86.8871 65.983C71.0897 65.9631 39.9628 65.9545 39.5635 66.023C39.1643 66.0914 39.2384 66.4308 39.3953 66.5363C39.5521 66.6447 41.5742 68.0194 42.6152 68.8265C45.0765 70.7316 46.7392 73.0846 46.3143 76.3758C45.8266 80.1347 43.6077 82.5647 40.1168 83.8195H40.114Z" fill="#C5ECB3"/>
<path d="M99.4417 85.3143C97.7647 86.0501 96.0935 86.803 94.4165 87.5502C94.7074 86.592 95.0896 85.6508 95.7883 85.1317C98.6859 82.9785 101.789 81.2587 105.579 81.7892C105.856 79.5817 104.618 74.3283 103.606 73.2588C103.557 73.5269 103.506 73.755 103.474 73.9803C102.508 80.617 99.0453 84.0166 92.3944 84.7439C91.3962 84.8522 91.2707 85.3114 91.265 86.1271C91.245 90.2597 91.208 94.3922 91.1395 98.5248C91.0882 101.702 89.6992 103.022 86.5592 102.985C84.7538 102.965 82.9457 102.96 81.1403 102.948C71.3978 102.88 52.104 101.873 52.0811 102.9C52.0612 103.927 55.3838 105.752 57.6711 106.565C62.8874 108.418 68.3405 108.818 73.842 108.655C79.161 108.498 89.0148 108.427 89.8019 108.202C90.5891 107.976 92.0807 107.808 92.46 106.565C92.7195 105.709 92.5627 104.608 92.557 102.971C92.5513 101.334 94.1313 101.551 94.1569 102.549C94.1997 104.149 93.25 107.055 94.579 108.635C95.9081 110.215 98.6432 110.746 101.19 110.583C103.737 110.418 108.617 106.208 111.212 102.635C111.925 101.656 112.581 99.0496 111.549 98.154C110.516 97.2585 109.19 99.4603 108.928 98.4392C108.665 97.4182 111.566 95.3277 109.98 93.9216C108.397 92.5185 105.976 96.9334 105.819 95.6386C105.739 94.9911 106.175 94.3323 106.349 93.8589C106.523 93.3855 106.84 92.8322 106.175 92.2161C105.511 91.6001 103.763 92.2076 103.209 92.5128C101.43 93.4938 99.7754 94.7088 98.0842 95.8496C97.4852 96.2546 96.9148 96.7081 96.1847 97.2471C96.4329 94.2211 101.886 90.7274 103.506 90.5049C105.126 90.2825 106.326 90.1712 107.065 90.8415C107.804 91.5117 108.286 92.1819 109.244 92.0564C110.761 91.8539 111.705 92.6183 112.142 94.0044C112.381 94.763 112.441 95.5787 112.641 96.3516C112.789 96.9334 113.052 98.1512 113.767 98.1027C114.48 98.0542 114.486 93.6193 113.762 91.5003C111.677 85.4112 105.374 82.7104 99.4446 85.3171L99.4417 85.3143Z" fill="#C5ECB3"/>
<path d="M49.4776 102.84C49.1753 102.578 38.8424 102.124 38.5858 102.444C38.3291 102.766 39.0449 103.496 39.3615 104.697C39.6781 105.898 39.4556 107.212 39.9947 107.714C40.5308 108.216 43.7907 108.154 45.9839 107.954C49.1753 107.663 51.8819 107.278 52.2783 106.536C52.6747 105.795 49.8484 103.165 49.4776 102.84Z" fill="#C5ECB3"/>
<path d="M43.6084 73.9148C42.6131 71.1369 40.3657 69.691 37.7846 68.6443C37.1885 68.4018 36.0563 68.2678 35.9679 67.8058C35.8794 67.3438 37.0801 65.721 36.7094 65.3588C36.3386 64.9965 35.5914 65.4529 35.3661 65.7267C34.0228 67.3694 32.5198 68.958 31.5672 70.8175C30.5034 72.8938 30.1298 75.3208 31.128 77.5711C32.7223 81.1618 35.8253 82.4338 39.7268 81.3329C42.9268 80.4317 44.7264 77.0349 43.6084 73.9148Z" fill="#C5ECB3"/>
<path d="M54.5396 106.805L64.9438 109.457H92.0294C92.0294 109.457 92.4943 107.506 93.8233 104.075C95.1523 100.644 97.2942 84.9839 97.2942 84.9839L104.875 83.2898L106.589 80.3522L105.211 71.5908L103.332 72.6004L99.9894 80.5176L90.2183 83.7547L90.0501 99.9912L87.3549 102.629L52.1126 101.514L50.5439 103.054L52.8398 105.621L54.5453 106.802L54.5396 106.805Z" fill="url(#paint0_linear_69_11005)"/>
<path opacity="0.5" d="M83.5391 80.1642C83.5391 80.1642 88.6784 81.5132 92.8053 80.1642C96.9321 78.8151 99.3763 76.7531 99.8811 71.5938C100.386 66.4345 99.5902 65.4877 98.5806 63.9904C97.571 62.4931 95.9482 61.5091 93.1789 61.8C89.3115 62.2079 84.4089 64.6292 84.4089 63.7365C84.4089 62.205 101.393 57.3024 104.764 50.8169C108.135 44.3314 109.233 33.4111 109.15 27.7669C109.067 22.1228 106.589 15.7656 106.589 15.7656C106.589 15.7656 111.255 18.6661 112.182 22.7787C113.109 26.8913 112.949 27.0938 112.182 30.6303C111.415 34.1668 112.182 36.8563 112.182 40.3985C112.182 43.9407 113.277 44.9503 112.182 48.9945C111.087 53.0386 102.123 62.6414 102.123 62.6414L105.212 71.591L101.421 77.1296L96.4787 81.6814L90.2185 83.7548L83.5419 80.1584L83.5391 80.1642Z" fill="#66C689"/>
<path d="M43.2772 70.9004L39.2844 67.9058L38.714 64.7686H87.1982L90.4781 66.9076L85.487 69.3318L81.4942 73.182L81.0664 77.6026L86.0574 82.8789L90.4781 83.5919V88.2977L89.1946 101.417H38.1436V84.8753L39.2844 83.5919L44.1328 80.0268L45.2736 75.0358L43.2772 70.9004Z" fill="#F2F5E6"/>
<path opacity="0.5" d="M38.2256 101.377L38.7275 109.015L42.3867 109.457L52.306 108.005V105.852L50.0843 102.056L38.2256 101.377Z" fill="#66C689"/>
<path d="M16.451 100.55C16.0431 97.3562 16.6791 94.316 17.5091 91.3385C19.1746 85.3663 23.755 81.924 29.9752 81.7728C30.2576 81.7671 30.5371 81.73 30.9307 81.6958C25.469 72.9686 30.0323 67.1962 36.6889 61.8943C36.1727 61.4066 35.6137 60.916 35.0946 60.3827C28.5521 53.689 25.3036 45.9087 27.1318 36.42C27.2459 35.8211 27.0491 35.111 26.8352 34.5092C24.3396 27.4761 25.6174 21.0306 30.2519 15.3807C34.5926 10.0931 40.4222 8.08241 47.1929 9.00361C50.2588 9.42001 52.9767 10.7947 55.5578 12.4688C55.9942 12.7512 56.7271 12.9337 57.1863 12.774C65.691 9.82785 74.2357 9.71662 82.8145 12.3433C83.6616 12.6029 84.2149 12.466 84.8908 11.9982C94.7616 5.11917 108.771 9.56831 112.986 20.8537C114.652 25.3143 114.74 29.7435 113.271 34.2525C113.092 34.803 113.106 35.4703 113.211 36.0521C115.051 46.4164 112.282 55.135 103.996 61.8657C103.258 62.4675 103.129 62.9324 103.552 63.7595C106.327 69.2097 107.852 75.0164 108.371 81.094C108.46 82.1179 108.968 82.5999 109.84 83.2159C111.734 84.5564 114.791 86.8808 115.944 88.9884C116.825 90.8194 117.852 96.3038 116.591 99.6093C115.581 102.262 112.88 104.906 112.025 105.915C109.632 108.744 106.723 110.949 103.346 112.486C101.062 113.524 98.6375 114.137 96.1363 113.604C94.8729 113.336 93.6037 112.786 92.5143 112.09C91.5788 111.494 90.7203 111.186 89.6137 111.228C84.7282 111.422 79.8399 111.613 74.9487 111.682C68.9994 111.765 63.1043 111.368 57.2833 109.871C55.4466 109.397 51.3055 108.893 47.3269 109.537C43.3483 110.182 40.3452 109.269 39.6578 110.099C38.7651 111.174 38.0179 112.389 36.7203 112.903C34.336 113.844 31.9773 113.798 29.6159 112.968C27.2031 112.121 25.1211 110.744 23.3015 108.935C22.3318 107.971 21.2395 107.13 20.2042 106.235L20.2499 106.294C17.6089 103.354 17.1925 102.721 16.451 100.55ZM92.7196 68.2086C92.4857 68.6706 91.5845 68.7134 90.9628 68.7477C90.341 68.7819 87.8598 69.2753 86.4623 69.9341C83.1397 71.4998 80.5101 76.893 84.7339 80.2641C88.1478 82.9878 95.2037 82.5115 98.2183 79.3372C99.8097 77.6631 100.797 75.7522 100.896 73.3708C100.936 72.4353 101.136 71.0093 101.729 70.6984C102.993 70.0368 102.73 69.281 102.442 68.3883C102.094 67.3074 101.738 66.2122 101.244 65.194C99.861 62.342 99.8582 62.3877 102.16 60.3428C109.216 54.074 112.079 46.3051 110.565 36.9334C110.376 35.7641 110.639 34.512 110.744 33.3028C110.955 30.9042 111.6 28.4686 111.36 26.1214C110.679 19.4591 107.031 14.5736 100.854 12.2036C94.9042 9.92196 89.1745 11.1055 84.1151 15.1526C83.7158 15.472 82.903 15.5233 82.3725 15.375C81.3315 15.0841 80.3875 14.4253 79.3436 14.1629C71.723 12.2521 64.2051 12.2692 56.9696 15.7372C55.997 16.2021 55.4751 16.0025 54.7564 15.3408C51.622 12.4574 47.9059 10.943 43.625 10.9972C39.8917 11.0457 36.8457 12.7512 33.9082 14.9273C28.2441 19.1226 26.7895 28.7624 29.3763 34.2497C29.7585 35.0596 29.844 36.1776 29.653 37.0646C28.0958 44.2859 29.9695 50.6373 34.6126 56.1731C36.4921 58.4148 38.8963 60.2059 40.9184 62.3363C41.7854 63.2518 42.661 63.7081 43.876 63.7053C45.5872 63.6996 47.2984 63.7623 49.0096 63.7623C59.9385 63.7623 70.8703 63.7623 81.7992 63.7538C83.5561 63.7538 85.3101 63.731 87.0669 63.7081C88.453 63.6882 89.859 64.7719 90.5635 65.2653C91.2679 65.7587 91.9838 66.5915 92.3118 66.9708C92.6397 67.3502 92.9592 67.7494 92.7281 68.2115L92.7196 68.2086ZM39.5694 65.9926C39.1701 66.0611 39.2443 66.4004 39.4011 66.506C39.558 66.6115 41.5801 67.989 42.6211 68.7961C45.0824 70.7013 46.7451 73.0542 46.3201 76.3454C45.8324 80.1044 43.6136 82.5343 40.1227 83.7892C39.3127 84.0801 39.1445 84.4566 39.1388 85.2152C39.1102 89.4904 39.019 93.7684 38.9905 98.0436C38.9733 100.519 39.096 100.645 41.5459 100.647C56.4248 100.647 71.3067 100.636 86.1856 100.622C88.0765 100.622 88.664 100.068 88.7068 98.1576C88.7981 94.0251 88.818 89.8868 88.9121 85.7542C88.9321 84.8815 88.6469 84.6163 87.7885 84.351C86.3083 83.8919 84.8138 83.2787 83.5361 82.4174C79.9882 80.0245 79.0356 75.5041 81.2174 71.8221C82.5436 69.5861 84.4687 68.009 86.9271 67.1077C87.2523 66.988 87.5546 66.8083 88.1849 66.5031C87.5403 66.2179 87.2181 65.9527 86.8958 65.9527C71.0985 65.9327 39.9715 65.9242 39.5723 65.9926H39.5694ZM113.773 98.0692C114.486 98.0207 114.492 93.5859 113.767 91.4668C111.683 85.3778 105.38 82.6769 99.4503 85.2836C97.7734 86.0195 96.1021 86.7724 94.4251 87.5196C94.716 86.5613 95.0982 85.6202 95.7969 85.1011C98.6946 82.9478 101.798 81.2281 105.588 81.7585C105.865 79.5511 104.627 74.2977 103.614 73.2282C103.566 73.4963 103.514 73.7244 103.483 73.9497C102.516 80.5864 99.0539 83.986 92.403 84.7132C91.4048 84.8216 91.2793 85.2808 91.2736 86.0965C91.2537 90.229 91.2166 94.3616 91.1481 98.4942C91.0968 101.671 89.7079 102.992 86.5678 102.955C84.7625 102.935 82.9543 102.929 81.149 102.918C71.4065 102.849 52.1126 101.842 52.0898 102.869C52.067 103.896 55.3924 105.721 57.6797 106.534C62.8961 108.388 68.3491 108.787 73.8507 108.625C79.1697 108.468 89.0234 108.396 89.8105 108.171C90.5977 107.946 92.0893 107.777 92.4686 106.534C92.7281 105.678 92.5713 104.578 92.5656 102.94C92.5599 101.303 94.1399 101.52 94.1656 102.518C94.2083 104.118 93.2586 107.025 94.5877 108.605C95.9167 110.185 98.6518 110.715 101.199 110.553C103.745 110.39 108.625 106.178 111.221 102.604C111.934 101.626 112.59 99.019 111.557 98.1234C110.525 97.2279 109.199 99.4296 108.936 98.4086C108.674 97.3876 111.574 95.2971 109.989 93.891C108.403 92.485 105.984 96.9028 105.827 95.6079C105.748 94.9605 106.184 94.3017 106.358 93.8283C106.532 93.3549 106.848 92.8016 106.184 92.1855C105.519 91.5695 103.771 92.177 103.218 92.4821C101.438 93.4632 99.784 94.6782 98.0928 95.819C97.4939 96.224 96.9235 96.6774 96.1934 97.2165C96.4415 94.1905 101.895 90.6968 103.514 90.4743C105.134 90.2519 106.335 90.1406 107.074 90.8108C107.812 91.4811 108.294 92.1513 109.253 92.0258C110.77 91.8233 111.714 92.5877 112.15 93.9737C112.39 94.7324 112.45 95.548 112.649 96.3209C112.798 96.9028 113.06 98.1206 113.776 98.0721L113.773 98.0692ZM21.8042 97.3277C21.7272 97.3962 19.7137 96.5063 18.9379 97.2792C18.1622 98.0521 18.9722 99.9373 19.2317 100.26C21.134 102.615 22.9593 105.045 25.027 107.25C26.7639 109.107 29.0027 110.327 31.4897 111.003C35.1174 111.987 37.7128 109.608 37.1823 105.875C36.358 100.091 28.9314 93.4119 28.361 92.8843C27.7906 92.3566 26.3161 91.9973 25.6601 92.5192C25.0042 93.0411 25.2323 94.8151 25.0954 94.9063C24.9585 94.9976 22.5543 92.8843 21.4106 93.8967C20.267 94.9092 21.4563 96.8343 21.8071 97.3306L21.8042 97.3277ZM35.973 67.7751C35.8846 67.3131 37.0853 65.6903 36.7145 65.3281C36.3438 64.9659 35.5966 65.4222 35.3712 65.696C34.0279 67.3388 32.5249 68.9273 31.5724 70.7868C30.5086 72.8631 30.1349 75.2902 31.1331 77.5404C32.7274 81.1311 35.8304 82.4031 39.732 81.3022C42.9319 80.401 44.7316 77.0042 43.6136 73.8841C42.6182 71.1063 40.3708 69.6603 37.7898 68.6136C37.1937 68.3712 36.0614 68.2371 35.973 67.7751ZM37.0596 99.5779C37.9694 99.3669 37.3306 93.2379 37.2507 91.3869C37.1709 89.536 37.4675 86.2134 36.0557 85.1952C34.644 84.1771 33.4062 83.5553 29.6558 83.7863C25.9054 84.0173 23.7065 85.315 20.6178 88.6319C19.7793 89.5331 19.0064 92.388 19.3629 92.5677C19.7194 92.7474 19.9304 91.8889 21.1825 91.5666C22.4345 91.2444 22.7682 92.1142 23.6723 91.9345C24.5764 91.7549 23.7464 91.2244 25.3321 90.48C26.9179 89.7356 29.3706 91.213 30.4943 92.1684C32.582 93.9452 36.1498 99.789 37.0625 99.5779H37.0596ZM52.2866 106.503C52.6858 105.761 49.8566 103.132 49.4859 102.806C49.1836 102.544 38.8507 102.091 38.594 102.41C38.3373 102.729 39.0532 103.462 39.3698 104.663C39.6863 105.864 39.4639 107.179 40.0029 107.681C40.542 108.182 43.799 108.12 45.9922 107.92C49.1836 107.629 51.8901 107.244 52.2866 106.503Z" fill="#18231C"/>
<path d="M95.4917 15.8135C101.507 15.8306 106.575 20.893 106.586 26.8965C106.597 32.8686 101.646 38.0279 95.8739 38.0564C89.7649 38.0878 84.7368 32.9713 84.714 26.7082C84.6911 20.5393 89.3827 15.7964 95.4917 15.8135ZM91.5502 19.6723C89.7164 19.6466 88.4102 20.9158 88.3674 22.761C88.3275 24.4608 89.6422 25.8212 91.382 25.884C93.1901 25.9496 94.5933 24.5578 94.6247 22.6755C94.6532 20.9414 93.3784 19.6951 91.5502 19.6694V19.6723Z" fill="#18231C"/>
<path d="M53.7918 26.8312C53.7662 32.655 48.5299 37.9569 42.8002 37.9597C37.1047 37.9597 32.1308 32.8118 32.1593 26.9452C32.1907 20.7678 37.2416 15.811 43.4904 15.8252C49.0119 15.8366 53.8175 20.9731 53.7918 26.8312ZM38.9528 19.684C37.0961 19.6726 35.7842 20.956 35.7899 22.7813C35.7956 24.5638 36.9764 25.8814 38.5992 25.9214C40.4359 25.967 41.9132 24.5039 41.9674 22.5874C42.013 20.9332 40.7268 19.6954 38.9528 19.684Z" fill="#18231C"/>
<path d="M68.0983 42.3601C65.4288 42.8763 63.615 41.4047 62.1376 39.4311C61.7355 38.8949 61.6043 38.0193 61.6642 37.3263C61.6984 36.9213 62.3116 36.3766 62.7565 36.2625C63.1159 36.1712 63.6691 36.5705 64.0342 36.8757C64.3479 37.1352 64.5019 37.5801 64.7529 37.9252C66.7465 40.6888 70.6309 40.4122 72.2109 37.3947C72.6473 36.5619 72.9525 35.4953 74.2644 36.1284C75.2512 36.6047 75.582 37.8425 74.8918 38.9633C73.3631 41.456 71.0416 42.4941 68.0983 42.3601Z" fill="#18231C"/>
<path d="M91.5499 19.6729C93.3781 19.6985 94.6529 20.942 94.6244 22.6789C94.5959 24.5612 93.1899 25.953 91.3817 25.8874C89.642 25.8247 88.3272 24.4614 88.3671 22.7644C88.4099 20.9192 89.7161 19.65 91.5499 19.6757V19.6729Z" fill="white"/>
<path d="M38.9529 19.6837C40.7269 19.6951 42.0132 20.9329 41.9675 22.587C41.9162 24.5007 40.436 25.9667 38.5993 25.921C36.9765 25.8811 35.7958 24.5606 35.7901 22.781C35.7844 20.9557 37.0934 19.6723 38.9529 19.6837Z" fill="white"/>
<path opacity="0.8" d="M33.4964 107.989C35.1594 106.587 35.0307 103.699 33.209 101.538C31.3874 99.3781 28.5626 98.7637 26.8996 100.166C25.2367 101.568 25.3654 104.456 27.1871 106.617C29.0087 108.777 31.8335 109.391 33.4964 107.989Z" fill="#3AB36C"/>
<path opacity="0.8" d="M103.721 106.573C105.797 104.656 106.284 101.806 104.808 100.208C103.332 98.6101 100.453 98.8687 98.3772 100.786C96.3011 102.703 95.8145 105.552 97.2902 107.15C98.7659 108.749 101.645 108.49 103.721 106.573Z" fill="#3AB36C"/>
<path d="M41.0464 49.9014C43.6705 49.9014 45.7978 47.7741 45.7978 45.1499C45.7978 42.5257 43.6705 40.3984 41.0464 40.3984C38.4222 40.3984 36.2949 42.5257 36.2949 45.1499C36.2949 47.7741 38.4222 49.9014 41.0464 49.9014Z" fill="#FEB7B7"/>
<path d="M98.5776 49.9014C101.202 49.9014 103.329 47.7741 103.329 45.1499C103.329 42.5257 101.202 40.3984 98.5776 40.3984C95.9535 40.3984 93.8262 42.5257 93.8262 45.1499C93.8262 47.7741 95.9535 49.9014 98.5776 49.9014Z" fill="#FEB7B7"/>
<path d="M55.4148 89.9446C54.5847 89.9446 53.8786 89.7824 53.2966 89.458C52.7146 89.124 52.2709 88.5802 51.9656 87.8264C51.6698 87.0726 51.5219 86.0517 51.5219 84.7637C51.5219 83.4756 51.6698 82.4594 51.9656 81.7152C52.2709 80.971 52.7146 80.4414 53.2966 80.1266C53.8786 79.8117 54.5847 79.6543 55.4148 79.6543C56.2544 79.6543 56.9605 79.8117 57.5329 80.1266C58.115 80.4414 58.5539 80.971 58.8496 81.7152C59.155 82.4594 59.3076 83.4756 59.3076 84.7637C59.3076 86.0517 59.155 87.0726 58.8496 87.8264C58.5539 88.5802 58.115 89.124 57.5329 89.458C56.9605 89.7824 56.2544 89.9446 55.4148 89.9446ZM55.4148 88.0554C55.7964 88.0554 56.1208 87.9648 56.388 87.7835C56.6647 87.6022 56.8746 87.273 57.0177 86.7959C57.1704 86.3189 57.2467 85.6415 57.2467 84.7637C57.2467 83.8763 57.1704 83.2037 57.0177 82.7457C56.8746 82.2781 56.6647 81.9633 56.388 81.8011C56.1208 81.6293 55.7964 81.5435 55.4148 81.5435C55.0427 81.5435 54.7183 81.6293 54.4416 81.8011C54.1649 81.9633 53.9502 82.2781 53.7975 82.7457C53.6544 83.2037 53.5829 83.8763 53.5829 84.7637C53.5829 85.6415 53.6544 86.3189 53.7975 86.7959C53.9502 87.273 54.1649 87.6022 54.4416 87.7835C54.7183 87.9648 55.0427 88.0554 55.4148 88.0554ZM61.6834 89.9446C60.9964 89.9446 60.6529 89.6202 60.6529 88.9714V85.5365C60.6529 84.6205 60.944 83.8954 61.526 83.3611C62.1175 82.8268 62.8952 82.5596 63.8588 82.5596C64.8225 82.5596 65.5953 82.8268 66.1774 83.3611C66.7689 83.8954 67.0647 84.6205 67.0647 85.5365V88.9714C67.0647 89.6202 66.7212 89.9446 66.0342 89.9446C65.3473 89.9446 65.0038 89.6202 65.0038 88.9714V85.651C65.0038 85.2026 64.9036 84.8638 64.7032 84.6348C64.5029 84.3963 64.2214 84.277 63.8588 84.277C63.4963 84.277 63.2148 84.3963 63.0144 84.6348C62.8141 84.8638 62.7139 85.2026 62.7139 85.651V88.9714C62.7139 89.6202 62.3704 89.9446 61.6834 89.9446ZM72.3124 89.9446C71.4823 89.9446 70.7762 89.7824 70.1942 89.458C69.6122 89.124 69.1685 88.5802 68.8632 87.8264C68.5674 87.0726 68.4195 86.0517 68.4195 84.7637C68.4195 83.4756 68.5674 82.4594 68.8632 81.7152C69.1685 80.971 69.6122 80.4414 70.1942 80.1266C70.7762 79.8117 71.4823 79.6543 72.3124 79.6543C73.152 79.6543 73.8581 79.8117 74.4305 80.1266C75.0126 80.4414 75.4515 80.971 75.7472 81.7152C76.0526 82.4594 76.2052 83.4756 76.2052 84.7637C76.2052 86.0517 76.0526 87.0726 75.7472 87.8264C75.4515 88.5802 75.0126 89.124 74.4305 89.458C73.8581 89.7824 73.152 89.9446 72.3124 89.9446ZM72.3124 88.0554C72.694 88.0554 73.0184 87.9648 73.2856 87.7835C73.5623 87.6022 73.7722 87.273 73.9153 86.7959C74.068 86.3189 74.1443 85.6415 74.1443 84.7637C74.1443 83.8763 74.068 83.2037 73.9153 82.7457C73.7722 82.2781 73.5623 81.9633 73.2856 81.8011C73.0184 81.6293 72.694 81.5435 72.3124 81.5435C71.9403 81.5435 71.6159 81.6293 71.3392 81.8011C71.0625 81.9633 70.8478 82.2781 70.6951 82.7457C70.552 83.2037 70.4804 83.8763 70.4804 84.7637C70.4804 85.6415 70.552 86.3189 70.6951 86.7959C70.8478 87.273 71.0625 87.6022 71.3392 87.7835C71.6159 87.9648 71.9403 88.0554 72.3124 88.0554Z" fill="#18231C"/>
</g>
<defs>
<linearGradient id="paint0_linear_69_11005" x1="82.7774" y1="87.0145" x2="93.7577" y2="100.419" gradientUnits="userSpaceOnUse">
<stop stop-color="#95D99E"/>
<stop offset="1" stop-color="#C5ECB3"/>
</linearGradient>
<clipPath id="clip0_69_11005">
<rect width="100.85" height="105.071" fill="white" transform="translate(16.3252 8.72656)"/>
</clipPath>
</defs>
</svg>
