<svg width="105" height="44" viewBox="0 0 105 44" fill="none" xmlns="http://www.w3.org/2000/svg">
<path d="M17.1999 43.4798C13.7199 43.4798 10.7599 42.7998 8.31988 41.4398C5.87988 40.0398 4.01988 37.7598 2.73988 34.5998C1.49988 31.4398 0.879883 27.1598 0.879883 21.7598C0.879883 16.3598 1.49988 12.0998 2.73988 8.97984C4.01988 5.85984 5.87988 3.63984 8.31988 2.31984C10.7599 0.999844 13.7199 0.339844 17.1999 0.339844C20.7199 0.339844 23.6799 0.999844 26.0799 2.31984C28.5199 3.63984 30.3599 5.85984 31.5999 8.97984C32.8799 12.0998 33.5199 16.3598 33.5199 21.7598C33.5199 27.1598 32.8799 31.4398 31.5999 34.5998C30.3599 37.7598 28.5199 40.0398 26.0799 41.4398C23.6799 42.7998 20.7199 43.4798 17.1999 43.4798ZM17.1999 35.5598C18.7999 35.5598 20.1599 35.1798 21.2799 34.4198C22.4399 33.6598 23.3199 32.2798 23.9199 30.2798C24.5599 28.2798 24.8799 25.4398 24.8799 21.7598C24.8799 18.0398 24.5599 15.2198 23.9199 13.2998C23.3199 11.3398 22.4399 10.0198 21.2799 9.33984C20.1599 8.61984 18.7999 8.25984 17.1999 8.25984C15.6399 8.25984 14.2799 8.61984 13.1199 9.33984C11.9599 10.0198 11.0599 11.3398 10.4199 13.2998C9.81988 15.2198 9.51988 18.0398 9.51988 21.7598C9.51988 25.4398 9.81988 28.2798 10.4199 30.2798C11.0599 32.2798 11.9599 33.6598 13.1199 34.4198C14.2799 35.1798 15.6399 35.5598 17.1999 35.5598Z" fill="#68D076"/>
<path d="M42.4799 43.4798C39.5999 43.4798 38.1599 42.1198 38.1599 39.3998L39.1599 27.9998C39.1599 24.1598 40.3799 21.1198 42.8199 18.8798C45.2999 16.6398 48.5599 15.5198 52.5999 15.5198C56.6399 15.5198 59.8799 16.6398 62.3199 18.8798C64.7999 21.1198 66.0399 24.1598 66.0399 27.9998L67.0399 39.3998C67.0399 42.1198 65.5999 43.4798 62.7199 43.4798C59.8399 43.4798 58.3999 42.1198 58.3999 39.3998L57.3999 28.4798C57.3999 26.5998 56.9799 25.1798 56.1399 24.2198C55.2999 23.2198 54.1199 22.7198 52.5999 22.7198C51.0799 22.7198 49.8999 23.2198 49.0599 24.2198C48.2199 25.1798 47.7999 26.5998 47.7999 28.4798L46.7999 39.3998C46.7999 42.1198 45.3599 43.4798 42.4799 43.4798Z" fill="#68D076"/>
<path d="M88.0397 43.4798C84.5597 43.4798 81.5997 42.7998 79.1597 41.4398C76.7197 40.0398 74.8597 37.7598 73.5797 34.5998C72.3397 31.4398 71.7197 27.1598 71.7197 21.7598C71.7197 16.3598 72.3397 12.0998 73.5797 8.97984C74.8597 5.85984 76.7197 3.63984 79.1597 2.31984C81.5997 0.999844 84.5597 0.339844 88.0397 0.339844C91.5597 0.339844 94.5197 0.999844 96.9197 2.31984C99.3597 3.63984 101.2 5.85984 102.44 8.97984C103.72 12.0998 104.36 16.3598 104.36 21.7598C104.36 27.1598 103.72 31.4398 102.44 34.5998C101.2 37.7598 99.3597 40.0398 96.9197 41.4398C94.5197 42.7998 91.5597 43.4798 88.0397 43.4798ZM88.0397 35.5598C89.6397 35.5598 90.9997 35.1798 92.1197 34.4198C93.2797 33.6598 94.1597 32.2798 94.7597 30.2798C95.3997 28.2798 95.7197 25.4398 95.7197 21.7598C95.7197 18.0398 95.3997 15.2198 94.7597 13.2998C94.1597 11.3398 93.2797 10.0198 92.1197 9.33984C90.9997 8.61984 89.6397 8.25984 88.0397 8.25984C86.4797 8.25984 85.1197 8.61984 83.9597 9.33984C82.7997 10.0198 81.8997 11.3398 81.2597 13.2998C80.6597 15.2198 80.3597 18.0398 80.3597 21.7598C80.3597 25.4398 80.6597 28.2798 81.2597 30.2798C81.8997 32.2798 82.7997 33.6598 83.9597 34.4198C85.1197 35.1798 86.4797 35.5598 88.0397 35.5598Z" fill="#68D076"/>
</svg>
