<svg width="350" height="200" viewBox="0 0 350 200" fill="none" xmlns="http://www.w3.org/2000/svg">
<g clip-path="url(#clip0_86_9039)">
<path d="M209.527 100.691C209.527 101.428 209.464 102.173 209.543 102.902C209.651 103.92 208.428 105.033 207.191 105.138C205.808 105.255 204.569 104.234 204.56 103.019C204.539 99.8362 204.57 96.6531 204.56 93.4699C204.551 90.5498 204.501 87.6311 204.496 84.7124C204.49 81.8223 204.516 78.9308 204.527 76.0407C204.527 75.9935 204.534 75.9449 204.534 75.8977C204.551 74.6042 204.479 74.5784 203.199 74.5942C201.122 74.6213 199.044 74.5727 196.967 74.5713C194.7 74.5713 192.435 74.5942 190.168 74.5999C187.993 74.6056 185.816 74.5999 183.753 74.5999C183.063 75.4032 182.4 76.1764 181.661 77.0355C182.4 79.1938 182.035 81.4078 180.659 83.5532C182.071 83.649 183.224 84.2422 184.163 85.2398C185.274 86.4205 185.902 87.7998 185.854 89.4549C185.831 90.2268 185.924 91.0058 185.844 91.769C185.664 93.4842 184.431 94.6892 182.7 94.9293C182.231 94.995 181.759 95.0365 181.295 95.0879C181.295 96.5044 181.299 97.8937 181.295 99.2816C181.285 101.507 181.25 103.734 181.26 105.959C181.269 107.999 181.295 110.04 181.369 112.078C181.419 113.461 180.917 114.538 179.672 115.076C178.163 115.726 175.902 114.94 175.909 112.84C175.922 108.835 175.849 104.83 175.815 100.825C175.808 99.9119 175.815 98.9986 175.692 98.0395C175.39 98.7027 175.076 99.3602 174.791 100.031C174.315 101.15 173.621 102.004 172.371 102.326C171.49 102.552 170.613 102.36 170.1 101.591C169.591 100.828 168.961 100.282 168.121 99.9162C167.698 99.7333 167.347 99.3817 166.904 99.0643C166.045 99.8862 165.166 100.761 164.25 101.593C163.557 102.222 162.659 102.376 161.784 102.286C161.014 102.207 160.268 101.902 159.502 101.694C159.502 103.918 159.502 106.251 159.502 108.582C159.502 110.026 159.556 111.471 159.496 112.912C159.422 114.697 158.636 115.15 157.318 115.227C155.563 115.332 154.323 114.375 154.305 112.937C154.248 108.641 154.239 104.344 154.219 100.049C154.21 98.3897 154.219 96.7317 154.219 95.0479C153.606 94.9722 153.037 94.9379 152.484 94.8264C151.01 94.5276 149.651 93.2798 149.492 92.0134C149.385 91.1544 149.396 90.2797 149.384 89.4106C149.362 87.9956 149.496 86.5934 150.564 85.54C151.21 84.9025 151.992 84.3994 152.727 83.8548C152.907 83.7219 153.143 83.6633 153.434 83.5347C152.379 82.051 151.961 80.4158 152.206 78.7135C152.381 77.5014 152.154 76.7196 151.275 75.7677C150.487 74.9143 149.842 74.587 148.742 74.6328C146.689 74.7185 144.63 74.6571 142.463 74.6571C142.463 75.8677 142.467 77.0869 142.463 78.3076C142.454 80.3044 142.426 82.3026 142.43 84.2993C142.434 86.339 142.48 88.3787 142.48 90.4183C142.48 91.6876 142.404 92.9568 142.404 94.2261C142.404 95.5711 142.471 96.9161 142.478 98.2611C142.486 99.5618 142.451 100.861 142.446 102.162C142.444 102.49 142.494 102.821 142.494 103.149C142.494 103.964 142.01 104.684 141.241 104.932C140.106 105.296 139.008 105.255 138.162 104.3C137.89 103.994 137.736 103.535 137.656 103.122C137.527 102.46 137.504 101.777 137.419 100.91C137.004 101.579 136.781 102.192 136.351 102.57C135.738 103.112 135.818 103.723 135.823 104.394C135.842 106.737 135.831 109.081 135.823 111.424C135.822 111.94 135.873 112.474 135.755 112.965C135.656 113.375 135.428 113.836 135.11 114.097C134.19 114.853 133.081 114.904 132.021 114.49C130.918 114.058 130.395 113.172 130.486 111.947C130.528 111.382 130.492 110.811 130.491 110.242C130.483 107.688 130.476 105.135 130.471 102.581C130.461 98.5798 130.446 94.5777 130.443 90.577C130.442 87.1337 130.456 83.6919 130.461 80.2486C130.463 78.3933 130.461 76.5381 130.461 74.6714C129.453 74.6714 128.491 74.6685 127.529 74.6714C126.721 74.6742 125.934 74.6542 125.212 74.1797C123.967 73.365 124.003 72.1643 124 70.8722C123.994 68.3366 125.777 66.9044 127.219 65.2306C128.324 63.9499 129.276 62.5235 130.475 61.3457C131.171 60.6625 130.792 60.0922 130.782 59.4361C130.754 57.425 130.774 55.4125 130.744 53.4C130.728 52.4124 131.007 51.5862 131.873 50.9902C131.375 50.144 130.869 49.3407 130.435 48.5017C130.312 48.2645 130.378 47.9157 130.393 47.6212C130.429 46.9437 130.548 46.2634 130.521 45.5902C130.486 44.7712 130.642 44.4538 131.411 44.0837C132.074 43.7649 132.526 44.0522 132.986 44.4982C134.466 45.9346 135.122 47.8285 135.901 49.6552C135.984 49.8496 136.071 50.0425 136.151 50.2384C136.314 50.6357 136.512 50.7686 137.007 50.65C138.428 50.3113 139.793 50.6543 141.055 51.3118C141.747 51.672 142.045 52.3295 141.958 53.1528C141.938 53.3371 142.133 53.5701 142.278 53.7359C142.38 53.8503 142.608 53.8474 142.714 53.9589C143.53 54.8251 144.531 54.7765 145.61 54.6879C147.042 54.5721 148.489 54.6178 149.928 54.5692C150.111 54.5635 150.345 54.4577 150.458 54.3177C150.707 54.0075 150.893 53.6487 151.102 53.3114C149.272 51.5105 147.756 49.5423 146.922 47.141C145.939 44.3095 145.767 41.4137 146.308 38.4549C146.613 36.7812 147.104 35.2004 147.994 33.7453C148.073 33.6167 148.039 33.3351 147.947 33.1979C146.12 30.4836 145.979 27.5691 147.344 24.7205C149.262 20.7184 153.694 18.9002 157.809 20.6812C159.136 21.2558 160.304 22.1563 161.02 23.4898C161.243 23.9058 161.484 23.9458 161.933 23.8157C164.18 23.1654 166.474 23.0024 168.787 23.3569C169.776 23.5084 170.743 23.8014 171.728 23.9858C171.877 24.0144 172.136 23.8443 172.234 23.6942C173.872 21.2229 176.196 19.9965 179.128 20.0523C182.23 20.1109 184.558 21.6646 185.919 24.366C187.389 27.2861 187.181 30.2248 185.135 32.8963C184.795 33.3408 184.795 33.6581 185.075 34.1412C186.149 35.9851 186.523 38.029 186.701 40.1301C186.932 42.8616 186.568 45.4815 185.325 48.0972C186.369 48.0972 187.331 48.1358 188.284 48.0729C188.567 48.0543 188.873 47.7956 189.096 47.5741C189.634 47.0367 190.121 46.4492 190.643 45.8946C191.001 45.513 191.419 45.4287 191.823 45.8089C192.612 46.5521 193.403 47.2968 194.152 48.0786C194.553 48.4989 194.282 48.9005 193.976 49.2693C193.373 50.0011 192.785 50.7443 192.182 51.4762C191.932 51.7806 191.872 52.0279 192.118 52.4124C192.499 53.0084 192.769 53.6745 193.081 54.3134C193.231 54.6221 193.411 54.6793 193.79 54.6636C195.044 54.615 196.303 54.6721 197.559 54.705C198.374 54.7265 199.2 54.8837 200.002 54.7951C201.132 54.6707 202.246 54.3806 203.364 54.149C203.85 54.049 204.328 53.9203 204.879 53.7874C205.005 52.9841 205.41 52.3037 206.228 51.915C206.342 51.8606 206.442 51.7177 206.491 51.5919C207.329 49.4622 208.066 47.2868 209.032 45.2185C209.415 44.3995 208.951 43.7849 209.035 43.0774C209.09 42.6186 209.085 42.1512 209.072 41.6895C209.067 41.4951 209.034 41.2464 208.912 41.1206C207.429 39.5898 205.926 38.0776 204.399 36.5311C204.13 37.1171 203.874 37.7403 203.564 38.3349C203.335 38.7737 203.072 39.2053 202.762 39.5913C202.154 40.346 201.268 40.2459 200.456 40.1844C198.994 40.0729 197.692 39.4326 196.491 38.6522C195.588 38.0662 194.765 37.3415 193.959 36.6197C192.747 35.5348 191.792 34.2298 191.257 32.6976C190.994 31.9415 190.628 31.0653 191.134 30.2692C191.477 29.7289 191.898 29.1643 192.424 28.827C194.167 27.7064 196.014 26.7759 198.157 26.7559C198.683 26.7501 199.093 26.7659 199.399 26.2256C201.108 23.214 204.244 23.7343 205.945 26.0626C206.355 26.6244 206.605 27.3462 206.77 28.0323C207 28.9856 206.374 29.6931 205.781 30.3178C205.136 30.9995 205.112 30.9967 205.754 31.6828C206.69 32.6862 207.599 33.7153 208.515 34.7372C209.787 36.158 211.028 37.6073 212.338 38.9909C212.649 39.3183 213.162 39.4955 213.615 39.6341C214.251 39.8285 215.337 41.0535 215.539 41.7967C215.968 43.379 215.517 44.6625 214.211 45.5773C213.439 46.1176 213.087 46.8566 212.743 47.6613C211.95 49.518 211.128 51.3618 210.31 53.2085C210.094 53.6959 210.385 53.8689 210.769 53.9518C211.672 54.149 212.579 54.3277 213.486 54.5035C214.588 54.7179 215.524 55.2453 216.355 55.9857C217.13 56.6761 217.188 57.618 217.137 58.5285C217.111 59.0016 217.244 59.2403 217.541 59.5476C218.506 60.541 219.434 61.5701 220.37 62.5906C221.825 64.1758 223.257 65.7838 224.738 67.346C225.583 68.2365 226.049 69.2356 225.987 70.4705C225.963 70.9451 225.969 71.4225 225.969 71.8985C225.969 73.5708 224.679 74.7828 223.01 74.7371C221.257 74.6885 219.502 74.6957 217.748 74.6728C217.378 74.6685 217.105 74.7057 217.117 75.2002C217.175 77.6029 217.238 80.0056 217.251 82.4083C217.27 86.166 217.254 89.9238 217.244 93.6829C217.231 98.1839 217.204 102.683 217.195 107.184C217.192 108.888 217.211 110.592 217.251 112.294C217.284 113.711 216.292 114.74 214.853 114.668C214.299 114.641 213.711 114.587 213.209 114.375C211.74 113.756 211.685 112.427 211.692 111.088C211.702 109.073 211.634 107.053 211.727 105.042C211.777 103.958 211.472 103.128 210.768 102.338C210.323 101.837 210.026 101.205 209.663 100.632L209.52 100.694L209.527 100.691ZM183.592 66.4884C183.998 66.3012 184.412 66.1311 184.808 65.9238C186.58 64.9948 187.861 63.6626 188.163 61.6058C188.357 60.278 188.147 59.0273 187.035 58.1211C186.795 57.9253 186.375 57.7809 186.089 57.8438C185.58 57.9567 185.1 58.2255 184.625 58.4642C183.509 59.0245 182.328 59.4161 181.092 59.1788C179.591 58.8915 178.103 58.4985 176.648 58.0354C175.956 57.8152 175.349 57.5308 174.606 57.8395C174.457 57.901 174.107 57.6137 173.937 57.4122C173.885 57.3507 174.078 56.9677 174.244 56.859C174.8 56.4945 175.38 56.1644 175.973 55.8628C179.065 54.2962 181.432 51.9807 183.233 49.0306C184.501 46.9538 185.193 44.6754 185.293 42.3084C185.416 39.4255 184.757 36.6225 183.409 34.0369C183.073 33.3922 183.194 32.9792 183.653 32.4803C185 31.0196 185.527 29.3044 185.223 27.3119C184.754 24.2317 182.787 22.2949 179.823 21.6403C177.3 21.0828 174.365 22.5908 173.046 24.9778C172.897 25.2451 172.715 25.4938 172.537 25.7682C172.341 25.7082 172.16 25.661 171.986 25.5967C168.514 24.3203 165.042 24.1873 161.58 25.6167C160.904 25.8954 160.535 25.7582 160.194 25.0678C159.153 22.9624 157.462 21.656 155.081 21.5074C151.743 21.2987 148.959 23.4355 148.236 26.7044C147.998 27.7764 147.908 28.8598 148.176 29.9847C148.427 31.0453 149.006 31.8657 149.625 32.6933C149.879 33.0321 149.95 33.3136 149.671 33.7024C149.259 34.2784 148.797 34.8673 148.582 35.5248C147.823 37.8503 147.341 40.2516 147.523 42.7058C147.757 45.8717 148.982 48.6589 151.014 51.1088C152.934 53.4229 155.27 55.151 158.024 56.343C159.001 56.7661 158.987 56.799 158.526 57.7895C158.152 57.7095 157.755 57.6008 157.349 57.548C157.082 57.5137 156.783 57.4994 156.533 57.5808C154.482 58.2555 152.452 58.993 150.391 59.6362C148.999 60.0707 147.648 60.5567 146.645 61.6601C145.506 62.9137 145.286 65.3092 147.591 66.0782C148.304 66.3155 149.065 66.4041 149.792 66.6056C150.201 66.7186 150.353 66.5942 150.541 66.2226C151.425 64.4888 152.89 63.5326 154.815 63.5054C159.159 63.444 163.502 63.4811 167.848 63.464C169.378 63.4582 170.909 63.3882 172.44 63.3911C174.355 63.3954 176.271 63.4783 178.186 63.4668C179.75 63.4582 181.222 63.6741 182.351 64.8704C182.817 65.3635 183.183 65.9496 183.59 66.487L183.592 66.4884ZM155.26 76.1264C155.25 75.9706 155.231 75.8577 155.237 75.7448C155.282 74.8943 155.327 74.0425 155.387 73.1934C155.42 72.726 155.745 72.4859 156.154 72.5674C156.313 72.5988 156.483 73.0105 156.496 73.2563C156.574 74.7886 156.626 76.3222 156.653 77.8559C156.702 80.5331 156.782 83.2131 156.725 85.8888C156.709 86.6449 157.009 86.7121 157.541 86.7349C157.752 86.7435 157.967 86.6949 158.18 86.6978C158.829 86.7063 159.099 86.4448 159.083 85.7501C159.052 84.4237 159.133 83.0958 159.133 81.768C159.133 79.8084 159.103 77.8488 159.092 75.8891C159.086 74.8357 159.092 73.7837 159.092 72.726C160.196 72.7918 160.318 72.8947 160.341 73.8281C160.359 74.5985 160.345 75.3703 160.345 76.1679H173.478C173.495 75.9449 173.521 75.7605 173.521 75.5747C173.524 74.8157 173.463 74.0496 173.546 73.2992C173.574 73.0534 173.938 72.7146 174.201 72.656C174.586 72.5702 174.887 72.7432 174.879 73.2992C174.853 75.1702 174.93 77.0441 174.899 78.915C174.861 81.0991 174.737 83.2817 174.684 85.4671C174.676 85.8373 174.708 86.3461 174.939 86.5563C175.423 86.9979 176.068 86.8821 176.677 86.6978C177.21 86.5362 177.248 86.1189 177.266 85.6829C177.277 85.3771 177.253 85.0712 177.255 84.7653C177.293 81.6708 177.336 78.5763 177.37 75.4818C177.381 74.457 177.371 73.4321 177.371 72.393C175.623 72.7346 174.553 72.2444 174.001 70.9051C173.649 70.0489 173.962 69.1427 174.813 68.5552C175.826 67.8549 177.537 67.9235 178.312 68.7954C179.535 70.1747 178.488 71.2252 177.643 72.3101C178.616 72.6103 178.602 73.4078 178.662 74.164C178.715 74.8386 178.756 75.5132 178.803 76.1936C178.935 76.185 179.005 76.185 179.074 76.1736C179.167 76.1579 179.258 76.1221 179.352 76.115C181.108 75.9735 182.177 74.9258 182.455 73.3063C182.711 71.8141 182.758 70.2476 182.633 68.7368C182.418 66.1425 180.62 64.7404 178.172 64.7046C175.999 64.6717 173.825 64.6818 171.653 64.6818C169.083 64.6818 166.513 64.6975 163.943 64.7018C161.268 64.7046 158.593 64.7061 155.918 64.6989C153.619 64.6918 151.559 65.728 151.303 68.3866C151.17 69.7745 151.183 71.1238 151.345 72.4945C151.55 74.2368 153.008 76.2851 155.26 76.135V76.1264ZM193.86 56.0057C193.97 56.2501 194.077 56.486 194.183 56.7218C195.524 59.7263 196.88 62.725 198.2 65.7395C198.81 67.1345 198.454 67.6162 196.886 67.6433C196.839 67.6433 196.792 67.6376 196.743 67.6362C195.467 67.6062 194.19 67.5547 192.915 67.5519C190.773 67.5476 188.629 67.5519 186.486 67.5962C185.686 67.6119 184.887 67.7462 183.933 67.8434C184.236 68.2808 184.395 68.5095 184.448 68.5853H223.779C221.388 65.9539 219.079 63.4139 216.725 60.8226C215.524 62.119 213.876 62.3862 212.24 62.4934C210.052 62.635 207.849 62.6721 205.656 62.6092C204.268 62.5692 202.871 62.3448 201.508 62.0561C199.832 61.7002 198.976 60.6482 198.964 59.1788C198.956 58.1111 198.963 57.0434 198.963 56.0071H193.861L193.86 56.0057ZM184.135 73.1763C184.259 73.1977 184.328 73.222 184.396 73.222C187.071 73.1977 189.744 73.1506 192.418 73.1477C195.055 73.1448 197.692 73.202 200.331 73.1991C202.486 73.1963 204.643 73.112 206.798 73.122C210.24 73.1377 213.682 73.1934 217.124 73.2463C219.005 73.2749 220.886 73.3321 222.767 73.375C223.457 73.3907 224.332 72.8147 224.385 72.2115C224.451 71.4697 224.401 70.7178 224.401 70.0203H184.316C184.249 71.1909 184.193 72.1672 184.136 73.1748L184.135 73.1763ZM149.958 68.2537C149.935 68.1993 149.914 68.1436 149.891 68.0893C149.193 67.9921 148.496 67.8849 147.797 67.8006C145.872 67.5661 144.055 65.6637 144.246 63.9785C144.447 62.229 145.241 60.7597 146.725 59.7677C147.757 59.0773 148.607 58.2769 149.075 57.1049C149.222 56.7375 149.425 56.3931 149.627 55.9914H144.625C144.654 56.1587 144.677 56.343 144.717 56.5231C145.176 58.5728 144.092 60.2165 142.018 60.6367C141.882 60.6639 141.688 60.8011 141.664 60.9169C141.462 61.8774 140.676 62.2333 139.906 62.3262C138.246 62.5249 136.564 62.6249 134.892 62.6078C134.057 62.5992 133.231 62.2219 132.39 62.0561C132.199 62.0175 131.896 62.0961 131.768 62.2362C130.272 63.887 128.798 65.5579 127.323 67.226C126.979 67.6162 126.649 68.0178 126.313 68.4152C126.353 68.4752 126.391 68.5367 126.431 68.5967C126.914 68.5724 127.398 68.5295 127.882 68.5281C131.16 68.5167 134.438 68.4995 137.716 68.5152C139.85 68.5252 141.982 68.6024 144.115 68.6267C145.877 68.6482 147.64 68.6482 149.402 68.6239C149.588 68.621 149.771 68.3837 149.955 68.2565L149.958 68.2537ZM160.464 85.6086C161.493 85.9059 162.561 86.3161 163.667 86.5105C165.741 86.8764 167.843 86.9379 169.937 86.6535C170.871 86.5262 171.795 86.3118 172.705 86.0646C172.929 86.0031 173.229 85.6672 173.239 85.4471C173.342 83.0229 173.379 80.5945 173.471 78.1704C173.492 77.6029 173.269 77.49 172.766 77.4986C171.441 77.5214 170.115 77.4986 168.788 77.4971C166.041 77.4957 163.295 77.4971 160.464 77.4971V85.61V85.6086ZM213.106 74.6899C213.106 76.5138 213.102 78.2504 213.106 79.987C213.115 83.6947 213.137 87.4024 213.137 91.1101C213.137 95.0551 213.119 99 213.112 102.945C213.106 106.007 213.105 109.068 213.105 112.13C213.105 112.903 213.681 113.319 214.694 113.29C215.406 113.27 215.862 112.79 215.832 112.078C215.805 111.421 215.737 110.765 215.74 110.109C215.749 108.234 215.799 106.357 215.807 104.482C215.823 100.497 215.827 96.513 215.829 92.528C215.829 88.8046 215.829 85.0812 215.806 81.3578C215.799 80.2272 215.703 79.0966 215.679 77.9645C215.656 76.8854 215.675 75.8034 215.675 74.6899H213.106ZM131.727 74.6256C131.806 75.0959 131.91 75.4189 131.904 75.7391C131.871 77.3128 131.793 78.8836 131.763 80.4573C131.728 82.234 131.703 84.0106 131.721 85.7873C131.741 87.774 131.851 89.7608 131.857 91.7476C131.866 94.6248 131.8 97.5035 131.8 100.381C131.8 102.287 131.864 104.196 131.884 106.102C131.904 108.021 131.921 109.939 131.907 111.855C131.899 113.039 132.808 113.634 133.878 113.05C134.155 112.899 134.463 112.514 134.478 112.223C134.54 111.112 134.49 109.994 134.478 108.88C134.446 105.451 134.398 102.022 134.384 98.5927C134.377 96.8217 134.451 95.0493 134.447 93.277C134.436 88.5645 134.398 83.8534 134.376 79.1409C134.368 77.6487 134.376 76.155 134.376 74.6242H131.728L131.727 74.6256ZM184.441 89.9681C183.892 90.1324 183.475 90.3383 183.043 90.3726C181.814 90.4683 180.579 90.5127 179.345 90.5427C177.09 90.5984 174.833 90.6556 172.576 90.6656C169.26 90.6799 165.944 90.6627 162.628 90.6399C159.871 90.6213 157.113 90.6084 154.358 90.5212C153.173 90.4841 151.992 90.2639 150.777 90.1239C150.777 90.3354 150.761 90.5956 150.78 90.8543C150.884 92.3694 151.733 93.4199 152.955 93.51C153.732 93.5671 154.512 93.5929 155.29 93.5914C157.819 93.5886 160.348 93.5514 162.878 93.5586C165.15 93.5643 167.422 93.6257 169.694 93.6329C172.018 93.64 174.343 93.6186 176.667 93.5971C178.651 93.58 180.636 93.5614 182.618 93.5143C183.442 93.4942 184.401 92.5566 184.436 91.7747C184.464 91.1916 184.442 90.607 184.442 89.9666L184.441 89.9681ZM149.945 73.2392C149.861 72.3587 149.749 71.4968 149.707 70.6335C149.681 70.1175 149.504 69.9245 148.972 69.9488C148.131 69.986 147.287 69.9589 146.445 69.9431C144.305 69.9031 142.167 69.8316 140.029 69.8173C138.583 69.8073 137.138 69.896 135.695 69.8988C133.844 69.9017 131.991 69.8531 130.14 69.8402C128.611 69.8288 127.083 69.8374 125.409 69.8374C125.409 70.2962 125.445 70.7664 125.402 71.231C125.282 72.5202 125.775 73.1777 127.065 73.2234C128.695 73.282 130.331 73.2678 131.964 73.2663C135.686 73.2635 139.408 73.2463 143.132 73.2406C145.39 73.2363 147.648 73.2406 149.947 73.2406L149.945 73.2392ZM205.882 74.6413C205.866 74.7657 205.841 74.8786 205.841 74.9915C205.845 77.1755 205.846 79.3596 205.862 81.5436C205.871 82.8686 205.916 84.1936 205.919 85.52C205.924 86.8893 205.889 88.2586 205.886 89.6293C205.884 90.4283 205.955 91.2287 205.906 92.0235C205.864 92.7395 206.011 93.4356 205.971 94.1546C205.889 95.6168 205.924 97.0833 205.908 98.5498C205.895 99.8848 205.844 101.221 205.891 102.555C205.902 102.894 206.158 103.424 206.42 103.51C206.858 103.654 207.407 103.575 207.873 103.452C208.008 103.417 208.058 102.905 208.07 102.608C208.113 101.589 208.036 100.557 208.178 99.5532C208.271 98.9014 208.158 98.4111 207.805 97.9009C207.349 97.2405 206.901 96.5702 206.504 95.8741C206.151 95.2566 206.288 94.5977 206.768 94.4004C207.454 94.1203 207.579 94.6992 207.837 95.1151C209.004 96.9861 210.192 98.8457 211.375 100.717C211.612 100.574 211.762 100.521 211.76 100.479C211.685 99.3845 211.775 98.2339 211.455 97.2134C211.168 96.2986 210.436 95.5196 209.884 94.6906C209.36 93.9045 208.858 93.0969 208.263 92.3651C207.912 91.9334 207.474 91.6261 208.095 91.1001C208.171 91.0358 208.205 90.8857 208.206 90.7742C208.211 90.0295 208.206 89.2849 208.195 88.5387C208.171 87.0479 208.122 85.5586 208.112 84.0678C208.092 81.1205 208.082 78.1732 208.089 75.2245C208.089 74.6942 207.895 74.4884 207.374 74.5399C206.908 74.5856 206.44 74.6042 205.878 74.6399L205.882 74.6413ZM139.051 74.6228C139.012 75.4403 138.941 76.2894 138.937 77.1384C138.917 80.1586 138.877 83.1787 138.928 86.1975C138.959 88.0656 138.704 89.9624 139.301 91.799C139.33 91.8862 139.264 92.0306 139.2 92.1178C138.622 92.8939 137.969 93.6229 137.469 94.4448C136.841 95.4753 135.888 96.3729 135.803 97.6607C135.729 98.7856 135.788 99.9205 135.788 101.051C135.848 101.074 135.909 101.097 135.969 101.12C136.818 99.5446 137.674 97.9738 138.511 96.3929C138.766 95.9112 138.979 95.4053 139.192 94.9021C139.458 94.2747 139.94 94.3004 140.439 94.5048C140.975 94.7249 140.753 95.2023 140.619 95.5153C140.359 96.1199 139.946 96.6574 139.67 97.2562C139.35 97.9538 138.944 98.6713 138.871 99.4088C138.758 100.559 138.887 101.734 138.931 102.898C138.954 103.512 139.324 103.821 139.961 103.807C140.778 103.79 141.135 103.487 141.122 102.823C141.079 100.639 141.018 98.454 140.999 96.27C140.993 95.5439 141.136 94.8178 141.143 94.0917C141.153 93.044 141.073 91.9949 141.082 90.9472C141.103 88.0856 141.175 85.2255 141.182 82.3655C141.186 80.3973 141.138 78.4276 141.076 76.4609C141.008 74.2197 141.391 74.6957 139.161 74.5642C139.142 74.5642 139.122 74.5842 139.052 74.6228H139.051ZM173.519 87.2938C169.054 88.6274 164.719 88.7274 160.537 87.1151C160.155 87.3953 159.852 87.7869 159.493 87.8484C158.577 88.007 157.628 88.1228 156.706 88.0571C155.81 87.9927 155.115 87.1609 155.294 86.4991C155.531 85.62 155.185 85.0955 154.482 84.7081C154.279 84.791 154.096 84.9011 153.897 84.944C152.71 85.2055 151.901 85.9817 151.224 86.9207C150.576 87.8212 151.073 88.9633 152.205 89.0376C154.057 89.1605 155.916 89.2191 157.772 89.232C159.663 89.2448 161.554 89.1534 163.447 89.1391C164.862 89.1291 166.277 89.1762 167.693 89.1877C168.525 89.1934 169.356 89.1648 170.187 89.1762C171.838 89.1991 173.488 89.2577 175.139 89.2677C177.243 89.2806 179.347 89.2105 181.448 89.2777C182.384 89.3077 183.204 89.119 183.956 88.6202C184.105 88.5216 184.231 88.1071 184.149 87.9913C183.595 87.2037 183.091 86.3204 182.358 85.7387C181.631 85.1627 180.65 84.9039 179.99 84.6024C178.603 84.9154 178.782 85.8502 178.765 86.7492C178.759 87.0465 178.518 87.4396 178.265 87.6125C177.21 88.3329 175.998 88.3301 174.78 88.2229C174.15 88.1671 173.611 87.9956 173.525 87.2938H173.519ZM187.584 56.313C188.774 57.8253 189.882 59.2603 189.766 61.2456C189.651 63.2181 188.466 64.5803 187.207 65.9138C187.931 66.2726 195.528 66.2197 196.746 65.8338C196.48 65.2506 196.214 64.6732 195.954 64.0929C194.433 60.7096 192.921 57.3236 191.384 53.9489C191.229 53.6087 190.927 53.3343 190.66 52.9855C189.583 54.1504 188.607 55.2067 187.585 56.3144L187.584 56.313ZM132.196 53.0956C132.196 54.039 132.186 54.9466 132.199 55.8528C132.213 56.8633 132.323 57.8796 132.256 58.8844C132.193 59.8235 132.649 60.6982 133.589 60.9212C135.548 61.3857 137.53 61.2371 139.503 61.0355C140.109 60.9741 140.493 60.3366 140.486 59.752C140.467 58.2598 140.476 56.7675 140.474 55.2753C140.474 54.5364 140.474 53.7988 140.474 52.977C137.614 53.9075 134.943 53.3414 132.196 53.097V53.0956ZM177.244 95.0065C177.274 95.3981 177.333 95.7655 177.326 96.1314C177.287 98.0495 177.184 99.9677 177.191 101.884C177.2 104.141 177.31 106.397 177.354 108.654C177.378 109.919 177.408 111.189 177.338 112.451C177.29 113.316 177.571 113.746 178.462 113.824C179.507 113.912 179.87 113.658 179.92 112.667C179.986 111.371 179.884 110.067 179.884 108.767C179.887 105.861 179.91 102.955 179.92 100.049C179.925 98.3725 179.92 96.6959 179.92 95.0065H177.243H177.244ZM158.228 94.8964C157.279 94.9464 156.469 94.9908 155.655 95.0336C155.611 95.2309 155.541 95.3924 155.543 95.5539C155.563 97.1719 155.613 98.7885 155.617 100.405C155.624 102.945 155.6 105.486 155.597 108.026C155.597 109.52 155.644 111.014 155.613 112.506C155.593 113.475 155.997 113.964 156.96 113.955C157.829 113.948 158.265 113.423 158.188 112.5C158.147 112.006 158.1 111.508 158.107 111.014C158.125 109.859 158.194 108.704 158.207 107.547C158.228 105.519 158.224 103.491 158.225 101.463C158.228 99.283 158.225 97.1033 158.225 94.895L158.228 94.8964ZM193.436 29.9018C197.263 31.5698 200.169 34.1484 202.588 37.3615C202.808 36.7983 203.022 36.3224 203.182 35.8307C203.911 33.5981 204.081 31.4641 202.147 29.6631C200.992 28.5868 199.713 28.0423 198.089 28.2495C196.441 28.4596 194.939 28.9813 193.436 29.9018ZM209.544 74.6285C209.544 75.7834 209.546 76.8668 209.544 77.9517C209.538 80.8346 209.543 83.7176 209.518 86.6006C209.506 88.1028 209.254 89.6293 209.45 91.1015C209.65 92.6052 210.875 93.6686 211.808 94.855V74.6285H209.546H209.544ZM137.506 74.6542C137.038 74.6542 136.654 74.6042 136.294 74.6756C136.112 74.7114 135.842 74.9672 135.839 75.1287C135.798 77.4528 135.786 79.7769 135.782 82.101C135.778 84.781 135.789 87.461 135.792 90.141C135.793 91.5932 135.792 93.0454 135.792 94.4976C135.885 94.5176 135.978 94.5376 136.071 94.5577C136.598 93.6186 137.13 92.6809 137.646 91.7362C137.72 91.5989 137.756 91.4217 137.753 91.263C137.713 89.1705 137.659 87.0794 137.614 84.9868C137.574 83.1201 137.53 81.252 137.509 79.3853C137.491 77.823 137.504 76.2608 137.504 74.6556L137.506 74.6542ZM210.555 55.3597C210.58 56.4531 210.026 56.9648 209.148 57.2564C207.429 57.8281 206.077 57.3236 205.115 55.7456C205.015 55.5812 204.742 55.3625 204.611 55.3982C203.484 55.7041 202.359 56.0286 201.261 56.4259C200.971 56.5303 200.777 56.9005 200.538 57.1492C200.777 57.355 200.985 57.6752 201.26 57.7481C202.28 58.0225 203.322 58.2212 204.359 58.4399C206.961 58.9873 209.577 58.9258 212.181 58.4899C213.173 58.3241 214.147 58.0039 215.103 57.6809C215.58 57.5194 215.717 57.1849 215.197 56.8133C213.825 55.8342 212.238 55.5783 210.558 55.3597H210.555ZM169.96 94.965C169.776 95.0965 169.577 95.1923 169.437 95.3438C169.004 95.814 168.581 96.2972 168.175 96.7917C167.658 97.422 167.752 98.3711 168.442 98.7656C168.758 98.9471 169.217 98.9543 169.601 98.9257C170.176 98.8814 170.398 99.1229 170.488 99.6547C170.646 100.582 171.111 101.03 171.888 101.087C172.516 101.133 173.058 100.604 173.411 99.8262C174.005 98.5155 174.687 97.2462 175.316 95.9513C175.43 95.7154 175.592 95.3681 175.499 95.2037C175.406 95.0379 175.021 94.9779 174.764 94.975C173.189 94.955 171.612 94.965 169.96 94.965ZM159.669 99.9134C159.942 100.009 160.181 100.058 160.382 100.174C160.71 100.361 161 100.609 161.327 100.798C162.392 101.413 163.43 100.985 163.66 99.7847C163.783 99.1501 164.127 99.0858 164.657 99.1044C165.528 99.1344 166.307 98.0038 165.867 97.2677C165.396 96.4815 164.769 95.7869 164.196 95.0636C164.139 94.9922 163.987 94.9707 163.878 94.9693C162.486 94.9636 161.094 94.965 159.669 94.965V99.9134ZM179.853 57.4794C180.506 56.7332 180.922 55.9871 181.555 55.5855C183.669 54.2462 185.11 52.2551 186.763 50.4699C187.021 50.1926 187.149 49.7953 187.377 49.3808C186.635 49.3222 186.019 49.3207 185.421 49.215C184.834 49.1106 184.496 49.4108 184.193 49.8081C183.549 50.6529 182.946 51.5319 182.272 52.3538C181.659 53.1027 181.033 53.8546 180.313 54.4949C179.455 55.2582 178.493 55.9042 177.517 56.6461C178.392 56.9591 179.227 57.2578 179.854 57.4822L179.853 57.4794ZM192.512 31.1839C192.692 31.8743 192.714 32.5346 193.021 33.0106C193.667 34.0083 194.377 34.9945 195.218 35.8278C196.41 37.0099 197.756 38.0433 199.463 38.3978C200.026 38.515 200.624 38.4664 201.205 38.4921C201.247 38.3906 201.29 38.2877 201.331 38.1862C200.691 37.423 200.052 36.6583 199.347 35.8178C199.081 36.7026 198.798 36.8998 197.938 36.9213C197.872 36.7297 197.805 36.5339 197.741 36.351C198.121 36.0737 198.473 35.8178 198.987 35.4433C198.001 34.6386 197.142 33.9111 196.246 33.2336C196.084 33.1107 195.767 33.1921 195.505 33.1793C195.499 32.5847 193.936 31.4183 192.514 31.1868L192.512 31.1839ZM200.549 58.903C200.385 59.5276 200.624 60.0178 201.268 60.2708C201.9 60.5195 202.536 60.804 203.198 60.924C205.605 61.3614 208.039 61.3972 210.472 61.2228C212.083 61.107 213.736 61.1313 215.184 60.2065C215.624 59.9249 215.829 59.6033 215.623 59.1702C210.552 60.3552 205.548 60.5024 200.548 58.903H200.549ZM189.002 49.8239C188.521 50.3956 188.121 50.8858 187.707 51.3618C186.696 52.5196 185.734 53.7259 184.647 54.8065C183.86 55.5869 183.429 56.7761 182.178 57.0634C181.952 57.1149 181.756 57.2907 181.546 57.4093C181.639 57.5222 181.731 57.6337 181.824 57.7466C182.23 57.5365 182.637 57.3321 183.039 57.1163C183.37 56.9391 183.682 56.6246 184.025 56.5889C185.143 56.4731 185.98 55.9042 186.709 55.1224C187.535 54.2362 188.344 53.3371 189.16 52.441C189.541 52.0236 189.917 51.6034 190.238 51.2489C189.796 50.7415 189.401 50.2855 189.002 49.8253V49.8239ZM214.104 42.773C214.102 41.6895 213.34 40.8048 212.397 40.789C211.314 40.7705 210.387 41.6867 210.386 42.7787C210.386 43.5419 211.608 44.5668 212.5 44.5496C213.275 44.5339 214.107 43.6134 214.105 42.773H214.104ZM210.412 45.513C209.564 47.5741 208.721 49.628 207.868 51.7034C208.156 51.8063 208.322 51.8406 208.462 51.9207C209.124 52.2952 209.476 52.0565 209.723 51.3847C210.212 50.0525 210.753 48.7404 211.271 47.4183C211.429 47.0138 211.579 46.6064 211.724 46.2277C211.221 45.9532 210.831 45.7417 210.412 45.513ZM210.959 39.5084C208.932 37.2857 206.986 35.1518 205.127 33.1164C205.105 33.4394 205.032 33.954 205.043 34.4685C205.049 34.7587 205.107 35.1232 205.289 35.3204C206.151 36.2566 207.067 37.1414 207.953 38.0547C208.608 38.7279 209.247 39.4169 209.9 40.1058C210.295 39.8828 210.619 39.7013 210.958 39.5098L210.959 39.5084ZM204.416 29.8461C204.8 29.2558 205.523 28.5768 205.113 27.6049C204.637 26.4757 203.777 25.6867 202.492 25.651C201.73 25.6295 201.194 26.157 200.828 26.6658C202.06 27.7578 203.228 28.7927 204.416 29.8461ZM152.058 54.2333C151.017 55.4111 150.39 56.6989 149.997 58.1969C151.758 57.6509 153.417 57.1363 155.242 56.5689C154.511 56.0815 153.985 55.7599 153.49 55.394C152.997 55.0295 152.534 54.6221 152.058 54.2333ZM178.806 83.3231C180.154 82.5841 180.767 79.5311 180.63 78.3347C180.553 77.6701 180.383 77.0898 179.481 77.4957C179.341 77.5586 179.125 77.4528 178.806 77.4028V83.3217V83.3231ZM155.28 77.7273C154.795 77.6329 154.329 77.5415 153.846 77.4471C153.108 79.078 153.834 82.5141 155.28 83.456V77.7273ZM206.367 54.6407C206.34 55.4711 206.958 56.0414 207.882 56.0386C208.432 56.0372 209.084 55.4454 209.094 54.9366C209.107 54.2948 208.365 53.3586 207.823 53.3357C207.064 53.3028 206.39 53.9075 206.365 54.6407H206.367ZM132.383 49.0634C132.842 50.0211 133.285 50.9473 133.712 51.8378H135.246C134.767 50.7172 134.317 49.6681 133.874 48.6304C133.308 48.7947 132.842 48.9305 132.383 49.0634ZM141.97 59.0902C142.897 58.8043 143.38 58.1754 143.337 57.4465C143.287 56.5632 142.617 55.6698 141.97 55.5869V59.0902ZM192.564 48.8162C192.121 48.3988 191.717 48.0072 191.297 47.6341C191.209 47.5555 191.041 47.494 190.936 47.5212C190.322 47.6813 190.065 48.4688 190.438 48.9906C191.48 50.4428 191.612 50.4356 192.564 48.8162ZM176.522 69.2285C176.036 69.5315 175.639 69.7788 175.243 70.026C175.45 70.3362 175.613 70.855 175.876 70.9108C176.294 70.9994 176.801 70.8393 177.22 70.6621C177.387 70.592 177.566 70.0918 177.48 69.9746C177.274 69.6916 176.917 69.5186 176.524 69.2285H176.522ZM133.612 47.221C133.131 46.7451 132.789 46.4077 132.447 46.0704C132.226 46.412 131.984 46.7422 131.791 47.0981C131.7 47.2682 131.704 47.4883 131.628 47.8757C132.29 47.657 132.822 47.4826 133.612 47.221ZM166.799 96.2128C167.149 95.7097 167.432 95.3009 167.78 94.8007C167.063 94.8364 166.493 94.865 165.855 94.8964C166.161 95.3224 166.444 95.7169 166.8 96.2114L166.799 96.2128ZM138.438 51.7034C137.936 51.7549 137.44 51.8063 136.944 51.8564C138.202 52.3895 138.503 52.3323 138.438 51.7034Z" fill="#495057"/>
<path d="M128.415 114.544C127.833 114.651 127.582 114.251 127.552 113.825C127.51 113.251 128.025 113.171 128.456 113.164C128.962 113.157 129.43 113.316 129.417 113.943C129.403 114.631 128.824 114.474 128.415 114.544Z" fill="#495057"/>
<path d="M218.868 114.422C218.471 114.472 218.119 114.461 218.101 113.909C218.085 113.444 218.219 113.107 218.751 113.094C219.264 113.081 219.929 112.963 219.986 113.68C220.043 114.398 219.38 114.361 218.868 114.421V114.422Z" fill="#495057"/>
<path d="M183.591 66.4888C183.184 65.9499 182.818 65.3639 182.352 64.8722C181.223 63.6773 179.751 63.4601 178.187 63.4686C176.272 63.4801 174.356 63.3972 172.441 63.3929C170.91 63.39 169.379 63.4601 167.848 63.4658C163.505 63.4829 159.16 63.4443 154.816 63.5072C152.889 63.5344 151.425 64.492 150.542 66.2244C150.353 66.596 150.201 66.7204 149.793 66.6074C149.067 66.4059 148.305 66.3173 147.592 66.08C145.288 65.311 145.507 62.9155 146.646 61.662C147.649 60.5585 149 60.0725 150.392 59.638C152.452 58.9948 154.483 58.2587 156.534 57.5826C156.784 57.4997 157.083 57.514 157.35 57.5498C157.755 57.6026 158.152 57.7113 158.526 57.7913C158.988 56.8008 159.002 56.7679 158.025 56.3448C155.27 55.1542 152.935 53.4247 151.015 51.1106C148.983 48.6607 147.758 45.8721 147.523 42.7076C147.342 40.2534 147.824 37.8521 148.583 35.5266C148.797 34.8691 149.26 34.2802 149.672 33.7042C149.949 33.3154 149.879 33.0339 149.626 32.6951C149.007 31.8675 148.428 31.0471 148.177 29.9865C147.909 28.8616 148.001 27.7782 148.237 26.7062C148.958 23.4373 151.744 21.3005 155.082 21.5092C157.463 21.6578 159.154 22.9642 160.194 25.0696C160.535 25.76 160.903 25.8972 161.581 25.6185C165.043 24.1891 168.516 24.3206 171.986 25.5985C172.161 25.6628 172.342 25.71 172.538 25.77C172.717 25.4956 172.9 25.2469 173.047 24.9796C174.366 22.594 177.301 21.0861 179.823 21.6421C182.788 22.2967 184.755 24.2335 185.223 27.3137C185.526 29.3076 185 31.0214 183.654 32.4821C183.194 32.981 183.074 33.394 183.41 34.0387C184.757 36.6243 185.416 39.4273 185.293 42.3102C185.192 44.6758 184.502 46.9541 183.234 49.0324C181.433 51.9839 179.066 54.2995 175.974 55.8646C175.381 56.1647 174.799 56.4963 174.245 56.8608C174.08 56.9695 173.886 57.3525 173.937 57.414C174.108 57.6155 174.458 57.9028 174.606 57.8413C175.35 57.5326 175.957 57.817 176.649 58.0372C178.105 58.5003 179.593 58.8933 181.093 59.1806C182.329 59.4165 183.51 59.0263 184.626 58.466C185.101 58.2273 185.581 57.9571 186.09 57.8456C186.375 57.7827 186.796 57.9271 187.036 58.1229C188.146 59.0291 188.357 60.2798 188.164 61.6076C187.863 63.6644 186.583 64.998 184.809 65.9256C184.413 66.1329 183.998 66.303 183.593 66.4902L183.591 66.4888ZM154.556 24.2478C152.775 24.2363 151.573 24.9681 150.729 26.2502C149.612 27.9497 150.279 30.4553 152.073 31.3573C152.319 31.4802 152.765 31.4602 152.992 31.3115C153.542 30.9527 154.025 30.4882 154.524 30.0523C155.329 29.3519 156.079 28.5786 156.937 27.954C157.647 27.4366 157.885 26.9649 157.472 26.1731C156.817 24.9195 155.696 24.395 154.554 24.2478H154.556ZM179.345 24.2921C177.927 24.1906 176.529 25.0096 175.928 26.2917C175.581 27.0335 175.747 27.5495 176.44 27.9726C176.7 28.1312 176.948 28.3228 177.172 28.53C178.064 29.3533 178.906 30.2352 179.849 30.9913C180.175 31.2515 180.858 31.4316 181.18 31.2643C182.279 30.6926 182.951 29.7107 183.098 28.4514C183.335 26.4332 181.483 24.2578 179.346 24.2906L179.345 24.2921ZM150.585 40.049C149.885 40.0333 148.938 40.9109 148.943 41.5698C148.947 42.1773 149.776 43.0549 150.346 43.0549C151.23 43.0549 151.94 42.3188 151.939 41.4026C151.939 40.6465 151.357 40.0647 150.585 40.049ZM183.46 41.8071C183.457 41.081 182.679 40.1734 182.052 40.1619C181.311 40.1491 180.518 40.9524 180.519 41.7156C180.519 42.3903 181.263 43.1835 181.902 43.1936C182.596 43.205 183.462 42.4331 183.46 41.8071Z" fill="#C5ECB3"/>
<path d="M155.26 76.1256C153.011 76.2757 151.553 74.2274 151.345 72.4851C151.183 71.1143 151.171 69.765 151.304 68.3772C151.56 65.7186 153.62 64.6838 155.919 64.6895C158.594 64.6966 161.269 64.6952 163.944 64.6923C166.514 64.6895 169.083 64.6738 171.653 64.6723C173.826 64.6723 176 64.6623 178.173 64.6952C180.621 64.7324 182.419 66.1331 182.634 68.7274C182.758 70.2396 182.712 71.8047 182.456 73.2969C182.178 74.9164 181.108 75.9641 179.353 76.1056C179.259 76.1127 179.169 76.1499 179.074 76.1642C179.006 76.1756 178.934 76.1756 178.804 76.1842C178.757 75.5038 178.716 74.8292 178.663 74.1545C178.603 73.3998 178.617 72.6008 177.644 72.3007C178.488 71.2172 179.535 70.1653 178.313 68.7859C177.539 67.9141 175.828 67.8454 174.814 68.5458C173.963 69.1333 173.65 70.0409 174.002 70.8956C174.554 72.2364 175.623 72.7252 177.372 72.3836C177.372 73.4227 177.382 74.449 177.371 75.4724C177.336 78.5669 177.294 81.6614 177.256 84.7559C177.252 85.0618 177.276 85.3691 177.266 85.6735C177.251 86.1109 177.211 86.5283 176.678 86.6883C176.069 86.8727 175.424 86.9885 174.939 86.5468C174.711 86.3382 174.676 85.8279 174.685 85.4577C174.738 83.2737 174.862 81.0911 174.899 78.9056C174.931 77.0346 174.854 75.1608 174.879 73.2898C174.887 72.7338 174.586 72.5608 174.202 72.6466C173.939 72.7052 173.574 73.0439 173.547 73.2898C173.463 74.0402 173.523 74.8049 173.522 75.5653C173.522 75.7497 173.496 75.9355 173.479 76.1584H160.346C160.346 75.3609 160.36 74.589 160.342 73.8186C160.319 72.8853 160.197 72.7824 159.092 72.7166C159.092 73.7743 159.087 74.8263 159.092 75.8797C159.104 77.8393 159.135 79.799 159.134 81.7586C159.134 83.0864 159.052 84.4143 159.084 85.7407C159.101 86.4353 158.829 86.6969 158.181 86.6883C157.968 86.6855 157.755 86.7341 157.542 86.7255C157.01 86.7026 156.71 86.6369 156.725 85.8793C156.783 83.2036 156.703 80.5251 156.654 77.8465C156.627 76.3128 156.574 74.7777 156.497 73.2469C156.484 73.0011 156.314 72.5894 156.155 72.558C155.746 72.4765 155.42 72.7166 155.388 73.184C155.328 74.0345 155.283 74.8849 155.238 75.7354C155.232 75.8469 155.25 75.9598 155.26 76.117V76.1256ZM157.4 72.568C159.155 72.4393 159.797 71.596 159.887 69.9794C159.931 69.1905 158.639 68.1013 157.762 68.1056C156.334 68.1127 155.076 69.1819 155.062 70.4011C155.049 71.4331 156.268 72.5608 157.4 72.568Z" fill="#EBC684"/>
<path d="M193.86 56.0053H198.961C198.961 57.0416 198.954 58.1093 198.963 59.177C198.974 60.6464 199.829 61.6984 201.507 62.0543C202.869 62.343 204.267 62.5674 205.655 62.6074C207.847 62.6703 210.05 62.6346 212.238 62.4916C213.875 62.3859 215.523 62.1172 216.723 60.8208C219.077 63.4121 221.386 65.9521 223.777 68.5835H184.446C184.393 68.5077 184.235 68.279 183.932 67.8416C184.886 67.7459 185.684 67.6115 186.484 67.5944C188.627 67.5515 190.771 67.5443 192.914 67.5501C194.19 67.5529 195.466 67.6044 196.741 67.6344C196.788 67.6344 196.836 67.643 196.884 67.6415C198.452 67.6158 198.81 67.1341 198.198 65.7377C196.879 62.7232 195.522 59.7259 194.181 56.72C194.076 56.4842 193.968 56.2483 193.858 56.0039L193.86 56.0053Z" fill="#FFE6B7"/>
<path d="M184.134 73.177C184.191 72.1679 184.247 71.1917 184.314 70.0225H224.399C224.399 70.7185 224.449 71.4704 224.383 72.2136C224.328 72.8182 223.455 73.3928 222.765 73.3771C220.884 73.3342 219.003 73.2771 217.122 73.2485C213.68 73.1956 210.238 73.1398 206.796 73.1241C204.641 73.1141 202.485 73.1999 200.329 73.2013C197.691 73.2042 195.053 73.1456 192.416 73.1498C189.742 73.1527 187.069 73.1984 184.394 73.2242C184.326 73.2242 184.256 73.2013 184.133 73.1784L184.134 73.177Z" fill="#FFE6B7"/>
<path d="M149.958 68.2544C149.773 68.383 149.59 68.6203 149.404 68.6217C147.642 68.6474 145.88 68.646 144.117 68.6246C141.983 68.5988 139.851 68.5231 137.718 68.5131C134.441 68.4973 131.163 68.5145 127.884 68.5259C127.401 68.5274 126.918 68.5702 126.434 68.5945C126.394 68.5345 126.355 68.473 126.315 68.413C126.651 68.0157 126.981 67.614 127.325 67.2238C128.801 65.5544 130.274 63.8835 131.771 62.234C131.896 62.0954 132.2 62.0168 132.392 62.0539C133.231 62.2197 134.059 62.5971 134.894 62.6056C136.565 62.6242 138.247 62.5227 139.908 62.3241C140.677 62.2326 141.464 61.8767 141.666 60.9147C141.69 60.799 141.885 60.6617 142.02 60.6346C144.094 60.2129 145.178 58.5706 144.719 56.521C144.679 56.3409 144.656 56.1565 144.628 55.9893H149.629C149.427 56.3909 149.224 56.7354 149.077 57.1027C148.61 58.2748 147.759 59.0766 146.727 59.7656C145.242 60.7575 144.447 62.2254 144.249 63.9764C144.056 65.6616 145.874 67.564 147.799 67.7984C148.498 67.8842 149.196 67.9914 149.893 68.0871C149.916 68.1414 149.938 68.1972 149.96 68.2515L149.958 68.2544Z" fill="#FFE6B7"/>
<path d="M160.464 85.609V77.4961C163.295 77.4961 166.043 77.4961 168.788 77.4961C170.115 77.4961 171.441 77.5204 172.766 77.4975C173.269 77.4889 173.492 77.6019 173.471 78.1693C173.378 80.5949 173.342 83.0219 173.239 85.446C173.229 85.6662 172.931 86.0021 172.705 86.0635C171.796 86.3108 170.871 86.5252 169.937 86.6524C167.845 86.9368 165.741 86.8754 163.667 86.5095C162.561 86.3151 161.492 85.9034 160.464 85.6076V85.609Z" fill="#C5ECB3"/>
<path d="M213.105 74.6904H215.674C215.674 75.8039 215.655 76.8859 215.678 77.965C215.703 79.0971 215.798 80.2262 215.805 81.3583C215.828 85.0817 215.828 88.8051 215.828 92.5285C215.828 96.5135 215.824 100.497 215.807 104.482C215.8 106.357 215.75 108.234 215.74 110.109C215.737 110.765 215.804 111.423 215.831 112.079C215.861 112.791 215.405 113.271 214.693 113.291C213.68 113.32 213.104 112.904 213.104 112.13C213.104 109.069 213.104 106.007 213.111 102.945C213.118 99.0005 213.138 95.0556 213.137 91.1106C213.137 87.4029 213.114 83.6952 213.105 79.9875C213.101 78.2509 213.105 76.5143 213.105 74.6904Z" fill="#FFE6B7"/>
<path d="M131.726 74.626H134.373C134.373 76.1568 134.368 77.6504 134.373 79.1427C134.396 83.8552 134.433 88.5663 134.445 93.2788C134.449 95.0497 134.375 96.8221 134.382 98.5944C134.396 102.023 134.443 105.452 134.476 108.881C134.488 109.996 134.538 111.114 134.476 112.225C134.461 112.518 134.153 112.902 133.876 113.052C132.804 113.635 131.895 113.041 131.905 111.857C131.919 109.939 131.902 108.021 131.882 106.104C131.862 104.196 131.798 102.289 131.798 100.383C131.798 97.5053 131.865 94.6266 131.855 91.7494C131.849 89.7626 131.739 87.7758 131.719 85.7891C131.701 84.0124 131.726 82.2357 131.761 80.4591C131.791 78.8854 131.869 77.3146 131.902 75.7409C131.909 75.4207 131.803 75.0977 131.725 74.6274L131.726 74.626Z" fill="#FFE6B7"/>
<path d="M184.441 89.9678C184.441 90.6081 184.463 91.1941 184.435 91.7759C184.4 92.5577 183.441 93.4954 182.617 93.5154C180.633 93.5625 178.649 93.5811 176.666 93.5983C174.341 93.6183 172.017 93.6412 169.693 93.634C167.421 93.6269 165.149 93.5654 162.877 93.5597C160.347 93.554 157.818 93.5911 155.288 93.5926C154.51 93.5926 153.731 93.5683 152.954 93.5111C151.732 93.421 150.883 92.3705 150.779 90.8554C150.762 90.5967 150.776 90.3365 150.776 90.125C151.992 90.2651 153.172 90.4852 154.357 90.5224C157.112 90.6095 159.87 90.621 162.627 90.641C165.943 90.6639 169.259 90.681 172.575 90.6667C174.832 90.6567 177.089 90.5995 179.344 90.5438C180.578 90.5138 181.813 90.4695 183.042 90.3737C183.473 90.3408 183.891 90.1336 184.44 89.9692L184.441 89.9678Z" fill="#EBC684"/>
<path d="M149.945 73.2393C147.647 73.2393 145.389 73.2364 143.13 73.2393C139.408 73.2464 135.686 73.2621 131.963 73.265C130.329 73.265 128.695 73.2793 127.063 73.2221C125.774 73.1764 125.281 72.5189 125.401 71.2296C125.444 70.7651 125.408 70.2934 125.408 69.836C127.08 69.836 128.61 69.8274 130.139 69.8389C131.99 69.8517 133.842 69.9003 135.693 69.8975C137.138 69.8961 138.583 69.8074 140.027 69.816C142.167 69.8303 144.305 69.9018 146.443 69.9418C147.285 69.9575 148.13 69.9847 148.97 69.9475C149.502 69.9246 149.679 70.1162 149.705 70.6322C149.748 71.4969 149.859 72.3574 149.944 73.2378L149.945 73.2393Z" fill="#FFE6B7"/>
<path d="M205.882 74.6419C206.445 74.6062 206.912 74.589 207.378 74.5418C207.899 74.4904 208.095 74.6962 208.093 75.2265C208.086 78.1738 208.094 81.121 208.116 84.0698C208.126 85.5606 208.175 87.0499 208.199 88.5407C208.212 89.2854 208.215 90.0301 208.21 90.7762C208.21 90.8877 208.175 91.0378 208.099 91.1021C207.478 91.6281 207.916 91.9339 208.267 92.367C208.862 93.0989 209.364 93.9064 209.888 94.6926C210.44 95.5216 211.172 96.2991 211.459 97.2153C211.779 98.2359 211.689 99.3865 211.764 100.481C211.766 100.524 211.615 100.576 211.379 100.719C210.194 98.8476 209.008 96.9881 207.842 95.1171C207.583 94.7011 207.458 94.1223 206.772 94.4024C206.291 94.5982 206.155 95.2586 206.508 95.876C206.905 96.5721 207.351 97.2439 207.809 97.9028C208.162 98.4131 208.275 98.9048 208.182 99.5552C208.04 100.559 208.117 101.591 208.074 102.61C208.062 102.907 208.012 103.419 207.877 103.454C207.411 103.579 206.862 103.656 206.424 103.512C206.162 103.426 205.906 102.895 205.895 102.557C205.848 101.223 205.899 99.8868 205.912 98.5518C205.926 97.0867 205.893 95.6188 205.975 94.1566C206.015 93.4376 205.866 92.7401 205.91 92.0254C205.958 91.2307 205.888 90.4289 205.89 89.6313C205.895 88.262 205.928 86.8927 205.923 85.522C205.919 84.197 205.875 82.872 205.866 81.5456C205.85 79.3615 205.849 77.1775 205.845 74.9935C205.845 74.8806 205.87 74.7677 205.886 74.6433L205.882 74.6419Z" fill="#FFE6B7"/>
<path d="M139.051 74.6241C139.121 74.5841 139.141 74.5641 139.159 74.5655C141.389 74.697 141.005 74.221 141.075 76.4622C141.135 78.4304 141.185 80.3986 141.18 82.3668C141.173 85.2269 141.103 88.0884 141.08 90.9485C141.072 91.9962 141.152 93.0453 141.142 94.093C141.135 94.8191 140.992 95.5452 140.997 96.2713C141.015 98.4568 141.076 100.641 141.12 102.825C141.133 103.489 140.776 103.791 139.96 103.808C139.321 103.823 138.952 103.514 138.929 102.899C138.885 101.736 138.758 100.561 138.869 99.4102C138.942 98.6726 139.348 97.9551 139.668 97.2576C139.944 96.6587 140.357 96.1198 140.617 95.5167C140.752 95.2036 140.973 94.7262 140.437 94.5061C139.938 94.3017 139.455 94.276 139.191 94.9035C138.978 95.4066 138.765 95.9126 138.509 96.3943C137.673 97.9751 136.817 99.5459 135.968 101.121C135.908 101.098 135.846 101.075 135.786 101.052C135.786 99.9219 135.728 98.7884 135.802 97.6621C135.886 96.3743 136.84 95.4781 137.467 94.4461C137.967 93.6242 138.62 92.8953 139.198 92.1191C139.262 92.0334 139.328 91.8876 139.299 91.8004C138.702 89.9637 138.958 88.0684 138.926 86.1988C138.875 83.1801 138.915 80.1585 138.935 77.1397C138.941 76.2907 139.011 75.4417 139.049 74.6241H139.051Z" fill="#FFE6B7"/>
<path d="M173.519 87.294C173.605 87.9958 174.143 88.1687 174.774 88.223C175.992 88.3302 177.204 88.3331 178.259 87.6127C178.513 87.4398 178.753 87.0467 178.759 86.7494C178.777 85.8503 178.599 84.9156 179.984 84.6025C180.645 84.9056 181.625 85.1628 182.352 85.7389C183.087 86.3206 183.59 87.2054 184.143 87.9915C184.225 88.1073 184.099 88.5232 183.95 88.6204C183.198 89.1178 182.378 89.3079 181.442 89.2779C179.341 89.2093 177.235 89.2807 175.133 89.2679C173.482 89.2579 171.832 89.1993 170.181 89.1764C169.351 89.165 168.519 89.195 167.687 89.1878C166.272 89.1764 164.857 89.1292 163.441 89.1392C161.55 89.1521 159.657 89.245 157.766 89.2321C155.909 89.2193 154.051 89.1593 152.199 89.0378C151.067 88.9634 150.571 87.8214 151.218 86.9209C151.894 85.9804 152.703 85.2057 153.891 84.9441C154.09 84.8998 154.274 84.7912 154.476 84.7083C155.179 85.0957 155.525 85.6217 155.288 86.4993C155.109 87.1625 155.804 87.9943 156.7 88.0572C157.622 88.123 158.571 88.0058 159.487 87.8486C159.846 87.7871 160.149 87.3955 160.531 87.1153C164.714 88.7276 169.048 88.6275 173.513 87.294H173.519Z" fill="#EBC684"/>
<path d="M187.583 56.3133C188.606 55.2056 189.581 54.1493 190.657 52.9844C190.925 53.3331 191.228 53.6076 191.382 53.9477C192.919 57.3224 194.431 60.7085 195.952 64.0917C196.212 64.672 196.479 65.2495 196.743 65.8326C195.526 66.2186 187.929 66.2714 187.204 65.9127C188.463 64.5805 189.648 63.217 189.764 61.2445C189.881 59.2606 188.772 57.8241 187.581 56.3119L187.583 56.3133Z" fill="#FBFFE4"/>
<path d="M132.196 53.0966C134.943 53.341 137.615 53.9071 140.475 52.9766C140.475 53.7984 140.475 54.536 140.475 55.2749C140.475 56.7671 140.468 58.2594 140.486 59.7516C140.493 60.3376 140.109 60.9737 139.503 61.0351C137.53 61.2381 135.548 61.3853 133.59 60.9208C132.649 60.6978 132.193 59.8231 132.256 58.884C132.323 57.8792 132.213 56.8643 132.199 55.8524C132.186 54.9448 132.196 54.0371 132.196 53.0952V53.0966Z" fill="#FFD380"/>
<path d="M177.244 95.0078H179.921C179.921 96.6987 179.926 98.3739 179.921 100.05C179.911 102.956 179.887 105.862 179.886 108.768C179.886 110.069 179.987 111.372 179.921 112.669C179.871 113.659 179.508 113.914 178.463 113.825C177.573 113.749 177.291 113.318 177.34 112.453C177.41 111.191 177.38 109.921 177.356 108.655C177.313 106.398 177.201 104.143 177.193 101.886C177.186 99.9676 177.287 98.0509 177.327 96.1327C177.334 95.7668 177.276 95.3994 177.246 95.0078H177.244Z" fill="#EBC684"/>
<path d="M158.228 94.8965C158.228 97.1048 158.229 99.2845 158.228 101.464C158.225 103.492 158.229 105.521 158.209 107.549C158.198 108.704 158.128 109.859 158.109 111.015C158.102 111.51 158.149 112.007 158.191 112.502C158.268 113.425 157.832 113.949 156.963 113.957C155.999 113.964 155.595 113.476 155.615 112.507C155.646 111.015 155.598 109.521 155.599 108.028C155.601 105.488 155.626 102.946 155.619 100.407C155.615 98.7886 155.564 97.172 155.545 95.5554C155.544 95.3939 155.614 95.2324 155.658 95.0351C156.47 94.9922 157.28 94.9479 158.231 94.8979L158.228 94.8965Z" fill="#EBC684"/>
<path d="M193.436 29.9029C194.939 28.9824 196.441 28.4621 198.089 28.2505C199.713 28.0433 200.992 28.5864 202.147 29.6642C204.08 31.4651 203.911 33.5991 203.182 35.8317C203.022 36.3234 202.808 36.7994 202.588 37.3625C200.171 34.1494 197.263 31.5709 193.436 29.9029Z" fill="#DAFFB8"/>
<path d="M210.554 55.3604C212.236 55.579 213.821 55.8349 215.193 56.814C215.715 57.1856 215.578 57.5201 215.099 57.6816C214.143 58.0046 213.169 58.3248 212.178 58.4906C209.573 58.9265 206.959 58.988 204.355 58.4406C203.319 58.2219 202.277 58.0232 201.256 57.7488C200.982 57.6744 200.773 57.3557 200.534 57.1499C200.773 56.9012 200.967 56.531 201.257 56.4266C202.355 56.0307 203.48 55.7048 204.608 55.3989C204.738 55.3632 205.011 55.5819 205.111 55.7463C206.071 57.3243 207.425 57.8288 209.144 57.2571C210.022 56.9655 210.577 56.4524 210.551 55.3604H210.554Z" fill="#DAFFB8"/>
<path d="M169.96 94.9644C171.612 94.9644 173.187 94.9544 174.764 94.9744C175.021 94.9773 175.406 95.0387 175.499 95.2031C175.591 95.3675 175.43 95.7148 175.316 95.9507C174.687 97.2456 174.005 98.5163 173.41 99.8256C173.057 100.603 172.516 101.132 171.888 101.086C171.111 101.029 170.646 100.582 170.487 99.6541C170.396 99.1209 170.176 98.8808 169.601 98.9251C169.217 98.9551 168.758 98.9465 168.442 98.765C167.753 98.3705 167.657 97.4214 168.175 96.7911C168.581 96.2966 169.004 95.8134 169.437 95.3432C169.577 95.1917 169.776 95.0945 169.96 94.9644Z" fill="#C5ECB3"/>
<path d="M159.669 99.9133V94.965C161.095 94.965 162.488 94.9636 163.878 94.9693C163.987 94.9693 164.138 94.9922 164.196 95.0636C164.769 95.7869 165.396 96.4801 165.867 97.2677C166.307 98.0038 165.526 99.1358 164.657 99.1044C164.127 99.0858 163.781 99.1501 163.66 99.7847C163.428 100.985 162.39 101.414 161.327 100.798C161.001 100.609 160.709 100.361 160.382 100.173C160.181 100.059 159.942 100.011 159.669 99.9133Z" fill="#C5ECB3"/>
<path d="M179.853 57.4801C179.224 57.2557 178.39 56.957 177.516 56.6439C178.492 55.9021 179.454 55.2561 180.311 54.4928C181.03 53.8525 181.658 53.0992 182.271 52.3517C182.944 51.5298 183.547 50.6508 184.192 49.806C184.495 49.4087 184.832 49.1099 185.42 49.2128C186.017 49.3186 186.633 49.3215 187.375 49.3786C187.148 49.7932 187.019 50.1905 186.762 50.4678C185.11 52.2545 183.667 54.2441 181.553 55.5834C180.92 55.985 180.506 56.7297 179.851 57.4772L179.853 57.4801Z" fill="#FBFFE4"/>
<path d="M192.512 31.1845C193.936 31.4161 195.498 32.5824 195.504 33.177C195.767 33.1913 196.083 33.1098 196.244 33.2313C197.14 33.9088 197.999 34.6378 198.986 35.4411C198.471 35.8155 198.119 36.0728 197.739 36.3487C197.802 36.5331 197.871 36.7289 197.936 36.919C198.797 36.8975 199.081 36.7003 199.346 35.8155C200.05 36.656 200.689 37.4192 201.33 38.1839C201.288 38.2854 201.245 38.3883 201.204 38.4898C200.622 38.4627 200.025 38.5113 199.462 38.3955C197.755 38.0424 196.409 37.009 195.216 35.8255C194.376 34.9922 193.666 34.006 193.02 33.0083C192.712 32.5324 192.691 31.872 192.511 31.1816L192.512 31.1845Z" fill="#DAFFB8"/>
<path d="M200.549 58.9033C205.547 60.5027 210.553 60.3555 215.624 59.1706C215.83 59.6037 215.625 59.9253 215.185 60.2069C213.737 61.1316 212.084 61.1074 210.473 61.2231C208.04 61.3975 205.606 61.3618 203.199 60.9244C202.537 60.8043 201.901 60.5199 201.269 60.2712C200.625 60.0182 200.386 59.5279 200.55 58.9033H200.549Z" fill="#DAFFB8"/>
<path d="M189.001 49.8247C189.4 50.2835 189.796 50.7394 190.238 51.2483C189.916 51.6042 189.54 52.0244 189.16 52.4404C188.345 53.3351 187.535 54.2356 186.709 55.1218C185.98 55.9036 185.144 56.4725 184.024 56.5883C183.681 56.624 183.37 56.9385 183.038 57.1157C182.636 57.3315 182.228 57.5359 181.823 57.746C181.73 57.6331 181.639 57.5216 181.546 57.4087C181.756 57.2901 181.953 57.1143 182.178 57.0628C183.428 56.7755 183.859 55.5863 184.646 54.8059C185.734 53.7267 186.696 52.519 187.706 51.3612C188.121 50.8852 188.521 50.3964 189.001 49.8232V49.8247Z" fill="#FFCC00"/>
<path d="M214.103 42.7742C214.104 43.6147 213.272 44.5352 212.498 44.5509C211.607 44.568 210.384 43.5432 210.384 42.7799C210.385 41.6879 211.311 40.7717 212.395 40.7903C213.338 40.8075 214.1 41.6922 214.101 42.7742H214.103Z" fill="#DAFFB8"/>
<path d="M210.411 45.5137C210.83 45.7424 211.22 45.9539 211.724 46.2283C211.579 46.6071 211.428 47.0145 211.27 47.419C210.753 48.7411 210.213 50.0532 209.722 51.3854C209.475 52.0572 209.124 52.2959 208.462 51.9214C208.322 51.8413 208.156 51.807 207.867 51.7041C208.72 49.6301 209.564 47.5762 210.411 45.5137Z" fill="#DAFFB8"/>
<path d="M210.959 39.5086C210.619 39.7002 210.296 39.8817 209.901 40.1047C209.248 39.4157 208.609 38.7268 207.954 38.0536C207.068 37.1402 206.15 36.2555 205.29 35.3193C205.109 35.122 205.05 34.7575 205.044 34.4674C205.033 33.9543 205.104 33.4397 205.129 33.1152C206.987 35.152 208.932 37.286 210.96 39.5072L210.959 39.5086Z" fill="#DAFFB8"/>
<path d="M204.415 29.846C203.227 28.794 202.061 27.7592 200.827 26.6658C201.193 26.1569 201.729 25.6309 202.491 25.6509C203.776 25.6867 204.636 26.4757 205.112 27.6048C205.523 28.5768 204.798 29.2557 204.415 29.846Z" fill="#DAFFB8"/>
<path d="M152.057 54.2334C152.533 54.6222 152.996 55.0295 153.489 55.394C153.984 55.7599 154.511 56.0815 155.242 56.5689C153.416 57.1349 151.757 57.6495 149.996 58.1969C150.389 56.699 151.017 55.4112 152.057 54.2334Z" fill="#FBFFE4"/>
<path d="M178.807 83.3228V77.4039C179.125 77.454 179.341 77.5597 179.481 77.4969C180.383 77.0909 180.553 77.6712 180.63 78.3359C180.769 79.5308 180.155 82.5853 178.807 83.3242V83.3228Z" fill="#A1DEA3"/>
<path d="M155.28 77.7274V83.4562C153.833 82.5157 153.108 79.0781 153.846 77.4473C154.33 77.5416 154.795 77.6316 155.28 77.7274Z" fill="#C5ECB3"/>
<path d="M206.367 54.6412C206.391 53.908 207.066 53.3034 207.825 53.3362C208.367 53.3591 209.109 54.2953 209.096 54.9371C209.086 55.4459 208.434 56.0377 207.884 56.0391C206.959 56.042 206.341 55.4717 206.369 54.6412H206.367Z" fill="#DAFFB8"/>
<path d="M132.382 49.0639C132.841 48.931 133.307 48.7952 133.873 48.6309C134.318 49.6686 134.766 50.7191 135.245 51.8383H133.712C133.284 50.9478 132.841 50.0202 132.382 49.0639Z" fill="#FFCC00"/>
<path d="M141.969 59.0912V55.5879C142.618 55.6708 143.287 56.5641 143.337 57.4475C143.379 58.1764 142.897 58.8053 141.969 59.0912Z" fill="#FFD380"/>
<path d="M192.563 48.8161C191.611 50.4356 191.48 50.4427 190.438 48.9905C190.063 48.4688 190.322 47.6813 190.935 47.5212C191.041 47.494 191.208 47.5555 191.297 47.6341C191.717 48.0071 192.122 48.3988 192.563 48.8161Z" fill="#FF5BB2"/>
<path d="M176.522 69.2285C176.916 69.5187 177.274 69.6916 177.478 69.9746C177.562 70.0918 177.384 70.5921 177.218 70.6621C176.799 70.8379 176.292 70.9995 175.874 70.9108C175.613 70.8551 175.45 70.3362 175.241 70.0261C175.637 69.7788 176.034 69.5315 176.52 69.2285H176.522Z" fill="white"/>
<path d="M133.612 47.2219C132.821 47.482 132.291 47.6578 131.628 47.8765C131.704 47.4892 131.699 47.2691 131.791 47.099C131.982 46.7416 132.225 46.4115 132.447 46.0713C132.789 46.4086 133.13 46.7474 133.612 47.2219Z" fill="#FF5BB2"/>
<path d="M138.438 51.7041C138.505 52.333 138.202 52.3902 136.944 51.857C137.44 51.8056 137.934 51.7556 138.438 51.7041Z" fill="#FFD380"/>
<path d="M154.556 24.2482C155.698 24.3968 156.817 24.9214 157.473 26.1735C157.887 26.9639 157.649 27.437 156.939 27.9544C156.08 28.5791 155.329 29.3523 154.526 30.0527C154.027 30.4872 153.544 30.9532 152.994 31.3119C152.767 31.4592 152.319 31.4806 152.075 31.3577C150.281 30.4558 149.612 27.9501 150.731 26.2507C151.575 24.9686 152.777 24.2367 154.558 24.2482H154.556Z" fill="#495057"/>
<path d="M179.345 24.2932C181.482 24.2603 183.334 26.4357 183.097 28.454C182.95 29.7132 182.278 30.6952 181.179 31.2669C180.859 31.4341 180.174 31.254 179.848 30.9939C178.905 30.2378 178.063 29.3544 177.171 28.5326C176.947 28.3253 176.699 28.1338 176.439 27.9751C175.747 27.5521 175.58 27.0346 175.927 26.2942C176.528 25.0121 177.926 24.1931 179.344 24.2946L179.345 24.2932Z" fill="#495057"/>
<path d="M150.585 40.049C151.357 40.0662 151.937 40.6465 151.939 41.4026C151.939 42.3188 151.23 43.0564 150.347 43.0549C149.776 43.0549 148.949 42.1773 148.943 41.5698C148.937 40.9109 149.885 40.0333 150.585 40.049Z" fill="#495057"/>
<path d="M183.461 41.8074C183.464 42.4335 182.597 43.2039 181.903 43.1939C181.264 43.1839 180.521 42.3906 180.521 41.7159C180.521 40.9527 181.312 40.1494 182.053 40.1623C182.682 40.1737 183.458 41.0813 183.461 41.8074Z" fill="#495057"/>
<path d="M157.399 72.5698C156.266 72.5627 155.048 71.4349 155.061 70.4029C155.076 69.1837 156.333 68.1146 157.761 68.1074C158.64 68.1031 159.93 69.1937 159.886 69.9813C159.796 71.5964 159.154 72.4412 157.399 72.5698ZM157.093 71.0947C157.964 71.1119 158.557 70.6602 158.521 70.1757C158.472 69.5068 157.901 69.5282 157.453 69.4982C156.883 69.4596 156.527 69.8898 156.537 70.3658C156.543 70.6602 156.972 70.9461 157.093 71.0947Z" fill="#495057"/>
<path d="M157.093 71.0941C156.97 70.9454 156.543 70.6596 156.537 70.3651C156.527 69.8892 156.883 69.4589 157.454 69.4975C157.901 69.5275 158.474 69.5061 158.521 70.175C158.557 70.6596 157.964 71.1112 157.093 71.0941Z" fill="white"/>
</g>
<rect opacity="0.5" x="16" y="136" width="318" height="59.8667" rx="19" fill="white" stroke="#B4B4B4" stroke-width="2"/>
<path d="M284.116 166.999H280.916C280.703 166.999 280.518 166.928 280.362 166.786C280.205 166.644 280.113 166.466 280.084 166.253L279.828 164.269C279.643 164.198 279.469 164.112 279.306 164.013C279.142 163.913 278.982 163.806 278.826 163.693L276.97 164.461C276.771 164.532 276.571 164.539 276.372 164.482C276.173 164.425 276.017 164.304 275.903 164.119L274.324 161.367C274.211 161.182 274.175 160.983 274.218 160.77C274.26 160.557 274.367 160.386 274.538 160.258L276.138 159.042C276.123 158.942 276.116 158.846 276.116 158.754V158.178C276.116 158.085 276.123 157.99 276.138 157.89L274.538 156.674C274.367 156.546 274.26 156.375 274.218 156.162C274.175 155.949 274.211 155.75 274.324 155.565L275.903 152.813C276.003 152.614 276.155 152.489 276.361 152.439C276.568 152.389 276.771 152.4 276.97 152.471L278.826 153.239C278.982 153.126 279.146 153.019 279.316 152.919C279.487 152.82 279.658 152.734 279.828 152.663L280.084 150.679C280.113 150.466 280.205 150.288 280.362 150.146C280.518 150.004 280.703 149.933 280.916 149.933H284.116C284.33 149.933 284.515 150.004 284.671 150.146C284.827 150.288 284.92 150.466 284.948 150.679L285.204 152.663C285.389 152.734 285.564 152.82 285.727 152.919C285.891 153.019 286.051 153.126 286.207 153.239L288.063 152.471C288.262 152.4 288.461 152.393 288.66 152.45C288.859 152.507 289.016 152.628 289.13 152.813L290.708 155.565C290.822 155.75 290.858 155.949 290.815 156.162C290.772 156.375 290.666 156.546 290.495 156.674L288.895 157.89C288.909 157.99 288.916 158.085 288.916 158.178V158.754C288.916 158.846 288.902 158.942 288.874 159.042L290.474 160.258C290.644 160.386 290.751 160.557 290.794 160.77C290.836 160.983 290.801 161.182 290.687 161.367L289.108 164.098C288.995 164.283 288.835 164.407 288.629 164.472C288.422 164.535 288.219 164.532 288.02 164.461L286.207 163.693C286.051 163.806 285.887 163.913 285.716 164.013C285.546 164.112 285.375 164.198 285.204 164.269L284.948 166.253C284.92 166.466 284.827 166.644 284.671 166.786C284.515 166.928 284.33 166.999 284.116 166.999ZM282.559 161.453C283.384 161.453 284.088 161.161 284.671 160.578C285.254 159.995 285.546 159.291 285.546 158.466C285.546 157.641 285.254 156.937 284.671 156.354C284.088 155.771 283.384 155.479 282.559 155.479C281.72 155.479 281.012 155.771 280.436 156.354C279.86 156.937 279.572 157.641 279.572 158.466C279.572 159.291 279.86 159.995 280.436 160.578C281.012 161.161 281.72 161.453 282.559 161.453Z" fill="#B4B4B4"/>
<path d="M204.867 163.444V166.999H208.422L218.907 156.514L215.352 152.959L204.867 163.444ZM221.657 153.765C222.026 153.395 222.026 152.798 221.657 152.428L219.438 150.21C219.068 149.84 218.471 149.84 218.101 150.21L216.367 151.945L219.922 155.5L221.657 153.765Z" fill="#B4B4B4"/>
<path d="M79.8792 150.436C78.7649 150.084 77.5401 149.934 76.3655 149.934C74.4078 149.934 72.2996 150.335 70.8439 151.439C69.3882 150.335 67.28 149.934 65.3224 149.934C63.3647 149.934 61.2565 150.335 59.8008 151.439V166.147C59.8008 166.398 60.0518 166.649 60.3027 166.649C60.4031 166.649 60.4533 166.599 60.5537 166.599C61.909 165.946 63.8667 165.494 65.3224 165.494C67.28 165.494 69.3882 165.896 70.8439 167C72.1992 166.147 74.6588 165.494 76.3655 165.494C78.022 165.494 79.7286 165.796 81.1341 166.548C81.2345 166.599 81.2847 166.599 81.3851 166.599C81.6361 166.599 81.8871 166.348 81.8871 166.097V151.439C81.2847 150.988 80.6322 150.687 79.8792 150.436ZM79.8792 163.988C78.7749 163.637 77.5702 163.487 76.3655 163.487C74.6588 163.487 72.1992 164.139 70.8439 164.992V153.447C72.1992 152.594 74.6588 151.941 76.3655 151.941C77.5702 151.941 78.7749 152.092 79.8792 152.443V163.988Z" fill="#B4B4B4"/>
<path d="M76.3653 155.957C77.2488 155.957 78.1021 156.047 78.8751 156.218V154.692C78.082 154.542 77.2287 154.451 76.3653 154.451C74.6586 154.451 73.1126 154.742 71.8477 155.284V156.951C72.9821 156.308 74.5582 155.957 76.3653 155.957Z" fill="#B4B4B4"/>
<path d="M71.8477 157.955V159.622C72.9821 158.979 74.5582 158.628 76.3653 158.628C77.2488 158.628 78.1021 158.718 78.8751 158.889V157.363C78.082 157.212 77.2287 157.122 76.3653 157.122C74.6586 157.122 73.1126 157.423 71.8477 157.955Z" fill="#B4B4B4"/>
<path d="M76.3653 159.803C74.6586 159.803 73.1126 160.094 71.8477 160.636V162.302C72.9821 161.66 74.5582 161.309 76.3653 161.309C77.2488 161.309 78.1021 161.399 78.8751 161.57V160.044C78.082 159.883 77.2287 159.803 76.3653 159.803Z" fill="#B4B4B4"/>
<g opacity="0.9">
<path fill-rule="evenodd" clip-rule="evenodd" d="M144.01 148.865C140.473 148.865 137.34 150.785 135.724 153.716L133.399 151.392V157.96H139.968L137.138 155.13C138.452 152.604 140.978 150.886 144.01 150.886C148.153 150.886 151.589 154.322 151.589 158.465C151.589 162.608 148.153 166.044 144.01 166.044C140.675 166.044 137.947 163.922 136.835 160.992H134.713C135.825 165.034 139.564 168.065 144.01 168.065C149.366 168.065 153.61 163.72 153.61 158.465C153.61 153.21 149.265 148.865 144.01 148.865ZM142.494 153.918V159.072L147.244 161.901L148.052 160.587L144.01 158.162V153.918H142.494Z" fill="#42C153"/>
</g>
<path d="M55.3585 176.793C57.4424 176.793 58.9786 177.835 58.9786 179.414C58.9786 180.87 57.7271 181.842 55.9493 182.014V183.797H59.8165V184.774H50.9434V183.797H54.7676V182.014C53.0005 181.842 51.7491 180.87 51.7598 179.414C51.7491 177.835 53.2852 176.793 55.3585 176.793ZM55.3585 177.76C53.9405 177.749 52.92 178.394 52.9307 179.414C52.92 180.467 53.9405 181.09 55.3585 181.09C56.7979 181.09 57.8077 180.467 57.8077 179.414C57.8077 178.394 56.7979 177.749 55.3585 177.76ZM67.8894 176.245V178.404H69.2429V179.393H67.8894V181.434H66.6971V176.245H67.8894ZM64.9568 176.847V177.813H61.8201V180.198C63.6463 180.193 64.6614 180.139 65.8162 179.887L65.9451 180.854C64.6775 181.122 63.5388 181.176 61.4226 181.176H60.6385V176.847H64.9568ZM62.7869 181.917V182.916H66.6971V181.917H67.8894V185.816H61.5945V181.917H62.7869ZM62.7869 184.85H66.6971V183.861H62.7869V184.85ZM77.3322 176.965V177.545C77.3215 178.211 77.3215 179.167 77.0959 180.402L75.9143 180.295C76.1023 179.291 76.1399 178.549 76.1613 177.953H72.3801V176.965H77.3322ZM74.883 179.178V181.111C75.8874 181.074 76.9187 180.999 77.8586 180.864L77.9231 181.724C75.9035 182.089 73.6154 182.121 71.9074 182.132L71.8 181.176C72.3747 181.17 73.0193 181.165 73.7014 181.154V179.178H74.883ZM79.6526 176.245V179.274H80.9094V180.273H79.6526V183.518H78.4279V176.245H79.6526ZM79.9641 184.796V185.763H73.2502V182.873H74.4533V184.796H79.9641ZM89.2831 176.245V185.967H88.1015V176.245H89.2831ZM86.2968 177.094V180.735H82.956V182.69C84.4868 182.68 85.808 182.604 87.3173 182.347L87.4247 183.324C85.7705 183.614 84.3203 183.668 82.58 183.668H81.7314V179.79H85.083V178.061H81.7206V177.094H86.2968Z" fill="#B4B4B4"/>
<path d="M282.057 176.245V181.219H280.865V178.759H278.931V177.803H280.865V176.245H282.057ZM282.057 181.638V184.151H276.847V184.893H282.369V185.838H275.676V183.26H280.876V182.572H275.666V181.638H282.057ZM277.449 177.341C277.449 178.533 278.233 179.672 279.737 180.134L279.103 181.058C278.05 180.703 277.288 180.021 276.869 179.135C276.439 180.128 275.644 180.896 274.495 181.272L273.872 180.316C275.429 179.844 276.246 178.651 276.246 177.341V176.567H277.449V177.341ZM291.344 176.245V182.014H290.152V179.64H288.497V178.662H290.152V176.245H291.344ZM288.057 182.261C290.119 182.261 291.376 182.938 291.376 184.108C291.376 185.279 290.119 185.956 288.057 185.956C286.005 185.956 284.748 185.279 284.759 184.108C284.748 182.938 286.005 182.261 288.057 182.261ZM288.057 183.174C286.703 183.174 285.941 183.496 285.941 184.108C285.941 184.71 286.703 185.032 288.057 185.032C289.411 185.032 290.184 184.71 290.184 184.108C290.184 183.496 289.411 183.174 288.057 183.174ZM286.779 177.91C286.779 179.092 287.563 180.284 289.067 180.789L288.465 181.734C287.386 181.369 286.618 180.628 286.199 179.715C285.769 180.751 284.958 181.579 283.803 181.992L283.18 181.047C284.738 180.51 285.565 179.199 285.565 177.921V177.846H283.545V176.879H288.787V177.846H286.779V177.91Z" fill="#B4B4B4"/>
<path d="M202.306 181.101V182.057H198.557V183.84H197.375V182.057H193.433V181.101H202.306ZM201.167 176.686V180.198H194.561V176.686H201.167ZM195.721 177.62V179.264H199.985V177.62H195.721ZM201.328 184.796V185.763H194.507V182.948H195.699V184.796H201.328ZM211.088 176.245V185.956H209.949V176.245H211.088ZM209.111 176.428V185.483H207.983V180.596H206.587V179.629H207.983V176.428H209.111ZM205.727 178.898C205.727 180.542 206.318 182.186 207.704 182.98L206.995 183.861C206.098 183.324 205.502 182.4 205.169 181.294C204.825 182.492 204.207 183.512 203.289 184.087L202.558 183.195C203.966 182.347 204.578 180.585 204.578 178.898V178.254H202.891V177.287H207.296V178.254H205.727V178.898ZM223.27 180.746V181.724H214.407V180.746H223.27ZM222.249 179.027V179.983H215.492V176.557H222.196V177.523H216.685V179.027H222.249ZM218.822 182.4C220.917 182.39 222.174 183.034 222.185 184.162C222.174 185.301 220.917 185.945 218.822 185.945C216.706 185.945 215.439 185.301 215.439 184.162C215.439 183.034 216.706 182.39 218.822 182.4ZM218.822 183.313C217.405 183.313 216.642 183.614 216.653 184.162C216.642 184.731 217.405 185.021 218.822 185.021C220.208 185.021 220.982 184.731 220.992 184.162C220.982 183.614 220.208 183.313 218.822 183.313ZM232.557 181.498V182.465H223.684V181.498H227.529V180.692H224.811V178.114H230.268V177.395H224.779V176.46H231.461V178.984H225.993V179.758H231.654V180.692H228.711V181.498H232.557ZM231.515 183.077V185.892H230.311V184.022H224.672V183.077H231.515Z" fill="#B4B4B4"/>
<path d="M128.407 176.718C130.512 176.718 132.081 177.781 132.091 179.393C132.081 180.864 130.84 181.858 129.084 182.057V183.722H132.897V184.85H123.949V183.722H127.719V182.046C125.968 181.858 124.733 180.859 124.733 179.393C124.733 177.781 126.301 176.718 128.407 176.718ZM128.407 177.813C127.043 177.813 126.086 178.415 126.086 179.393C126.086 180.424 127.043 181.004 128.407 181.004C129.782 181.004 130.727 180.424 130.738 179.393C130.727 178.415 129.782 177.813 128.407 177.813ZM140.991 176.213V178.329H142.313V179.457H140.991V181.444H139.616V176.213H140.991ZM137.973 176.804V177.899H134.987V180.112C136.754 180.102 137.726 180.048 138.822 179.801L138.961 180.907C137.737 181.165 136.609 181.219 134.439 181.219H133.612V176.804H137.973ZM135.943 181.917V182.819H139.616V181.917H140.991V185.87H134.568V181.917H135.943ZM135.943 184.774H139.616V183.894H135.943V184.774ZM153.754 181.058V182.164H144.838V181.058H148.597V180.23H145.976V176.449H147.33V177.341H151.251V176.449H152.615V180.23H149.972V181.058H153.754ZM152.669 182.83V185.988H151.304V183.915H145.826V182.83H152.669ZM147.33 179.156H151.251V178.351H147.33V179.156ZM156.52 182.078V182.905H160.548V182.078H161.913V185.881H155.166V182.078H156.52ZM156.52 184.807H160.548V183.947H156.52V184.807ZM163.04 180.478V181.584H154.124V180.478H163.04ZM159.291 176.643C159.291 177.62 160.419 178.727 162.6 178.974L162.117 180.048C160.43 179.833 159.211 179.135 158.582 178.189C157.954 179.135 156.729 179.833 155.059 180.048L154.565 178.974C156.746 178.716 157.873 177.642 157.884 176.643V176.31H159.291V176.643Z" fill="#42C153"/>
<defs>
<clipPath id="clip0_86_9039">
<rect width="102" height="95.3007" fill="white" transform="translate(124 20)"/>
</clipPath>
</defs>
</svg>
