<svg width="350" height="200" viewBox="0 0 350 200" fill="none" xmlns="http://www.w3.org/2000/svg">
<rect width="350" height="200" fill="white"/>
<g clip-path="url(#clip0_86_5955)">
<path d="M144.721 123.5C143.31 122.482 142.072 121.86 138.322 122.091C134.571 122.322 132.372 123.62 129.283 126.937C128.445 127.838 127.672 130.693 128.029 130.872C128.388 131.052 128.596 130.194 129.848 129.871C131.1 129.549 131.434 130.419 132.338 130.239C133.245 130.06 132.412 129.529 133.998 128.785C135.584 128.04 138.036 129.518 139.16 130.473C141.248 132.25 144.816 138.094 145.728 137.883C146.641 137.672 145.999 131.543 145.919 129.692C145.839 127.841 146.136 124.518 144.724 123.5H144.721Z" fill="#C5ECB3"/>
<path d="M137.027 131.189C136.457 130.658 134.982 130.302 134.326 130.824C133.67 131.346 133.898 133.12 133.761 133.211C133.624 133.302 131.22 131.189 130.077 132.201C128.933 133.214 130.122 135.139 130.473 135.635C130.396 135.704 128.382 134.814 127.607 135.587C126.831 136.36 127.641 138.245 127.9 138.567C129.803 140.923 131.628 143.353 133.696 145.557C135.433 147.414 137.671 148.635 140.158 149.311C143.786 150.295 146.382 147.916 145.851 144.183C145.027 138.399 137.6 131.719 137.03 131.192L137.027 131.189Z" fill="#C5ECB3"/>
<path d="M149.582 100.64C150.449 101.556 151.324 102.012 152.539 102.009C154.25 102.004 155.961 102.066 157.673 102.066C168.602 102.066 179.533 102.066 190.462 102.058C192.219 102.058 193.973 102.035 195.73 102.012C197.116 101.992 198.522 103.076 199.227 103.569C199.931 104.063 200.647 104.896 200.975 105.275C201.3 105.654 201.622 106.054 201.391 106.516C201.157 106.978 200.256 107.02 199.634 107.055C199.01 107.086 196.531 107.582 195.134 108.241C191.811 109.807 189.182 115.2 193.406 118.571C196.819 121.295 203.875 120.818 206.89 117.644C208.481 115.97 209.468 114.059 209.568 111.678C209.608 110.742 209.808 109.316 210.401 109.005C211.664 108.344 211.402 107.588 211.117 106.695C210.769 105.614 210.412 104.519 209.919 103.501C208.536 100.649 208.533 100.695 210.834 98.6497C217.89 92.381 220.754 84.6121 219.239 75.2404C219.051 74.071 219.313 72.819 219.419 71.6098C219.63 69.2112 220.274 66.7756 220.035 64.4284C219.353 57.7661 215.706 52.8806 209.528 50.5105C203.579 48.2289 197.849 49.4125 192.79 53.4595C192.39 53.779 191.577 53.8303 191.047 53.682C190.006 53.3911 189.062 52.7323 188.018 52.4699C180.398 50.559 172.88 50.5761 165.644 54.0442C164.672 54.5091 164.15 54.3094 163.431 53.6478C160.297 50.7644 156.58 49.25 152.299 49.3041C148.566 49.3526 145.52 51.0581 142.583 53.2342C136.919 57.4295 135.464 67.0693 138.051 72.5566C138.433 73.3666 138.519 74.4846 138.327 75.3716C136.77 82.5929 138.644 88.9443 143.287 94.4801C145.167 96.7218 147.571 98.5128 149.593 100.643L149.582 100.64Z" fill="#C5ECB3"/>
<path d="M148.788 122.093C147.978 122.384 147.81 122.76 147.804 123.519C147.776 127.794 147.685 132.072 147.656 136.347C147.639 138.823 147.762 138.948 150.211 138.951C165.09 138.951 179.972 138.94 194.851 138.926C196.742 138.926 197.33 138.372 197.372 136.461C197.464 132.329 197.484 128.193 197.578 124.058C197.598 123.185 197.313 122.92 196.454 122.655C194.974 122.196 193.479 121.582 192.202 120.721C188.654 118.328 187.701 113.808 189.883 110.126C191.209 107.89 193.134 106.313 195.593 105.412C195.918 105.292 196.22 105.112 196.85 104.807C196.206 104.522 195.884 104.256 195.561 104.256C179.764 104.237 148.637 104.228 148.238 104.296C147.839 104.365 147.913 104.704 148.07 104.81C148.226 104.918 150.249 106.293 151.29 107.1C153.751 109.005 155.414 111.358 154.989 114.649C154.501 118.408 152.282 120.838 148.791 122.093H148.788Z" fill="#C5ECB3"/>
<path d="M208.116 123.589C206.439 124.324 204.768 125.077 203.091 125.825C203.382 124.866 203.764 123.925 204.463 123.406C207.36 121.253 210.463 119.533 214.254 120.064C214.53 117.856 213.292 112.603 212.28 111.533C212.232 111.801 212.18 112.029 212.149 112.255C211.182 118.891 207.72 122.291 201.069 123.018C200.071 123.127 199.945 123.586 199.939 124.402C199.919 128.534 199.882 132.667 199.814 136.799C199.762 139.976 198.374 141.297 195.233 141.26C193.428 141.24 191.62 141.234 189.815 141.223C180.072 141.154 160.778 140.147 160.755 141.174C160.735 142.201 164.058 144.026 166.345 144.839C171.562 146.693 177.015 147.092 182.516 146.93C187.835 146.773 197.689 146.701 198.476 146.476C199.263 146.251 200.755 146.083 201.134 144.839C201.394 143.983 201.237 142.883 201.231 141.246C201.226 139.608 202.806 139.825 202.831 140.823C202.874 142.423 201.924 145.33 203.253 146.91C204.582 148.49 207.317 149.02 209.864 148.858C212.411 148.692 217.291 144.483 219.886 140.909C220.599 139.931 221.255 137.324 220.223 136.428C219.19 135.533 217.864 137.735 217.602 136.714C217.339 135.693 220.24 133.602 218.654 132.196C217.071 130.793 214.65 135.208 214.493 133.913C214.413 133.266 214.85 132.607 215.024 132.133C215.198 131.66 215.514 131.107 214.85 130.491C214.185 129.875 212.437 130.482 211.884 130.787C210.104 131.768 208.45 132.983 206.758 134.124C206.16 134.529 205.589 134.982 204.859 135.522C205.107 132.496 210.56 129.002 212.18 128.779C213.8 128.557 215.001 128.446 215.739 129.116C216.478 129.786 216.96 130.456 217.918 130.331C219.436 130.128 220.38 130.893 220.816 132.279C221.056 133.037 221.116 133.853 221.315 134.626C221.463 135.208 221.726 136.426 222.442 136.377C223.155 136.329 223.16 131.894 222.436 129.775C220.351 123.686 214.048 120.985 208.119 123.592L208.116 123.589Z" fill="#C5ECB3"/>
<path d="M158.151 141.114C157.849 140.851 147.516 140.398 147.26 140.717C147.003 141.039 147.719 141.77 148.035 142.97C148.352 144.171 148.129 145.486 148.668 145.988C149.205 146.49 152.465 146.427 154.658 146.227C157.849 145.936 160.556 145.551 160.952 144.81C161.349 144.068 158.522 141.439 158.151 141.114Z" fill="#C5ECB3"/>
<path d="M152.282 112.188C151.287 109.41 149.039 107.964 146.458 106.918C145.862 106.675 144.73 106.541 144.642 106.079C144.553 105.617 145.754 103.994 145.383 103.632C145.012 103.27 144.265 103.726 144.04 104C142.697 105.643 141.194 107.231 140.241 109.091C139.177 111.167 138.804 113.594 139.802 115.845C141.396 119.435 144.499 120.707 148.401 119.606C151.601 118.705 153.4 115.308 152.282 112.188Z" fill="#C5ECB3"/>
<path d="M163.214 145.077L173.619 147.73H200.704C200.704 147.73 201.169 145.779 202.498 142.348C203.827 138.917 205.969 123.256 205.969 123.256L213.55 121.562L215.264 118.625L213.886 109.863L212.007 110.873L208.664 118.79L198.893 122.027L198.725 138.264L196.03 140.902L160.787 139.787L159.219 141.327L161.515 143.894L163.22 145.074L163.214 145.077Z" fill="url(#paint0_linear_86_5955)"/>
<path opacity="0.5" d="M192.213 118.438C192.213 118.438 197.353 119.787 201.48 118.438C205.606 117.089 208.051 115.027 208.555 109.867C209.06 104.708 208.265 103.761 207.255 102.264C206.245 100.766 204.623 99.7826 201.853 100.073C197.986 100.481 193.083 102.903 193.083 102.01C193.083 100.478 210.067 95.5758 213.438 89.0903C216.809 82.6049 217.907 71.6845 217.824 66.0403C217.742 60.3962 215.263 54.0391 215.263 54.0391C215.263 54.0391 219.929 56.9396 220.856 61.0522C221.783 65.1648 221.623 65.3673 220.856 68.9038C220.089 72.4403 220.856 75.1297 220.856 78.6719C220.856 82.2141 221.951 83.2237 220.856 87.2679C219.761 91.3121 210.797 100.915 210.797 100.915L213.886 109.864L210.096 115.403L205.153 119.955L198.893 122.028L192.216 118.432L192.213 118.438Z" fill="#66C689"/>
<path d="M151.952 109.175L147.959 106.18L147.388 103.043H195.873L199.152 105.182L194.161 107.606L190.169 111.456L189.741 115.877L194.732 121.153L199.152 121.866V126.572L197.869 139.691H146.818V123.15L147.959 121.866L152.807 118.301L153.948 113.31L151.952 109.175Z" fill="#F2F5E6"/>
<path opacity="0.5" d="M146.901 139.65L147.403 147.288L151.062 147.73L160.981 146.278V144.125L158.76 140.329L146.901 139.65Z" fill="#66C689"/>
<path d="M125.125 138.824C124.717 135.63 125.353 132.589 126.183 129.612C127.849 123.64 132.429 120.197 138.65 120.046C138.932 120.041 139.211 120.003 139.605 119.969C134.143 111.242 138.707 105.47 145.363 100.168C144.847 99.68 144.288 99.1895 143.769 98.6561C137.226 91.9624 133.978 84.1821 135.806 74.6935C135.92 74.0946 135.723 73.3844 135.509 72.7826C133.014 65.7496 134.292 59.304 138.926 53.6542C143.267 48.3665 149.096 46.3558 155.867 47.2771C158.933 47.6934 161.651 49.0681 164.232 50.7423C164.668 51.0246 165.401 51.2071 165.861 51.0474C174.365 48.1013 182.91 47.9901 191.489 50.6168C192.336 50.8763 192.889 50.7394 193.565 50.2717C203.436 43.3926 217.445 47.8417 221.66 59.1272C223.326 63.5877 223.414 68.0169 221.946 72.526C221.766 73.0764 221.78 73.7438 221.886 74.3256C223.725 84.6898 220.956 93.4084 212.671 100.139C211.932 100.741 211.804 101.206 212.226 102.033C215.001 107.483 216.527 113.29 217.046 119.367C217.134 120.391 217.642 120.873 218.515 121.489C220.408 122.83 223.466 125.154 224.618 127.262C225.499 129.093 226.526 134.577 225.265 137.883C224.256 140.535 221.555 143.179 220.699 144.189C218.306 147.018 215.397 149.222 212.021 150.76C209.736 151.798 207.312 152.411 204.811 151.878C203.547 151.61 202.278 151.059 201.189 150.363C200.253 149.767 199.395 149.459 198.288 149.502C193.403 149.696 188.514 149.887 183.623 149.955C177.674 150.038 171.779 149.642 165.958 148.144C164.121 147.671 159.98 147.166 156.001 147.811C152.023 148.455 149.019 147.543 148.332 148.372C147.439 149.448 146.692 150.663 145.395 151.176C143.01 152.117 140.652 152.072 138.29 151.242C135.877 150.395 133.795 149.017 131.976 147.209C131.006 146.245 129.914 145.404 128.879 144.508L128.924 144.568C126.283 141.627 125.867 140.994 125.125 138.824ZM201.394 106.482C201.16 106.944 200.259 106.987 199.637 107.021C199.015 107.055 196.534 107.549 195.137 108.208C191.814 109.773 189.184 115.166 193.408 118.538C196.822 121.261 203.878 120.785 206.893 117.611C208.484 115.936 209.471 114.026 209.571 111.644C209.611 110.709 209.81 109.283 210.403 108.972C211.667 108.31 211.404 107.554 211.116 106.662C210.768 105.581 210.412 104.486 209.919 103.467C208.535 100.615 208.533 100.661 210.834 98.6162C217.89 92.3475 220.753 84.5786 219.239 75.2068C219.051 74.0375 219.313 72.7855 219.419 71.5762C219.63 69.1777 220.274 66.7421 220.035 64.3949C219.353 57.7325 215.705 52.847 209.528 50.477C203.579 48.1954 197.849 49.379 192.789 53.426C192.39 53.7454 191.577 53.7968 191.047 53.6485C190.006 53.3575 189.062 52.6987 188.018 52.4363C180.397 50.5255 172.879 50.5426 165.644 54.0107C164.671 54.4755 164.149 54.2759 163.431 53.6142C160.296 50.7308 156.58 49.2164 152.299 49.2706C148.566 49.3191 145.52 51.0246 142.582 53.2007C136.918 57.396 135.464 67.0358 138.051 72.5231C138.433 73.3331 138.518 74.4511 138.327 75.338C136.77 82.5593 138.644 88.9108 143.287 94.4465C145.166 96.6882 147.571 98.4793 149.593 100.61C150.46 101.525 151.335 101.982 152.55 101.979C154.261 101.973 155.973 102.036 157.684 102.036C168.613 102.036 179.545 102.036 190.474 102.027C192.23 102.027 193.984 102.004 195.741 101.982C197.127 101.962 198.533 103.045 199.238 103.539C199.942 104.032 200.658 104.865 200.986 105.244C201.314 105.624 201.633 106.023 201.402 106.485L201.394 106.482ZM148.244 104.266C147.844 104.334 147.919 104.674 148.075 104.779C148.232 104.885 150.254 106.262 151.295 107.07C153.757 108.975 155.419 111.328 154.994 114.619C154.507 118.378 152.288 120.808 148.797 122.063C147.987 122.354 147.819 122.73 147.813 123.489C147.785 127.764 147.693 132.042 147.665 136.317C147.648 138.793 147.77 138.918 150.22 138.921C165.099 138.921 179.981 138.909 194.86 138.895C196.751 138.895 197.338 138.342 197.381 136.431C197.472 132.299 197.492 128.16 197.586 124.028C197.606 123.155 197.321 122.89 196.463 122.624C194.983 122.165 193.488 121.552 192.21 120.691C188.663 118.298 187.71 113.778 189.892 110.096C191.218 107.86 193.143 106.282 195.601 105.381C195.927 105.261 196.229 105.082 196.859 104.777C196.215 104.491 195.892 104.226 195.57 104.226C179.773 104.206 148.646 104.198 148.247 104.266H148.244ZM222.447 136.343C223.16 136.294 223.166 131.859 222.442 129.74C220.357 123.651 214.054 120.95 208.125 123.557C206.448 124.293 204.776 125.046 203.099 125.793C203.39 124.835 203.772 123.894 204.471 123.375C207.369 121.221 210.472 119.502 214.262 120.032C214.539 117.825 213.301 112.571 212.289 111.502C212.24 111.77 212.189 111.998 212.157 112.223C211.191 118.86 207.728 122.259 201.077 122.987C200.079 123.095 199.954 123.554 199.948 124.37C199.928 128.502 199.891 132.635 199.822 136.768C199.771 139.945 198.382 141.265 195.242 141.228C193.437 141.208 191.629 141.203 189.823 141.191C180.081 141.123 160.787 140.116 160.764 141.143C160.741 142.169 164.067 143.995 166.354 144.807C171.57 146.661 177.023 147.061 182.525 146.898C187.844 146.741 197.698 146.67 198.485 146.445C199.272 146.219 200.764 146.051 201.143 144.807C201.402 143.952 201.246 142.851 201.24 141.214C201.234 139.577 202.814 139.794 202.84 140.792C202.883 142.392 201.933 145.298 203.262 146.878C204.591 148.458 207.326 148.989 209.873 148.826C212.42 148.663 217.3 144.451 219.895 140.877C220.608 139.899 221.264 137.292 220.231 136.397C219.199 135.501 217.873 137.703 217.61 136.682C217.348 135.661 220.249 133.571 218.663 132.164C217.077 130.758 214.659 135.176 214.502 133.881C214.422 133.234 214.858 132.575 215.032 132.102C215.206 131.628 215.523 131.075 214.858 130.459C214.194 129.843 212.445 130.45 211.892 130.756C210.113 131.737 208.458 132.952 206.767 134.092C206.168 134.497 205.598 134.951 204.868 135.49C205.116 132.464 210.569 128.97 212.189 128.748C213.809 128.525 215.009 128.414 215.748 129.084C216.487 129.755 216.969 130.425 217.927 130.299C219.444 130.097 220.388 130.861 220.825 132.247C221.064 133.006 221.124 133.821 221.324 134.594C221.472 135.176 221.734 136.394 222.45 136.346L222.447 136.343ZM130.479 135.601C130.402 135.67 128.388 134.78 127.612 135.553C126.836 136.326 127.646 138.211 127.906 138.533C129.808 140.889 131.634 143.319 133.701 145.523C135.438 147.38 137.677 148.601 140.164 149.277C143.792 150.261 146.387 147.882 145.857 144.149C145.032 138.365 137.606 131.685 137.035 131.158C136.465 130.63 134.99 130.271 134.334 130.793C133.678 131.315 133.907 133.089 133.77 133.18C133.633 133.271 131.229 131.158 130.085 132.17C128.941 133.183 130.131 135.108 130.481 135.604L130.479 135.601ZM144.647 106.049C144.559 105.587 145.76 103.964 145.389 103.602C145.018 103.239 144.271 103.696 144.046 103.969C142.702 105.612 141.199 107.201 140.247 109.06C139.183 111.137 138.809 113.564 139.807 115.814C141.402 119.405 144.505 120.677 148.406 119.576C151.606 118.674 153.406 115.278 152.288 112.158C151.293 109.38 149.045 107.934 146.464 106.887C145.868 106.645 144.736 106.511 144.647 106.049ZM145.734 137.851C146.644 137.64 146.005 131.511 145.925 129.66C145.845 127.809 146.142 124.487 144.73 123.469C143.318 122.45 142.081 121.829 138.33 122.06C134.58 122.291 132.381 123.588 129.292 126.905C128.454 127.807 127.681 130.661 128.037 130.841C128.394 131.021 128.605 130.162 129.857 129.84C131.109 129.518 131.443 130.388 132.347 130.208C133.251 130.028 132.421 129.498 134.006 128.753C135.592 128.009 138.045 129.486 139.169 130.442C141.256 132.219 144.824 138.062 145.737 137.851H145.734ZM160.961 144.776C161.36 144.035 158.531 141.405 158.16 141.08C157.858 140.817 147.525 140.364 147.268 140.683C147.012 141.003 147.728 141.736 148.044 142.937C148.361 144.137 148.138 145.452 148.677 145.954C149.216 146.456 152.473 146.393 154.666 146.194C157.858 145.903 160.564 145.518 160.961 144.776Z" fill="#18231C"/>
<path d="M204.167 54.0879C210.181 54.105 215.249 59.1674 215.261 65.1709C215.272 71.143 210.321 76.3023 204.549 76.3308C198.44 76.3622 193.412 71.2457 193.389 64.9826C193.366 58.8137 198.058 54.0708 204.167 54.0879ZM200.225 57.9467C198.391 57.921 197.085 59.1902 197.042 61.0354C197.002 62.7353 198.317 64.0957 200.057 64.1584C201.865 64.224 203.268 62.8322 203.3 60.9499C203.328 59.2159 202.053 57.9695 200.225 57.9439V57.9467Z" fill="#18231C"/>
<path d="M162.467 65.1036C162.441 70.9274 157.205 76.2293 151.475 76.2322C145.78 76.2322 140.806 71.0843 140.835 65.2177C140.866 59.0402 145.917 54.0834 152.166 54.0977C157.687 54.1091 162.493 59.2456 162.467 65.1036ZM147.628 57.9565C145.771 57.9451 144.46 59.2285 144.465 61.0538C144.471 62.8363 145.652 64.1539 147.274 64.1938C149.111 64.2395 150.588 62.7764 150.643 60.8598C150.688 59.2056 149.402 57.9679 147.628 57.9565Z" fill="#18231C"/>
<path d="M176.773 80.6345C174.103 81.1507 172.289 79.6791 170.812 77.7055C170.41 77.1693 170.279 76.2937 170.338 75.6007C170.373 75.1957 170.986 74.651 171.431 74.5369C171.79 74.4456 172.343 74.8449 172.709 75.1501C173.022 75.4096 173.176 75.8545 173.427 76.1996C175.421 78.9632 179.305 78.6866 180.885 75.6692C181.322 74.8364 181.627 73.7697 182.939 74.4029C183.925 74.8791 184.256 76.1169 183.566 77.2378C182.037 79.7304 179.716 80.7686 176.773 80.6345Z" fill="#18231C"/>
<path d="M200.225 57.9453C202.053 57.971 203.328 59.2145 203.299 60.9513C203.271 62.8337 201.865 64.2255 200.056 64.1599C198.317 64.0971 197.002 62.7338 197.042 61.0369C197.085 59.1916 198.391 57.9225 200.225 57.9482V57.9453Z" fill="white"/>
<path d="M147.628 57.9571C149.402 57.9685 150.688 59.2063 150.642 60.8605C150.591 62.7742 149.111 64.2401 147.274 64.1945C145.651 64.1545 144.471 62.8341 144.465 61.0544C144.459 59.2291 145.768 57.9457 147.628 57.9571Z" fill="white"/>
<path opacity="0.8" d="M142.171 146.262C143.834 144.86 143.705 141.972 141.883 139.812C140.062 137.652 137.237 137.037 135.574 138.439C133.911 139.842 134.04 142.73 135.861 144.89C137.683 147.05 140.508 147.665 142.171 146.262Z" fill="#3AB36C"/>
<path opacity="0.8" d="M212.396 144.845C214.472 142.928 214.959 140.079 213.483 138.481C212.007 136.883 209.128 137.141 207.052 139.058C204.976 140.975 204.489 143.825 205.965 145.423C207.441 147.021 210.32 146.762 212.396 144.845Z" fill="#3AB36C"/>
<path d="M149.721 88.1748C152.345 88.1748 154.473 86.0475 154.473 83.4233C154.473 80.7992 152.345 78.6719 149.721 78.6719C147.097 78.6719 144.97 80.7992 144.97 83.4233C144.97 86.0475 147.097 88.1748 149.721 88.1748Z" fill="#FEB7B7"/>
<path d="M207.252 88.1748C209.876 88.1748 212.003 86.0475 212.003 83.4233C212.003 80.7992 209.876 78.6719 207.252 78.6719C204.628 78.6719 202.5 80.7992 202.5 83.4233C202.5 86.0475 204.628 88.1748 207.252 88.1748Z" fill="#FEB7B7"/>
<path d="M164.09 128.218C163.259 128.218 162.553 128.056 161.971 127.731C161.389 127.397 160.946 126.854 160.64 126.1C160.345 125.346 160.197 124.325 160.197 123.037C160.197 121.749 160.345 120.733 160.64 119.989C160.946 119.244 161.389 118.715 161.971 118.4C162.553 118.085 163.259 117.928 164.09 117.928C164.929 117.928 165.635 118.085 166.208 118.4C166.79 118.715 167.229 119.244 167.524 119.989C167.83 120.733 167.982 121.749 167.982 123.037C167.982 124.325 167.83 125.346 167.524 126.1C167.229 126.854 166.79 127.397 166.208 127.731C165.635 128.056 164.929 128.218 164.09 128.218ZM164.09 126.329C164.471 126.329 164.796 126.238 165.063 126.057C165.339 125.876 165.549 125.546 165.693 125.069C165.845 124.592 165.922 123.915 165.922 123.037C165.922 122.15 165.845 121.477 165.693 121.019C165.549 120.552 165.339 120.237 165.063 120.075C164.796 119.903 164.471 119.817 164.09 119.817C163.717 119.817 163.393 119.903 163.116 120.075C162.84 120.237 162.625 120.552 162.472 121.019C162.329 121.477 162.258 122.15 162.258 123.037C162.258 123.915 162.329 124.592 162.472 125.069C162.625 125.546 162.84 125.876 163.116 126.057C163.393 126.238 163.717 126.329 164.09 126.329ZM170.358 128.218C169.671 128.218 169.328 127.894 169.328 127.245V123.81C169.328 122.894 169.619 122.169 170.201 121.635C170.792 121.1 171.57 120.833 172.534 120.833C173.497 120.833 174.27 121.1 174.852 121.635C175.444 122.169 175.74 122.894 175.74 123.81V127.245C175.74 127.894 175.396 128.218 174.709 128.218C174.022 128.218 173.679 127.894 173.679 127.245V123.924C173.679 123.476 173.578 123.137 173.378 122.908C173.178 122.67 172.896 122.55 172.534 122.55C172.171 122.55 171.89 122.67 171.689 122.908C171.489 123.137 171.389 123.476 171.389 123.924V127.245C171.389 127.894 171.045 128.218 170.358 128.218ZM180.987 128.218C180.157 128.218 179.451 128.056 178.869 127.731C178.287 127.397 177.843 126.854 177.538 126.1C177.242 125.346 177.094 124.325 177.094 123.037C177.094 121.749 177.242 120.733 177.538 119.989C177.843 119.244 178.287 118.715 178.869 118.4C179.451 118.085 180.157 117.928 180.987 117.928C181.827 117.928 182.533 118.085 183.105 118.4C183.687 118.715 184.126 119.244 184.422 119.989C184.727 120.733 184.88 121.749 184.88 123.037C184.88 124.325 184.727 125.346 184.422 126.1C184.126 126.854 183.687 127.397 183.105 127.731C182.533 128.056 181.827 128.218 180.987 128.218ZM180.987 126.329C181.369 126.329 181.693 126.238 181.96 126.057C182.237 125.876 182.447 125.546 182.59 125.069C182.743 124.592 182.819 123.915 182.819 123.037C182.819 122.15 182.743 121.477 182.59 121.019C182.447 120.552 182.237 120.237 181.96 120.075C181.693 119.903 181.369 119.817 180.987 119.817C180.615 119.817 180.291 119.903 180.014 120.075C179.737 120.237 179.523 120.552 179.37 121.019C179.227 121.477 179.155 122.15 179.155 123.037C179.155 123.915 179.227 124.592 179.37 125.069C179.523 125.546 179.737 125.876 180.014 126.057C180.291 126.238 180.615 126.329 180.987 126.329Z" fill="#18231C"/>
</g>
<defs>
<linearGradient id="paint0_linear_86_5955" x1="191.452" y1="125.287" x2="202.433" y2="138.691" gradientUnits="userSpaceOnUse">
<stop stop-color="#95D99E"/>
<stop offset="1" stop-color="#C5ECB3"/>
</linearGradient>
<clipPath id="clip0_86_5955">
<rect width="100.85" height="105.071" fill="white" transform="translate(125 47)"/>
</clipPath>
</defs>
</svg>
