<svg width="350" height="200" viewBox="0 0 350 200" fill="none" xmlns="http://www.w3.org/2000/svg">
<g clip-path="url(#clip0_171_5425)">
<path d="M143.046 123.226C141.634 122.207 140.397 121.586 136.646 121.817C132.896 122.048 130.697 123.345 127.608 126.662C126.77 127.564 125.997 130.418 126.353 130.598C126.713 130.778 126.921 129.919 128.173 129.597C129.425 129.275 129.759 130.145 130.663 129.965C131.57 129.785 130.737 129.255 132.323 128.51C133.908 127.766 136.361 129.243 137.485 130.199C139.572 131.976 143.14 137.819 144.053 137.608C144.966 137.397 144.324 131.268 144.244 129.417C144.164 127.566 144.461 124.244 143.049 123.226H143.046Z" fill="#C5ECB3"/>
<path d="M135.352 130.915C134.781 130.385 133.307 130.028 132.651 130.55C131.995 131.072 132.223 132.846 132.086 132.938C131.949 133.029 129.545 130.915 128.401 131.928C127.258 132.94 128.447 134.865 128.798 135.362C128.721 135.43 126.707 134.54 125.931 135.313C125.156 136.086 125.966 137.971 126.225 138.294C128.127 140.649 129.953 143.079 132.02 145.284C133.757 147.141 135.996 148.361 138.483 149.037C142.111 150.021 144.706 147.643 144.176 143.909C143.352 138.125 135.925 131.446 135.355 130.918L135.352 130.915Z" fill="#C5ECB3"/>
<path d="M147.906 100.367C148.773 101.282 149.649 101.739 150.864 101.736C152.575 101.73 154.286 101.793 155.997 101.793C166.926 101.793 177.858 101.793 188.787 101.784C190.544 101.784 192.298 101.762 194.055 101.739C195.441 101.719 196.847 102.803 197.551 103.296C198.256 103.789 198.972 104.622 199.3 105.002C199.625 105.381 199.947 105.78 199.716 106.242C199.482 106.704 198.581 106.747 197.959 106.781C197.335 106.813 194.856 107.309 193.459 107.968C190.136 109.533 187.506 114.927 191.73 118.298C195.144 121.021 202.2 120.545 205.215 117.371C206.806 115.697 207.793 113.786 207.893 111.404C207.933 110.469 208.132 109.043 208.725 108.732C209.989 108.07 209.727 107.315 209.441 106.422C209.093 105.341 208.737 104.246 208.243 103.228C206.86 100.376 206.857 100.421 209.159 98.3763C216.215 92.1076 219.078 84.3387 217.564 74.9669C217.376 73.7976 217.638 72.5456 217.744 71.3363C217.955 68.9378 218.599 66.5022 218.36 64.1549C217.678 57.4926 214.03 52.6071 207.853 50.2371C201.903 47.9555 196.174 49.1391 191.114 53.1861C190.715 53.5055 189.902 53.5569 189.372 53.4085C188.331 53.1176 187.387 52.4588 186.343 52.1964C178.722 50.2856 171.204 50.3027 163.969 53.7708C162.996 54.2356 162.474 54.036 161.756 53.3743C158.621 50.4909 154.905 48.9765 150.624 49.0307C146.891 49.0792 143.845 50.7847 140.907 52.9608C135.243 57.1561 133.789 66.7959 136.376 72.2832C136.758 73.0932 136.843 74.2112 136.652 75.0981C135.095 82.3194 136.969 88.6709 141.612 94.2066C143.491 96.4483 145.896 98.2394 147.918 100.37L147.906 100.367Z" fill="#C5ECB3"/>
<path d="M147.113 121.82C146.303 122.11 146.135 122.487 146.129 123.246C146.101 127.521 146.009 131.799 145.981 136.074C145.964 138.549 146.086 138.675 148.536 138.678C163.415 138.678 178.297 138.666 193.176 138.652C195.067 138.652 195.654 138.099 195.697 136.188C195.788 132.055 195.808 127.92 195.902 123.785C195.922 122.912 195.637 122.647 194.779 122.381C193.299 121.922 191.804 121.309 190.526 120.448C186.978 118.055 186.026 113.534 188.208 109.852C189.534 107.617 191.459 106.039 193.917 105.138C194.243 105.018 194.545 104.839 195.175 104.533C194.531 104.248 194.208 103.983 193.886 103.983C178.089 103.963 146.962 103.955 146.563 104.023C146.163 104.091 146.237 104.431 146.394 104.536C146.551 104.645 148.573 106.019 149.614 106.826C152.076 108.732 153.738 111.085 153.313 114.376C152.826 118.135 150.607 120.565 147.116 121.82H147.113Z" fill="#C5ECB3"/>
<path d="M206.441 123.314C204.764 124.05 203.092 124.803 201.415 125.55C201.706 124.592 202.089 123.651 202.787 123.132C205.685 120.978 208.788 119.259 212.578 119.789C212.855 117.582 211.617 112.328 210.605 111.259C210.556 111.527 210.505 111.755 210.474 111.98C209.507 118.617 206.044 122.017 199.393 122.744C198.395 122.852 198.27 123.311 198.264 124.127C198.244 128.26 198.207 132.392 198.139 136.525C198.087 139.702 196.698 141.022 193.558 140.985C191.753 140.965 189.945 140.96 188.139 140.948C178.397 140.88 159.103 139.873 159.08 140.9C159.06 141.927 162.383 143.752 164.67 144.565C169.886 146.418 175.34 146.818 180.841 146.655C186.16 146.498 196.014 146.427 196.801 146.202C197.588 145.976 199.08 145.808 199.459 144.565C199.719 143.709 199.562 142.608 199.556 140.971C199.55 139.334 201.13 139.551 201.156 140.549C201.199 142.149 200.249 145.055 201.578 146.635C202.907 148.215 205.642 148.746 208.189 148.583C210.736 148.418 215.616 144.208 218.211 140.635C218.924 139.656 219.58 137.05 218.548 136.154C217.515 135.259 216.189 137.46 215.927 136.439C215.664 135.418 218.565 133.328 216.979 131.922C215.396 130.518 212.975 134.933 212.818 133.639C212.738 132.991 213.174 132.332 213.348 131.859C213.522 131.385 213.839 130.832 213.174 130.216C212.51 129.6 210.762 130.208 210.208 130.513C208.429 131.494 206.774 132.709 205.083 133.85C204.484 134.255 203.914 134.708 203.184 135.247C203.432 132.221 208.885 128.727 210.505 128.505C212.125 128.282 213.326 128.171 214.064 128.841C214.803 129.512 215.285 130.182 216.243 130.056C217.76 129.854 218.704 130.618 219.141 132.004C219.38 132.763 219.44 133.579 219.64 134.352C219.788 134.933 220.051 136.151 220.766 136.103C221.479 136.054 221.485 131.619 220.761 129.5C218.676 123.411 212.373 120.71 206.444 123.317L206.441 123.314Z" fill="#C5ECB3"/>
<path d="M156.476 140.84C156.174 140.578 145.841 140.124 145.584 140.444C145.328 140.766 146.043 141.496 146.36 142.697C146.677 143.898 146.454 145.212 146.993 145.714C147.529 146.216 150.789 146.154 152.982 145.954C156.174 145.663 158.88 145.278 159.277 144.536C159.673 143.795 156.847 141.165 156.476 140.84Z" fill="#C5ECB3"/>
<path d="M150.607 111.915C149.612 109.137 147.364 107.691 144.783 106.644C144.187 106.402 143.055 106.268 142.966 105.806C142.878 105.344 144.079 103.721 143.708 103.359C143.337 102.997 142.59 103.453 142.365 103.727C141.021 105.369 139.518 106.958 138.566 108.818C137.502 110.894 137.128 113.321 138.127 115.571C139.721 119.162 142.824 120.434 146.725 119.333C149.925 118.432 151.725 115.035 150.607 111.915Z" fill="#C5ECB3"/>
<path d="M161.539 144.805L171.943 147.457H199.029C199.029 147.457 199.494 145.506 200.823 142.075C202.152 138.644 204.294 122.984 204.294 122.984L211.874 121.29L213.588 118.352L212.211 109.591L210.331 110.6L206.989 118.518L197.218 121.755L197.05 137.991L194.354 140.629L159.112 139.514L157.543 141.054L159.839 143.621L161.545 144.802L161.539 144.805Z" fill="url(#paint0_linear_171_5425)"/>
<path opacity="0.5" d="M190.538 118.164C190.538 118.164 195.677 119.513 199.804 118.164C203.931 116.815 206.375 114.753 206.88 109.594C207.385 104.435 206.589 103.488 205.58 101.99C204.57 100.493 202.947 99.5091 200.178 99.8C196.311 100.208 191.408 102.629 191.408 101.737C191.408 100.205 208.392 95.3024 211.763 88.8169C215.134 82.3314 216.232 71.4111 216.149 65.7669C216.066 60.1228 213.588 53.7656 213.588 53.7656C213.588 53.7656 218.254 56.6661 219.181 60.7787C220.108 64.8913 219.948 65.0938 219.181 68.6303C218.414 72.1668 219.181 74.8563 219.181 78.3985C219.181 81.9407 220.276 82.9503 219.181 86.9945C218.086 91.0386 209.122 100.641 209.122 100.641L212.211 109.591L208.42 115.13L203.478 119.681L197.218 121.755L190.541 118.158L190.538 118.164Z" fill="#66C689"/>
<path d="M150.276 108.9L146.283 105.906L145.713 102.769H194.197L197.477 104.908L192.486 107.332L188.493 111.182L188.065 115.603L193.056 120.879L197.477 121.592V126.298L196.194 139.417H145.143V122.875L146.283 121.592L151.132 118.027L152.273 113.036L150.276 108.9Z" fill="#F2F5E6"/>
<path opacity="0.5" d="M145.226 139.377L145.728 147.015L149.387 147.457L159.306 146.005V143.852L157.084 140.056L145.226 139.377Z" fill="#66C689"/>
<path d="M123.45 138.55C123.042 135.356 123.678 132.316 124.508 129.338C126.174 123.366 130.754 119.924 136.974 119.773C137.257 119.767 137.536 119.73 137.93 119.696C132.468 110.969 137.031 105.196 143.688 99.8943C143.172 99.4066 142.613 98.916 142.094 98.3827C135.551 91.689 132.303 83.9087 134.131 74.42C134.245 73.8211 134.048 73.111 133.834 72.5092C131.339 65.4761 132.616 59.0306 137.251 53.3807C141.592 48.0931 147.421 46.0824 154.192 47.0036C157.258 47.42 159.976 48.7947 162.557 50.4688C162.993 50.7512 163.726 50.9337 164.185 50.774C172.69 47.8278 181.235 47.7166 189.814 50.3433C190.661 50.6029 191.214 50.466 191.89 49.9982C201.761 43.1192 215.77 47.5683 219.985 58.8537C221.651 63.3143 221.739 67.7435 220.27 72.2525C220.091 72.803 220.105 73.4703 220.21 74.0521C222.05 84.4164 219.281 93.135 210.995 99.8657C210.257 100.468 210.128 100.932 210.551 101.759C213.326 107.21 214.851 113.016 215.37 119.094C215.459 120.118 215.967 120.6 216.839 121.216C218.733 122.556 221.79 124.881 222.943 126.988C223.824 128.819 224.851 134.304 223.59 137.609C222.58 140.262 219.88 142.906 219.024 143.915C216.631 146.744 213.722 148.949 210.345 150.486C208.061 151.524 205.637 152.137 203.135 151.604C201.872 151.336 200.603 150.786 199.513 150.09C198.578 149.494 197.719 149.186 196.613 149.228C191.727 149.422 186.839 149.613 181.948 149.682C175.998 149.765 170.103 149.368 164.282 147.871C162.446 147.397 158.304 146.893 154.326 147.537C150.347 148.182 147.344 147.269 146.657 148.099C145.764 149.174 145.017 150.389 143.719 150.903C141.335 151.844 138.976 151.798 136.615 150.968C134.202 150.121 132.12 148.744 130.301 146.935C129.331 145.971 128.239 145.13 127.203 144.235L127.249 144.294C124.608 141.354 124.192 140.721 123.45 138.55ZM199.719 106.209C199.485 106.671 198.584 106.713 197.962 106.748C197.34 106.782 194.859 107.275 193.461 107.934C190.139 109.5 187.509 114.893 191.733 118.264C195.147 120.988 202.203 120.511 205.217 117.337C206.809 115.663 207.796 113.752 207.895 111.371C207.935 110.435 208.135 109.009 208.728 108.698C209.992 108.037 209.729 107.281 209.441 106.388C209.093 105.307 208.737 104.212 208.243 103.194C206.86 100.342 206.857 100.388 209.159 98.3428C216.215 92.074 219.078 84.3051 217.564 74.9334C217.375 73.7641 217.638 72.512 217.743 71.3028C217.954 68.9042 218.599 66.4686 218.359 64.1214C217.678 57.4591 214.03 52.5736 207.853 50.2036C201.903 47.922 196.174 49.1055 191.114 53.1526C190.715 53.472 189.902 53.5233 189.372 53.375C188.331 53.0841 187.386 52.4253 186.343 52.1629C178.722 50.2521 171.204 50.2692 163.969 53.7372C162.996 54.2021 162.474 54.0025 161.755 53.3408C158.621 50.4574 154.905 48.943 150.624 48.9972C146.891 49.0457 143.845 50.7512 140.907 52.9273C135.243 57.1226 133.789 66.7624 136.375 72.2497C136.758 73.0596 136.843 74.1776 136.652 75.0646C135.095 82.2859 136.969 88.6373 141.612 94.1731C143.491 96.4148 145.895 98.2059 147.917 100.336C148.784 101.252 149.66 101.708 150.875 101.705C152.586 101.7 154.297 101.762 156.009 101.762C166.938 101.762 177.869 101.762 188.798 101.754C190.555 101.754 192.309 101.731 194.066 101.708C195.452 101.688 196.858 102.772 197.562 103.265C198.267 103.759 198.983 104.592 199.311 104.971C199.639 105.35 199.958 105.749 199.727 106.211L199.719 106.209ZM146.568 103.993C146.169 104.061 146.243 104.4 146.4 104.506C146.557 104.611 148.579 105.989 149.62 106.796C152.081 108.701 153.744 111.054 153.319 114.345C152.831 118.104 150.613 120.534 147.122 121.789C146.312 122.08 146.143 122.457 146.138 123.215C146.109 127.49 146.018 131.768 145.989 136.044C145.972 138.519 146.095 138.645 148.545 138.647C163.424 138.647 178.306 138.636 193.185 138.622C195.076 138.622 195.663 138.068 195.706 136.158C195.797 132.025 195.817 127.887 195.911 123.754C195.931 122.882 195.646 122.616 194.787 122.351C193.307 121.892 191.813 121.279 190.535 120.417C186.987 118.025 186.035 113.504 188.216 109.822C189.543 107.586 191.468 106.009 193.926 105.108C194.251 104.988 194.554 104.808 195.184 104.503C194.539 104.218 194.217 103.953 193.895 103.953C178.097 103.933 146.971 103.924 146.571 103.993H146.568ZM220.772 136.069C221.485 136.021 221.491 131.586 220.766 129.467C218.682 123.378 212.379 120.677 206.449 123.284C204.772 124.019 203.101 124.772 201.424 125.52C201.715 124.561 202.097 123.62 202.796 123.101C205.694 120.948 208.797 119.228 212.587 119.759C212.864 117.551 211.626 112.298 210.613 111.228C210.565 111.496 210.513 111.724 210.482 111.95C209.515 118.586 206.053 121.986 199.402 122.713C198.404 122.822 198.278 123.281 198.273 124.096C198.253 128.229 198.216 132.362 198.147 136.494C198.096 139.671 196.707 140.992 193.567 140.955C191.761 140.935 189.953 140.929 188.148 140.918C178.405 140.849 159.112 139.842 159.089 140.869C159.066 141.896 162.391 143.721 164.679 144.534C169.895 146.388 175.348 146.787 180.85 146.625C186.169 146.468 196.022 146.396 196.81 146.171C197.597 145.946 199.088 145.777 199.468 144.534C199.727 143.678 199.57 142.578 199.565 140.94C199.559 139.303 201.139 139.52 201.165 140.518C201.207 142.118 200.258 145.025 201.587 146.605C202.916 148.185 205.651 148.715 208.198 148.553C210.745 148.39 215.624 144.178 218.22 140.604C218.933 139.626 219.589 137.019 218.556 136.123C217.524 135.228 216.198 137.43 215.935 136.409C215.673 135.388 218.573 133.297 216.988 131.891C215.402 130.485 212.983 134.903 212.826 133.608C212.747 132.961 213.183 132.302 213.357 131.828C213.531 131.355 213.848 130.802 213.183 130.186C212.518 129.569 210.77 130.177 210.217 130.482C208.437 131.463 206.783 132.678 205.092 133.819C204.493 134.224 203.922 134.677 203.192 135.216C203.44 132.19 208.894 128.697 210.513 128.474C212.133 128.252 213.334 128.141 214.073 128.811C214.811 129.481 215.293 130.151 216.252 130.026C217.769 129.823 218.713 130.588 219.149 131.974C219.389 132.732 219.449 133.548 219.649 134.321C219.797 134.903 220.059 136.121 220.775 136.072L220.772 136.069ZM128.803 135.328C128.726 135.396 126.713 134.506 125.937 135.279C125.161 136.052 125.971 137.937 126.231 138.26C128.133 140.615 129.958 143.045 132.026 145.25C133.763 147.107 136.002 148.327 138.489 149.003C142.116 149.987 144.712 147.608 144.181 143.875C143.357 138.091 135.93 131.412 135.36 130.884C134.79 130.357 133.315 129.997 132.659 130.519C132.003 131.041 132.231 132.815 132.094 132.906C131.958 132.998 129.553 130.884 128.41 131.897C127.266 132.909 128.455 134.834 128.806 135.331L128.803 135.328ZM142.972 105.775C142.884 105.313 144.084 103.69 143.714 103.328C143.343 102.966 142.596 103.422 142.37 103.696C141.027 105.339 139.524 106.927 138.571 108.787C137.508 110.863 137.134 113.29 138.132 115.54C139.726 119.131 142.829 120.403 146.731 119.302C149.931 118.401 151.731 115.004 150.613 111.884C149.617 109.106 147.37 107.66 144.789 106.614C144.193 106.371 143.06 106.237 142.972 105.775ZM144.059 137.578C144.968 137.367 144.33 131.238 144.25 129.387C144.17 127.536 144.467 124.213 143.055 123.195C141.643 122.177 140.405 121.555 136.655 121.786C132.904 122.017 130.706 123.315 127.617 126.632C126.778 127.533 126.005 130.388 126.362 130.568C126.718 130.747 126.929 129.889 128.181 129.567C129.434 129.244 129.767 130.114 130.671 129.935C131.575 129.755 130.745 129.224 132.331 128.48C133.917 127.736 136.37 129.213 137.493 130.168C139.581 131.945 143.149 137.789 144.062 137.578H144.059ZM159.286 144.503C159.685 143.761 156.856 141.132 156.485 140.806C156.183 140.544 145.85 140.091 145.593 140.41C145.336 140.729 146.052 141.462 146.369 142.663C146.685 143.864 146.463 145.179 147.002 145.681C147.541 146.182 150.798 146.12 152.991 145.92C156.183 145.629 158.889 145.244 159.286 144.503Z" fill="#18231C"/>
<path d="M202.491 53.8135C208.506 53.8306 213.574 58.893 213.586 64.8965C213.597 70.8686 208.646 76.0279 202.873 76.0564C196.764 76.0878 191.736 70.9713 191.713 64.7082C191.691 58.5393 196.382 53.7964 202.491 53.8135ZM198.55 57.6723C196.716 57.6466 195.41 58.9158 195.367 60.761C195.327 62.4608 196.642 63.8212 198.381 63.884C200.19 63.9496 201.593 62.5578 201.624 60.6755C201.653 58.9414 200.378 57.6951 198.55 57.6694V57.6723Z" fill="#18231C"/>
<path d="M160.792 64.8312C160.766 70.655 155.53 75.9569 149.8 75.9597C144.105 75.9597 139.131 70.8118 139.159 64.9452C139.191 58.7678 144.242 53.811 150.49 53.8252C156.012 53.8366 160.818 58.9731 160.792 64.8312ZM145.953 57.684C144.096 57.6726 142.784 58.956 142.79 60.7813C142.796 62.5638 143.976 63.8814 145.599 63.9214C147.436 63.967 148.913 62.5039 148.967 60.5874C149.013 58.9332 147.727 57.6954 145.953 57.684Z" fill="#18231C"/>
<path d="M175.097 80.3601C172.428 80.8763 170.614 79.4047 169.137 77.4311C168.735 76.8949 168.603 76.0193 168.663 75.3263C168.697 74.9213 169.311 74.3766 169.756 74.2625C170.115 74.1712 170.668 74.5705 171.033 74.8757C171.347 75.1352 171.501 75.5801 171.752 75.9252C173.745 78.6888 177.63 78.4122 179.21 75.3947C179.646 74.5619 179.951 73.4953 181.263 74.1284C182.25 74.6047 182.581 75.8425 181.891 76.9633C180.362 79.456 178.041 80.4941 175.097 80.3601Z" fill="#18231C"/>
<path d="M198.549 57.6729C200.378 57.6985 201.652 58.942 201.624 60.6789C201.595 62.5612 200.189 63.953 198.381 63.8874C196.641 63.8247 195.327 62.4614 195.367 60.7644C195.409 58.9192 196.716 57.65 198.549 57.6757V57.6729Z" fill="white"/>
<path d="M145.952 57.6837C147.726 57.6951 149.013 58.9329 148.967 60.587C148.916 62.5007 147.436 63.9667 145.599 63.921C143.976 63.8811 142.795 62.5606 142.79 60.781C142.784 58.9557 144.093 57.6723 145.952 57.6837Z" fill="white"/>
<path opacity="0.8" d="M140.495 145.989C142.158 144.587 142.03 141.699 140.208 139.538C138.386 137.378 135.562 136.764 133.899 138.166C132.236 139.568 132.364 142.456 134.186 144.617C136.008 146.777 138.833 147.391 140.495 145.989Z" fill="#3AB36C"/>
<path opacity="0.8" d="M210.721 144.573C212.797 142.656 213.283 139.806 211.808 138.208C210.332 136.61 207.453 136.869 205.377 138.786C203.301 140.703 202.814 143.552 204.29 145.15C205.765 146.749 208.645 146.49 210.721 144.573Z" fill="#3AB36C"/>
<path d="M148.046 87.9014C150.67 87.9014 152.797 85.7741 152.797 83.1499C152.797 80.5257 150.67 78.3984 148.046 78.3984C145.422 78.3984 143.294 80.5257 143.294 83.1499C143.294 85.7741 145.422 87.9014 148.046 87.9014Z" fill="#FEB7B7"/>
<path d="M205.577 87.9014C208.201 87.9014 210.328 85.7741 210.328 83.1499C210.328 80.5257 208.201 78.3984 205.577 78.3984C202.952 78.3984 200.825 80.5257 200.825 83.1499C200.825 85.7741 202.952 87.9014 205.577 87.9014Z" fill="#FEB7B7"/>
<path opacity="0.5" d="M162.92 126.114C162.214 126.114 161.861 125.795 161.861 125.156V117.871H161.059C160.763 117.871 160.539 117.775 160.386 117.585C160.243 117.384 160.172 117.165 160.172 116.926C160.172 116.688 160.243 116.473 160.386 116.282C160.539 116.082 160.763 115.982 161.059 115.982H162.877C163.573 115.982 163.921 116.301 163.921 116.941V125.156C163.921 125.48 163.84 125.723 163.678 125.886C163.526 126.038 163.273 126.114 162.92 126.114ZM169.284 126.114C168.521 126.114 167.863 125.948 167.309 125.614C166.765 125.27 166.35 124.721 166.064 123.968C165.778 123.214 165.635 122.217 165.635 120.977C165.635 119.727 165.778 118.725 166.064 117.971C166.35 117.217 166.765 116.673 167.309 116.339C167.853 115.996 168.511 115.824 169.284 115.824C170.067 115.824 170.725 115.996 171.259 116.339C171.803 116.673 172.218 117.217 172.504 117.971C172.791 118.725 172.934 119.727 172.934 120.977C172.934 122.217 172.791 123.214 172.504 123.968C172.218 124.721 171.803 125.27 171.259 125.614C170.715 125.948 170.057 126.114 169.284 126.114ZM169.284 124.225C169.637 124.225 169.923 124.139 170.143 123.968C170.362 123.796 170.525 123.476 170.63 123.009C170.734 122.532 170.787 121.854 170.787 120.977C170.787 120.089 170.734 119.412 170.63 118.944C170.525 118.477 170.362 118.157 170.143 117.985C169.923 117.804 169.637 117.713 169.284 117.713C168.941 117.713 168.654 117.804 168.425 117.985C168.206 118.157 168.044 118.477 167.939 118.944C167.834 119.412 167.781 120.089 167.781 120.977C167.781 121.854 167.834 122.532 167.939 123.009C168.044 123.476 168.206 123.796 168.425 123.968C168.654 124.139 168.941 124.225 169.284 124.225ZM177.964 126.114C177.2 126.114 176.542 125.948 175.989 125.614C175.445 125.27 175.03 124.721 174.743 123.968C174.457 123.214 174.314 122.217 174.314 120.977C174.314 119.727 174.457 118.725 174.743 117.971C175.03 117.217 175.445 116.673 175.989 116.339C176.532 115.996 177.191 115.824 177.964 115.824C178.746 115.824 179.404 115.996 179.939 116.339C180.483 116.673 180.898 117.217 181.184 117.971C181.47 118.725 181.613 119.727 181.613 120.977C181.613 122.217 181.47 123.214 181.184 123.968C180.898 124.721 180.483 125.27 179.939 125.614C179.395 125.948 178.736 126.114 177.964 126.114ZM177.964 124.225C178.317 124.225 178.603 124.139 178.822 123.968C179.042 123.796 179.204 123.476 179.309 123.009C179.414 122.532 179.466 121.854 179.466 120.977C179.466 120.089 179.414 119.412 179.309 118.944C179.204 118.477 179.042 118.157 178.822 117.985C178.603 117.804 178.317 117.713 177.964 117.713C177.62 117.713 177.334 117.804 177.105 117.985C176.885 118.157 176.723 118.477 176.618 118.944C176.513 119.412 176.461 120.089 176.461 120.977C176.461 121.854 176.513 122.532 176.618 123.009C176.723 123.476 176.885 123.796 177.105 123.968C177.334 124.139 177.62 124.225 177.964 124.225Z" fill="#FF0000"/>
<line opacity="0.5" x1="157.981" y1="129.5" x2="184.981" y2="128.5" stroke="#FF0000" stroke-opacity="0.8"/>
<line opacity="0.5" x1="157.981" y1="131.5" x2="184.981" y2="130.5" stroke="#FF0000" stroke-opacity="0.8"/>
</g>
<defs>
<linearGradient id="paint0_linear_171_5425" x1="189.777" y1="125.015" x2="200.757" y2="138.419" gradientUnits="userSpaceOnUse">
<stop stop-color="#95D99E"/>
<stop offset="1" stop-color="#C5ECB3"/>
</linearGradient>
<clipPath id="clip0_171_5425">
<rect width="100.85" height="105.071" fill="white" transform="translate(123.325 46.7266)"/>
</clipPath>
</defs>
</svg>
