<svg width="350" height="200" viewBox="0 0 350 200" fill="none" xmlns="http://www.w3.org/2000/svg">
<g opacity="0.5" filter="url(#filter0_f_171_4878)">
<path fill-rule="evenodd" clip-rule="evenodd" d="M126.396 46.459C126.396 46.4592 126.388 46.4706 126.37 46.4925C126.387 46.4696 126.396 46.4587 126.396 46.459ZM100.63 46.4925C100.612 46.4707 100.604 46.4592 100.604 46.459C100.604 46.4587 100.613 46.4697 100.63 46.4925ZM100.604 70.9956C100.604 70.9953 100.612 70.9839 100.63 70.962C100.613 70.9849 100.604 70.9958 100.604 70.9956ZM126.37 70.962C126.388 70.9839 126.396 70.9953 126.396 70.9956C126.396 70.9958 126.387 70.9849 126.37 70.962ZM113.5 98.4545C136.42 98.4545 155 80.668 155 58.7273C155 36.7865 136.42 19 113.5 19C90.5802 19 72 36.7865 72 58.7273C72 80.668 90.5802 98.4545 113.5 98.4545Z" fill="url(#paint0_radial_171_4878)"/>
</g>
<g opacity="0.5" filter="url(#filter1_f_171_4878)">
<path fill-rule="evenodd" clip-rule="evenodd" d="M186.051 48.3019C186.052 48.3021 186.043 48.3135 186.025 48.3352C186.042 48.3125 186.051 48.3016 186.051 48.3019ZM159.975 48.3352C159.957 48.3135 159.948 48.3021 159.949 48.3019C159.949 48.3016 159.958 48.3125 159.975 48.3352ZM159.949 72.6981C159.948 72.6979 159.957 72.6865 159.975 72.6648C159.958 72.6875 159.949 72.6984 159.949 72.6981ZM186.025 72.6647C186.043 72.6865 186.052 72.6979 186.051 72.6981C186.051 72.6984 186.042 72.6875 186.025 72.6647ZM173 100C196.196 100 215 82.3152 215 60.5C215 38.6848 196.196 21 173 21C149.804 21 131 38.6848 131 60.5C131 82.3152 149.804 100 173 100Z" fill="url(#paint1_radial_171_4878)"/>
</g>
<g opacity="0.5" filter="url(#filter2_f_171_4878)">
<path fill-rule="evenodd" clip-rule="evenodd" d="M248.396 50.9663C248.396 50.9665 248.388 50.976 248.37 50.9943C248.387 50.9752 248.396 50.966 248.396 50.9663ZM222.63 50.9943C222.612 50.976 222.604 50.9665 222.604 50.9663C222.604 50.966 222.613 50.9752 222.63 50.9943ZM222.604 71.4883C222.604 71.4881 222.612 71.4785 222.63 71.4602C222.613 71.4794 222.604 71.4885 222.604 71.4883ZM248.37 71.4602C248.388 71.4785 248.396 71.4881 248.396 71.4883C248.396 71.4885 248.387 71.4793 248.37 71.4602ZM235.5 94.4545C258.42 94.4545 277 79.5782 277 61.2273C277 42.8764 258.42 28 235.5 28C212.58 28 194 42.8764 194 61.2273C194 79.5782 212.58 94.4545 235.5 94.4545Z" fill="url(#paint2_radial_171_4878)"/>
</g>
<g filter="url(#filter3_d_171_4878)">
<path d="M154.957 74.2577L154.957 48.1723C154.957 45.8405 156.847 43.9501 159.179 43.9501L178.078 43.9501C180.41 43.9501 182.3 45.8405 182.3 48.1723L182.3 74.2577C182.3 76.5895 180.41 78.4798 178.078 78.4798L159.179 78.4798C156.847 78.4798 154.957 76.5895 154.957 74.2577Z" fill="#FAFDAC" stroke="#343A40" stroke-width="1.20634"/>
<path d="M157.615 71.0185C158.256 71.0185 158.775 71.5359 158.775 72.1743C158.775 72.8126 158.256 73.3301 157.615 73.3301C156.974 73.3301 156.455 72.8126 156.455 72.1743C156.455 71.536 156.974 71.0185 157.615 71.0185Z" fill="#343A40"/>
<path d="M152.743 72.1747C152.743 71.7917 153.089 71.4812 153.516 71.4812L156.61 71.4812C157.037 71.4812 157.383 71.7917 157.383 72.1747C157.383 72.5577 157.037 72.8682 156.61 72.8682L153.516 72.8682C153.089 72.8682 152.743 72.5577 152.743 72.1747Z" fill="#343A40"/>
<path d="M157.615 67.5038C158.256 67.5038 158.775 68.0213 158.775 68.6596C158.775 69.298 158.256 69.8154 157.615 69.8154C156.974 69.8154 156.455 69.298 156.455 68.6596C156.455 68.0213 156.974 67.5038 157.615 67.5038Z" fill="#343A40"/>
<path d="M152.743 68.661C152.743 68.278 153.089 67.9675 153.516 67.9675L156.61 67.9675C157.037 67.9675 157.383 68.278 157.383 68.661C157.383 69.044 157.037 69.3545 156.61 69.3545L153.516 69.3545C153.089 69.3545 152.743 69.044 152.743 68.661Z" fill="#343A40"/>
<path d="M157.615 63.9931C158.256 63.9931 158.775 64.5106 158.775 65.1489C158.775 65.7872 158.256 66.3047 157.615 66.3047C156.974 66.3047 156.455 65.7872 156.455 65.1489C156.455 64.5106 156.974 63.9931 157.615 63.9931Z" fill="#343A40"/>
<path d="M152.743 65.1493C152.743 64.7663 153.089 64.4558 153.516 64.4558L156.61 64.4558C157.037 64.4558 157.383 64.7663 157.383 65.1493C157.383 65.5323 157.037 65.8428 156.61 65.8428L153.516 65.8428C153.089 65.8428 152.743 65.5323 152.743 65.1493Z" fill="#343A40"/>
<path d="M157.615 60.4784C158.256 60.4784 158.775 60.9959 158.775 61.6342C158.775 62.2726 158.256 62.79 157.615 62.79C156.974 62.79 156.455 62.2726 156.455 61.6342C156.455 60.9959 156.974 60.4784 157.615 60.4784Z" fill="#343A40"/>
<path d="M152.743 61.6337C152.743 61.2507 153.089 60.9402 153.516 60.9402L156.61 60.9402C157.037 60.9402 157.383 61.2507 157.383 61.6337C157.383 62.0167 157.037 62.3271 156.61 62.3271L153.516 62.3271C153.089 62.3271 152.743 62.0167 152.743 61.6337Z" fill="#343A40"/>
<path d="M157.615 56.9657C158.256 56.9657 158.775 57.4832 158.775 58.1215C158.775 58.7599 158.256 59.2773 157.615 59.2773C156.974 59.2773 156.455 58.7599 156.455 58.1215C156.455 57.4832 156.974 56.9657 157.615 56.9657Z" fill="#343A40"/>
<path d="M152.743 58.122C152.743 57.739 153.089 57.4285 153.516 57.4285L156.61 57.4285C157.037 57.4285 157.383 57.739 157.383 58.122C157.383 58.5049 157.037 58.8154 156.61 58.8154L153.516 58.8154C153.089 58.8154 152.743 58.5049 152.743 58.122Z" fill="#343A40"/>
<path d="M157.615 53.4511C158.256 53.4511 158.775 53.9686 158.775 54.6069C158.775 55.2452 158.256 55.7627 157.615 55.7627C156.974 55.7627 156.455 55.2452 156.455 54.6069C156.455 53.9686 156.974 53.4511 157.615 53.4511Z" fill="#343A40"/>
<path d="M152.743 54.6073C152.743 54.2243 153.089 53.9138 153.516 53.9138L156.61 53.9138C157.037 53.9138 157.383 54.2243 157.383 54.6073C157.383 54.9903 157.037 55.3008 156.61 55.3008L153.516 55.3008C153.089 55.3008 152.743 54.9903 152.743 54.6073Z" fill="#343A40"/>
<path d="M157.615 49.9355C158.256 49.9355 158.775 50.4529 158.775 51.0913C158.775 51.7296 158.256 52.2471 157.615 52.2471C156.974 52.2471 156.455 51.7296 156.455 51.0913C156.455 50.4529 156.974 49.9355 157.615 49.9355Z" fill="#343A40"/>
<path d="M152.743 51.0917C152.743 50.7087 153.089 50.3982 153.516 50.3982L156.61 50.3982C157.037 50.3982 157.383 50.7087 157.383 51.0917C157.383 51.4747 157.037 51.7852 156.61 51.7852L153.516 51.7852C153.089 51.7852 152.743 51.4747 152.743 51.0917Z" fill="#343A40"/>
<path d="M157.615 46.4238C158.256 46.4238 158.775 46.9412 158.775 47.5796C158.775 48.2179 158.256 48.7354 157.615 48.7354C156.974 48.7354 156.455 48.2179 156.455 47.5796C156.455 46.9412 156.974 46.4238 157.615 46.4238Z" fill="#343A40"/>
<path d="M152.743 47.5809C152.743 47.1979 153.089 46.8875 153.516 46.8875L156.61 46.8875C157.037 46.8875 157.383 47.1979 157.383 47.5809C157.383 47.9639 157.037 48.2744 156.61 48.2744L153.516 48.2744C153.089 48.2744 152.743 47.9639 152.743 47.5809Z" fill="#343A40"/>
<path d="M164.736 57.2881C163.466 57.2917 162.396 58.3591 162.393 59.625C162.391 60.8842 163.437 61.9721 164.656 61.9781C165.946 61.9847 167.008 60.9059 167.013 59.5853C167.017 58.2845 166.027 57.2845 164.736 57.2881ZM165.569 58.1017C165.956 58.0963 166.232 58.3639 166.241 58.753C166.249 59.1114 165.972 59.3983 165.604 59.4115C165.222 59.4253 164.926 59.1319 164.919 58.735C164.913 58.3693 165.183 58.1065 165.569 58.1011V58.1017Z" fill="#18231C"/>
<path d="M173.543 59.6117C173.549 60.8396 174.655 61.9576 175.865 61.9582C177.068 61.9582 178.118 60.8727 178.112 59.6357C178.106 58.3332 177.039 57.288 175.719 57.291C174.553 57.2934 173.538 58.3765 173.543 59.6117ZM176.677 58.1047C177.07 58.1023 177.347 58.3729 177.345 58.7577C177.344 59.1336 177.095 59.4114 176.752 59.4198C176.364 59.4295 176.052 59.121 176.041 58.7168C176.031 58.3681 176.303 58.1071 176.677 58.1047Z" fill="#18231C"/>
<path d="M171.781 62.2671C171.866 62.1541 171.894 61.9694 171.881 61.8233C171.874 61.7379 171.744 61.6231 171.65 61.599C171.574 61.5798 171.457 61.664 171.38 61.7283C171.314 61.783 171.282 61.8768 171.229 61.9496C170.807 62.5323 169.987 62.474 169.653 61.8377C169.561 61.6621 169.497 61.4372 169.22 61.5707C169.011 61.6712 168.941 61.9322 169.087 62.1685C169.684 63.1403 171.124 63.1438 171.781 62.2671Z" fill="#18231C"/>
<path d="M165.569 58.1016C165.183 58.107 164.913 58.3692 164.919 58.7354C164.925 59.1323 165.222 59.4258 165.604 59.4119C165.972 59.3987 166.249 59.1112 166.241 58.7534C166.232 58.3644 165.956 58.0968 165.569 58.1022V58.1016Z" fill="white"/>
<path d="M176.678 58.1035C176.303 58.1059 176.031 58.3669 176.041 58.7157C176.052 59.1192 176.364 59.4283 176.752 59.4187C177.095 59.4103 177.344 59.1319 177.346 58.7566C177.347 58.3717 177.07 58.1011 176.678 58.1035Z" fill="white"/>
<path d="M176.236 64.4754C175.682 64.4754 175.232 64.0269 175.232 63.4735C175.232 62.9202 175.682 62.4717 176.236 62.4717C176.79 62.4717 177.239 62.9202 177.239 63.4735C177.239 64.0269 176.79 64.4754 176.236 64.4754Z" fill="#FEB7B7"/>
<path d="M164.084 64.4754C163.53 64.4754 163.081 64.0269 163.081 63.4735C163.081 62.9202 163.53 62.4717 164.084 62.4717C164.639 62.4717 165.088 62.9202 165.088 63.4735C165.088 64.0269 164.639 64.4754 164.084 64.4754Z" fill="#FEB7B7"/>
<path d="M177.875 46.5721C178.784 46.5721 179.52 47.3062 179.52 48.2106C179.52 49.115 178.784 49.8492 177.875 49.8492C176.966 49.8492 176.23 49.115 176.23 48.2106C176.23 47.3062 176.966 46.5721 177.875 46.5721Z" fill="#343A40" stroke="#343A40" stroke-width="0.329001"/>
<ellipse cx="177.874" cy="48.2102" rx="1.00171" ry="1.0053" transform="rotate(-90 177.874 48.2102)" fill="#FAFDAC"/>
</g>
<g filter="url(#filter4_d_171_4878)">
<path d="M169.706 74.2577L169.706 48.1723C169.706 45.8405 171.596 43.9501 173.928 43.9501L192.827 43.9501C195.159 43.9501 197.049 45.8405 197.049 48.1723L197.049 74.2577C197.049 76.5895 195.159 78.4798 192.827 78.4798L173.928 78.4798C171.596 78.4798 169.706 76.5895 169.706 74.2577Z" fill="#FAFDAC" stroke="#343A40" stroke-width="1.20634"/>
<path d="M172.367 71.0195C173.008 71.0195 173.527 71.5369 173.527 72.1753C173.527 72.8136 173.008 73.3311 172.367 73.3311C171.726 73.3311 171.207 72.8136 171.207 72.1753C171.207 71.5369 171.726 71.0195 172.367 71.0195Z" fill="#343A40"/>
<path d="M167.495 72.1757C167.495 71.7927 167.841 71.4822 168.268 71.4822L171.362 71.4822C171.789 71.4822 172.135 71.7927 172.135 72.1757C172.135 72.5587 171.789 72.8691 171.362 72.8691L168.268 72.8691C167.841 72.8691 167.495 72.5587 167.495 72.1757Z" fill="#343A40"/>
<path d="M172.367 67.5068C173.008 67.5068 173.527 68.0242 173.527 68.6626C173.527 69.3009 173.008 69.8184 172.367 69.8184C171.726 69.8184 171.207 69.3009 171.207 68.6626C171.207 68.0242 171.726 67.5068 172.367 67.5068Z" fill="#343A40"/>
<path d="M167.495 68.663C167.495 68.28 167.841 67.9695 168.268 67.9695L171.362 67.9695C171.789 67.9695 172.135 68.28 172.135 68.663C172.135 69.046 171.789 69.3564 171.362 69.3564L168.268 69.3564C167.841 69.3564 167.495 69.046 167.495 68.663Z" fill="#343A40"/>
<path d="M172.367 63.9931C173.008 63.9931 173.527 64.5106 173.527 65.1489C173.527 65.7872 173.008 66.3047 172.367 66.3047C171.726 66.3047 171.207 65.7872 171.207 65.1489C171.207 64.5106 171.726 63.9931 172.367 63.9931Z" fill="#343A40"/>
<path d="M167.495 65.1493C167.495 64.7663 167.841 64.4558 168.268 64.4558L171.362 64.4558C171.789 64.4558 172.135 64.7663 172.135 65.1493C172.135 65.5323 171.789 65.8428 171.362 65.8428L168.268 65.8428C167.841 65.8428 167.495 65.5323 167.495 65.1493Z" fill="#343A40"/>
<path d="M172.367 60.4794C173.008 60.4794 173.527 60.9969 173.527 61.6352C173.527 62.2735 173.008 62.791 172.367 62.791C171.726 62.791 171.207 62.2735 171.207 61.6352C171.207 60.9969 171.726 60.4794 172.367 60.4794Z" fill="#343A40"/>
<path d="M167.495 61.6337C167.495 61.2507 167.841 60.9402 168.268 60.9402L171.362 60.9402C171.789 60.9402 172.135 61.2507 172.135 61.6337C172.135 62.0167 171.789 62.3271 171.362 62.3271L168.268 62.3271C167.841 62.3271 167.495 62.0167 167.495 61.6337Z" fill="#343A40"/>
<path d="M172.367 56.9657C173.008 56.9657 173.527 57.4832 173.527 58.1215C173.527 58.7599 173.008 59.2773 172.367 59.2773C171.726 59.2773 171.207 58.7599 171.207 58.1215C171.207 57.4832 171.726 56.9657 172.367 56.9657Z" fill="#343A40"/>
<path d="M167.495 58.122C167.495 57.739 167.841 57.4285 168.268 57.4285L171.362 57.4285C171.789 57.4285 172.135 57.739 172.135 58.122C172.135 58.5049 171.789 58.8154 171.362 58.8154L168.268 58.8154C167.841 58.8154 167.495 58.5049 167.495 58.122Z" fill="#343A40"/>
<path d="M172.367 53.4511C173.008 53.4511 173.527 53.9686 173.527 54.6069C173.527 55.2452 173.008 55.7627 172.367 55.7627C171.726 55.7627 171.207 55.2452 171.207 54.6069C171.207 53.9686 171.726 53.4511 172.367 53.4511Z" fill="#343A40"/>
<path d="M167.495 54.6073C167.495 54.2243 167.841 53.9138 168.268 53.9138L171.362 53.9138C171.789 53.9138 172.135 54.2243 172.135 54.6073C172.135 54.9903 171.789 55.3008 171.362 55.3008L168.268 55.3008C167.841 55.3008 167.495 54.9903 167.495 54.6073Z" fill="#343A40"/>
<path d="M172.367 49.9365C173.008 49.9365 173.527 50.4539 173.527 51.0922C173.527 51.7306 173.008 52.248 172.367 52.248C171.726 52.248 171.207 51.7306 171.207 51.0922C171.207 50.4539 171.726 49.9365 172.367 49.9365Z" fill="#343A40"/>
<path d="M167.495 51.0927C167.495 50.7097 167.841 50.3992 168.268 50.3992L171.362 50.3992C171.789 50.3992 172.135 50.7097 172.135 51.0927C172.135 51.4757 171.789 51.7861 171.362 51.7861L168.268 51.7861C167.841 51.7861 167.495 51.4757 167.495 51.0927Z" fill="#343A40"/>
<path d="M172.367 46.4247C173.008 46.4247 173.527 46.9422 173.527 47.5805C173.527 48.2189 173.008 48.7363 172.367 48.7363C171.726 48.7363 171.207 48.2189 171.207 47.5805C171.207 46.9422 171.726 46.4247 172.367 46.4247Z" fill="#343A40"/>
<path d="M167.495 47.5819C167.495 47.1989 167.841 46.8884 168.268 46.8884L171.362 46.8884C171.789 46.8884 172.135 47.1989 172.135 47.5819C172.135 47.9649 171.789 48.2754 171.362 48.2754L168.268 48.2754C167.841 48.2754 167.495 47.9649 167.495 47.5819Z" fill="#343A40"/>
<path d="M179.488 57.2881C178.218 57.2917 177.148 58.3591 177.145 59.625C177.143 60.8842 178.188 61.9721 179.408 61.9781C180.698 61.9847 181.76 60.9059 181.765 59.5853C181.769 58.2845 180.779 57.2845 179.488 57.2881ZM180.321 58.1017C180.708 58.0963 180.984 58.3639 180.993 58.753C181.001 59.1114 180.724 59.3983 180.356 59.4115C179.974 59.4253 179.678 59.1319 179.671 58.735C179.665 58.3693 179.935 58.1065 180.321 58.1011V58.1017Z" fill="#18231C"/>
<path d="M188.295 59.6117C188.301 60.8396 189.407 61.9576 190.617 61.9582C191.82 61.9582 192.87 60.8727 192.864 59.6357C192.858 58.3332 191.791 57.288 190.471 57.291C189.305 57.2934 188.29 58.3765 188.295 59.6117ZM191.429 58.1047C191.822 58.1023 192.099 58.3729 192.097 58.7577C192.096 59.1336 191.847 59.4114 191.504 59.4198C191.116 59.4295 190.804 59.121 190.793 58.7168C190.783 58.3681 191.055 58.1071 191.429 58.1047Z" fill="#18231C"/>
<path d="M186.533 62.2671C186.618 62.1541 186.645 61.9694 186.633 61.8233C186.626 61.7379 186.496 61.6231 186.402 61.599C186.326 61.5798 186.209 61.664 186.132 61.7283C186.066 61.783 186.033 61.8768 185.98 61.9496C185.559 62.5323 184.739 62.474 184.405 61.8377C184.313 61.6621 184.249 61.4372 183.972 61.5707C183.763 61.6712 183.693 61.9322 183.839 62.1685C184.436 63.1403 185.876 63.1438 186.533 62.2671Z" fill="#18231C"/>
<path d="M180.321 58.1016C179.935 58.107 179.665 58.3692 179.671 58.7354C179.677 59.1323 179.974 59.4258 180.356 59.4119C180.724 59.3987 181.001 59.1112 180.993 58.7534C180.984 58.3644 180.708 58.0968 180.321 58.1022V58.1016Z" fill="white"/>
<path d="M191.43 58.1035C191.055 58.1059 190.783 58.3669 190.793 58.7157C190.804 59.1192 191.116 59.4283 191.504 59.4187C191.847 59.4103 192.096 59.1319 192.098 58.7566C192.099 58.3717 191.822 58.1011 191.43 58.1035Z" fill="white"/>
<path d="M190.988 64.4754C190.433 64.4754 189.984 64.0269 189.984 63.4735C189.984 62.9202 190.433 62.4717 190.988 62.4717C191.542 62.4717 191.991 62.9202 191.991 63.4735C191.991 64.0269 191.542 64.4754 190.988 64.4754Z" fill="#FEB7B7"/>
<path d="M178.836 64.4754C178.282 64.4754 177.833 64.0269 177.833 63.4735C177.833 62.9202 178.282 62.4717 178.836 62.4717C179.391 62.4717 179.84 62.9202 179.84 63.4735C179.84 64.0269 179.391 64.4754 178.836 64.4754Z" fill="#FEB7B7"/>
<path d="M192.627 46.5731C193.536 46.5731 194.272 47.3072 194.272 48.2116C194.272 49.116 193.536 49.8501 192.627 49.8501C191.718 49.8501 190.982 49.116 190.982 48.2116C190.982 47.3072 191.718 46.5731 192.627 46.5731Z" fill="#343A40" stroke="#343A40" stroke-width="0.329001"/>
<ellipse cx="192.626" cy="48.2112" rx="1.00171" ry="1.0053" transform="rotate(-90 192.626 48.2112)" fill="#FAFDAC"/>
</g>
<g filter="url(#filter5_d_171_4878)">
<path d="M96.0577 78.7444L96.0577 42.6729C96.0577 39.4484 98.6717 36.8344 101.896 36.8344L128.031 36.8344C131.255 36.8344 133.869 39.4484 133.869 42.6729L133.869 78.7444C133.869 81.9689 131.255 84.5829 128.031 84.5829L101.896 84.5829C98.6717 84.5829 96.0577 81.9689 96.0577 78.7444Z" fill="#C5ECB3" stroke="#343A40" stroke-width="1.66815"/>
<path d="M99.7378 74.6482C100.624 74.6482 101.342 75.3638 101.342 76.2465C101.342 77.1292 100.624 77.8447 99.7378 77.8447C98.8519 77.8447 98.1338 77.1292 98.1338 76.2465C98.1338 75.3638 98.8519 74.6482 99.7378 74.6482Z" fill="#343A40"/>
<path d="M93 76.2471C93 75.7175 93.4788 75.2881 94.0693 75.2881L98.3466 75.2881C98.9372 75.2881 99.416 75.7175 99.416 76.2471C99.416 76.7767 98.9372 77.2061 98.3466 77.2061L94.0693 77.2061C93.4788 77.2061 93 76.7767 93 76.2471Z" fill="#343A40"/>
<path d="M99.7378 69.7917C100.624 69.7917 101.342 70.5073 101.342 71.39C101.342 72.2727 100.624 72.9883 99.7378 72.9883C98.8519 72.9883 98.1338 72.2727 98.1338 71.39C98.1338 70.5073 98.8519 69.7917 99.7378 69.7917Z" fill="#343A40"/>
<path d="M93 71.3897C93 70.8601 93.4788 70.4307 94.0693 70.4307L98.3466 70.4307C98.9372 70.4307 99.416 70.8601 99.416 71.3897C99.416 71.9193 98.9372 72.3486 98.3466 72.3486L94.0693 72.3486C93.4788 72.3486 93 71.9193 93 71.3897Z" fill="#343A40"/>
<path d="M99.7378 64.9304C100.624 64.9304 101.342 65.646 101.342 66.5287C101.342 67.4114 100.624 68.127 99.7378 68.127C98.8519 68.127 98.1338 67.4114 98.1338 66.5287C98.1338 65.646 98.8519 64.9304 99.7378 64.9304Z" fill="#343A40"/>
<path d="M93 66.5293C93 65.9997 93.4788 65.5704 94.0693 65.5704L98.3466 65.5704C98.9372 65.5704 99.416 65.9997 99.416 66.5293C99.416 67.0589 98.9372 67.4883 98.3466 67.4883L94.0693 67.4883C93.4788 67.4883 93 67.0589 93 66.5293Z" fill="#343A40"/>
<path d="M99.7378 60.071C100.624 60.071 101.342 60.7866 101.342 61.6693C101.342 62.552 100.624 63.2676 99.7378 63.2676C98.8519 63.2676 98.1338 62.552 98.1338 61.6693C98.1338 60.7866 98.8519 60.071 99.7378 60.071Z" fill="#343A40"/>
<path d="M93 61.6699C93 61.1403 93.4788 60.711 94.0693 60.711L98.3466 60.711C98.9372 60.711 99.416 61.1403 99.416 61.6699C99.416 62.1996 98.9372 62.6289 98.3466 62.6289L94.0693 62.6289C93.4788 62.6289 93 62.1996 93 61.6699Z" fill="#343A40"/>
<path d="M99.7378 55.2146C100.624 55.2146 101.342 55.9302 101.342 56.8129C101.342 57.6956 100.624 58.4111 99.7378 58.4111C98.8519 58.4111 98.1338 57.6956 98.1338 56.8129C98.1338 55.9302 98.8519 55.2146 99.7378 55.2146Z" fill="#343A40"/>
<path d="M93 56.8135C93 56.2839 93.4788 55.8545 94.0693 55.8545L98.3466 55.8545C98.9372 55.8545 99.416 56.2839 99.416 56.8135C99.416 57.3431 98.9372 57.7725 98.3466 57.7725L94.0693 57.7725C93.4788 57.7725 93 57.3431 93 56.8135Z" fill="#343A40"/>
<path d="M99.7378 50.3542C100.624 50.3542 101.342 51.0698 101.342 51.9525C101.342 52.8352 100.624 53.5508 99.7378 53.5508C98.8519 53.5508 98.1338 52.8352 98.1338 51.9525C98.1338 51.0698 98.8519 50.3542 99.7378 50.3542Z" fill="#343A40"/>
<path d="M93 51.9531C93 51.4235 93.4788 50.9942 94.0693 50.9942L98.3466 50.9942C98.9372 50.9942 99.416 51.4235 99.416 51.9531C99.416 52.4828 98.9372 52.9121 98.3466 52.9121L94.0693 52.9121C93.4788 52.9121 93 52.4828 93 51.9531Z" fill="#343A40"/>
<path d="M99.7378 45.4958C100.624 45.4958 101.342 46.2114 101.342 47.0941C101.342 47.9768 100.624 48.6924 99.7378 48.6924C98.8519 48.6924 98.1338 47.9768 98.1338 47.0941C98.1338 46.2114 98.8519 45.4958 99.7378 45.4958Z" fill="#343A40"/>
<path d="M93 47.0938C93 46.5642 93.4788 46.1348 94.0693 46.1348L98.3466 46.1348C98.9372 46.1348 99.416 46.5642 99.416 47.0938C99.416 47.6234 98.9372 48.0527 98.3466 48.0527L94.0693 48.0527C93.4788 48.0527 93 47.6234 93 47.0938Z" fill="#343A40"/>
<path d="M99.7378 40.6384C100.624 40.6384 101.342 41.354 101.342 42.2367C101.342 43.1194 100.624 43.835 99.7378 43.835C98.8519 43.835 98.1338 43.1194 98.1338 42.2367C98.1338 41.354 98.8519 40.6384 99.7378 40.6384Z" fill="#343A40"/>
<path d="M93 42.2364C93 41.7067 93.4788 41.2774 94.0693 41.2774L98.3466 41.2774C98.9372 41.2774 99.416 41.7067 99.416 42.2364C99.416 42.766 98.9372 43.1953 98.3466 43.1953L94.0693 43.1953C93.4788 43.1953 93 42.766 93 42.2364Z" fill="#343A40"/>
<path d="M109.586 55.6045C107.829 55.6095 106.349 57.0855 106.345 58.836C106.342 60.5773 107.788 62.0816 109.474 62.0899C111.258 62.0991 112.727 60.6073 112.733 58.7811C112.74 56.9824 111.37 55.5995 109.586 55.6045ZM110.737 56.7296C111.272 56.7221 111.654 57.0922 111.666 57.6302C111.678 58.1258 111.294 58.5225 110.786 58.5408C110.258 58.5599 109.848 58.1541 109.839 57.6053C109.831 57.0997 110.203 56.7363 110.737 56.7288V56.7296Z" fill="#18231C"/>
<path d="M121.765 58.8184C121.773 60.5165 123.302 62.0624 124.975 62.0632C126.639 62.0632 128.091 60.5622 128.083 58.8517C128.074 57.0505 126.599 55.6052 124.774 55.6094C123.161 55.6127 121.758 57.1104 121.765 58.8184ZM126.099 56.7345C126.641 56.7312 127.024 57.1054 127.023 57.6376C127.021 58.1573 126.676 58.5415 126.202 58.5532C125.666 58.5665 125.234 58.1399 125.218 57.581C125.205 57.0987 125.581 56.7378 126.099 56.7345Z" fill="#18231C"/>
<path d="M119.327 62.4906C119.445 62.3343 119.483 62.079 119.466 61.8769C119.456 61.7588 119.277 61.6 119.147 61.5667C119.042 61.5401 118.88 61.6565 118.774 61.7455C118.682 61.8212 118.637 61.9509 118.564 62.0515C117.981 62.8573 116.847 62.7767 116.385 61.8969C116.258 61.654 116.169 61.343 115.786 61.5276C115.498 61.6665 115.401 62.0274 115.602 62.3542C116.428 63.698 118.418 63.7029 119.327 62.4906Z" fill="#18231C"/>
<path d="M110.737 56.7305C110.203 56.738 109.831 57.1005 109.839 57.6069C109.848 58.1558 110.258 58.5616 110.786 58.5425C111.294 58.5242 111.678 58.1267 111.667 57.6319C111.654 57.0939 111.273 56.7238 110.737 56.7313V56.7305Z" fill="white"/>
<path d="M126.099 56.7334C125.581 56.7367 125.205 57.0976 125.218 57.58C125.233 58.1379 125.666 58.5654 126.202 58.5521C126.676 58.5404 127.021 58.1554 127.022 57.6365C127.024 57.1043 126.642 56.7301 126.099 56.7334Z" fill="white"/>
<path d="M125.487 65.5442C124.721 65.5442 124.1 64.924 124.1 64.1588C124.1 63.3937 124.721 62.7734 125.487 62.7734C126.254 62.7734 126.875 63.3937 126.875 64.1588C126.875 64.924 126.254 65.5442 125.487 65.5442Z" fill="#FEB7B7"/>
<path d="M108.685 65.5442C107.918 65.5442 107.297 64.924 107.297 64.1588C107.297 63.3937 107.918 62.7734 108.685 62.7734C109.451 62.7734 110.072 63.3937 110.072 64.1588C110.072 64.924 109.451 65.5442 108.685 65.5442Z" fill="#FEB7B7"/>
<path d="M127.755 40.8424C129.012 40.8424 130.03 41.8577 130.03 43.1083C130.03 44.3589 129.012 45.3741 127.755 45.3741C126.498 45.3741 125.48 44.3589 125.48 43.1083C125.48 41.8577 126.498 40.8424 127.755 40.8424Z" fill="#343A40" stroke="#343A40" stroke-width="0.454951"/>
<ellipse cx="127.754" cy="43.109" rx="1.38519" ry="1.39015" transform="rotate(-90 127.754 43.109)" fill="#C5ECB3"/>
</g>
<g filter="url(#filter6_d_171_4878)">
<path d="M213.28 71.0223L213.28 52.0056C213.28 50.3057 214.658 48.9276 216.358 48.9276L230.135 48.9276C231.835 48.9276 233.214 50.3057 233.214 52.0056L233.214 71.0223C233.214 72.7222 231.835 74.1003 230.135 74.1003L216.358 74.1003C214.658 74.1003 213.28 72.7222 213.28 71.0223Z" fill="#FFE9E3" stroke="#343A40" stroke-width="0.879439"/>
<path d="M215.217 68.392C215.684 68.392 216.062 68.7692 216.062 69.2346C216.062 69.6999 215.684 70.0771 215.217 70.0771C214.75 70.0771 214.371 69.6999 214.371 69.2346C214.371 68.7692 214.75 68.392 215.217 68.392Z" fill="#343A40"/>
<path d="M211.666 69.2337C211.666 68.9545 211.918 68.7281 212.23 68.7281L214.485 68.7281C214.796 68.7281 215.048 68.9545 215.048 69.2337C215.048 69.5129 214.796 69.7393 214.485 69.7393L212.23 69.7393C211.918 69.7393 211.666 69.5129 211.666 69.2337Z" fill="#343A40"/>
<path d="M215.218 65.8295C215.685 65.8295 216.063 66.2067 216.063 66.6721C216.063 67.1374 215.685 67.5146 215.218 67.5146C214.751 67.5146 214.372 67.1374 214.372 66.6721C214.372 66.2067 214.751 65.8295 215.218 65.8295Z" fill="#343A40"/>
<path d="M211.666 66.6722C211.666 66.393 211.918 66.1666 212.23 66.1666L214.485 66.1666C214.796 66.1666 215.048 66.393 215.048 66.6722C215.048 66.9514 214.796 67.1777 214.485 67.1777L212.23 67.1777C211.918 67.1777 211.666 66.9514 211.666 66.6722Z" fill="#343A40"/>
<path d="M215.217 63.2689C215.684 63.2689 216.062 63.6462 216.062 64.1115C216.062 64.5769 215.684 64.9541 215.217 64.9541C214.75 64.9541 214.371 64.5769 214.371 64.1115C214.371 63.6462 214.75 63.2689 215.217 63.2689Z" fill="#343A40"/>
<path d="M211.666 64.1126C211.666 63.8334 211.918 63.607 212.23 63.607L214.485 63.607C214.796 63.607 215.048 63.8334 215.048 64.1126C215.048 64.3918 214.796 64.6182 214.485 64.6182L212.23 64.6182C211.918 64.6182 211.666 64.3918 211.666 64.1126Z" fill="#343A40"/>
<path d="M215.217 60.7084C215.684 60.7084 216.062 61.0856 216.062 61.551C216.062 62.0163 215.684 62.3936 215.217 62.3936C214.75 62.3936 214.371 62.0163 214.371 61.551C214.371 61.0856 214.75 60.7084 215.217 60.7084Z" fill="#343A40"/>
<path d="M211.666 61.5511C211.666 61.2719 211.918 61.0455 212.23 61.0455L214.485 61.0455C214.796 61.0455 215.048 61.2719 215.048 61.5511C215.048 61.8303 214.796 62.0566 214.485 62.0566L212.23 62.0566C211.918 62.0566 211.666 61.8303 211.666 61.5511Z" fill="#343A40"/>
<path d="M215.218 58.1449C215.685 58.1449 216.063 58.5221 216.063 58.9875C216.063 59.4528 215.685 59.8301 215.218 59.8301C214.751 59.8301 214.372 59.4528 214.372 58.9875C214.372 58.5221 214.751 58.1449 215.218 58.1449Z" fill="#343A40"/>
<path d="M211.666 58.9886C211.666 58.7094 211.918 58.483 212.23 58.483L214.485 58.483C214.796 58.483 215.048 58.7094 215.048 58.9886C215.048 59.2678 214.796 59.4941 214.485 59.4941L212.23 59.4941C211.918 59.4941 211.666 59.2678 211.666 58.9886Z" fill="#343A40"/>
<path d="M215.217 55.5834C215.684 55.5834 216.062 55.9606 216.062 56.426C216.062 56.8913 215.684 57.2686 215.217 57.2686C214.75 57.2686 214.371 56.8913 214.371 56.426C214.371 55.9606 214.75 55.5834 215.217 55.5834Z" fill="#343A40"/>
<path d="M211.666 56.4271C211.666 56.1478 211.918 55.9215 212.23 55.9215L214.485 55.9215C214.796 55.9215 215.048 56.1478 215.048 56.4271C215.048 56.7063 214.796 56.9326 214.485 56.9326L212.23 56.9326C211.918 56.9326 211.666 56.7063 211.666 56.4271Z" fill="#343A40"/>
<path d="M215.217 53.0228C215.684 53.0228 216.062 53.4001 216.062 53.8654C216.062 54.3308 215.684 54.708 215.217 54.708C214.75 54.708 214.371 54.3308 214.371 53.8654C214.371 53.4001 214.75 53.0228 215.217 53.0228Z" fill="#343A40"/>
<path d="M211.666 53.8646C211.666 53.5853 211.918 53.359 212.23 53.359L214.485 53.359C214.796 53.359 215.048 53.5853 215.048 53.8646C215.048 54.1438 214.796 54.3701 214.485 54.3701L212.23 54.3701C211.918 54.3701 211.666 54.1438 211.666 53.8646Z" fill="#343A40"/>
<path d="M215.218 50.4603C215.685 50.4603 216.063 50.8376 216.063 51.3029C216.063 51.7683 215.685 52.1455 215.218 52.1455C214.751 52.1455 214.372 51.7683 214.372 51.3029C214.372 50.8376 214.751 50.4603 215.218 50.4603Z" fill="#343A40"/>
<path d="M211.666 51.303C211.666 51.0238 211.918 50.7975 212.23 50.7975L214.485 50.7975C214.796 50.7975 215.048 51.0238 215.048 51.303C215.048 51.5822 214.796 51.8086 214.485 51.8086L212.23 51.8086C211.918 51.8086 211.666 51.5822 211.666 51.303Z" fill="#343A40"/>
<path d="M220.411 58.4209C219.485 58.4235 218.704 59.2017 218.703 60.1245C218.701 61.0425 219.463 61.8356 220.352 61.84C221.293 61.8448 222.067 61.0583 222.07 60.0956C222.074 59.1473 221.351 58.4183 220.411 58.4209ZM221.018 59.0141C221.3 59.0101 221.501 59.2052 221.508 59.4888C221.514 59.7501 221.311 59.9593 221.044 59.9689C220.765 59.979 220.549 59.765 220.544 59.4757C220.54 59.2091 220.736 59.0176 221.018 59.0136V59.0141Z" fill="#18231C"/>
<path d="M226.831 60.1146C226.835 61.0099 227.642 61.8248 228.524 61.8253C229.401 61.8253 230.166 61.034 230.162 60.1322C230.157 59.1826 229.38 58.4207 228.417 58.4229C227.567 58.4246 226.827 59.2142 226.831 60.1146ZM229.116 59.016C229.402 59.0143 229.604 59.2115 229.603 59.4921C229.602 59.7661 229.42 59.9687 229.171 59.9748C228.888 59.9818 228.66 59.7569 228.652 59.4623C228.645 59.208 228.843 59.0178 229.116 59.016Z" fill="#18231C"/>
<path d="M225.546 62.0508C225.608 61.9684 225.628 61.8338 225.619 61.7273C225.614 61.665 225.519 61.5813 225.451 61.5638C225.395 61.5497 225.31 61.6111 225.254 61.658C225.206 61.6979 225.182 61.7663 225.143 61.8194C224.836 62.2442 224.238 62.2016 223.995 61.7378C223.928 61.6098 223.881 61.4458 223.679 61.5432C223.527 61.6164 223.476 61.8067 223.582 61.9789C224.017 62.6874 225.067 62.6899 225.546 62.0508Z" fill="#18231C"/>
<path d="M221.018 59.0137C220.736 59.0176 220.54 59.2088 220.544 59.4757C220.549 59.7651 220.765 59.979 221.044 59.9689C221.311 59.9593 221.514 59.7497 221.508 59.4889C221.501 59.2053 221.3 59.0102 221.018 59.0141V59.0137Z" fill="white"/>
<path d="M229.116 59.0147C228.842 59.0164 228.644 59.2067 228.651 59.461C228.659 59.7551 228.887 59.9805 229.17 59.9734C229.42 59.9673 229.602 59.7643 229.603 59.4908C229.603 59.2102 229.402 59.0129 229.116 59.0147Z" fill="white"/>
<path d="M228.794 63.6609C228.39 63.6609 228.062 63.3339 228.062 62.9306C228.062 62.5272 228.39 62.2002 228.794 62.2002C229.198 62.2002 229.525 62.5272 229.525 62.9306C229.525 63.3339 229.198 63.6609 228.794 63.6609Z" fill="#FEB7B7"/>
<path d="M219.936 63.6609C219.532 63.6609 219.205 63.3339 219.205 62.9306C219.205 62.5272 219.532 62.2002 219.936 62.2002C220.34 62.2002 220.668 62.5272 220.668 62.9306C220.668 63.3339 220.34 63.6609 219.936 63.6609Z" fill="#FEB7B7"/>
<path d="M229.988 50.5672C230.651 50.5672 231.187 51.1024 231.187 51.7617C231.187 52.421 230.651 52.9562 229.988 52.9562C229.325 52.9562 228.789 52.421 228.789 51.7617C228.789 51.1024 229.325 50.5672 229.988 50.5672Z" fill="#343A40" stroke="#343A40" stroke-width="0.239847"/>
<ellipse cx="229.988" cy="51.7619" rx="0.730263" ry="0.732879" transform="rotate(-90 229.988 51.7619)" fill="#FFE9E3"/>
</g>
<g filter="url(#filter7_d_171_4878)">
<path d="M225.08 71.0213L225.08 52.0047C225.08 50.3047 226.458 48.9266 228.158 48.9266L241.936 48.9266C243.636 48.9266 245.014 50.3047 245.014 52.0047L245.014 71.0213C245.014 72.7213 243.636 74.0993 241.936 74.0993L228.158 74.0993C226.458 74.0993 225.08 72.7213 225.08 71.0213Z" fill="#FFE9E3" stroke="#343A40" stroke-width="0.879439"/>
<path d="M227.02 68.39C227.487 68.39 227.866 68.7672 227.866 69.2326C227.866 69.698 227.487 70.0752 227.02 70.0752C226.553 70.0752 226.175 69.698 226.175 69.2326C226.175 68.7672 226.553 68.39 227.02 68.39Z" fill="#343A40"/>
<path d="M223.469 69.2327C223.469 68.9535 223.721 68.7272 224.032 68.7272L226.287 68.7272C226.599 68.7272 226.851 68.9535 226.851 69.2327C226.851 69.5119 226.599 69.7383 226.287 69.7383L224.032 69.7383C223.721 69.7383 223.469 69.5119 223.469 69.2327Z" fill="#343A40"/>
<path d="M227.02 65.8285C227.487 65.8285 227.866 66.2057 227.866 66.6711C227.866 67.1364 227.487 67.5137 227.02 67.5137C226.553 67.5137 226.175 67.1364 226.175 66.6711C226.175 66.2057 226.553 65.8285 227.02 65.8285Z" fill="#343A40"/>
<path d="M223.469 66.6712C223.469 66.392 223.721 66.1656 224.032 66.1656L226.287 66.1656C226.599 66.1656 226.851 66.392 226.851 66.6712C226.851 66.9504 226.599 67.1768 226.287 67.1768L224.032 67.1768C223.721 67.1768 223.469 66.9504 223.469 66.6712Z" fill="#343A40"/>
<path d="M227.019 63.2679C227.486 63.2679 227.865 63.6452 227.865 64.1105C227.865 64.5759 227.486 64.9531 227.019 64.9531C226.552 64.9531 226.174 64.5759 226.174 64.1105C226.174 63.6452 226.552 63.2679 227.019 63.2679Z" fill="#343A40"/>
<path d="M223.469 64.1107C223.469 63.8314 223.721 63.6051 224.032 63.6051L226.287 63.6051C226.599 63.6051 226.851 63.8314 226.851 64.1107C226.851 64.3899 226.599 64.6162 226.287 64.6162L224.032 64.6162C223.721 64.6162 223.469 64.3899 223.469 64.1107Z" fill="#343A40"/>
<path d="M227.019 60.7074C227.486 60.7074 227.865 61.0846 227.865 61.55C227.865 62.0153 227.486 62.3926 227.019 62.3926C226.552 62.3926 226.174 62.0153 226.174 61.55C226.174 61.0846 226.552 60.7074 227.019 60.7074Z" fill="#343A40"/>
<path d="M223.469 61.5501C223.469 61.2709 223.721 61.0445 224.032 61.0445L226.287 61.0445C226.599 61.0445 226.851 61.2709 226.851 61.5501C226.851 61.8293 226.599 62.0557 226.287 62.0557L224.032 62.0557C223.721 62.0557 223.469 61.8293 223.469 61.5501Z" fill="#343A40"/>
<path d="M227.02 58.1429C227.487 58.1429 227.866 58.5202 227.866 58.9855C227.866 59.4509 227.487 59.8281 227.02 59.8281C226.553 59.8281 226.175 59.4509 226.175 58.9855C226.175 58.5202 226.553 58.1429 227.02 58.1429Z" fill="#343A40"/>
<path d="M223.469 58.9866C223.469 58.7074 223.721 58.4811 224.032 58.4811L226.287 58.4811C226.599 58.4811 226.851 58.7074 226.851 58.9866C226.851 59.2658 226.599 59.4922 226.287 59.4922L224.032 59.4922C223.721 59.4922 223.469 59.2658 223.469 58.9866Z" fill="#343A40"/>
<path d="M227.02 55.5824C227.487 55.5824 227.866 55.9596 227.866 56.425C227.866 56.8903 227.487 57.2676 227.02 57.2676C226.553 57.2676 226.175 56.8903 226.175 56.425C226.175 55.9596 226.553 55.5824 227.02 55.5824Z" fill="#343A40"/>
<path d="M223.469 56.4261C223.469 56.1469 223.721 55.9205 224.032 55.9205L226.287 55.9205C226.599 55.9205 226.851 56.1469 226.851 56.4261C226.851 56.7053 226.599 56.9316 226.287 56.9316L224.032 56.9316C223.721 56.9316 223.469 56.7053 223.469 56.4261Z" fill="#343A40"/>
<path d="M227.02 53.0209C227.487 53.0209 227.866 53.3981 227.866 53.8635C227.866 54.3288 227.487 54.7061 227.02 54.7061C226.553 54.7061 226.175 54.3288 226.175 53.8635C226.175 53.3981 226.553 53.0209 227.02 53.0209Z" fill="#343A40"/>
<path d="M223.469 53.8636C223.469 53.5844 223.721 53.358 224.032 53.358L226.287 53.358C226.599 53.358 226.851 53.5844 226.851 53.8636C226.851 54.1428 226.599 54.3691 226.287 54.3691L224.032 54.3691C223.721 54.3691 223.469 54.1428 223.469 53.8636Z" fill="#343A40"/>
<path d="M227.019 50.4593C227.486 50.4593 227.865 50.8366 227.865 51.3019C227.865 51.7673 227.486 52.1445 227.019 52.1445C226.552 52.1445 226.174 51.7673 226.174 51.3019C226.174 50.8366 226.552 50.4593 227.019 50.4593Z" fill="#343A40"/>
<path d="M223.469 51.3021C223.469 51.0228 223.721 50.7965 224.032 50.7965L226.287 50.7965C226.599 50.7965 226.851 51.0228 226.851 51.3021C226.851 51.5813 226.599 51.8076 226.287 51.8076L224.032 51.8076C223.721 51.8076 223.469 51.5813 223.469 51.3021Z" fill="#343A40"/>
<path d="M232.212 58.4199C231.286 58.4226 230.505 59.2007 230.503 60.1236C230.502 61.0416 231.264 61.8346 232.153 61.839C233.093 61.8438 233.868 61.0573 233.871 60.0946C233.875 59.1464 233.152 58.4173 232.212 58.4199ZM232.818 59.0131C233.101 59.0091 233.302 59.2042 233.309 59.4879C233.315 59.7492 233.112 59.9583 232.844 59.9679C232.566 59.978 232.35 59.7641 232.345 59.4747C232.341 59.2082 232.537 59.0166 232.818 59.0126V59.0131Z" fill="#18231C"/>
<path d="M238.632 60.1137C238.636 61.0089 239.442 61.8239 240.324 61.8243C241.201 61.8243 241.967 61.033 241.963 60.1312C241.958 59.1816 241.18 58.4197 240.218 58.4219C239.368 58.4236 238.628 59.2132 238.632 60.1137ZM240.917 59.015C241.203 59.0133 241.405 59.2106 241.404 59.4911C241.403 59.7651 241.221 59.9677 240.971 59.9738C240.689 59.9808 240.461 59.7559 240.453 59.4613C240.446 59.2071 240.644 59.0168 240.917 59.015Z" fill="#18231C"/>
<path d="M237.348 62.0499C237.41 61.9674 237.43 61.8329 237.421 61.7263C237.415 61.6641 237.321 61.5803 237.253 61.5628C237.197 61.5488 237.112 61.6101 237.056 61.6571C237.008 61.697 236.984 61.7653 236.945 61.8184C236.638 62.2432 236.04 62.2007 235.797 61.7368C235.73 61.6088 235.683 61.4449 235.481 61.5422C235.329 61.6154 235.278 61.8057 235.384 61.978C235.819 62.6864 236.869 62.689 237.348 62.0499Z" fill="#18231C"/>
<path d="M232.819 59.0127C232.538 59.0166 232.342 59.2078 232.346 59.4748C232.35 59.7641 232.567 59.9781 232.845 59.968C233.113 59.9583 233.316 59.7488 233.309 59.4879C233.303 59.2043 233.102 59.0092 232.819 59.0131V59.0127Z" fill="white"/>
<path d="M240.916 59.0137C240.643 59.0154 240.445 59.2057 240.452 59.46C240.46 59.7541 240.688 59.9795 240.971 59.9725C241.221 59.9663 241.402 59.7633 241.403 59.4898C241.404 59.2092 241.203 59.0119 240.916 59.0137Z" fill="white"/>
<path d="M240.595 63.66C240.191 63.66 239.863 63.333 239.863 62.9296C239.863 62.5262 240.191 62.1992 240.595 62.1992C240.999 62.1992 241.326 62.5262 241.326 62.9296C241.326 63.333 240.999 63.66 240.595 63.66Z" fill="#FEB7B7"/>
<path d="M231.737 63.66C231.333 63.66 231.006 63.333 231.006 62.9296C231.006 62.5262 231.333 62.1992 231.737 62.1992C232.141 62.1992 232.469 62.5262 232.469 62.9296C232.469 63.333 232.141 63.66 231.737 63.66Z" fill="#FEB7B7"/>
<path d="M241.79 50.5662C242.453 50.5662 242.989 51.1014 242.989 51.7607C242.989 52.4201 242.453 52.9553 241.79 52.9553C241.127 52.9553 240.591 52.4201 240.591 51.7607C240.591 51.1014 241.127 50.5662 241.79 50.5662Z" fill="#343A40" stroke="#343A40" stroke-width="0.239847"/>
<ellipse cx="241.79" cy="51.7609" rx="0.730263" ry="0.732879" transform="rotate(-90 241.79 51.7609)" fill="#FFE9E3"/>
</g>
<g filter="url(#filter8_d_171_4878)">
<path d="M237.619 71.0223L237.619 52.0056C237.619 50.3057 238.997 48.9276 240.697 48.9276L254.475 48.9276C256.175 48.9276 257.553 50.3057 257.553 52.0056L257.553 71.0223C257.553 72.7222 256.175 74.1003 254.475 74.1003L240.697 74.1003C238.997 74.1003 237.619 72.7222 237.619 71.0223Z" fill="#FFE9E3" stroke="#343A40" stroke-width="0.879439"/>
<path d="M239.56 68.392C240.027 68.392 240.406 68.7692 240.406 69.2346C240.406 69.6999 240.027 70.0771 239.56 70.0771C239.093 70.0771 238.715 69.6999 238.715 69.2346C238.715 68.7692 239.093 68.392 239.56 68.392Z" fill="#343A40"/>
<path d="M236.009 69.2337C236.009 68.9545 236.261 68.7281 236.573 68.7281L238.828 68.7281C239.139 68.7281 239.391 68.9545 239.391 69.2337C239.391 69.5129 239.139 69.7393 238.828 69.7393L236.573 69.7393C236.261 69.7393 236.009 69.5129 236.009 69.2337Z" fill="#343A40"/>
<path d="M239.56 65.8295C240.027 65.8295 240.406 66.2067 240.406 66.6721C240.406 67.1374 240.027 67.5146 239.56 67.5146C239.093 67.5146 238.715 67.1374 238.715 66.6721C238.715 66.2067 239.093 65.8295 239.56 65.8295Z" fill="#343A40"/>
<path d="M236.009 66.6722C236.009 66.393 236.261 66.1666 236.573 66.1666L238.828 66.1666C239.139 66.1666 239.391 66.393 239.391 66.6722C239.391 66.9514 239.139 67.1777 238.828 67.1777L236.573 67.1777C236.261 67.1777 236.009 66.9514 236.009 66.6722Z" fill="#343A40"/>
<path d="M239.56 63.2689C240.027 63.2689 240.406 63.6462 240.406 64.1115C240.406 64.5769 240.027 64.9541 239.56 64.9541C239.093 64.9541 238.715 64.5769 238.715 64.1115C238.715 63.6462 239.093 63.2689 239.56 63.2689Z" fill="#343A40"/>
<path d="M236.009 64.1116C236.009 63.8324 236.261 63.6061 236.573 63.6061L238.828 63.6061C239.139 63.6061 239.391 63.8324 239.391 64.1116C239.391 64.3908 239.139 64.6172 238.828 64.6172L236.573 64.6172C236.261 64.6172 236.009 64.3908 236.009 64.1116Z" fill="#343A40"/>
<path d="M239.56 60.7084C240.027 60.7084 240.406 61.0856 240.406 61.551C240.406 62.0163 240.027 62.3936 239.56 62.3936C239.093 62.3936 238.715 62.0163 238.715 61.551C238.715 61.0856 239.093 60.7084 239.56 60.7084Z" fill="#343A40"/>
<path d="M236.009 61.5511C236.009 61.2719 236.261 61.0455 236.573 61.0455L238.828 61.0455C239.139 61.0455 239.391 61.2719 239.391 61.5511C239.391 61.8303 239.139 62.0566 238.828 62.0566L236.573 62.0566C236.261 62.0566 236.009 61.8303 236.009 61.5511Z" fill="#343A40"/>
<path d="M239.56 58.1449C240.027 58.1449 240.406 58.5221 240.406 58.9875C240.406 59.4528 240.027 59.8301 239.56 59.8301C239.093 59.8301 238.715 59.4528 238.715 58.9875C238.715 58.5221 239.093 58.1449 239.56 58.1449Z" fill="#343A40"/>
<path d="M236.009 58.9886C236.009 58.7094 236.261 58.483 236.573 58.483L238.828 58.483C239.139 58.483 239.391 58.7094 239.391 58.9886C239.391 59.2678 239.139 59.4941 238.828 59.4941L236.573 59.4941C236.261 59.4941 236.009 59.2678 236.009 58.9886Z" fill="#343A40"/>
<path d="M239.56 55.5834C240.027 55.5834 240.406 55.9606 240.406 56.426C240.406 56.8913 240.027 57.2686 239.56 57.2686C239.093 57.2686 238.715 56.8913 238.715 56.426C238.715 55.9606 239.093 55.5834 239.56 55.5834Z" fill="#343A40"/>
<path d="M236.009 56.4271C236.009 56.1478 236.261 55.9215 236.573 55.9215L238.828 55.9215C239.139 55.9215 239.391 56.1478 239.391 56.4271C239.391 56.7063 239.139 56.9326 238.828 56.9326L236.573 56.9326C236.261 56.9326 236.009 56.7063 236.009 56.4271Z" fill="#343A40"/>
<path d="M239.56 53.0228C240.027 53.0228 240.406 53.4001 240.406 53.8654C240.406 54.3308 240.027 54.708 239.56 54.708C239.093 54.708 238.715 54.3308 238.715 53.8654C238.715 53.4001 239.093 53.0228 239.56 53.0228Z" fill="#343A40"/>
<path d="M236.009 53.8646C236.009 53.5853 236.261 53.359 236.573 53.359L238.828 53.359C239.139 53.359 239.391 53.5853 239.391 53.8646C239.391 54.1438 239.139 54.3701 238.828 54.3701L236.573 54.3701C236.261 54.3701 236.009 54.1438 236.009 53.8646Z" fill="#343A40"/>
<path d="M239.56 50.4603C240.027 50.4603 240.406 50.8376 240.406 51.3029C240.406 51.7683 240.027 52.1455 239.56 52.1455C239.093 52.1455 238.715 51.7683 238.715 51.3029C238.715 50.8376 239.093 50.4603 239.56 50.4603Z" fill="#343A40"/>
<path d="M236.009 51.303C236.009 51.0238 236.261 50.7975 236.573 50.7975L238.828 50.7975C239.139 50.7975 239.391 51.0238 239.391 51.303C239.391 51.5822 239.139 51.8086 238.828 51.8086L236.573 51.8086C236.261 51.8086 236.009 51.5822 236.009 51.303Z" fill="#343A40"/>
<path d="M244.752 58.4209C243.826 58.4235 243.045 59.2017 243.043 60.1245C243.042 61.0425 243.804 61.8356 244.693 61.84C245.633 61.8448 246.408 61.0583 246.411 60.0956C246.415 59.1473 245.692 58.4183 244.752 58.4209ZM245.359 59.0141C245.641 59.0101 245.842 59.2052 245.849 59.4888C245.855 59.7501 245.652 59.9593 245.384 59.9689C245.106 59.979 244.89 59.765 244.885 59.4757C244.881 59.2091 245.077 59.0176 245.359 59.0136V59.0141Z" fill="#18231C"/>
<path d="M251.172 60.1146C251.176 61.0099 251.982 61.8248 252.865 61.8253C253.741 61.8253 254.507 61.034 254.503 60.1322C254.498 59.1826 253.72 58.4207 252.758 58.4229C251.908 58.4246 251.168 59.2142 251.172 60.1146ZM253.457 59.016C253.743 59.0143 253.945 59.2115 253.944 59.4921C253.943 59.7661 253.761 59.9687 253.511 59.9748C253.229 59.9818 253.001 59.7569 252.993 59.4623C252.986 59.208 253.184 59.0178 253.457 59.016Z" fill="#18231C"/>
<path d="M249.888 62.0508C249.95 61.9684 249.97 61.8338 249.961 61.7273C249.955 61.665 249.861 61.5813 249.793 61.5638C249.737 61.5497 249.652 61.6111 249.596 61.658C249.548 61.6979 249.524 61.7663 249.485 61.8194C249.178 62.2442 248.58 62.2016 248.337 61.7378C248.27 61.6098 248.223 61.4458 248.021 61.5432C247.869 61.6164 247.818 61.8067 247.924 61.9789C248.359 62.6874 249.409 62.6899 249.888 62.0508Z" fill="#18231C"/>
<path d="M245.358 59.0146C245.077 59.0186 244.881 59.2097 244.885 59.4767C244.889 59.7661 245.106 59.98 245.384 59.9699C245.652 59.9603 245.855 59.7507 245.848 59.4899C245.842 59.2062 245.641 59.0111 245.358 59.0151V59.0146Z" fill="white"/>
<path d="M253.457 59.0147C253.184 59.0164 252.986 59.2067 252.993 59.461C253.001 59.7551 253.229 59.9805 253.512 59.9734C253.762 59.9673 253.943 59.7643 253.944 59.4908C253.945 59.2102 253.744 59.0129 253.457 59.0147Z" fill="white"/>
<path d="M253.135 63.6609C252.731 63.6609 252.403 63.3339 252.403 62.9306C252.403 62.5272 252.731 62.2002 253.135 62.2002C253.539 62.2002 253.866 62.5272 253.866 62.9306C253.866 63.3339 253.539 63.6609 253.135 63.6609Z" fill="#FEB7B7"/>
<path d="M244.277 63.6609C243.873 63.6609 243.546 63.3339 243.546 62.9306C243.546 62.5272 243.873 62.2002 244.277 62.2002C244.681 62.2002 245.009 62.5272 245.009 62.9306C245.009 63.3339 244.681 63.6609 244.277 63.6609Z" fill="#FEB7B7"/>
<path d="M254.329 50.5672C254.992 50.5672 255.528 51.1024 255.528 51.7617C255.528 52.421 254.992 52.9562 254.329 52.9562C253.666 52.9562 253.13 52.421 253.13 51.7617C253.13 51.1024 253.666 50.5672 254.329 50.5672Z" fill="#343A40" stroke="#343A40" stroke-width="0.239847"/>
<ellipse cx="254.329" cy="51.7619" rx="0.730263" ry="0.732879" transform="rotate(-90 254.329 51.7619)" fill="#FFE9E3"/>
</g>
<rect opacity="0.5" x="16" y="136" width="318" height="59.8667" rx="19" fill="white" stroke="#BBBBBB" stroke-width="2"/>
<path d="M285.183 167H281.983C281.769 167 281.585 166.929 281.428 166.787C281.272 166.645 281.179 166.467 281.151 166.254L280.895 164.27C280.71 164.198 280.536 164.113 280.372 164.014C280.209 163.914 280.049 163.807 279.892 163.694L278.036 164.462C277.837 164.533 277.638 164.54 277.439 164.483C277.24 164.426 277.083 164.305 276.969 164.12L275.391 161.368C275.277 161.183 275.241 160.984 275.284 160.771C275.327 160.558 275.433 160.387 275.604 160.259L277.204 159.043C277.19 158.943 277.183 158.847 277.183 158.754V158.178C277.183 158.086 277.19 157.99 277.204 157.891L275.604 156.675C275.433 156.547 275.327 156.376 275.284 156.163C275.241 155.95 275.277 155.75 275.391 155.566L276.969 152.814C277.069 152.614 277.222 152.49 277.428 152.44C277.634 152.39 277.837 152.401 278.036 152.472L279.892 153.24C280.049 153.126 280.212 153.02 280.383 152.92C280.553 152.821 280.724 152.735 280.895 152.664L281.151 150.68C281.179 150.467 281.272 150.289 281.428 150.147C281.585 150.005 281.769 149.934 281.983 149.934H285.183C285.396 149.934 285.581 150.005 285.737 150.147C285.894 150.289 285.986 150.467 286.015 150.68L286.271 152.664C286.456 152.735 286.63 152.821 286.794 152.92C286.957 153.02 287.117 153.126 287.273 153.24L289.129 152.472C289.328 152.401 289.528 152.394 289.727 152.451C289.926 152.508 290.082 152.629 290.196 152.814L291.775 155.566C291.889 155.75 291.924 155.95 291.881 156.163C291.839 156.376 291.732 156.547 291.561 156.675L289.961 157.891C289.976 157.99 289.983 158.086 289.983 158.178V158.754C289.983 158.847 289.969 158.943 289.94 159.043L291.54 160.259C291.711 160.387 291.817 160.558 291.86 160.771C291.903 160.984 291.867 161.183 291.753 161.368L290.175 164.099C290.061 164.284 289.901 164.408 289.695 164.473C289.489 164.536 289.286 164.533 289.087 164.462L287.273 163.694C287.117 163.807 286.953 163.914 286.783 164.014C286.612 164.113 286.441 164.198 286.271 164.27L286.015 166.254C285.986 166.467 285.894 166.645 285.737 166.787C285.581 166.929 285.396 167 285.183 167ZM283.625 161.454C284.45 161.454 285.154 161.162 285.737 160.579C286.32 159.996 286.612 159.292 286.612 158.467C286.612 157.642 286.32 156.938 285.737 156.355C285.154 155.772 284.45 155.48 283.625 155.48C282.786 155.48 282.079 155.772 281.502 156.355C280.927 156.938 280.639 157.642 280.639 158.467C280.639 159.292 280.927 159.996 281.502 160.579C282.079 161.162 282.786 161.454 283.625 161.454Z" fill="#B4B4B4"/>
<path d="M205.934 163.445V167H209.489L219.974 156.515L216.419 152.96L205.934 163.445ZM222.723 153.766C223.093 153.396 223.093 152.799 222.723 152.429L220.505 150.211C220.135 149.841 219.538 149.841 219.168 150.211L217.433 151.946L220.988 155.501L222.723 153.766Z" fill="#B4B4B4"/>
<path d="M81.3216 149.431C80.068 149.036 78.6901 148.866 77.3687 148.866C75.1663 148.866 72.7946 149.318 71.1569 150.56C69.5193 149.318 67.1475 148.866 64.9452 148.866C62.7428 148.866 60.371 149.318 58.7334 150.56V167.106C58.7334 167.389 59.0158 167.671 59.2981 167.671C59.411 167.671 59.4675 167.614 59.5805 167.614C61.1052 166.88 63.3075 166.372 64.9452 166.372C67.1475 166.372 69.5193 166.824 71.1569 168.066C72.6816 167.106 75.4487 166.372 77.3687 166.372C79.2322 166.372 81.1522 166.711 82.7334 167.558C82.8463 167.614 82.9028 167.614 83.0158 167.614C83.2981 167.614 83.5805 167.332 83.5805 167.05V150.56C82.9028 150.052 82.1687 149.713 81.3216 149.431ZM81.3216 164.678C80.0793 164.283 78.724 164.113 77.3687 164.113C75.4487 164.113 72.6816 164.847 71.1569 165.807V152.819C72.6816 151.859 75.4487 151.125 77.3687 151.125C78.724 151.125 80.0793 151.294 81.3216 151.69V164.678Z" fill="#42C153"/>
<path d="M77.369 155.642C78.3629 155.642 79.3229 155.744 80.1925 155.936V154.219C79.3003 154.05 78.3403 153.948 77.369 153.948C75.449 153.948 73.7097 154.276 72.2866 154.886V156.76C73.5629 156.038 75.336 155.642 77.369 155.642Z" fill="#42C153"/>
<path d="M72.2866 157.891V159.765C73.5629 159.043 75.336 158.647 77.369 158.647C78.3629 158.647 79.3229 158.749 80.1925 158.941V157.224C79.3003 157.055 78.3403 156.953 77.369 156.953C75.449 156.953 73.7097 157.292 72.2866 157.891Z" fill="#42C153"/>
<path d="M77.369 159.968C75.449 159.968 73.7097 160.295 72.2866 160.905V162.78C73.5629 162.057 75.336 161.662 77.369 161.662C78.3629 161.662 79.3229 161.764 80.1925 161.956V160.239C79.3003 160.058 78.3403 159.968 77.369 159.968Z" fill="#42C153"/>
<g opacity="0.9">
<path fill-rule="evenodd" clip-rule="evenodd" d="M144.966 149.933C141.822 149.933 139.037 151.639 137.6 154.244L135.534 152.178V158.017H141.373L138.858 155.502C140.025 153.256 142.271 151.729 144.966 151.729C148.649 151.729 151.703 154.783 151.703 158.466C151.703 162.149 148.649 165.203 144.966 165.203C142.002 165.203 139.576 163.316 138.588 160.712H136.702C137.69 164.305 141.013 166.999 144.966 166.999C149.726 166.999 153.499 163.137 153.499 158.466C153.499 153.795 149.637 149.933 144.966 149.933ZM143.618 154.424V159.005L147.84 161.52L148.559 160.352L144.966 158.196V154.424H143.618Z" fill="#B4B4B4"/>
</g>
<path d="M55.9068 176.718C58.0123 176.718 59.5806 177.781 59.5914 179.393C59.5806 180.864 58.3399 181.858 56.5836 182.057V183.722H60.397V184.85H51.4488V183.722H55.2193V182.046C53.4683 181.858 52.233 180.859 52.233 179.393C52.233 177.781 53.8013 176.718 55.9068 176.718ZM55.9068 177.813C54.5425 177.813 53.5865 178.415 53.5865 179.393C53.5865 180.424 54.5425 181.004 55.9068 181.004C57.2818 181.004 58.2271 180.424 58.2379 179.393C58.2271 178.415 57.2818 177.813 55.9068 177.813ZM68.4915 176.213V178.329H69.8128V179.457H68.4915V181.444H67.1165V176.213H68.4915ZM65.4729 176.804V177.899H62.4866V180.112C64.2537 180.102 65.2259 180.048 66.3216 179.801L66.4612 180.907C65.2366 181.165 64.1087 181.219 61.9388 181.219H61.1116V176.804H65.4729ZM63.4427 181.917V182.819H67.1165V181.917H68.4915V185.87H62.0677V181.917H63.4427ZM63.4427 184.774H67.1165V183.894H63.4427V184.774ZM77.8161 176.922V177.534C77.8161 178.211 77.8161 179.188 77.5905 180.402L76.2478 180.273C76.4196 179.333 76.4626 178.625 76.4734 178.039H72.7888V176.922H77.8161ZM75.3884 179.178V181.047C76.3606 181.009 77.3596 180.934 78.278 180.8L78.3532 181.788C76.323 182.164 74.0241 182.196 72.3269 182.207L72.2087 181.111C72.7566 181.111 73.3742 181.111 74.0241 181.09V179.178H75.3884ZM80.2116 176.213V179.188H81.3933V180.338H80.2116V183.528H78.8044V176.213H80.2116ZM80.5124 184.721V185.816H73.6482V182.873H75.0232V184.721H80.5124ZM89.8207 176.213V186.01H88.4565V176.213H89.8207ZM86.7914 177.029V180.8H83.5688V182.594C85.0566 182.588 86.3242 182.502 87.7582 182.271L87.8764 183.378C86.2651 183.657 84.8149 183.722 83.0317 183.722H82.1508V179.715H85.395V178.136H82.1401V177.029H86.7914Z" fill="#42C153"/>
<path d="M283.057 176.245V181.219H281.865V178.759H279.931V177.803H281.865V176.245H283.057ZM283.057 181.638V184.151H277.847V184.893H283.369V185.838H276.676V183.26H281.876V182.572H276.666V181.638H283.057ZM278.449 177.341C278.449 178.533 279.233 179.672 280.737 180.134L280.103 181.058C279.05 180.703 278.288 180.021 277.869 179.135C277.439 180.128 276.644 180.896 275.495 181.272L274.872 180.316C276.429 179.844 277.246 178.651 277.246 177.341V176.567H278.449V177.341ZM292.344 176.245V182.014H291.152V179.64H289.497V178.662H291.152V176.245H292.344ZM289.057 182.261C291.119 182.261 292.376 182.938 292.376 184.108C292.376 185.279 291.119 185.956 289.057 185.956C287.005 185.956 285.748 185.279 285.759 184.108C285.748 182.938 287.005 182.261 289.057 182.261ZM289.057 183.174C287.703 183.174 286.941 183.496 286.941 184.108C286.941 184.71 287.703 185.032 289.057 185.032C290.411 185.032 291.184 184.71 291.184 184.108C291.184 183.496 290.411 183.174 289.057 183.174ZM287.779 177.91C287.779 179.092 288.563 180.284 290.067 180.789L289.465 181.734C288.386 181.369 287.618 180.628 287.199 179.715C286.769 180.751 285.958 181.579 284.803 181.992L284.18 181.047C285.738 180.51 286.565 179.199 286.565 177.921V177.846H284.545V176.879H289.787V177.846H287.779V177.91Z" fill="#B4B4B4"/>
<path d="M203.306 181.101V182.057H199.557V183.84H198.375V182.057H194.433V181.101H203.306ZM202.167 176.686V180.198H195.561V176.686H202.167ZM196.721 177.62V179.264H200.985V177.62H196.721ZM202.328 184.796V185.763H195.507V182.948H196.699V184.796H202.328ZM212.088 176.245V185.956H210.949V176.245H212.088ZM210.111 176.428V185.483H208.983V180.596H207.587V179.629H208.983V176.428H210.111ZM206.727 178.898C206.727 180.542 207.318 182.186 208.704 182.98L207.995 183.861C207.098 183.324 206.502 182.4 206.169 181.294C205.825 182.492 205.207 183.512 204.289 184.087L203.558 183.195C204.966 182.347 205.578 180.585 205.578 178.898V178.254H203.891V177.287H208.296V178.254H206.727V178.898ZM224.27 180.746V181.724H215.407V180.746H224.27ZM223.249 179.027V179.983H216.492V176.557H223.196V177.523H217.685V179.027H223.249ZM219.822 182.4C221.917 182.39 223.174 183.034 223.185 184.162C223.174 185.301 221.917 185.945 219.822 185.945C217.706 185.945 216.439 185.301 216.439 184.162C216.439 183.034 217.706 182.39 219.822 182.4ZM219.822 183.313C218.405 183.313 217.642 183.614 217.653 184.162C217.642 184.731 218.405 185.021 219.822 185.021C221.208 185.021 221.982 184.731 221.992 184.162C221.982 183.614 221.208 183.313 219.822 183.313ZM233.557 181.498V182.465H224.684V181.498H228.529V180.692H225.811V178.114H231.268V177.395H225.779V176.46H232.461V178.984H226.993V179.758H232.654V180.692H229.711V181.498H233.557ZM232.515 183.077V185.892H231.311V184.022H225.672V183.077H232.515Z" fill="#B4B4B4"/>
<path d="M129.858 176.793C131.942 176.793 133.479 177.835 133.479 179.414C133.479 180.87 132.227 181.842 130.449 182.014V183.797H134.316V184.774H125.443V183.797H129.268V182.014C127.501 181.842 126.249 180.87 126.26 179.414C126.249 177.835 127.785 176.793 129.858 176.793ZM129.858 177.76C128.44 177.749 127.42 178.394 127.431 179.414C127.42 180.467 128.44 181.09 129.858 181.09C131.298 181.09 132.308 180.467 132.308 179.414C132.308 178.394 131.298 177.749 129.858 177.76ZM142.389 176.245V178.404H143.743V179.393H142.389V181.434H141.197V176.245H142.389ZM139.457 176.847V177.813H136.32V180.198C138.146 180.193 139.161 180.139 140.316 179.887L140.445 180.854C139.178 181.122 138.039 181.176 135.923 181.176H135.138V176.847H139.457ZM137.287 181.917V182.916H141.197V181.917H142.389V185.816H136.095V181.917H137.287ZM137.287 184.85H141.197V183.861H137.287V184.85ZM155.259 181.133V182.089H146.407V181.133H150.221V180.198H147.557V176.481H148.738V177.448H152.928V176.481H154.11V180.198H151.424V181.133H155.259ZM154.174 182.862V185.956H152.982V183.808H147.385V182.862H154.174ZM148.738 179.242H152.928V178.34H148.738V179.242ZM157.939 182.067V182.991H162.215V182.067H163.407V185.838H156.758V182.067H157.939ZM157.939 184.893H162.215V183.904H157.939V184.893ZM164.546 180.542V181.52H155.694V180.542H164.546ZM160.732 176.718C160.732 177.76 162.064 178.855 164.073 179.092L163.654 180.037C162.027 179.817 160.743 179.097 160.12 178.114C159.492 179.103 158.203 179.817 156.586 180.037L156.145 179.092C158.176 178.845 159.497 177.792 159.508 176.718V176.353H160.732V176.718Z" fill="#B4B4B4"/>
<defs>
<filter id="filter0_f_171_4878" x="70.8636" y="17.8636" width="85.2727" height="81.7268" filterUnits="userSpaceOnUse" color-interpolation-filters="sRGB">
<feFlood flood-opacity="0" result="BackgroundImageFix"/>
<feBlend mode="normal" in="SourceGraphic" in2="BackgroundImageFix" result="shape"/>
<feGaussianBlur stdDeviation="0.568182" result="effect1_foregroundBlur_171_4878"/>
</filter>
<filter id="filter1_f_171_4878" x="129.864" y="19.8636" width="86.2727" height="81.2727" filterUnits="userSpaceOnUse" color-interpolation-filters="sRGB">
<feFlood flood-opacity="0" result="BackgroundImageFix"/>
<feBlend mode="normal" in="SourceGraphic" in2="BackgroundImageFix" result="shape"/>
<feGaussianBlur stdDeviation="0.568182" result="effect1_foregroundBlur_171_4878"/>
</filter>
<filter id="filter2_f_171_4878" x="192.864" y="26.8636" width="85.2727" height="68.7268" filterUnits="userSpaceOnUse" color-interpolation-filters="sRGB">
<feFlood flood-opacity="0" result="BackgroundImageFix"/>
<feBlend mode="normal" in="SourceGraphic" in2="BackgroundImageFix" result="shape"/>
<feGaussianBlur stdDeviation="0.568182" result="effect1_foregroundBlur_171_4878"/>
</filter>
<filter id="filter3_d_171_4878" x="145.368" y="35.9711" width="44.9114" height="50.4876" filterUnits="userSpaceOnUse" color-interpolation-filters="sRGB">
<feFlood flood-opacity="0" result="BackgroundImageFix"/>
<feColorMatrix in="SourceAlpha" type="matrix" values="0 0 0 0 0 0 0 0 0 0 0 0 0 0 0 0 0 0 127 0" result="hardAlpha"/>
<feOffset/>
<feGaussianBlur stdDeviation="3.68781"/>
<feComposite in2="hardAlpha" operator="out"/>
<feColorMatrix type="matrix" values="0 0 0 0 0 0 0 0 0 0 0 0 0 0 0 0 0 0 0.14 0"/>
<feBlend mode="normal" in2="BackgroundImageFix" result="effect1_dropShadow_171_4878"/>
<feBlend mode="normal" in="SourceGraphic" in2="effect1_dropShadow_171_4878" result="shape"/>
</filter>
<filter id="filter4_d_171_4878" x="160.119" y="35.9711" width="44.9085" height="50.4876" filterUnits="userSpaceOnUse" color-interpolation-filters="sRGB">
<feFlood flood-opacity="0" result="BackgroundImageFix"/>
<feColorMatrix in="SourceAlpha" type="matrix" values="0 0 0 0 0 0 0 0 0 0 0 0 0 0 0 0 0 0 127 0" result="hardAlpha"/>
<feOffset/>
<feGaussianBlur stdDeviation="3.68781"/>
<feComposite in2="hardAlpha" operator="out"/>
<feColorMatrix type="matrix" values="0 0 0 0 0 0 0 0 0 0 0 0 0 0 0 0 0 0 0.14 0"/>
<feBlend mode="normal" in2="BackgroundImageFix" result="effect1_dropShadow_171_4878"/>
<feBlend mode="normal" in="SourceGraphic" in2="effect1_dropShadow_171_4878" result="shape"/>
</filter>
<filter id="filter5_d_171_4878" x="85.6244" y="28.6244" width="56.4544" height="64.1682" filterUnits="userSpaceOnUse" color-interpolation-filters="sRGB">
<feFlood flood-opacity="0" result="BackgroundImageFix"/>
<feColorMatrix in="SourceAlpha" type="matrix" values="0 0 0 0 0 0 0 0 0 0 0 0 0 0 0 0 0 0 127 0" result="hardAlpha"/>
<feOffset/>
<feGaussianBlur stdDeviation="3.68781"/>
<feComposite in2="hardAlpha" operator="out"/>
<feColorMatrix type="matrix" values="0 0 0 0 0 0 0 0 0 0 0 0 0 0 0 0 0 0 0.18 0"/>
<feBlend mode="normal" in2="BackgroundImageFix" result="effect1_dropShadow_171_4878"/>
<feBlend mode="normal" in="SourceGraphic" in2="effect1_dropShadow_171_4878" result="shape"/>
</filter>
<filter id="filter6_d_171_4878" x="201.34" y="38.1624" width="42.6391" height="46.7035" filterUnits="userSpaceOnUse" color-interpolation-filters="sRGB">
<feFlood flood-opacity="0" result="BackgroundImageFix"/>
<feColorMatrix in="SourceAlpha" type="matrix" values="0 0 0 0 0 0 0 0 0 0 0 0 0 0 0 0 0 0 127 0" result="hardAlpha"/>
<feOffset/>
<feGaussianBlur stdDeviation="5.16294"/>
<feComposite in2="hardAlpha" operator="out"/>
<feColorMatrix type="matrix" values="0 0 0 0 0 0 0 0 0 0 0 0 0 0 0 0 0 0 0.14 0"/>
<feBlend mode="normal" in2="BackgroundImageFix" result="effect1_dropShadow_171_4878"/>
<feBlend mode="normal" in="SourceGraphic" in2="effect1_dropShadow_171_4878" result="shape"/>
</filter>
<filter id="filter7_d_171_4878" x="213.143" y="38.1614" width="42.6371" height="46.7035" filterUnits="userSpaceOnUse" color-interpolation-filters="sRGB">
<feFlood flood-opacity="0" result="BackgroundImageFix"/>
<feColorMatrix in="SourceAlpha" type="matrix" values="0 0 0 0 0 0 0 0 0 0 0 0 0 0 0 0 0 0 127 0" result="hardAlpha"/>
<feOffset/>
<feGaussianBlur stdDeviation="5.16294"/>
<feComposite in2="hardAlpha" operator="out"/>
<feColorMatrix type="matrix" values="0 0 0 0 0 0 0 0 0 0 0 0 0 0 0 0 0 0 0.14 0"/>
<feBlend mode="normal" in2="BackgroundImageFix" result="effect1_dropShadow_171_4878"/>
<feBlend mode="normal" in="SourceGraphic" in2="effect1_dropShadow_171_4878" result="shape"/>
</filter>
<filter id="filter8_d_171_4878" x="225.683" y="38.1624" width="42.6361" height="46.7035" filterUnits="userSpaceOnUse" color-interpolation-filters="sRGB">
<feFlood flood-opacity="0" result="BackgroundImageFix"/>
<feColorMatrix in="SourceAlpha" type="matrix" values="0 0 0 0 0 0 0 0 0 0 0 0 0 0 0 0 0 0 127 0" result="hardAlpha"/>
<feOffset/>
<feGaussianBlur stdDeviation="5.16294"/>
<feComposite in2="hardAlpha" operator="out"/>
<feColorMatrix type="matrix" values="0 0 0 0 0 0 0 0 0 0 0 0 0 0 0 0 0 0 0.14 0"/>
<feBlend mode="normal" in2="BackgroundImageFix" result="effect1_dropShadow_171_4878"/>
<feBlend mode="normal" in="SourceGraphic" in2="effect1_dropShadow_171_4878" result="shape"/>
</filter>
<radialGradient id="paint0_radial_171_4878" cx="0" cy="0" r="1" gradientUnits="userSpaceOnUse" gradientTransform="translate(113.5 58.7273) rotate(90) scale(45.3646 47.3889)">
<stop offset="0.0190336" stop-color="#C5ECB3"/>
<stop offset="0.130568" stop-color="#FAFDAC"/>
<stop offset="0.645753" stop-color="#FFE9E3"/>
<stop offset="1" stop-color="white" stop-opacity="0"/>
</radialGradient>
<radialGradient id="paint1_radial_171_4878" cx="0" cy="0" r="1" gradientUnits="userSpaceOnUse" gradientTransform="translate(173 60.5) rotate(90) scale(45.1051 47.9598)">
<stop offset="0.0190336" stop-color="#C5ECB3"/>
<stop offset="0.130568" stop-color="#FAFDAC"/>
<stop offset="0.645753" stop-color="#FFE9E3"/>
<stop offset="1" stop-color="white" stop-opacity="0"/>
</radialGradient>
<radialGradient id="paint2_radial_171_4878" cx="0" cy="0" r="1" gradientUnits="userSpaceOnUse" gradientTransform="translate(235.5 61.2273) rotate(90) scale(37.9422 47.3889)">
<stop offset="0.0190336" stop-color="#C5ECB3"/>
<stop offset="0.130568" stop-color="#FAFDAC"/>
<stop offset="0.645753" stop-color="#FFE9E3"/>
<stop offset="1" stop-color="white" stop-opacity="0"/>
</radialGradient>
</defs>
</svg>
