<svg width="300" height="200" viewBox="0 0 300 200" fill="none" xmlns="http://www.w3.org/2000/svg">
<rect width="300" height="200" fill="white"/>
<g clip-path="url(#clip0_86_5955)">
<path d="M116.721 121.499C115.31 120.481 114.072 119.859 110.322 120.09C106.571 120.321 104.372 121.619 101.283 124.936C100.445 125.837 99.6721 128.692 100.029 128.871C100.388 129.051 100.596 128.193 101.848 127.87C103.1 127.548 103.434 128.418 104.338 128.238C105.245 128.059 104.412 127.528 105.998 126.784C107.584 126.039 110.036 127.517 111.16 128.472C113.248 130.249 116.816 136.093 117.728 135.882C118.641 135.671 117.999 129.542 117.919 127.691C117.839 125.84 118.136 122.517 116.724 121.499H116.721Z" fill="#C5ECB3"/>
<path d="M109.027 129.189C108.457 128.658 106.982 128.302 106.326 128.824C105.67 129.346 105.898 131.12 105.761 131.211C105.624 131.302 103.22 129.189 102.077 130.201C100.933 131.214 102.122 133.139 102.473 133.635C102.396 133.704 100.382 132.814 99.6067 133.587C98.831 134.36 99.641 136.245 99.9005 136.567C101.803 138.923 103.628 141.353 105.696 143.557C107.433 145.414 109.671 146.635 112.158 147.311C115.786 148.295 118.382 145.916 117.851 142.183C117.027 136.399 109.6 129.719 109.03 129.192L109.027 129.189Z" fill="#C5ECB3"/>
<path d="M121.582 98.6404C122.449 99.5559 123.324 100.012 124.539 100.009C126.25 100.004 127.961 100.066 129.673 100.066C140.602 100.066 151.533 100.066 162.462 100.058C164.219 100.058 165.973 100.035 167.73 100.012C169.116 99.9923 170.522 101.076 171.227 101.569C171.931 102.063 172.647 102.896 172.975 103.275C173.3 103.654 173.622 104.054 173.391 104.516C173.157 104.978 172.256 105.02 171.634 105.055C171.01 105.086 168.531 105.582 167.134 106.241C163.811 107.807 161.182 113.2 165.406 116.571C168.819 119.295 175.875 118.818 178.89 115.644C180.481 113.97 181.468 112.059 181.568 109.678C181.608 108.742 181.808 107.316 182.401 107.005C183.664 106.344 183.402 105.588 183.117 104.695C182.769 103.614 182.412 102.519 181.919 101.501C180.536 98.649 180.533 98.6946 182.834 96.6497C189.89 90.381 192.754 82.6121 191.239 73.2404C191.051 72.071 191.313 70.819 191.419 69.6098C191.63 67.2112 192.274 64.7756 192.035 62.4284C191.353 55.7661 187.706 50.8806 181.528 48.5105C175.579 46.2289 169.849 47.4125 164.79 51.4595C164.39 51.779 163.577 51.8303 163.047 51.682C162.006 51.3911 161.062 50.7323 160.018 50.4699C152.398 48.559 144.88 48.5761 137.644 52.0442C136.672 52.5091 136.15 52.3094 135.431 51.6478C132.297 48.7644 128.58 47.25 124.299 47.3041C120.566 47.3526 117.52 49.0581 114.583 51.2342C108.919 55.4295 107.464 65.0693 110.051 70.5566C110.433 71.3666 110.519 72.4846 110.327 73.3716C108.77 80.5929 110.644 86.9443 115.287 92.4801C117.167 94.7218 119.571 96.5128 121.593 98.6433L121.582 98.6404Z" fill="#C5ECB3"/>
<path d="M120.788 120.093C119.978 120.384 119.81 120.76 119.804 121.519C119.776 125.794 119.685 130.072 119.656 134.347C119.639 136.823 119.762 136.948 122.211 136.951C137.09 136.951 151.972 136.94 166.851 136.926C168.742 136.926 169.33 136.372 169.372 134.461C169.464 130.329 169.484 126.193 169.578 122.058C169.598 121.185 169.313 120.92 168.454 120.655C166.974 120.196 165.479 119.582 164.202 118.721C160.654 116.328 159.701 111.808 161.883 108.126C163.209 105.89 165.134 104.313 167.593 103.412C167.918 103.292 168.22 103.112 168.85 102.807C168.206 102.522 167.884 102.256 167.561 102.256C151.764 102.237 120.637 102.228 120.238 102.296C119.839 102.365 119.913 102.704 120.07 102.81C120.226 102.918 122.249 104.293 123.29 105.1C125.751 107.005 127.414 109.358 126.989 112.649C126.501 116.408 124.282 118.838 120.791 120.093H120.788Z" fill="#C5ECB3"/>
<path d="M180.116 121.588C178.439 122.324 176.768 123.076 175.091 123.824C175.382 122.865 175.764 121.924 176.463 121.405C179.36 119.252 182.463 117.532 186.254 118.063C186.53 115.855 185.292 110.602 184.28 109.532C184.232 109.8 184.18 110.028 184.149 110.254C183.182 116.89 179.72 120.29 173.069 121.017C172.071 121.126 171.945 121.585 171.939 122.401C171.919 126.533 171.882 130.666 171.814 134.798C171.762 137.975 170.374 139.296 167.233 139.259C165.428 139.239 163.62 139.233 161.815 139.222C152.072 139.153 132.778 138.147 132.755 139.173C132.735 140.2 136.058 142.025 138.345 142.838C143.562 144.692 149.015 145.091 154.516 144.929C159.835 144.772 169.689 144.7 170.476 144.475C171.263 144.25 172.755 144.082 173.134 142.838C173.394 141.982 173.237 140.882 173.231 139.245C173.226 137.607 174.806 137.824 174.831 138.822C174.874 140.422 173.924 143.329 175.253 144.909C176.582 146.489 179.317 147.019 181.864 146.857C184.411 146.691 189.291 142.482 191.886 138.908C192.599 137.93 193.255 135.323 192.223 134.427C191.19 133.532 189.864 135.734 189.602 134.713C189.339 133.692 192.24 131.601 190.654 130.195C189.071 128.792 186.65 133.207 186.493 131.912C186.413 131.265 186.85 130.606 187.024 130.132C187.198 129.659 187.514 129.106 186.85 128.49C186.185 127.874 184.437 128.481 183.884 128.786C182.104 129.767 180.45 130.982 178.758 132.123C178.16 132.528 177.589 132.982 176.859 133.521C177.107 130.495 182.56 127.001 184.18 126.778C185.8 126.556 187.001 126.445 187.739 127.115C188.478 127.785 188.96 128.455 189.918 128.33C191.436 128.127 192.38 128.892 192.816 130.278C193.056 131.036 193.116 131.852 193.315 132.625C193.463 133.207 193.726 134.425 194.442 134.376C195.155 134.328 195.16 129.893 194.436 127.774C192.351 121.685 186.048 118.984 180.119 121.591L180.116 121.588Z" fill="#C5ECB3"/>
<path d="M130.151 139.114C129.849 138.851 119.516 138.398 119.26 138.717C119.003 139.039 119.719 139.77 120.035 140.97C120.352 142.171 120.129 143.486 120.668 143.988C121.205 144.49 124.465 144.427 126.658 144.227C129.849 143.936 132.556 143.551 132.952 142.81C133.349 142.068 130.522 139.439 130.151 139.114Z" fill="#C5ECB3"/>
<path d="M124.282 110.188C123.287 107.41 121.039 105.964 118.458 104.918C117.862 104.675 116.73 104.541 116.642 104.079C116.553 103.617 117.754 101.994 117.383 101.632C117.012 101.27 116.265 101.726 116.04 102C114.697 103.643 113.194 105.231 112.241 107.091C111.177 109.167 110.804 111.594 111.802 113.845C113.396 117.435 116.499 118.707 120.401 117.606C123.601 116.705 125.4 113.308 124.282 110.188Z" fill="#C5ECB3"/>
<path d="M135.214 143.078L145.619 145.73H172.704C172.704 145.73 173.169 143.78 174.498 140.349C175.827 136.918 177.969 121.257 177.969 121.257L185.55 119.563L187.264 116.626L185.886 107.864L184.007 108.874L180.664 116.791L170.893 120.028L170.725 136.265L168.03 138.903L132.787 137.788L131.219 139.328L133.515 141.895L135.22 143.075L135.214 143.078Z" fill="url(#paint0_linear_86_5955)"/>
<path opacity="0.5" d="M164.213 116.438C164.213 116.438 169.353 117.787 173.48 116.438C177.606 115.089 180.051 113.027 180.555 107.867C181.06 102.708 180.265 101.761 179.255 100.264C178.245 98.7665 176.623 97.7826 173.853 98.0735C169.986 98.4813 165.083 100.903 165.083 100.01C165.083 98.4784 182.067 93.5758 185.438 87.0903C188.809 80.6049 189.907 69.6845 189.824 64.0403C189.742 58.3962 187.263 52.0391 187.263 52.0391C187.263 52.0391 191.929 54.9396 192.856 59.0522C193.783 63.1648 193.623 63.3673 192.856 66.9038C192.089 70.4403 192.856 73.1297 192.856 76.6719C192.856 80.2141 193.951 81.2237 192.856 85.2679C191.761 89.3121 182.797 98.9148 182.797 98.9148L185.886 107.864L182.096 113.403L177.153 117.955L170.893 120.028L164.216 116.432L164.213 116.438Z" fill="#66C689"/>
<path d="M123.952 107.174L119.959 104.179L119.388 101.042H167.873L171.152 103.181L166.161 105.605L162.169 109.455L161.741 113.876L166.732 119.152L171.152 119.865V124.571L169.869 137.69H118.818V121.149L119.959 119.865L124.807 116.3L125.948 111.309L123.952 107.174Z" fill="#F2F5E6"/>
<path opacity="0.5" d="M118.901 137.65L119.403 145.288L123.062 145.73L132.981 144.278V142.125L130.76 138.329L118.901 137.65Z" fill="#66C689"/>
<path d="M97.1253 136.824C96.7174 133.63 97.3534 130.589 98.1834 127.612C99.849 121.64 104.429 118.197 110.65 118.046C110.932 118.041 111.211 118.003 111.605 117.969C106.143 109.242 110.707 103.47 117.363 98.1677C116.847 97.68 116.288 97.1895 115.769 96.6561C109.226 89.9624 105.978 82.1821 107.806 72.6935C107.92 72.0946 107.723 71.3844 107.509 70.7826C105.014 63.7496 106.292 57.304 110.926 51.6542C115.267 46.3665 121.096 44.3558 127.867 45.2771C130.933 45.6934 133.651 47.0681 136.232 48.7423C136.668 49.0246 137.401 49.2071 137.861 49.0474C146.365 46.1013 154.91 45.9901 163.489 48.6168C164.336 48.8763 164.889 48.7394 165.565 48.2717C175.436 41.3926 189.445 45.8417 193.66 57.1272C195.326 61.5877 195.414 66.0169 193.946 70.526C193.766 71.0764 193.78 71.7438 193.886 72.3256C195.725 82.6898 192.956 91.4084 184.671 98.1392C183.932 98.741 183.804 99.2058 184.226 100.033C187.001 105.483 188.527 111.29 189.046 117.367C189.134 118.391 189.642 118.873 190.515 119.489C192.408 120.83 195.466 123.154 196.618 125.262C197.499 127.093 198.526 132.577 197.265 135.883C196.256 138.535 193.555 141.179 192.699 142.189C190.306 145.018 187.397 147.222 184.021 148.76C181.736 149.798 179.312 150.411 176.811 149.878C175.547 149.61 174.278 149.059 173.189 148.363C172.253 147.767 171.395 147.459 170.288 147.502C165.403 147.696 160.514 147.887 155.623 147.955C149.674 148.038 143.779 147.642 137.958 146.144C136.121 145.671 131.98 145.166 128.001 145.811C124.023 146.455 121.019 145.543 120.332 146.372C119.439 147.448 118.692 148.663 117.395 149.176C115.01 150.117 112.652 150.072 110.29 149.242C107.877 148.395 105.795 147.017 103.976 145.209C103.006 144.245 101.914 143.404 100.879 142.508L100.924 142.568C98.2832 139.627 97.8668 138.994 97.1253 136.824ZM173.394 104.482C173.16 104.944 172.259 104.987 171.637 105.021C171.015 105.055 168.534 105.549 167.137 106.208C163.814 107.773 161.184 113.166 165.408 116.538C168.822 119.261 175.878 118.785 178.893 115.611C180.484 113.936 181.471 112.026 181.571 109.644C181.611 108.709 181.81 107.283 182.403 106.972C183.667 106.31 183.404 105.554 183.116 104.662C182.768 103.581 182.412 102.486 181.919 101.467C180.535 98.6155 180.533 98.6611 182.834 96.6162C189.89 90.3475 192.753 82.5786 191.239 73.2068C191.051 72.0375 191.313 70.7855 191.419 69.5762C191.63 67.1777 192.274 64.7421 192.035 62.3949C191.353 55.7325 187.705 50.847 181.528 48.477C175.579 46.1954 169.849 47.379 164.789 51.426C164.39 51.7454 163.577 51.7968 163.047 51.6485C162.006 51.3575 161.062 50.6987 160.018 50.4363C152.397 48.5255 144.879 48.5426 137.644 52.0107C136.671 52.4755 136.149 52.2759 135.431 51.6142C132.296 48.7308 128.58 47.2164 124.299 47.2706C120.566 47.3191 117.52 49.0246 114.582 51.2007C108.918 55.396 107.464 65.0358 110.051 70.5231C110.433 71.3331 110.518 72.4511 110.327 73.338C108.77 80.5593 110.644 86.9108 115.287 92.4465C117.166 94.6882 119.571 96.4793 121.593 98.6098C122.46 99.5253 123.335 99.9816 124.55 99.9787C126.261 99.973 127.973 100.036 129.684 100.036C140.613 100.036 151.545 100.036 162.474 100.027C164.23 100.027 165.984 100.004 167.741 99.9816C169.127 99.9616 170.533 101.045 171.238 101.539C171.942 102.032 172.658 102.865 172.986 103.244C173.314 103.624 173.633 104.023 173.402 104.485L173.394 104.482ZM120.244 102.266C119.844 102.334 119.919 102.674 120.075 102.779C120.232 102.885 122.254 104.262 123.295 105.07C125.757 106.975 127.419 109.328 126.994 112.619C126.507 116.378 124.288 118.808 120.797 120.063C119.987 120.354 119.819 120.73 119.813 121.489C119.785 125.764 119.693 130.042 119.665 134.317C119.648 136.793 119.77 136.918 122.22 136.921C137.099 136.921 151.981 136.909 166.86 136.895C168.751 136.895 169.338 136.342 169.381 134.431C169.472 130.299 169.492 126.16 169.586 122.028C169.606 121.155 169.321 120.89 168.463 120.624C166.983 120.165 165.488 119.552 164.21 118.691C160.663 116.298 159.71 111.778 161.892 108.096C163.218 105.86 165.143 104.282 167.601 103.381C167.927 103.261 168.229 103.082 168.859 102.777C168.215 102.491 167.892 102.226 167.57 102.226C151.773 102.206 120.646 102.198 120.247 102.266H120.244ZM194.447 134.343C195.16 134.294 195.166 129.859 194.442 127.74C192.357 121.651 186.054 118.95 180.125 121.557C178.448 122.293 176.776 123.046 175.099 123.793C175.39 122.835 175.772 121.894 176.471 121.375C179.369 119.221 182.472 117.502 186.262 118.032C186.539 115.825 185.301 110.571 184.289 109.502C184.24 109.77 184.189 109.998 184.157 110.223C183.191 116.86 179.728 120.259 173.077 120.987C172.079 121.095 171.954 121.554 171.948 122.37C171.928 126.502 171.891 130.635 171.822 134.768C171.771 137.945 170.382 139.265 167.242 139.228C165.437 139.208 163.629 139.203 161.823 139.191C152.081 139.123 132.787 138.116 132.764 139.143C132.741 140.169 136.067 141.995 138.354 142.807C143.57 144.661 149.023 145.061 154.525 144.898C159.844 144.741 169.698 144.67 170.485 144.445C171.272 144.219 172.764 144.051 173.143 142.807C173.402 141.952 173.246 140.851 173.24 139.214C173.234 137.577 174.814 137.794 174.84 138.792C174.883 140.392 173.933 143.298 175.262 144.878C176.591 146.458 179.326 146.989 181.873 146.826C184.42 146.663 189.3 142.451 191.895 138.877C192.608 137.899 193.264 135.292 192.231 134.397C191.199 133.501 189.873 135.703 189.61 134.682C189.348 133.661 192.249 131.571 190.663 130.164C189.077 128.758 186.659 133.176 186.502 131.881C186.422 131.234 186.858 130.575 187.032 130.102C187.206 129.628 187.523 129.075 186.858 128.459C186.194 127.843 184.445 128.45 183.892 128.756C182.113 129.737 180.458 130.952 178.767 132.092C178.168 132.497 177.598 132.951 176.868 133.49C177.116 130.464 182.569 126.97 184.189 126.748C185.809 126.525 187.009 126.414 187.748 127.084C188.487 127.755 188.969 128.425 189.927 128.299C191.444 128.097 192.388 128.861 192.825 130.247C193.064 131.006 193.124 131.821 193.324 132.594C193.472 133.176 193.734 134.394 194.45 134.346L194.447 134.343ZM102.479 133.601C102.402 133.67 100.388 132.78 99.6122 133.553C98.8365 134.326 99.6465 136.211 99.906 136.533C101.808 138.889 103.634 141.319 105.701 143.523C107.438 145.38 109.677 146.601 112.164 147.277C115.792 148.261 118.387 145.882 117.857 142.149C117.032 136.365 109.606 129.685 109.035 129.158C108.465 128.63 106.99 128.271 106.334 128.793C105.678 129.315 105.907 131.089 105.77 131.18C105.633 131.271 103.229 129.158 102.085 130.17C100.941 131.183 102.131 133.108 102.481 133.604L102.479 133.601ZM116.647 104.049C116.559 103.587 117.76 101.964 117.389 101.602C117.018 101.239 116.271 101.696 116.046 101.969C114.702 103.612 113.199 105.201 112.247 107.06C111.183 109.137 110.809 111.564 111.807 113.814C113.402 117.405 116.505 118.677 120.406 117.576C123.606 116.674 125.406 113.278 124.288 110.158C123.293 107.38 121.045 105.934 118.464 104.887C117.868 104.645 116.736 104.511 116.647 104.049ZM117.734 135.851C118.644 135.64 118.005 129.511 117.925 127.66C117.845 125.809 118.142 122.487 116.73 121.469C115.318 120.45 114.081 119.829 110.33 120.06C106.58 120.291 104.381 121.588 101.292 124.905C100.454 125.807 99.6807 128.661 100.037 128.841C100.394 129.021 100.605 128.162 101.857 127.84C103.109 127.518 103.443 128.388 104.347 128.208C105.251 128.028 104.421 127.498 106.006 126.753C107.592 126.009 110.045 127.486 111.169 128.442C113.256 130.219 116.824 136.062 117.737 135.851H117.734ZM132.961 142.776C133.36 142.035 130.531 139.405 130.16 139.08C129.858 138.817 119.525 138.364 119.268 138.683C119.012 139.003 119.728 139.736 120.044 140.937C120.361 142.137 120.138 143.452 120.677 143.954C121.216 144.456 124.473 144.393 126.666 144.194C129.858 143.903 132.564 143.518 132.961 142.776Z" fill="#18231C"/>
<path d="M176.167 52.087C182.181 52.1041 187.249 57.1664 187.261 63.1699C187.272 69.142 182.321 74.3013 176.549 74.3298C170.44 74.3612 165.412 69.2447 165.389 62.9817C165.366 56.8128 170.058 52.0698 176.167 52.087ZM172.225 55.9457C170.391 55.9201 169.085 57.1892 169.042 59.0345C169.002 60.7343 170.317 62.0947 172.057 62.1574C173.865 62.223 175.268 60.8312 175.3 58.9489C175.328 57.2149 174.053 55.9686 172.225 55.9429V55.9457Z" fill="#18231C"/>
<path d="M134.467 63.1046C134.441 68.9284 129.205 74.2303 123.475 74.2332C117.78 74.2332 112.806 69.0853 112.835 63.2187C112.866 57.0412 117.917 52.0844 124.166 52.0987C129.687 52.1101 134.493 57.2466 134.467 63.1046ZM119.628 55.9574C117.771 55.946 116.46 57.2294 116.465 59.0547C116.471 60.8372 117.652 62.1549 119.274 62.1948C121.111 62.2404 122.588 60.7773 122.643 58.8608C122.688 57.2066 121.402 55.9688 119.628 55.9574Z" fill="#18231C"/>
<path d="M148.773 78.6335C146.103 79.1498 144.289 77.6781 142.812 75.7045C142.41 75.1683 142.279 74.2928 142.338 73.5997C142.373 73.1947 142.986 72.65 143.431 72.5359C143.79 72.4447 144.343 72.8439 144.709 73.1491C145.022 73.4086 145.176 73.8536 145.427 74.1986C147.421 76.9623 151.305 76.6856 152.885 73.6682C153.322 72.8354 153.627 71.7687 154.939 72.4019C155.925 72.8782 156.256 74.1159 155.566 75.2368C154.037 77.7294 151.716 78.7676 148.773 78.6335Z" fill="#18231C"/>
<path d="M172.225 55.9463C174.053 55.972 175.328 57.2154 175.299 58.9523C175.271 60.8346 173.865 62.2264 172.056 62.1608C170.317 62.0981 169.002 60.7348 169.042 59.0379C169.085 57.1926 170.391 55.9235 172.225 55.9491V55.9463Z" fill="white"/>
<path d="M119.628 55.9571C121.402 55.9685 122.688 57.2063 122.642 58.8605C122.591 60.7742 121.111 62.2401 119.274 62.1945C117.651 62.1545 116.471 60.8341 116.465 59.0544C116.459 57.2291 117.768 55.9457 119.628 55.9571Z" fill="white"/>
<path opacity="0.8" d="M114.171 144.262C115.834 142.86 115.705 139.972 113.883 137.812C112.062 135.652 109.237 135.037 107.574 136.439C105.911 137.842 106.04 140.73 107.861 142.89C109.683 145.05 112.508 145.665 114.171 144.262Z" fill="#3AB36C"/>
<path opacity="0.8" d="M184.396 142.846C186.472 140.929 186.959 138.08 185.483 136.482C184.007 134.884 181.128 135.142 179.052 137.059C176.976 138.976 176.489 141.826 177.965 143.424C179.441 145.022 182.32 144.763 184.396 142.846Z" fill="#3AB36C"/>
<path d="M121.721 86.1748C124.345 86.1748 126.473 84.0475 126.473 81.4233C126.473 78.7992 124.345 76.6719 121.721 76.6719C119.097 76.6719 116.97 78.7992 116.97 81.4233C116.97 84.0475 119.097 86.1748 121.721 86.1748Z" fill="#FEB7B7"/>
<path d="M179.252 86.1748C181.876 86.1748 184.003 84.0475 184.003 81.4233C184.003 78.7992 181.876 76.6719 179.252 76.6719C176.628 76.6719 174.5 78.7992 174.5 81.4233C174.5 84.0475 176.628 86.1748 179.252 86.1748Z" fill="#FEB7B7"/>
<path d="M136.09 126.218C135.259 126.218 134.553 126.056 133.971 125.731C133.389 125.397 132.946 124.854 132.64 124.1C132.345 123.346 132.197 122.325 132.197 121.037C132.197 119.749 132.345 118.733 132.64 117.989C132.946 117.244 133.389 116.715 133.971 116.4C134.553 116.085 135.259 115.928 136.09 115.928C136.929 115.928 137.635 116.085 138.208 116.4C138.79 116.715 139.229 117.244 139.524 117.989C139.83 118.733 139.982 119.749 139.982 121.037C139.982 122.325 139.83 123.346 139.524 124.1C139.229 124.854 138.79 125.397 138.208 125.731C137.635 126.056 136.929 126.218 136.09 126.218ZM136.09 124.329C136.471 124.329 136.796 124.238 137.063 124.057C137.339 123.876 137.549 123.546 137.693 123.069C137.845 122.592 137.922 121.915 137.922 121.037C137.922 120.15 137.845 119.477 137.693 119.019C137.549 118.552 137.339 118.237 137.063 118.075C136.796 117.903 136.471 117.817 136.09 117.817C135.717 117.817 135.393 117.903 135.116 118.075C134.84 118.237 134.625 118.552 134.472 119.019C134.329 119.477 134.258 120.15 134.258 121.037C134.258 121.915 134.329 122.592 134.472 123.069C134.625 123.546 134.84 123.876 135.116 124.057C135.393 124.238 135.717 124.329 136.09 124.329ZM142.358 126.218C141.671 126.218 141.328 125.894 141.328 125.245V121.81C141.328 120.894 141.619 120.169 142.201 119.635C142.792 119.1 143.57 118.833 144.534 118.833C145.497 118.833 146.27 119.1 146.852 119.635C147.444 120.169 147.74 120.894 147.74 121.81V125.245C147.74 125.894 147.396 126.218 146.709 126.218C146.022 126.218 145.679 125.894 145.679 125.245V121.924C145.679 121.476 145.578 121.137 145.378 120.908C145.178 120.67 144.896 120.55 144.534 120.55C144.171 120.55 143.89 120.67 143.689 120.908C143.489 121.137 143.389 121.476 143.389 121.924V125.245C143.389 125.894 143.045 126.218 142.358 126.218ZM152.987 126.218C152.157 126.218 151.451 126.056 150.869 125.731C150.287 125.397 149.843 124.854 149.538 124.1C149.242 123.346 149.094 122.325 149.094 121.037C149.094 119.749 149.242 118.733 149.538 117.989C149.843 117.244 150.287 116.715 150.869 116.4C151.451 116.085 152.157 115.928 152.987 115.928C153.827 115.928 154.533 116.085 155.105 116.4C155.687 116.715 156.126 117.244 156.422 117.989C156.727 118.733 156.88 119.749 156.88 121.037C156.88 122.325 156.727 123.346 156.422 124.1C156.126 124.854 155.687 125.397 155.105 125.731C154.533 126.056 153.827 126.218 152.987 126.218ZM152.987 124.329C153.369 124.329 153.693 124.238 153.96 124.057C154.237 123.876 154.447 123.546 154.59 123.069C154.743 122.592 154.819 121.915 154.819 121.037C154.819 120.15 154.743 119.477 154.59 119.019C154.447 118.552 154.237 118.237 153.96 118.075C153.693 117.903 153.369 117.817 152.987 117.817C152.615 117.817 152.291 117.903 152.014 118.075C151.737 118.237 151.523 118.552 151.37 119.019C151.227 119.477 151.155 120.15 151.155 121.037C151.155 121.915 151.227 122.592 151.37 123.069C151.523 123.546 151.737 123.876 152.014 124.057C152.291 124.238 152.615 124.329 152.987 124.329Z" fill="#18231C"/>
</g>
<defs>
<linearGradient id="paint0_linear_86_5955" x1="163.452" y1="123.288" x2="174.433" y2="136.692" gradientUnits="userSpaceOnUse">
<stop stop-color="#95D99E"/>
<stop offset="1" stop-color="#C5ECB3"/>
</linearGradient>
<clipPath id="clip0_86_5955">
<rect width="100.85" height="105.071" fill="white" transform="translate(97 45)"/>
</clipPath>
</defs>
</svg>
