<svg width="350" height="200" viewBox="0 0 350 200" fill="none" xmlns="http://www.w3.org/2000/svg">
<g clip-path="url(#clip0_86_9431)">
<g filter="url(#filter0_d_86_9431)">
<path d="M18 170C18 153.431 31.4315 140 48 140H301C317.569 140 331 153.431 331 170V170C331 186.569 317.569 200 301 200H48C31.4315 200 18 186.569 18 170V170Z" fill="white" shape-rendering="crispEdges"/>
<path d="M48 140.5H301C317.292 140.5 330.5 153.708 330.5 170C330.5 186.292 317.292 199.5 301 199.5H48C31.7076 199.5 18.5 186.292 18.5 170C18.5 153.708 31.7076 140.5 48 140.5Z" stroke="#F0F0F0" shape-rendering="crispEdges"/>
<rect width="293" height="40.6293" transform="translate(28 149.686)" fill="white"/>
<path d="M68.0308 178.447C69.7613 178.456 71.0066 179.299 71.0066 180.581C71.0066 181.794 69.9261 182.6 68.3787 182.696V184.408H71.7757V185.012H64.3225V184.408H67.6737V182.696C66.1309 182.595 65.055 181.789 65.055 180.581C65.055 179.299 66.3003 178.456 68.0308 178.447ZM68.0308 179.042C66.7123 179.042 65.7509 179.665 65.7509 180.581C65.7509 181.524 66.7123 182.128 68.0308 182.137C69.3493 182.128 70.3107 181.524 70.3107 180.581C70.3107 179.665 69.3493 179.042 68.0308 179.042ZM78.6019 177.916V179.83H79.8288V180.434H78.6019V182.256H77.8877V177.916H78.6019ZM76.2304 178.456V179.052H73.337V181.377C74.9714 181.377 75.9008 181.327 76.9904 181.103L77.0819 181.698C75.9374 181.927 74.9668 181.982 73.2546 181.982H72.6228V178.456H76.2304ZM74.1611 182.696V183.712H77.8877V182.696H78.6019V185.919H73.4469V182.696H74.1611ZM74.1611 185.324H77.8877V184.289H74.1611V185.324ZM89.7362 182.128V182.723H82.3197V182.128H85.6708V181.148H83.3085V178.108H84.0227V179.052H88.0515V178.108H88.7657V181.148H86.385V182.128H89.7362ZM88.8206 183.529V186.056H88.0973V184.106H83.1437V183.529H88.8206ZM84.0227 180.572H88.0515V179.601H84.0227V180.572ZM91.8927 182.806V183.758H95.9581V182.806H96.6814V185.946H91.1785V182.806H91.8927ZM91.8927 185.369H95.9581V184.326H91.8927V185.369ZM97.652 181.634V182.229H90.2354V181.634H97.652ZM94.3191 178.392C94.3191 179.4 95.8024 180.297 97.2308 180.48L96.9653 181.057C95.7017 180.869 94.4656 180.224 93.9529 179.308C93.431 180.228 92.1857 180.869 90.9313 181.057L90.6566 180.48C92.1033 180.288 93.5775 179.427 93.5775 178.392V178.008H94.3191V178.392Z" fill="#868E96"/>
<path d="M165.453 181.945V182.87H162.313V184.307H161.159V182.87H157.826V181.945H165.453ZM164.474 178.191V181.258H158.778V178.191H164.474ZM159.923 179.097V180.352H163.329V179.097H159.923ZM164.611 185.076V186.01H158.723V183.584H159.886V185.076H164.611ZM172.957 177.825V186.157H171.849V177.825H172.957ZM171.254 177.962V185.772H170.155V181.624H169.056V180.681H170.155V177.962H171.254ZM168.388 180.059C168.388 181.441 168.818 182.842 170.036 183.538L169.349 184.399C168.608 183.959 168.118 183.213 167.839 182.32C167.55 183.291 167.047 184.115 166.282 184.582L165.577 183.721C166.804 182.97 167.262 181.469 167.262 180.059V179.61H165.898V178.676H169.652V179.61H168.388V180.059ZM183.258 181.634V182.586H175.64V181.634H183.258ZM182.388 180.123V181.048H176.565V178.044H182.343V178.987H177.728V180.123H182.388ZM179.431 183.089C181.235 183.089 182.324 183.639 182.333 184.619C182.324 185.607 181.235 186.157 179.431 186.157C177.609 186.157 176.51 185.607 176.51 184.619C176.51 183.639 177.609 183.089 179.431 183.089ZM179.431 183.978C178.277 183.978 177.691 184.197 177.7 184.619C177.691 185.058 178.277 185.269 179.431 185.269C180.557 185.269 181.152 185.058 181.161 184.619C181.152 184.197 180.557 183.978 179.431 183.978ZM191.174 182.293V183.227H183.547V182.293H186.779V181.689H184.499V179.4H189.077V178.887H184.481V177.98H190.249V180.242H185.662V180.791H190.405V181.689H187.942V182.293H191.174ZM190.295 183.703V186.12H189.114V184.619H184.398V183.703H190.295Z" fill="#42C153"/>
<path d="M267.068 177.916V182.128H266.345V180.013H264.532V179.418H266.345V177.916H267.068ZM267.068 182.54V184.481H262.518V185.369H267.37V185.946H261.813V183.932H266.354V183.117H261.794V182.54H267.068ZM263.094 178.951C263.085 180.022 263.928 180.993 265.118 181.386L264.733 181.945C263.832 181.624 263.113 180.984 262.756 180.159C262.408 181.089 261.671 181.798 260.705 182.146L260.311 181.57C261.538 181.167 262.38 180.141 262.389 178.951V178.182H263.094V178.951ZM274.984 177.916V182.769H274.261V180.636H272.622V180.04H274.261V177.916H274.984ZM272.283 183.025C273.977 183.025 275.011 183.575 275.011 184.536C275.011 185.498 273.977 186.047 272.283 186.056C270.589 186.047 269.554 185.498 269.554 184.536C269.554 183.575 270.589 183.025 272.283 183.025ZM272.283 183.584C271.038 183.584 270.259 183.941 270.269 184.536C270.259 185.122 271.038 185.479 272.283 185.479C273.528 185.479 274.297 185.122 274.297 184.536C274.297 183.941 273.528 183.584 272.283 183.584ZM271.065 179.409C271.065 180.471 271.88 181.478 273.07 181.89L272.695 182.467C271.779 182.137 271.07 181.455 270.726 180.608C270.369 181.565 269.614 182.33 268.648 182.696L268.272 182.119C269.481 181.679 270.342 180.581 270.342 179.418V179.116H268.501V178.511H272.887V179.116H271.065V179.409Z" fill="#868E96"/>
<path d="M270.424 172.522H266.576C266.319 172.522 266.097 172.437 265.909 172.266C265.721 172.095 265.61 171.881 265.576 171.625L265.268 169.239C265.045 169.153 264.836 169.051 264.64 168.931C264.443 168.811 264.25 168.683 264.062 168.546L261.83 169.47C261.591 169.555 261.351 169.564 261.112 169.495C260.873 169.427 260.684 169.282 260.548 169.059L258.649 165.75C258.512 165.528 258.47 165.288 258.521 165.032C258.572 164.775 258.701 164.57 258.906 164.416L260.83 162.954C260.813 162.834 260.804 162.719 260.804 162.607V161.914C260.804 161.804 260.813 161.688 260.83 161.569L258.906 160.106C258.701 159.952 258.572 159.747 258.521 159.491C258.47 159.234 258.512 158.995 258.649 158.772L260.548 155.463C260.667 155.224 260.851 155.074 261.099 155.014C261.347 154.954 261.591 154.967 261.83 155.053L264.062 155.976C264.25 155.839 264.447 155.711 264.652 155.591C264.857 155.472 265.062 155.369 265.268 155.284L265.576 152.898C265.61 152.641 265.721 152.428 265.909 152.257C266.097 152.086 266.319 152 266.576 152H270.424C270.681 152 270.903 152.086 271.091 152.257C271.279 152.428 271.39 152.641 271.424 152.898L271.732 155.284C271.955 155.369 272.164 155.472 272.361 155.591C272.558 155.711 272.75 155.839 272.938 155.976L275.17 155.053C275.409 154.967 275.649 154.959 275.888 155.027C276.127 155.095 276.316 155.241 276.452 155.463L278.351 158.772C278.488 158.995 278.53 159.234 278.479 159.491C278.428 159.747 278.299 159.952 278.094 160.106L276.17 161.569C276.187 161.688 276.196 161.804 276.196 161.914V162.607C276.196 162.719 276.179 162.834 276.145 162.954L278.069 164.416C278.274 164.57 278.402 164.775 278.453 165.032C278.505 165.288 278.462 165.528 278.325 165.75L276.427 169.034C276.29 169.256 276.098 169.406 275.85 169.483C275.602 169.56 275.358 169.555 275.118 169.47L272.938 168.546C272.75 168.683 272.553 168.811 272.348 168.931C272.143 169.051 271.937 169.153 271.732 169.239L271.424 171.625C271.39 171.881 271.279 172.095 271.091 172.266C270.903 172.437 270.681 172.522 270.424 172.522ZM268.551 165.853C269.543 165.853 270.39 165.502 271.091 164.801C271.792 164.1 272.143 163.253 272.143 162.261C272.143 161.269 271.792 160.423 271.091 159.722C270.39 159.02 269.543 158.67 268.551 158.67C267.542 158.67 266.691 159.02 265.998 159.722C265.306 160.423 264.96 161.269 264.96 162.261C264.96 163.253 265.306 164.1 265.998 164.801C266.691 165.502 267.542 165.853 268.551 165.853Z" fill="#868E96"/>
<path d="M89.8909 153.497C88.787 153.149 87.5736 153 86.41 153C84.4706 153 82.3821 153.398 80.94 154.492C79.4979 153.398 77.4094 153 75.47 153C73.5306 153 71.4421 153.398 70 154.492V169.062C70 169.311 70.2486 169.559 70.4973 169.559C70.5967 169.559 70.6465 169.509 70.7459 169.509C72.0885 168.863 74.0279 168.415 75.47 168.415C77.4094 168.415 79.4979 168.813 80.94 169.907C82.2826 169.062 84.7193 168.415 86.41 168.415C88.051 168.415 89.7417 168.714 91.1341 169.46C91.2335 169.509 91.2833 169.509 91.3827 169.509C91.6314 169.509 91.88 169.261 91.88 169.012V154.492C91.2833 154.044 90.6368 153.746 89.8909 153.497ZM89.8909 166.924C88.7969 166.576 87.6035 166.426 86.41 166.426C84.7193 166.426 82.2826 167.073 80.94 167.918V156.481C82.2826 155.636 84.7193 154.989 86.41 154.989C87.6035 154.989 88.7969 155.138 89.8909 155.486V166.924Z" fill="#868E96"/>
<path d="M86.41 158.967C87.2852 158.967 88.1306 159.057 88.8964 159.226V157.714C88.1107 157.565 87.2653 157.476 86.41 157.476C84.7193 157.476 83.1877 157.764 81.9346 158.301V159.952C83.0584 159.315 84.6198 158.967 86.41 158.967Z" fill="#868E96"/>
<path d="M81.9346 160.947V162.598C83.0584 161.961 84.6198 161.613 86.41 161.613C87.2852 161.613 88.1306 161.702 88.8964 161.871V160.36C88.1107 160.211 87.2653 160.121 86.41 160.121C84.7193 160.121 83.1877 160.419 81.9346 160.947Z" fill="#868E96"/>
<path d="M86.41 162.776C84.7193 162.776 83.1877 163.065 81.9346 163.602V165.253C83.0584 164.616 84.6198 164.268 86.41 164.268C87.2852 164.268 88.1306 164.358 88.8964 164.527V163.015C88.1107 162.856 87.2653 162.776 86.41 162.776Z" fill="#868E96"/>
<path d="M165 167.834V172H169.166L181.453 159.713L177.287 155.547L165 167.834ZM184.675 156.491C185.108 156.058 185.108 155.358 184.675 154.925L182.075 152.325C181.642 151.892 180.942 151.892 180.509 152.325L178.476 154.358L182.642 158.524L184.675 156.491Z" fill="#42C153"/>
</g>
<g opacity="0.5" filter="url(#filter1_d_86_9431)">
<path fill-rule="evenodd" clip-rule="evenodd" d="M167.841 56.4296C182.37 62.537 203.61 77.514 225.823 96.2456C229.334 99.2069 234.581 98.7608 237.543 95.2492C240.504 91.7376 240.058 86.4902 236.546 83.529C214.178 64.6662 191.308 48.2493 174.287 41.0946C169.966 39.2782 165.688 37.9122 161.663 37.3457C157.708 36.7891 153.254 36.9014 149.196 38.8969C139.815 43.5098 138.903 54.0524 140.41 63.3617C141.99 73.1173 144.477 81.3693 146.748 87.7556C136.072 82.4688 122.479 75.837 111.328 72.2761C107.962 71.2013 104.592 70.3287 101.424 69.87C98.3592 69.4264 94.8827 69.2768 91.59 70.1404C88.0284 71.0745 84.4126 73.3104 82.4217 77.5121C80.6108 81.3341 80.7797 85.4909 81.5481 89.1132C82.5013 93.6067 86.9167 96.4768 91.4103 95.5236C95.7238 94.6086 98.5412 90.5033 97.9171 86.2011C98.2482 86.2299 98.6218 86.2725 99.041 86.3332C100.987 86.6149 103.409 87.2098 106.267 88.1224C116.756 91.472 130.046 98.0514 141.189 103.568C142.472 104.203 143.726 104.824 144.944 105.424C147.839 106.85 150.336 108.024 152.383 108.834C153.984 109.467 156.814 110.537 159.697 110.329C161.493 110.2 164.182 109.509 166.257 107.079C168.204 104.799 168.503 102.259 168.517 100.859C168.542 98.379 167.669 95.8963 167.179 94.5318C166.666 93.1022 166.032 91.5097 165.324 89.7341C162.651 83.0307 158.938 73.7173 156.831 60.7031C156.112 56.2622 156.502 54.4145 156.782 53.7634C157.146 53.6948 157.936 53.6197 159.345 53.8181C161.449 54.1142 164.274 54.9305 167.841 56.4296ZM156.985 53.4611C156.975 53.4498 156.918 53.4958 156.844 53.6331C156.958 53.541 156.995 53.4723 156.985 53.4611Z" fill="url(#paint0_linear_86_9431)"/>
<path d="M147.219 87.5881L147.633 88.7518L146.526 88.2037C135.843 82.9133 122.284 76.2998 111.176 72.7524C107.825 71.6825 104.484 70.8182 101.352 70.3649C98.3183 69.9257 94.9174 69.7846 91.7169 70.624C88.2622 71.5301 84.7869 73.6881 82.8736 77.7262C81.1289 81.4083 81.28 85.4395 82.0372 89.0094C82.9331 93.2328 87.0831 95.9304 91.3066 95.0345C95.3605 94.1746 98.0088 90.316 97.4223 86.2729L97.3316 85.6483L97.9604 85.703C98.3015 85.7327 98.6846 85.7764 99.1126 85.8383C101.096 86.1254 103.546 86.7286 106.419 87.6461C116.944 91.0071 130.26 97.5992 141.386 103.107L141.411 103.119L141.418 103.123C142.699 103.757 143.95 104.377 145.165 104.976C148.059 106.401 150.54 107.567 152.567 108.369C154.172 109.004 156.905 110.029 159.661 109.831C161.374 109.708 163.917 109.049 165.877 106.755C167.717 104.599 168.004 102.195 168.017 100.854C168.041 98.4748 167.2 96.0704 166.709 94.7006C166.199 93.2809 165.568 91.6972 164.859 89.9193L164.858 89.9152C162.183 83.2061 158.453 73.8515 156.338 60.783C155.614 56.3139 155.986 54.3502 156.323 53.5661L156.428 53.3214L156.449 53.3174C156.486 53.2572 156.525 53.2027 156.567 53.1562C156.594 53.1267 156.641 53.0792 156.705 53.0391C156.734 53.0211 156.801 52.9825 156.895 52.9666C156.995 52.9498 157.203 52.9513 157.361 53.1321C157.38 53.1534 157.396 53.175 157.409 53.1966C157.885 53.1774 158.54 53.1999 159.415 53.323C161.577 53.6273 164.445 54.46 168.035 55.9687C182.639 62.1076 203.928 77.1279 226.145 95.8634C229.445 98.6467 234.377 98.2274 237.161 94.9269C239.944 91.6263 239.524 86.6945 236.224 83.9112C213.86 65.0524 191.039 48.6788 174.093 41.5555C169.795 39.7487 165.561 38.3992 161.594 37.8409C157.692 37.2917 153.351 37.4111 149.417 39.3456C144.875 41.5789 142.383 45.2393 141.202 49.5016C140.016 53.7808 140.156 58.6637 140.904 63.2818C142.477 72.9997 144.955 81.2215 147.219 87.5881ZM156.52 53.2915C156.518 53.2951 156.516 53.2997 156.514 53.3051L156.569 53.2947L156.537 53.2548C156.531 53.2649 156.525 53.2772 156.52 53.2915ZM156.486 53.4642C156.486 53.5095 156.492 53.5777 156.523 53.6521C156.541 53.697 156.568 53.7443 156.608 53.79C156.647 53.8344 156.689 53.8678 156.731 53.8926C156.748 53.8451 156.765 53.8021 156.782 53.7634C156.799 53.7602 156.817 53.7569 156.836 53.7537L156.77 53.6986L156.74 53.6744L156.486 53.4642Z" stroke="white" stroke-linecap="round"/>
</g>
<rect width="41.0464" height="77.8781" transform="matrix(-0.71335 0.700808 0.700808 0.71335 191.155 35)" fill="url(#paint1_linear_86_9431)"/>
<g clip-path="url(#clip1_86_9431)">
<rect x="213.295" y="90.0238" width="31.8926" height="80" rx="11.6129" transform="rotate(-135 213.295 90.0238)" fill="white" stroke="#343A40" stroke-width="2.58065"/>
<rect x="206.728" y="51.5713" width="58.4002" height="31.7037" transform="rotate(-45 206.728 51.5713)" fill="#C5ECB3" stroke="#343A40" stroke-width="2.58065"/>
<path d="M229.394 37.9688C227.308 37.9747 225.551 39.73 225.547 41.8117C225.543 43.8824 227.26 45.6714 229.261 45.6813C231.379 45.6921 233.123 43.918 233.131 41.7464C233.139 39.6074 231.512 37.9628 229.394 37.9688ZM230.76 39.3068C231.396 39.2979 231.849 39.7379 231.864 40.3777C231.878 40.9671 231.422 41.4388 230.819 41.4606C230.192 41.4833 229.705 41.0008 229.694 40.3481C229.684 39.7468 230.127 39.3147 230.76 39.3058L230.76 39.3068Z" fill="#18231C"/>
<path d="M243.854 41.7879C243.862 43.8072 245.678 45.6456 247.665 45.6466C249.64 45.6466 251.364 43.8616 251.354 41.8274C251.344 39.6855 249.592 37.9667 247.426 37.9717C245.511 37.9756 243.845 39.7567 243.854 41.7879ZM248.999 39.3097C249.643 39.3057 250.098 39.7507 250.096 40.3836C250.094 41.0017 249.684 41.4586 249.121 41.4724C248.485 41.4882 247.972 40.9809 247.954 40.3164C247.938 39.7428 248.384 39.3136 248.999 39.3097Z" fill="#18231C"/>
<path d="M240.959 46.156C241.098 45.9701 241.144 45.6665 241.123 45.4262C241.111 45.2858 240.899 45.0969 240.744 45.0574C240.62 45.0257 240.428 45.1642 240.301 45.27C240.193 45.36 240.139 45.5142 240.052 45.6339C239.361 46.5921 238.014 46.4962 237.466 45.45C237.315 45.1612 237.209 44.7913 236.754 45.0109C236.412 45.176 236.297 45.6052 236.537 45.9939C237.517 47.5919 239.88 47.5977 240.959 46.156Z" fill="#18231C"/>
<path d="M230.759 39.3066C230.125 39.3155 229.683 39.7467 229.693 40.3489C229.703 41.0016 230.191 41.4842 230.818 41.4615C231.421 41.4397 231.877 40.967 231.863 40.3786C231.848 39.7388 231.395 39.2987 230.759 39.3076L230.759 39.3066Z" fill="white"/>
<path d="M248.998 39.3096C248.383 39.3136 247.937 39.7427 247.953 40.3163C247.971 40.9799 248.484 41.4882 249.121 41.4723C249.683 41.4585 250.093 41.0006 250.095 40.3836C250.097 39.7506 249.643 39.3056 248.998 39.3096Z" fill="white"/>
<path d="M248.275 49.7872C247.365 49.7872 246.628 49.0496 246.628 48.1397C246.628 47.2298 247.365 46.4922 248.275 46.4922C249.185 46.4922 249.923 47.2298 249.923 48.1397C249.923 49.0496 249.185 49.7872 248.275 49.7872Z" fill="#FEB7B7"/>
<path d="M228.323 49.7872C227.413 49.7872 226.676 49.0496 226.676 48.1397C226.676 47.2298 227.413 46.4922 228.323 46.4922C229.233 46.4922 229.971 47.2298 229.971 48.1397C229.971 49.0496 229.233 49.7872 228.323 49.7872Z" fill="#FEB7B7"/>
</g>
</g>
<defs>
<filter id="filter0_d_86_9431" x="4" y="126" width="341" height="88" filterUnits="userSpaceOnUse" color-interpolation-filters="sRGB">
<feFlood flood-opacity="0" result="BackgroundImageFix"/>
<feColorMatrix in="SourceAlpha" type="matrix" values="0 0 0 0 0 0 0 0 0 0 0 0 0 0 0 0 0 0 127 0" result="hardAlpha"/>
<feOffset/>
<feGaussianBlur stdDeviation="7"/>
<feComposite in2="hardAlpha" operator="out"/>
<feColorMatrix type="matrix" values="0 0 0 0 0 0 0 0 0 0 0 0 0 0 0 0 0 0 0.08 0"/>
<feBlend mode="normal" in2="BackgroundImageFix" result="effect1_dropShadow_86_9431"/>
<feBlend mode="normal" in="SourceGraphic" in2="effect1_dropShadow_86_9431" result="shape"/>
</filter>
<filter id="filter1_d_86_9431" x="78.999" y="35.0566" width="162.503" height="77.2988" filterUnits="userSpaceOnUse" color-interpolation-filters="sRGB">
<feFlood flood-opacity="0" result="BackgroundImageFix"/>
<feColorMatrix in="SourceAlpha" type="matrix" values="0 0 0 0 0 0 0 0 0 0 0 0 0 0 0 0 0 0 127 0" result="hardAlpha"/>
<feOffset/>
<feGaussianBlur stdDeviation="1"/>
<feComposite in2="hardAlpha" operator="out"/>
<feColorMatrix type="matrix" values="0 0 0 0 0 0 0 0 0 0 0 0 0 0 0 0 0 0 0.3 0"/>
<feBlend mode="normal" in2="BackgroundImageFix" result="effect1_dropShadow_86_9431"/>
<feBlend mode="normal" in="SourceGraphic" in2="effect1_dropShadow_86_9431" result="shape"/>
</filter>
<linearGradient id="paint0_linear_86_9431" x1="244.684" y1="98.3877" x2="86.6843" y2="57.8877" gradientUnits="userSpaceOnUse">
<stop stop-color="#E0E64E"/>
<stop offset="0.427649" stop-color="#A4E188"/>
<stop offset="1" stop-color="#F3A590"/>
</linearGradient>
<linearGradient id="paint1_linear_86_9431" x1="21.475" y1="-0.928248" x2="1.04771" y2="25.5154" gradientUnits="userSpaceOnUse">
<stop stop-color="white" stop-opacity="0"/>
<stop offset="1" stop-color="white"/>
</linearGradient>
<clipPath id="clip0_86_9431">
<rect width="350" height="200" fill="white"/>
</clipPath>
<clipPath id="clip1_86_9431">
<rect width="80" height="80" fill="white" transform="translate(192 7)"/>
</clipPath>
</defs>
</svg>
