<svg width="350" height="200" viewBox="0 0 350 200" fill="none" xmlns="http://www.w3.org/2000/svg">
<g clip-path="url(#clip0_86_9039)">
<g opacity="0.5" filter="url(#filter0_f_86_9039)">
<path fill-rule="evenodd" clip-rule="evenodd" d="M122.396 61.459C122.396 61.4592 122.388 61.4706 122.37 61.4925C122.387 61.4696 122.396 61.4587 122.396 61.459ZM96.6299 61.4925C96.612 61.4707 96.6037 61.4592 96.604 61.459C96.6042 61.4587 96.6132 61.4697 96.6299 61.4925ZM96.604 85.9956C96.6037 85.9953 96.612 85.9839 96.6299 85.962C96.6132 85.9849 96.6042 85.9958 96.604 85.9956ZM122.37 85.962C122.388 85.9839 122.396 85.9953 122.396 85.9956C122.396 85.9958 122.387 85.9849 122.37 85.962ZM109.5 113.455C132.42 113.455 151 95.668 151 73.7273C151 51.7865 132.42 34 109.5 34C86.5802 34 68 51.7865 68 73.7273C68 95.668 86.5802 113.455 109.5 113.455Z" fill="url(#paint0_radial_86_9039)"/>
</g>
<g opacity="0.5" filter="url(#filter1_f_86_9039)">
<path fill-rule="evenodd" clip-rule="evenodd" d="M182.051 63.3019C182.052 63.3021 182.043 63.3135 182.025 63.3352C182.042 63.3125 182.051 63.3016 182.051 63.3019ZM155.975 63.3352C155.957 63.3135 155.948 63.3021 155.949 63.3019C155.949 63.3016 155.958 63.3125 155.975 63.3352ZM155.949 87.6981C155.948 87.6979 155.957 87.6865 155.975 87.6648C155.958 87.6875 155.949 87.6984 155.949 87.6981ZM182.025 87.6647C182.043 87.6865 182.052 87.6979 182.051 87.6981C182.051 87.6984 182.042 87.6875 182.025 87.6647ZM169 115C192.196 115 211 97.3152 211 75.5C211 53.6848 192.196 36 169 36C145.804 36 127 53.6848 127 75.5C127 97.3152 145.804 115 169 115Z" fill="url(#paint1_radial_86_9039)"/>
</g>
<g opacity="0.5" filter="url(#filter2_f_86_9039)">
<path fill-rule="evenodd" clip-rule="evenodd" d="M244.396 65.9663C244.396 65.9665 244.388 65.976 244.37 65.9943C244.387 65.9752 244.396 65.966 244.396 65.9663ZM218.63 65.9943C218.612 65.976 218.604 65.9665 218.604 65.9663C218.604 65.966 218.613 65.9752 218.63 65.9943ZM218.604 86.4883C218.604 86.4881 218.612 86.4785 218.63 86.4602C218.613 86.4794 218.604 86.4885 218.604 86.4883ZM244.37 86.4602C244.388 86.4785 244.396 86.4881 244.396 86.4883C244.396 86.4885 244.387 86.4793 244.37 86.4602ZM231.5 109.455C254.42 109.455 273 94.5782 273 76.2273C273 57.8764 254.42 43 231.5 43C208.58 43 190 57.8764 190 76.2273C190 94.5782 208.58 109.455 231.5 109.455Z" fill="url(#paint2_radial_86_9039)"/>
</g>
<g filter="url(#filter3_d_86_9039)">
<rect x="18" y="140" width="313" height="60" rx="30" fill="white" shape-rendering="crispEdges"/>
<rect x="18.5" y="140.5" width="312" height="59" rx="29.5" stroke="#F0F0F0" shape-rendering="crispEdges"/>
<rect width="293" height="40.6293" transform="translate(28 149.686)" fill="white"/>
<path d="M64.5357 176.279C66.8325 176.279 68.5435 177.439 68.5552 179.197C68.5435 180.803 67.19 181.887 65.2739 182.104V183.92H69.4341V185.15H59.6724V183.92H63.7857V182.092C61.8755 181.887 60.5279 180.797 60.5279 179.197C60.5279 177.439 62.2388 176.279 64.5357 176.279ZM64.5357 177.475C63.0474 177.475 62.0044 178.131 62.0044 179.197C62.0044 180.322 63.0474 180.955 64.5357 180.955C66.0357 180.955 67.0669 180.322 67.0786 179.197C67.0669 178.131 66.0357 177.475 64.5357 177.475ZM78.2644 175.729V178.037H79.7058V179.268H78.2644V181.436H76.7644V175.729H78.2644ZM74.9714 176.373V177.568H71.7136V179.982C73.6414 179.971 74.7019 179.912 75.8972 179.643L76.0496 180.85C74.7136 181.131 73.4832 181.189 71.116 181.189H70.2136V176.373H74.9714ZM72.7566 181.951V182.936H76.7644V181.951H78.2644V186.264H71.2566V181.951H72.7566ZM72.7566 185.068H76.7644V184.107H72.7566V185.068ZM92.1868 181.014V182.221H82.4602V181.014H86.5618V180.111H83.7024V175.986H85.1789V176.959H89.4563V175.986H90.9446V180.111H88.0618V181.014H92.1868ZM91.0032 182.947V186.393H89.5149V184.131H83.5383V182.947H91.0032ZM85.1789 178.939H89.4563V178.061H85.1789V178.939ZM95.2046 182.127V183.029H99.5991V182.127H101.087V186.275H93.728V182.127H95.2046ZM95.2046 185.104H99.5991V184.166H95.2046V185.104ZM102.318 180.381V181.588H92.5913V180.381H102.318ZM98.228 176.197C98.228 177.264 99.4585 178.471 101.837 178.74L101.31 179.912C99.4702 179.678 98.1401 178.916 97.4546 177.885C96.769 178.916 95.4331 179.678 93.6108 179.912L93.0718 178.74C95.4507 178.459 96.6811 177.287 96.6929 176.197V175.834H98.228V176.197Z" fill="#42C153"/>
<path d="M165.266 182.082V182.677H161.951V184.344H161.237V182.677H157.812V182.082H165.266ZM164.295 178.319V181.148H158.783V178.319H164.295ZM159.488 178.887V180.572H163.581V178.887H159.488ZM164.432 185.278V185.882H158.765V183.538H159.488V185.278H164.432ZM172.696 177.916V186.056H172.009V177.916H172.696ZM171.048 178.118V185.635H170.37V181.441H168.997V180.855H170.37V178.118H171.048ZM168.127 180.242C168.127 181.652 168.759 183.053 169.885 183.703L169.446 184.234C168.644 183.753 168.077 182.874 167.797 181.835C167.5 182.957 166.909 183.914 166.094 184.426L165.637 183.886C166.772 183.209 167.431 181.725 167.431 180.242V179.473H165.865V178.878H169.62V179.473H168.127V180.242ZM183.244 181.789V182.394H175.819V181.789H183.244ZM182.375 180.425V181.011H176.762V178.246H182.32V178.85H177.467V180.425H182.375ZM179.527 183.108C181.276 183.108 182.32 183.639 182.329 184.573C182.32 185.516 181.276 186.038 179.527 186.038C177.769 186.038 176.716 185.516 176.716 184.573C176.716 183.639 177.769 183.108 179.527 183.108ZM179.527 183.666C178.218 183.675 177.439 184.005 177.448 184.573C177.439 185.15 178.218 185.47 179.527 185.47C180.818 185.47 181.605 185.15 181.605 184.573C181.605 184.005 180.818 183.675 179.527 183.666ZM191.178 182.403V182.998H183.725V182.403H187.095V181.542H184.696V179.555H189.494V178.713H184.668V178.127H190.217V180.095H185.41V180.965H190.391V181.542H187.8V182.403H191.178ZM190.263 183.621V185.983H189.54V184.207H184.559V183.621H190.263Z" fill="#868E96"/>
<path d="M267.068 177.916V182.128H266.345V180.013H264.532V179.418H266.345V177.916H267.068ZM267.068 182.54V184.481H262.518V185.369H267.37V185.946H261.813V183.932H266.354V183.117H261.794V182.54H267.068ZM263.094 178.951C263.085 180.022 263.928 180.993 265.118 181.386L264.733 181.945C263.832 181.624 263.113 180.984 262.756 180.159C262.408 181.089 261.671 181.798 260.705 182.146L260.311 181.57C261.538 181.167 262.38 180.141 262.389 178.951V178.182H263.094V178.951ZM274.984 177.916V182.769H274.261V180.636H272.622V180.04H274.261V177.916H274.984ZM272.283 183.025C273.977 183.025 275.011 183.575 275.011 184.536C275.011 185.498 273.977 186.047 272.283 186.056C270.589 186.047 269.554 185.498 269.554 184.536C269.554 183.575 270.589 183.025 272.283 183.025ZM272.283 183.584C271.038 183.584 270.259 183.941 270.269 184.536C270.259 185.122 271.038 185.479 272.283 185.479C273.528 185.479 274.297 185.122 274.297 184.536C274.297 183.941 273.528 183.584 272.283 183.584ZM271.065 179.409C271.065 180.471 271.88 181.478 273.07 181.89L272.695 182.467C271.779 182.137 271.07 181.455 270.726 180.608C270.369 181.565 269.614 182.33 268.648 182.696L268.272 182.119C269.481 181.679 270.342 180.581 270.342 179.418V179.116H268.501V178.511H272.887V179.116H271.065V179.409Z" fill="#868E96"/>
<path d="M89.8909 153.497C88.787 153.149 87.5736 153 86.41 153C84.4706 153 82.3821 153.398 80.94 154.492C79.4979 153.398 77.4094 153 75.47 153C73.5306 153 71.4421 153.398 70 154.492V169.062C70 169.311 70.2486 169.559 70.4973 169.559C70.5967 169.559 70.6465 169.509 70.7459 169.509C72.0885 168.863 74.0279 168.415 75.47 168.415C77.4094 168.415 79.4979 168.813 80.94 169.907C82.2826 169.062 84.7193 168.415 86.41 168.415C88.051 168.415 89.7417 168.714 91.1341 169.46C91.2335 169.509 91.2833 169.509 91.3827 169.509C91.6314 169.509 91.88 169.261 91.88 169.012V154.492C91.2833 154.044 90.6368 153.746 89.8909 153.497ZM89.8909 166.924C88.7969 166.576 87.6035 166.426 86.41 166.426C84.7193 166.426 82.2826 167.073 80.94 167.918V156.481C82.2826 155.636 84.7193 154.989 86.41 154.989C87.6035 154.989 88.7969 155.138 89.8909 155.486V166.924Z" fill="#42C153"/>
<path d="M86.41 158.967C87.2852 158.967 88.1306 159.057 88.8964 159.226V157.714C88.1107 157.565 87.2653 157.476 86.41 157.476C84.7193 157.476 83.1877 157.764 81.9346 158.301V159.952C83.0584 159.315 84.6198 158.967 86.41 158.967Z" fill="#42C153"/>
<path d="M81.9346 160.947V162.598C83.0584 161.961 84.6198 161.613 86.41 161.613C87.2852 161.613 88.1306 161.702 88.8964 161.871V160.36C88.1107 160.211 87.2653 160.121 86.41 160.121C84.7193 160.121 83.1877 160.419 81.9346 160.947Z" fill="#42C153"/>
<path d="M86.41 162.776C84.7193 162.776 83.1877 163.065 81.9346 163.602V165.253C83.0584 164.616 84.6198 164.268 86.41 164.268C87.2852 164.268 88.1306 164.358 88.8964 164.527V163.015C88.1107 162.856 87.2653 162.776 86.41 162.776Z" fill="#42C153"/>
<path d="M165 167.834V172H169.166L181.453 159.713L177.287 155.547L165 167.834ZM184.675 156.491C185.108 156.058 185.108 155.358 184.675 154.925L182.075 152.325C181.642 151.892 180.942 151.892 180.509 152.325L178.476 154.358L182.642 158.524L184.675 156.491Z" fill="#868E96"/>
<path d="M270.424 172.522H266.576C266.319 172.522 266.097 172.437 265.909 172.266C265.721 172.095 265.61 171.881 265.576 171.625L265.268 169.239C265.045 169.153 264.836 169.051 264.64 168.931C264.443 168.811 264.25 168.683 264.062 168.546L261.83 169.47C261.591 169.555 261.351 169.564 261.112 169.495C260.873 169.427 260.684 169.282 260.548 169.059L258.649 165.75C258.512 165.528 258.47 165.288 258.521 165.032C258.572 164.775 258.701 164.57 258.906 164.416L260.83 162.954C260.813 162.834 260.804 162.719 260.804 162.607V161.914C260.804 161.804 260.813 161.688 260.83 161.569L258.906 160.106C258.701 159.952 258.572 159.747 258.521 159.491C258.47 159.234 258.512 158.995 258.649 158.772L260.548 155.463C260.667 155.224 260.851 155.074 261.099 155.014C261.347 154.954 261.591 154.967 261.83 155.053L264.062 155.976C264.25 155.839 264.447 155.711 264.652 155.591C264.857 155.472 265.062 155.369 265.268 155.284L265.576 152.898C265.61 152.641 265.721 152.428 265.909 152.257C266.097 152.086 266.319 152 266.576 152H270.424C270.681 152 270.903 152.086 271.091 152.257C271.279 152.428 271.39 152.641 271.424 152.898L271.732 155.284C271.955 155.369 272.164 155.472 272.361 155.591C272.558 155.711 272.75 155.839 272.938 155.976L275.17 155.053C275.409 154.967 275.649 154.959 275.888 155.027C276.127 155.095 276.316 155.241 276.452 155.463L278.351 158.772C278.488 158.995 278.53 159.234 278.479 159.491C278.428 159.747 278.299 159.952 278.094 160.106L276.17 161.569C276.187 161.688 276.196 161.804 276.196 161.914V162.607C276.196 162.719 276.179 162.834 276.145 162.954L278.069 164.416C278.274 164.57 278.402 164.775 278.453 165.032C278.505 165.288 278.462 165.528 278.325 165.75L276.427 169.034C276.29 169.256 276.098 169.406 275.85 169.483C275.602 169.56 275.358 169.555 275.118 169.47L272.938 168.546C272.75 168.683 272.553 168.811 272.348 168.931C272.143 169.051 271.937 169.153 271.732 169.239L271.424 171.625C271.39 171.881 271.279 172.095 271.091 172.266C270.903 172.437 270.681 172.522 270.424 172.522ZM268.551 165.853C269.543 165.853 270.39 165.502 271.091 164.801C271.792 164.1 272.143 163.253 272.143 162.261C272.143 161.269 271.792 160.423 271.091 159.722C270.39 159.02 269.543 158.67 268.551 158.67C267.542 158.67 266.691 159.02 265.998 159.722C265.306 160.423 264.96 161.269 264.96 162.261C264.96 163.253 265.306 164.1 265.998 164.801C266.691 165.502 267.542 165.853 268.551 165.853Z" fill="#868E96"/>
</g>
<g filter="url(#filter4_d_86_9039)">
<path d="M155.179 93.4798C152.847 93.4798 150.957 91.5895 150.957 89.2577L150.957 63.1723C150.957 60.8405 152.847 58.9501 155.179 58.9501L174.078 58.9501C176.41 58.9501 178.3 60.8405 178.3 63.1723L178.3 89.2577C178.3 91.5895 176.41 93.4798 174.078 93.4798L155.179 93.4798Z" fill="#FAFDAC" stroke="#343A40" stroke-width="1.20634"/>
<path d="M153.615 86.0185C154.256 86.0185 154.775 86.5359 154.775 87.1743C154.775 87.8126 154.256 88.3301 153.615 88.3301C152.974 88.3301 152.455 87.8126 152.455 87.1743C152.455 86.536 152.974 86.0185 153.615 86.0185Z" fill="#343A40"/>
<path d="M148.743 87.1747C148.743 86.7917 149.089 86.4812 149.516 86.4812L152.61 86.4812C153.037 86.4812 153.383 86.7917 153.383 87.1747C153.383 87.5577 153.037 87.8682 152.61 87.8682L149.516 87.8682C149.089 87.8682 148.743 87.5577 148.743 87.1747Z" fill="#343A40"/>
<path d="M153.615 82.5038C154.256 82.5038 154.775 83.0213 154.775 83.6596C154.775 84.298 154.256 84.8154 153.615 84.8154C152.974 84.8154 152.455 84.298 152.455 83.6596C152.455 83.0213 152.974 82.5038 153.615 82.5038Z" fill="#343A40"/>
<path d="M148.743 83.661C148.743 83.278 149.089 82.9675 149.516 82.9675L152.61 82.9675C153.037 82.9675 153.383 83.278 153.383 83.661C153.383 84.044 153.037 84.3545 152.61 84.3545L149.516 84.3545C149.089 84.3545 148.743 84.044 148.743 83.661Z" fill="#343A40"/>
<path d="M153.615 78.9931C154.256 78.9931 154.775 79.5106 154.775 80.1489C154.775 80.7872 154.256 81.3047 153.615 81.3047C152.974 81.3047 152.455 80.7872 152.455 80.1489C152.455 79.5106 152.974 78.9931 153.615 78.9931Z" fill="#343A40"/>
<path d="M148.743 80.1493C148.743 79.7663 149.089 79.4558 149.516 79.4558L152.61 79.4558C153.037 79.4558 153.383 79.7663 153.383 80.1493C153.383 80.5323 153.037 80.8428 152.61 80.8428L149.516 80.8428C149.089 80.8428 148.743 80.5323 148.743 80.1493Z" fill="#343A40"/>
<path d="M153.615 75.4784C154.256 75.4784 154.775 75.9959 154.775 76.6342C154.775 77.2726 154.256 77.79 153.615 77.79C152.974 77.79 152.455 77.2726 152.455 76.6342C152.455 75.9959 152.974 75.4784 153.615 75.4784Z" fill="#343A40"/>
<path d="M148.743 76.6337C148.743 76.2507 149.089 75.9402 149.516 75.9402L152.61 75.9402C153.037 75.9402 153.383 76.2507 153.383 76.6337C153.383 77.0167 153.037 77.3271 152.61 77.3271L149.516 77.3271C149.089 77.3271 148.743 77.0167 148.743 76.6337Z" fill="#343A40"/>
<path d="M153.615 71.9657C154.256 71.9657 154.775 72.4832 154.775 73.1215C154.775 73.7599 154.256 74.2773 153.615 74.2773C152.974 74.2773 152.455 73.7599 152.455 73.1215C152.455 72.4832 152.974 71.9657 153.615 71.9657Z" fill="#343A40"/>
<path d="M148.743 73.122C148.743 72.739 149.089 72.4285 149.516 72.4285L152.61 72.4285C153.037 72.4285 153.383 72.739 153.383 73.122C153.383 73.5049 153.037 73.8154 152.61 73.8154L149.516 73.8154C149.089 73.8154 148.743 73.5049 148.743 73.122Z" fill="#343A40"/>
<path d="M153.615 68.4511C154.256 68.4511 154.775 68.9686 154.775 69.6069C154.775 70.2452 154.256 70.7627 153.615 70.7627C152.974 70.7627 152.455 70.2452 152.455 69.6069C152.455 68.9686 152.974 68.4511 153.615 68.4511Z" fill="#343A40"/>
<path d="M148.743 69.6073C148.743 69.2243 149.089 68.9138 149.516 68.9138L152.61 68.9138C153.037 68.9138 153.383 69.2243 153.383 69.6073C153.383 69.9903 153.037 70.3008 152.61 70.3008L149.516 70.3008C149.089 70.3008 148.743 69.9903 148.743 69.6073Z" fill="#343A40"/>
<path d="M153.615 64.9355C154.256 64.9355 154.775 65.4529 154.775 66.0913C154.775 66.7296 154.256 67.2471 153.615 67.2471C152.974 67.2471 152.455 66.7296 152.455 66.0913C152.455 65.4529 152.974 64.9355 153.615 64.9355Z" fill="#343A40"/>
<path d="M148.743 66.0917C148.743 65.7087 149.089 65.3982 149.516 65.3982L152.61 65.3982C153.037 65.3982 153.383 65.7087 153.383 66.0917C153.383 66.4747 153.037 66.7852 152.61 66.7852L149.516 66.7852C149.089 66.7852 148.743 66.4747 148.743 66.0917Z" fill="#343A40"/>
<path d="M153.615 61.4238C154.256 61.4238 154.775 61.9412 154.775 62.5796C154.775 63.2179 154.256 63.7354 153.615 63.7354C152.974 63.7354 152.455 63.2179 152.455 62.5796C152.455 61.9412 152.974 61.4238 153.615 61.4238Z" fill="#343A40"/>
<path d="M148.743 62.5809C148.743 62.1979 149.089 61.8875 149.516 61.8875L152.61 61.8875C153.037 61.8875 153.383 62.1979 153.383 62.5809C153.383 62.9639 153.037 63.2744 152.61 63.2744L149.516 63.2744C149.089 63.2744 148.743 62.9639 148.743 62.5809Z" fill="#343A40"/>
<path d="M160.736 72.2881C159.466 72.2917 158.396 73.3591 158.393 74.625C158.391 75.8842 159.437 76.9721 160.656 76.9781C161.946 76.9847 163.008 75.9059 163.013 74.5853C163.017 73.2845 162.027 72.2845 160.736 72.2881ZM161.569 73.1017C161.956 73.0963 162.232 73.3639 162.241 73.753C162.249 74.1114 161.972 74.3983 161.604 74.4115C161.222 74.4253 160.926 74.1319 160.919 73.735C160.913 73.3693 161.183 73.1065 161.569 73.1011V73.1017Z" fill="#18231C"/>
<path d="M169.543 74.6117C169.549 75.8396 170.655 76.9576 171.865 76.9582C173.068 76.9582 174.118 75.8727 174.112 74.6357C174.106 73.3332 173.039 72.288 171.719 72.291C170.553 72.2934 169.538 73.3765 169.543 74.6117ZM172.677 73.1047C173.07 73.1023 173.347 73.3729 173.345 73.7577C173.344 74.1336 173.095 74.4114 172.752 74.4198C172.364 74.4295 172.052 74.121 172.041 73.7168C172.031 73.3681 172.303 73.1071 172.677 73.1047Z" fill="#18231C"/>
<path d="M167.781 77.2671C167.866 77.1541 167.894 76.9694 167.881 76.8233C167.874 76.7379 167.744 76.6231 167.65 76.599C167.574 76.5798 167.457 76.664 167.38 76.7283C167.314 76.783 167.282 76.8768 167.229 76.9496C166.807 77.5323 165.987 77.474 165.653 76.8377C165.561 76.6621 165.497 76.4372 165.22 76.5707C165.011 76.6712 164.941 76.9322 165.087 77.1685C165.684 78.1403 167.124 78.1438 167.781 77.2671Z" fill="#18231C"/>
<path d="M161.569 73.1016C161.183 73.107 160.913 73.3692 160.919 73.7354C160.925 74.1323 161.222 74.4258 161.604 74.4119C161.972 74.3987 162.249 74.1112 162.241 73.7534C162.232 73.3644 161.956 73.0968 161.569 73.1022V73.1016Z" fill="white"/>
<path d="M172.678 73.1035C172.303 73.1059 172.031 73.3669 172.041 73.7157C172.052 74.1192 172.364 74.4283 172.752 74.4187C173.095 74.4103 173.344 74.1319 173.346 73.7566C173.347 73.3717 173.07 73.1011 172.678 73.1035Z" fill="white"/>
<path d="M172.236 79.4754C171.682 79.4754 171.232 79.0269 171.232 78.4735C171.232 77.9202 171.682 77.4717 172.236 77.4717C172.79 77.4717 173.239 77.9202 173.239 78.4735C173.239 79.0269 172.79 79.4754 172.236 79.4754Z" fill="#FEB7B7"/>
<path d="M160.084 79.4754C159.53 79.4754 159.081 79.0269 159.081 78.4735C159.081 77.9202 159.53 77.4717 160.084 77.4717C160.639 77.4717 161.088 77.9202 161.088 78.4735C161.088 79.0269 160.639 79.4754 160.084 79.4754Z" fill="#FEB7B7"/>
<path d="M173.875 61.5721C174.784 61.5721 175.52 62.3062 175.52 63.2106C175.52 64.115 174.784 64.8492 173.875 64.8492C172.966 64.8492 172.23 64.115 172.23 63.2106C172.23 62.3062 172.966 61.5721 173.875 61.5721Z" fill="#343A40" stroke="#343A40" stroke-width="0.329001"/>
<ellipse cx="173.874" cy="63.2102" rx="1.00171" ry="1.0053" transform="rotate(-90 173.874 63.2102)" fill="#FAFDAC"/>
</g>
<g filter="url(#filter5_d_86_9039)">
<path d="M169.928 93.4798C167.596 93.4798 165.706 91.5895 165.706 89.2577L165.706 63.1723C165.706 60.8405 167.596 58.9501 169.928 58.9501L188.827 58.9501C191.159 58.9501 193.049 60.8405 193.049 63.1723L193.049 89.2577C193.049 91.5895 191.159 93.4798 188.827 93.4798L169.928 93.4798Z" fill="#FAFDAC" stroke="#343A40" stroke-width="1.20634"/>
<path d="M168.367 86.0195C169.008 86.0195 169.527 86.5369 169.527 87.1753C169.527 87.8136 169.008 88.3311 168.367 88.3311C167.726 88.3311 167.207 87.8136 167.207 87.1753C167.207 86.5369 167.726 86.0195 168.367 86.0195Z" fill="#343A40"/>
<path d="M163.495 87.1757C163.495 86.7927 163.841 86.4822 164.268 86.4822L167.362 86.4822C167.789 86.4822 168.135 86.7927 168.135 87.1757C168.135 87.5587 167.789 87.8691 167.362 87.8691L164.268 87.8691C163.841 87.8691 163.495 87.5587 163.495 87.1757Z" fill="#343A40"/>
<path d="M168.367 82.5068C169.008 82.5068 169.527 83.0242 169.527 83.6626C169.527 84.3009 169.008 84.8184 168.367 84.8184C167.726 84.8184 167.207 84.3009 167.207 83.6626C167.207 83.0242 167.726 82.5068 168.367 82.5068Z" fill="#343A40"/>
<path d="M163.495 83.663C163.495 83.28 163.841 82.9695 164.268 82.9695L167.362 82.9695C167.789 82.9695 168.135 83.28 168.135 83.663C168.135 84.046 167.789 84.3564 167.362 84.3564L164.268 84.3564C163.841 84.3564 163.495 84.046 163.495 83.663Z" fill="#343A40"/>
<path d="M168.367 78.9931C169.008 78.9931 169.527 79.5106 169.527 80.1489C169.527 80.7872 169.008 81.3047 168.367 81.3047C167.726 81.3047 167.207 80.7872 167.207 80.1489C167.207 79.5106 167.726 78.9931 168.367 78.9931Z" fill="#343A40"/>
<path d="M163.495 80.1493C163.495 79.7663 163.841 79.4558 164.268 79.4558L167.362 79.4558C167.789 79.4558 168.135 79.7663 168.135 80.1493C168.135 80.5323 167.789 80.8428 167.362 80.8428L164.268 80.8428C163.841 80.8428 163.495 80.5323 163.495 80.1493Z" fill="#343A40"/>
<path d="M168.367 75.4794C169.008 75.4794 169.527 75.9969 169.527 76.6352C169.527 77.2735 169.008 77.791 168.367 77.791C167.726 77.791 167.207 77.2735 167.207 76.6352C167.207 75.9969 167.726 75.4794 168.367 75.4794Z" fill="#343A40"/>
<path d="M163.495 76.6337C163.495 76.2507 163.841 75.9402 164.268 75.9402L167.362 75.9402C167.789 75.9402 168.135 76.2507 168.135 76.6337C168.135 77.0167 167.789 77.3271 167.362 77.3271L164.268 77.3271C163.841 77.3271 163.495 77.0167 163.495 76.6337Z" fill="#343A40"/>
<path d="M168.367 71.9657C169.008 71.9657 169.527 72.4832 169.527 73.1215C169.527 73.7599 169.008 74.2773 168.367 74.2773C167.726 74.2773 167.207 73.7599 167.207 73.1215C167.207 72.4832 167.726 71.9657 168.367 71.9657Z" fill="#343A40"/>
<path d="M163.495 73.122C163.495 72.739 163.841 72.4285 164.268 72.4285L167.362 72.4285C167.789 72.4285 168.135 72.739 168.135 73.122C168.135 73.5049 167.789 73.8154 167.362 73.8154L164.268 73.8154C163.841 73.8154 163.495 73.5049 163.495 73.122Z" fill="#343A40"/>
<path d="M168.367 68.4511C169.008 68.4511 169.527 68.9686 169.527 69.6069C169.527 70.2452 169.008 70.7627 168.367 70.7627C167.726 70.7627 167.207 70.2452 167.207 69.6069C167.207 68.9686 167.726 68.4511 168.367 68.4511Z" fill="#343A40"/>
<path d="M163.495 69.6073C163.495 69.2243 163.841 68.9138 164.268 68.9138L167.362 68.9138C167.789 68.9138 168.135 69.2243 168.135 69.6073C168.135 69.9903 167.789 70.3008 167.362 70.3008L164.268 70.3008C163.841 70.3008 163.495 69.9903 163.495 69.6073Z" fill="#343A40"/>
<path d="M168.367 64.9365C169.008 64.9365 169.527 65.4539 169.527 66.0922C169.527 66.7306 169.008 67.248 168.367 67.248C167.726 67.248 167.207 66.7306 167.207 66.0922C167.207 65.4539 167.726 64.9365 168.367 64.9365Z" fill="#343A40"/>
<path d="M163.495 66.0927C163.495 65.7097 163.841 65.3992 164.268 65.3992L167.362 65.3992C167.789 65.3992 168.135 65.7097 168.135 66.0927C168.135 66.4757 167.789 66.7861 167.362 66.7861L164.268 66.7861C163.841 66.7861 163.495 66.4757 163.495 66.0927Z" fill="#343A40"/>
<path d="M168.367 61.4247C169.008 61.4247 169.527 61.9422 169.527 62.5805C169.527 63.2189 169.008 63.7363 168.367 63.7363C167.726 63.7363 167.207 63.2189 167.207 62.5805C167.207 61.9422 167.726 61.4247 168.367 61.4247Z" fill="#343A40"/>
<path d="M163.495 62.5819C163.495 62.1989 163.841 61.8884 164.268 61.8884L167.362 61.8884C167.789 61.8884 168.135 62.1989 168.135 62.5819C168.135 62.9649 167.789 63.2754 167.362 63.2754L164.268 63.2754C163.841 63.2754 163.495 62.9649 163.495 62.5819Z" fill="#343A40"/>
<path d="M175.488 72.2881C174.218 72.2917 173.148 73.3591 173.145 74.625C173.143 75.8842 174.188 76.9721 175.408 76.9781C176.698 76.9847 177.76 75.9059 177.765 74.5853C177.769 73.2845 176.779 72.2845 175.488 72.2881ZM176.321 73.1017C176.708 73.0963 176.984 73.3639 176.993 73.753C177.001 74.1114 176.724 74.3983 176.356 74.4115C175.974 74.4253 175.678 74.1319 175.671 73.735C175.665 73.3693 175.935 73.1065 176.321 73.1011V73.1017Z" fill="#18231C"/>
<path d="M184.295 74.6117C184.301 75.8396 185.407 76.9576 186.617 76.9582C187.82 76.9582 188.87 75.8727 188.864 74.6357C188.858 73.3332 187.791 72.288 186.471 72.291C185.305 72.2934 184.29 73.3765 184.295 74.6117ZM187.429 73.1047C187.822 73.1023 188.099 73.3729 188.097 73.7577C188.096 74.1336 187.847 74.4114 187.504 74.4198C187.116 74.4295 186.804 74.121 186.793 73.7168C186.783 73.3681 187.055 73.1071 187.429 73.1047Z" fill="#18231C"/>
<path d="M182.533 77.2671C182.618 77.1541 182.645 76.9694 182.633 76.8233C182.626 76.7379 182.496 76.6231 182.402 76.599C182.326 76.5798 182.209 76.664 182.132 76.7283C182.066 76.783 182.033 76.8768 181.98 76.9496C181.559 77.5323 180.739 77.474 180.405 76.8377C180.313 76.6621 180.249 76.4372 179.972 76.5707C179.763 76.6712 179.693 76.9322 179.839 77.1685C180.436 78.1403 181.876 78.1438 182.533 77.2671Z" fill="#18231C"/>
<path d="M176.321 73.1016C175.935 73.107 175.665 73.3692 175.671 73.7354C175.677 74.1323 175.974 74.4258 176.356 74.4119C176.724 74.3987 177.001 74.1112 176.993 73.7534C176.984 73.3644 176.708 73.0968 176.321 73.1022V73.1016Z" fill="white"/>
<path d="M187.43 73.1035C187.055 73.1059 186.783 73.3669 186.793 73.7157C186.804 74.1192 187.116 74.4283 187.504 74.4187C187.847 74.4103 188.096 74.1319 188.098 73.7566C188.099 73.3717 187.822 73.1011 187.43 73.1035Z" fill="white"/>
<path d="M186.988 79.4754C186.433 79.4754 185.984 79.0269 185.984 78.4735C185.984 77.9202 186.433 77.4717 186.988 77.4717C187.542 77.4717 187.991 77.9202 187.991 78.4735C187.991 79.0269 187.542 79.4754 186.988 79.4754Z" fill="#FEB7B7"/>
<path d="M174.836 79.4754C174.282 79.4754 173.833 79.0269 173.833 78.4735C173.833 77.9202 174.282 77.4717 174.836 77.4717C175.391 77.4717 175.84 77.9202 175.84 78.4735C175.84 79.0269 175.391 79.4754 174.836 79.4754Z" fill="#FEB7B7"/>
<path d="M188.627 61.5731C189.536 61.5731 190.272 62.3072 190.272 63.2116C190.272 64.116 189.536 64.8501 188.627 64.8501C187.718 64.8501 186.982 64.116 186.982 63.2116C186.982 62.3072 187.718 61.5731 188.627 61.5731Z" fill="#343A40" stroke="#343A40" stroke-width="0.329001"/>
<ellipse cx="188.626" cy="63.2112" rx="1.00171" ry="1.0053" transform="rotate(-90 188.626 63.2112)" fill="#FAFDAC"/>
</g>
<g filter="url(#filter6_d_86_9039)">
<path d="M97.8962 99.5829C94.6717 99.5829 92.0577 96.9689 92.0577 93.7444L92.0577 57.6729C92.0577 54.4484 94.6717 51.8344 97.8962 51.8344L124.031 51.8344C127.255 51.8344 129.869 54.4484 129.869 57.6729L129.869 93.7444C129.869 96.9689 127.255 99.5829 124.031 99.5829L97.8962 99.5829Z" fill="#C5ECB3" stroke="#343A40" stroke-width="1.66815"/>
<path d="M95.7378 89.6482C96.6236 89.6482 97.3418 90.3638 97.3418 91.2465C97.3418 92.1292 96.6236 92.8447 95.7378 92.8447C94.8519 92.8447 94.1338 92.1292 94.1338 91.2465C94.1338 90.3638 94.8519 89.6482 95.7378 89.6482Z" fill="#343A40"/>
<path d="M89 91.2471C89 90.7175 89.4788 90.2881 90.0693 90.2881L94.3466 90.2881C94.9372 90.2881 95.416 90.7175 95.416 91.2471C95.416 91.7767 94.9372 92.2061 94.3466 92.2061L90.0693 92.2061C89.4788 92.2061 89 91.7767 89 91.2471Z" fill="#343A40"/>
<path d="M95.7378 84.7917C96.6236 84.7917 97.3418 85.5073 97.3418 86.39C97.3418 87.2727 96.6236 87.9883 95.7378 87.9883C94.8519 87.9883 94.1338 87.2727 94.1338 86.39C94.1338 85.5073 94.8519 84.7917 95.7378 84.7917Z" fill="#343A40"/>
<path d="M89 86.3897C89 85.8601 89.4788 85.4307 90.0693 85.4307L94.3466 85.4307C94.9372 85.4307 95.416 85.8601 95.416 86.3897C95.416 86.9193 94.9372 87.3486 94.3466 87.3486L90.0693 87.3486C89.4788 87.3486 89 86.9193 89 86.3897Z" fill="#343A40"/>
<path d="M95.7378 79.9304C96.6236 79.9304 97.3418 80.646 97.3418 81.5287C97.3418 82.4114 96.6236 83.127 95.7378 83.127C94.8519 83.127 94.1338 82.4114 94.1338 81.5287C94.1338 80.646 94.8519 79.9304 95.7378 79.9304Z" fill="#343A40"/>
<path d="M89 81.5293C89 80.9997 89.4788 80.5704 90.0693 80.5704L94.3466 80.5704C94.9372 80.5704 95.416 80.9997 95.416 81.5293C95.416 82.0589 94.9372 82.4883 94.3466 82.4883L90.0693 82.4883C89.4788 82.4883 89 82.0589 89 81.5293Z" fill="#343A40"/>
<path d="M95.7378 75.071C96.6236 75.071 97.3418 75.7866 97.3418 76.6693C97.3418 77.552 96.6236 78.2676 95.7378 78.2676C94.8519 78.2676 94.1338 77.552 94.1338 76.6693C94.1338 75.7866 94.8519 75.071 95.7378 75.071Z" fill="#343A40"/>
<path d="M89 76.6699C89 76.1403 89.4788 75.711 90.0693 75.711L94.3466 75.711C94.9372 75.711 95.416 76.1403 95.416 76.6699C95.416 77.1996 94.9372 77.6289 94.3466 77.6289L90.0693 77.6289C89.4788 77.6289 89 77.1996 89 76.6699Z" fill="#343A40"/>
<path d="M95.7378 70.2146C96.6236 70.2146 97.3418 70.9302 97.3418 71.8129C97.3418 72.6956 96.6236 73.4111 95.7378 73.4111C94.8519 73.4111 94.1338 72.6956 94.1338 71.8129C94.1338 70.9302 94.8519 70.2146 95.7378 70.2146Z" fill="#343A40"/>
<path d="M89 71.8135C89 71.2839 89.4788 70.8545 90.0693 70.8545L94.3466 70.8545C94.9372 70.8545 95.416 71.2839 95.416 71.8135C95.416 72.3431 94.9372 72.7725 94.3466 72.7725L90.0693 72.7725C89.4788 72.7725 89 72.3431 89 71.8135Z" fill="#343A40"/>
<path d="M95.7378 65.3542C96.6236 65.3542 97.3418 66.0698 97.3418 66.9525C97.3418 67.8352 96.6236 68.5508 95.7378 68.5508C94.8519 68.5508 94.1338 67.8352 94.1338 66.9525C94.1338 66.0698 94.8519 65.3542 95.7378 65.3542Z" fill="#343A40"/>
<path d="M89 66.9531C89 66.4235 89.4788 65.9942 90.0693 65.9942L94.3466 65.9942C94.9372 65.9942 95.416 66.4235 95.416 66.9531C95.416 67.4828 94.9372 67.9121 94.3466 67.9121L90.0693 67.9121C89.4788 67.9121 89 67.4828 89 66.9531Z" fill="#343A40"/>
<path d="M95.7378 60.4958C96.6236 60.4958 97.3418 61.2114 97.3418 62.0941C97.3418 62.9768 96.6236 63.6924 95.7378 63.6924C94.8519 63.6924 94.1338 62.9768 94.1338 62.0941C94.1338 61.2114 94.8519 60.4958 95.7378 60.4958Z" fill="#343A40"/>
<path d="M89 62.0938C89 61.5642 89.4788 61.1348 90.0693 61.1348L94.3466 61.1348C94.9372 61.1348 95.416 61.5642 95.416 62.0938C95.416 62.6234 94.9372 63.0527 94.3466 63.0527L90.0693 63.0527C89.4788 63.0527 89 62.6234 89 62.0938Z" fill="#343A40"/>
<path d="M95.7378 55.6384C96.6236 55.6384 97.3418 56.354 97.3418 57.2367C97.3418 58.1194 96.6236 58.835 95.7378 58.835C94.8519 58.835 94.1338 58.1194 94.1338 57.2367C94.1338 56.354 94.8519 55.6384 95.7378 55.6384Z" fill="#343A40"/>
<path d="M89 57.2364C89 56.7067 89.4788 56.2774 90.0693 56.2774L94.3466 56.2774C94.9372 56.2774 95.416 56.7067 95.416 57.2364C95.416 57.766 94.9372 58.1953 94.3466 58.1953L90.0693 58.1953C89.4788 58.1953 89 57.766 89 57.2364Z" fill="#343A40"/>
<path d="M105.586 70.6045C103.829 70.6095 102.349 72.0855 102.345 73.836C102.342 75.5773 103.788 77.0816 105.474 77.0899C107.258 77.0991 108.727 75.6073 108.733 73.7811C108.74 71.9824 107.37 70.5995 105.586 70.6045ZM106.737 71.7296C107.272 71.7221 107.654 72.0922 107.666 72.6302C107.678 73.1258 107.294 73.5225 106.786 73.5408C106.258 73.5599 105.848 73.1541 105.839 72.6053C105.831 72.0997 106.203 71.7363 106.737 71.7288V71.7296Z" fill="#18231C"/>
<path d="M117.765 73.8184C117.773 75.5165 119.302 77.0624 120.975 77.0632C122.639 77.0632 124.091 75.5622 124.083 73.8517C124.074 72.0505 122.599 70.6052 120.774 70.6094C119.161 70.6127 117.758 72.1104 117.765 73.8184ZM122.099 71.7345C122.641 71.7312 123.024 72.1054 123.023 72.6376C123.021 73.1573 122.676 73.5415 122.202 73.5532C121.666 73.5665 121.234 73.1399 121.218 72.581C121.205 72.0987 121.581 71.7378 122.099 71.7345Z" fill="#18231C"/>
<path d="M115.327 77.4906C115.445 77.3343 115.483 77.079 115.466 76.8769C115.456 76.7588 115.277 76.6 115.147 76.5667C115.042 76.5401 114.88 76.6565 114.774 76.7455C114.682 76.8212 114.637 76.9509 114.564 77.0515C113.981 77.8573 112.847 77.7767 112.385 76.8969C112.258 76.654 112.169 76.343 111.786 76.5276C111.498 76.6665 111.401 77.0274 111.602 77.3542C112.428 78.698 114.418 78.7029 115.327 77.4906Z" fill="#18231C"/>
<path d="M106.737 71.7305C106.203 71.738 105.831 72.1005 105.839 72.6069C105.848 73.1558 106.258 73.5616 106.786 73.5425C107.294 73.5242 107.678 73.1267 107.667 72.6319C107.654 72.0939 107.273 71.7238 106.737 71.7313V71.7305Z" fill="white"/>
<path d="M122.099 71.7334C121.581 71.7367 121.205 72.0976 121.218 72.58C121.233 73.1379 121.666 73.5654 122.202 73.5521C122.676 73.5404 123.021 73.1554 123.022 72.6365C123.024 72.1043 122.642 71.7301 122.099 71.7334Z" fill="white"/>
<path d="M121.487 80.5442C120.721 80.5442 120.1 79.924 120.1 79.1588C120.1 78.3937 120.721 77.7734 121.487 77.7734C122.254 77.7734 122.875 78.3937 122.875 79.1588C122.875 79.924 122.254 80.5442 121.487 80.5442Z" fill="#FEB7B7"/>
<path d="M104.685 80.5442C103.918 80.5442 103.297 79.924 103.297 79.1588C103.297 78.3937 103.918 77.7734 104.685 77.7734C105.451 77.7734 106.072 78.3937 106.072 79.1588C106.072 79.924 105.451 80.5442 104.685 80.5442Z" fill="#FEB7B7"/>
<path d="M123.755 55.8424C125.012 55.8424 126.03 56.8577 126.03 58.1083C126.03 59.3589 125.012 60.3741 123.755 60.3741C122.498 60.3741 121.48 59.3589 121.48 58.1083C121.48 56.8577 122.498 55.8424 123.755 55.8424Z" fill="#343A40" stroke="#343A40" stroke-width="0.454951"/>
<ellipse cx="123.754" cy="58.109" rx="1.38519" ry="1.39015" transform="rotate(-90 123.754 58.109)" fill="#C5ECB3"/>
</g>
<g filter="url(#filter7_d_86_9039)">
<path d="M212.358 89.1003C210.658 89.1003 209.28 87.7222 209.28 86.0223L209.28 67.0056C209.28 65.3057 210.658 63.9276 212.358 63.9276L226.135 63.9276C227.835 63.9276 229.214 65.3057 229.214 67.0056L229.214 86.0223C229.214 87.7222 227.835 89.1003 226.135 89.1003L212.358 89.1003Z" fill="#FFE9E3" stroke="#343A40" stroke-width="0.879439"/>
<path d="M211.217 83.392C211.684 83.392 212.062 83.7692 212.062 84.2346C212.062 84.6999 211.684 85.0771 211.217 85.0771C210.75 85.0771 210.371 84.6999 210.371 84.2346C210.371 83.7692 210.75 83.392 211.217 83.392Z" fill="#343A40"/>
<path d="M207.666 84.2337C207.666 83.9545 207.918 83.7281 208.23 83.7281L210.485 83.7281C210.796 83.7281 211.048 83.9545 211.048 84.2337C211.048 84.5129 210.796 84.7393 210.485 84.7393L208.23 84.7393C207.918 84.7393 207.666 84.5129 207.666 84.2337Z" fill="#343A40"/>
<path d="M211.218 80.8295C211.685 80.8295 212.063 81.2067 212.063 81.6721C212.063 82.1374 211.685 82.5146 211.218 82.5146C210.751 82.5146 210.372 82.1374 210.372 81.6721C210.372 81.2067 210.751 80.8295 211.218 80.8295Z" fill="#343A40"/>
<path d="M207.666 81.6722C207.666 81.393 207.918 81.1666 208.23 81.1666L210.485 81.1666C210.796 81.1666 211.048 81.393 211.048 81.6722C211.048 81.9514 210.796 82.1777 210.485 82.1777L208.23 82.1777C207.918 82.1777 207.666 81.9514 207.666 81.6722Z" fill="#343A40"/>
<path d="M211.217 78.2689C211.684 78.2689 212.062 78.6462 212.062 79.1115C212.062 79.5769 211.684 79.9541 211.217 79.9541C210.75 79.9541 210.371 79.5769 210.371 79.1115C210.371 78.6462 210.75 78.2689 211.217 78.2689Z" fill="#343A40"/>
<path d="M207.666 79.1126C207.666 78.8334 207.918 78.607 208.23 78.607L210.485 78.607C210.796 78.607 211.048 78.8334 211.048 79.1126C211.048 79.3918 210.796 79.6182 210.485 79.6182L208.23 79.6182C207.918 79.6182 207.666 79.3918 207.666 79.1126Z" fill="#343A40"/>
<path d="M211.217 75.7084C211.684 75.7084 212.062 76.0856 212.062 76.551C212.062 77.0163 211.684 77.3936 211.217 77.3936C210.75 77.3936 210.371 77.0163 210.371 76.551C210.371 76.0856 210.75 75.7084 211.217 75.7084Z" fill="#343A40"/>
<path d="M207.666 76.5511C207.666 76.2719 207.918 76.0455 208.23 76.0455L210.485 76.0455C210.796 76.0455 211.048 76.2719 211.048 76.5511C211.048 76.8303 210.796 77.0566 210.485 77.0566L208.23 77.0566C207.918 77.0566 207.666 76.8303 207.666 76.5511Z" fill="#343A40"/>
<path d="M211.218 73.1449C211.685 73.1449 212.063 73.5221 212.063 73.9875C212.063 74.4528 211.685 74.8301 211.218 74.8301C210.751 74.8301 210.372 74.4528 210.372 73.9875C210.372 73.5221 210.751 73.1449 211.218 73.1449Z" fill="#343A40"/>
<path d="M207.666 73.9886C207.666 73.7094 207.918 73.483 208.23 73.483L210.485 73.483C210.796 73.483 211.048 73.7094 211.048 73.9886C211.048 74.2678 210.796 74.4941 210.485 74.4941L208.23 74.4941C207.918 74.4941 207.666 74.2678 207.666 73.9886Z" fill="#343A40"/>
<path d="M211.217 70.5834C211.684 70.5834 212.062 70.9606 212.062 71.426C212.062 71.8913 211.684 72.2686 211.217 72.2686C210.75 72.2686 210.371 71.8913 210.371 71.426C210.371 70.9606 210.75 70.5834 211.217 70.5834Z" fill="#343A40"/>
<path d="M207.666 71.4271C207.666 71.1478 207.918 70.9215 208.23 70.9215L210.485 70.9215C210.796 70.9215 211.048 71.1478 211.048 71.4271C211.048 71.7063 210.796 71.9326 210.485 71.9326L208.23 71.9326C207.918 71.9326 207.666 71.7063 207.666 71.4271Z" fill="#343A40"/>
<path d="M211.217 68.0228C211.684 68.0228 212.062 68.4001 212.062 68.8654C212.062 69.3308 211.684 69.708 211.217 69.708C210.75 69.708 210.371 69.3308 210.371 68.8654C210.371 68.4001 210.75 68.0228 211.217 68.0228Z" fill="#343A40"/>
<path d="M207.666 68.8646C207.666 68.5853 207.918 68.359 208.23 68.359L210.485 68.359C210.796 68.359 211.048 68.5853 211.048 68.8646C211.048 69.1438 210.796 69.3701 210.485 69.3701L208.23 69.3701C207.918 69.3701 207.666 69.1438 207.666 68.8646Z" fill="#343A40"/>
<path d="M211.218 65.4603C211.685 65.4603 212.063 65.8376 212.063 66.3029C212.063 66.7683 211.685 67.1455 211.218 67.1455C210.751 67.1455 210.372 66.7683 210.372 66.3029C210.372 65.8376 210.751 65.4603 211.218 65.4603Z" fill="#343A40"/>
<path d="M207.666 66.303C207.666 66.0238 207.918 65.7975 208.23 65.7975L210.485 65.7975C210.796 65.7975 211.048 66.0238 211.048 66.303C211.048 66.5822 210.796 66.8086 210.485 66.8086L208.23 66.8086C207.918 66.8086 207.666 66.5822 207.666 66.303Z" fill="#343A40"/>
<path d="M216.411 73.4209C215.485 73.4235 214.704 74.2017 214.703 75.1245C214.701 76.0425 215.463 76.8356 216.352 76.84C217.293 76.8448 218.067 76.0583 218.07 75.0956C218.074 74.1473 217.351 73.4183 216.411 73.4209ZM217.018 74.0141C217.3 74.0101 217.501 74.2052 217.508 74.4888C217.514 74.7501 217.311 74.9593 217.044 74.9689C216.765 74.979 216.549 74.765 216.544 74.4757C216.54 74.2091 216.736 74.0176 217.018 74.0136V74.0141Z" fill="#18231C"/>
<path d="M222.831 75.1146C222.835 76.0099 223.642 76.8248 224.524 76.8253C225.401 76.8253 226.166 76.034 226.162 75.1322C226.157 74.1826 225.38 73.4207 224.417 73.4229C223.567 73.4246 222.827 74.2142 222.831 75.1146ZM225.116 74.016C225.402 74.0143 225.604 74.2115 225.603 74.4921C225.602 74.7661 225.42 74.9687 225.171 74.9748C224.888 74.9818 224.66 74.7569 224.652 74.4623C224.645 74.208 224.843 74.0178 225.116 74.016Z" fill="#18231C"/>
<path d="M221.546 77.0508C221.608 76.9684 221.628 76.8338 221.619 76.7273C221.614 76.665 221.519 76.5813 221.451 76.5638C221.395 76.5497 221.31 76.6111 221.254 76.658C221.206 76.6979 221.182 76.7663 221.143 76.8194C220.836 77.2442 220.238 77.2016 219.995 76.7378C219.928 76.6098 219.881 76.4458 219.679 76.5432C219.527 76.6164 219.476 76.8067 219.582 76.9789C220.017 77.6874 221.067 77.6899 221.546 77.0508Z" fill="#18231C"/>
<path d="M217.018 74.0137C216.736 74.0176 216.54 74.2088 216.544 74.4757C216.549 74.7651 216.765 74.979 217.044 74.9689C217.311 74.9593 217.514 74.7497 217.508 74.4889C217.501 74.2053 217.3 74.0102 217.018 74.0141V74.0137Z" fill="white"/>
<path d="M225.116 74.0147C224.842 74.0164 224.644 74.2067 224.651 74.461C224.659 74.7551 224.887 74.9805 225.17 74.9734C225.42 74.9673 225.602 74.7643 225.603 74.4908C225.603 74.2102 225.402 74.0129 225.116 74.0147Z" fill="white"/>
<path d="M224.794 78.6609C224.39 78.6609 224.062 78.3339 224.062 77.9306C224.062 77.5272 224.39 77.2002 224.794 77.2002C225.198 77.2002 225.525 77.5272 225.525 77.9306C225.525 78.3339 225.198 78.6609 224.794 78.6609Z" fill="#FEB7B7"/>
<path d="M215.936 78.6609C215.532 78.6609 215.205 78.3339 215.205 77.9306C215.205 77.5272 215.532 77.2002 215.936 77.2002C216.34 77.2002 216.668 77.5272 216.668 77.9306C216.668 78.3339 216.34 78.6609 215.936 78.6609Z" fill="#FEB7B7"/>
<path d="M225.988 65.5672C226.651 65.5672 227.187 66.1024 227.187 66.7617C227.187 67.421 226.651 67.9562 225.988 67.9562C225.325 67.9562 224.789 67.421 224.789 66.7617C224.789 66.1024 225.325 65.5672 225.988 65.5672Z" fill="#343A40" stroke="#343A40" stroke-width="0.239847"/>
<ellipse cx="225.988" cy="66.7619" rx="0.730263" ry="0.732879" transform="rotate(-90 225.988 66.7619)" fill="#FFE9E3"/>
</g>
<g filter="url(#filter8_d_86_9039)">
<path d="M224.158 89.0993C222.458 89.0993 221.08 87.7213 221.08 86.0213L221.08 67.0047C221.08 65.3047 222.458 63.9266 224.158 63.9266L237.936 63.9266C239.636 63.9266 241.014 65.3047 241.014 67.0047L241.014 86.0213C241.014 87.7213 239.636 89.0993 237.936 89.0993L224.158 89.0993Z" fill="#FFE9E3" stroke="#343A40" stroke-width="0.879439"/>
<path d="M223.02 83.39C223.487 83.39 223.866 83.7672 223.866 84.2326C223.866 84.698 223.487 85.0752 223.02 85.0752C222.553 85.0752 222.175 84.698 222.175 84.2326C222.175 83.7672 222.553 83.39 223.02 83.39Z" fill="#343A40"/>
<path d="M219.469 84.2327C219.469 83.9535 219.721 83.7272 220.032 83.7272L222.287 83.7272C222.599 83.7272 222.851 83.9535 222.851 84.2327C222.851 84.5119 222.599 84.7383 222.287 84.7383L220.032 84.7383C219.721 84.7383 219.469 84.5119 219.469 84.2327Z" fill="#343A40"/>
<path d="M223.02 80.8285C223.487 80.8285 223.866 81.2057 223.866 81.6711C223.866 82.1364 223.487 82.5137 223.02 82.5137C222.553 82.5137 222.175 82.1364 222.175 81.6711C222.175 81.2057 222.553 80.8285 223.02 80.8285Z" fill="#343A40"/>
<path d="M219.469 81.6712C219.469 81.392 219.721 81.1656 220.032 81.1656L222.287 81.1656C222.599 81.1656 222.851 81.392 222.851 81.6712C222.851 81.9504 222.599 82.1768 222.287 82.1768L220.032 82.1768C219.721 82.1768 219.469 81.9504 219.469 81.6712Z" fill="#343A40"/>
<path d="M223.019 78.2679C223.486 78.2679 223.865 78.6452 223.865 79.1105C223.865 79.5759 223.486 79.9531 223.019 79.9531C222.552 79.9531 222.174 79.5759 222.174 79.1105C222.174 78.6452 222.552 78.2679 223.019 78.2679Z" fill="#343A40"/>
<path d="M219.469 79.1107C219.469 78.8314 219.721 78.6051 220.032 78.6051L222.287 78.6051C222.599 78.6051 222.851 78.8314 222.851 79.1107C222.851 79.3899 222.599 79.6162 222.287 79.6162L220.032 79.6162C219.721 79.6162 219.469 79.3899 219.469 79.1107Z" fill="#343A40"/>
<path d="M223.019 75.7074C223.486 75.7074 223.865 76.0846 223.865 76.55C223.865 77.0153 223.486 77.3926 223.019 77.3926C222.552 77.3926 222.174 77.0153 222.174 76.55C222.174 76.0846 222.552 75.7074 223.019 75.7074Z" fill="#343A40"/>
<path d="M219.469 76.5501C219.469 76.2709 219.721 76.0445 220.032 76.0445L222.287 76.0445C222.599 76.0445 222.851 76.2709 222.851 76.5501C222.851 76.8293 222.599 77.0557 222.287 77.0557L220.032 77.0557C219.721 77.0557 219.469 76.8293 219.469 76.5501Z" fill="#343A40"/>
<path d="M223.02 73.1429C223.487 73.1429 223.866 73.5202 223.866 73.9855C223.866 74.4509 223.487 74.8281 223.02 74.8281C222.553 74.8281 222.175 74.4509 222.175 73.9855C222.175 73.5202 222.553 73.1429 223.02 73.1429Z" fill="#343A40"/>
<path d="M219.469 73.9866C219.469 73.7074 219.721 73.4811 220.032 73.4811L222.287 73.4811C222.599 73.4811 222.851 73.7074 222.851 73.9866C222.851 74.2658 222.599 74.4922 222.287 74.4922L220.032 74.4922C219.721 74.4922 219.469 74.2658 219.469 73.9866Z" fill="#343A40"/>
<path d="M223.02 70.5824C223.487 70.5824 223.866 70.9596 223.866 71.425C223.866 71.8903 223.487 72.2676 223.02 72.2676C222.553 72.2676 222.175 71.8903 222.175 71.425C222.175 70.9596 222.553 70.5824 223.02 70.5824Z" fill="#343A40"/>
<path d="M219.469 71.4261C219.469 71.1469 219.721 70.9205 220.032 70.9205L222.287 70.9205C222.599 70.9205 222.851 71.1469 222.851 71.4261C222.851 71.7053 222.599 71.9316 222.287 71.9316L220.032 71.9316C219.721 71.9316 219.469 71.7053 219.469 71.4261Z" fill="#343A40"/>
<path d="M223.02 68.0209C223.487 68.0209 223.866 68.3981 223.866 68.8635C223.866 69.3288 223.487 69.7061 223.02 69.7061C222.553 69.7061 222.175 69.3288 222.175 68.8635C222.175 68.3981 222.553 68.0209 223.02 68.0209Z" fill="#343A40"/>
<path d="M219.469 68.8636C219.469 68.5844 219.721 68.358 220.032 68.358L222.287 68.358C222.599 68.358 222.851 68.5844 222.851 68.8636C222.851 69.1428 222.599 69.3691 222.287 69.3691L220.032 69.3691C219.721 69.3691 219.469 69.1428 219.469 68.8636Z" fill="#343A40"/>
<path d="M223.019 65.4593C223.486 65.4593 223.865 65.8366 223.865 66.3019C223.865 66.7673 223.486 67.1445 223.019 67.1445C222.552 67.1445 222.174 66.7673 222.174 66.3019C222.174 65.8366 222.552 65.4593 223.019 65.4593Z" fill="#343A40"/>
<path d="M219.469 66.3021C219.469 66.0228 219.721 65.7965 220.032 65.7965L222.287 65.7965C222.599 65.7965 222.851 66.0228 222.851 66.3021C222.851 66.5813 222.599 66.8076 222.287 66.8076L220.032 66.8076C219.721 66.8076 219.469 66.5813 219.469 66.3021Z" fill="#343A40"/>
<path d="M228.212 73.4199C227.286 73.4226 226.505 74.2007 226.503 75.1236C226.502 76.0416 227.264 76.8346 228.153 76.839C229.093 76.8438 229.868 76.0573 229.871 75.0946C229.875 74.1464 229.152 73.4173 228.212 73.4199ZM228.818 74.0131C229.101 74.0091 229.302 74.2042 229.309 74.4879C229.315 74.7492 229.112 74.9583 228.844 74.9679C228.566 74.978 228.35 74.7641 228.345 74.4747C228.341 74.2082 228.537 74.0166 228.818 74.0126V74.0131Z" fill="#18231C"/>
<path d="M234.632 75.1137C234.636 76.0089 235.442 76.8239 236.324 76.8243C237.201 76.8243 237.967 76.033 237.963 75.1312C237.958 74.1816 237.18 73.4197 236.218 73.4219C235.368 73.4236 234.628 74.2132 234.632 75.1137ZM236.917 74.015C237.203 74.0133 237.405 74.2106 237.404 74.4911C237.403 74.7651 237.221 74.9677 236.971 74.9738C236.689 74.9808 236.461 74.7559 236.453 74.4613C236.446 74.2071 236.644 74.0168 236.917 74.015Z" fill="#18231C"/>
<path d="M233.348 77.0499C233.41 76.9674 233.43 76.8329 233.421 76.7263C233.415 76.6641 233.321 76.5803 233.253 76.5628C233.197 76.5488 233.112 76.6101 233.056 76.6571C233.008 76.697 232.984 76.7653 232.945 76.8184C232.638 77.2432 232.04 77.2007 231.797 76.7368C231.73 76.6088 231.683 76.4449 231.481 76.5422C231.329 76.6154 231.278 76.8057 231.384 76.978C231.819 77.6864 232.869 77.689 233.348 77.0499Z" fill="#18231C"/>
<path d="M228.819 74.0127C228.538 74.0166 228.342 74.2078 228.346 74.4748C228.35 74.7641 228.567 74.9781 228.845 74.968C229.113 74.9583 229.316 74.7488 229.309 74.4879C229.303 74.2043 229.102 74.0092 228.819 74.0131V74.0127Z" fill="white"/>
<path d="M236.916 74.0137C236.643 74.0154 236.445 74.2057 236.452 74.46C236.46 74.7541 236.688 74.9795 236.971 74.9725C237.221 74.9663 237.402 74.7633 237.403 74.4898C237.404 74.2092 237.203 74.0119 236.916 74.0137Z" fill="white"/>
<path d="M236.595 78.66C236.191 78.66 235.863 78.333 235.863 77.9296C235.863 77.5262 236.191 77.1992 236.595 77.1992C236.999 77.1992 237.326 77.5262 237.326 77.9296C237.326 78.333 236.999 78.66 236.595 78.66Z" fill="#FEB7B7"/>
<path d="M227.737 78.66C227.333 78.66 227.006 78.333 227.006 77.9296C227.006 77.5262 227.333 77.1992 227.737 77.1992C228.141 77.1992 228.469 77.5262 228.469 77.9296C228.469 78.333 228.141 78.66 227.737 78.66Z" fill="#FEB7B7"/>
<path d="M237.79 65.5662C238.453 65.5662 238.989 66.1014 238.989 66.7607C238.989 67.4201 238.453 67.9553 237.79 67.9553C237.127 67.9553 236.591 67.4201 236.591 66.7607C236.591 66.1014 237.127 65.5662 237.79 65.5662Z" fill="#343A40" stroke="#343A40" stroke-width="0.239847"/>
<ellipse cx="237.79" cy="66.7609" rx="0.730263" ry="0.732879" transform="rotate(-90 237.79 66.7609)" fill="#FFE9E3"/>
</g>
<g filter="url(#filter9_d_86_9039)">
<path d="M236.697 89.1003C234.997 89.1003 233.619 87.7222 233.619 86.0223L233.619 67.0056C233.619 65.3057 234.997 63.9276 236.697 63.9276L250.475 63.9276C252.175 63.9276 253.553 65.3057 253.553 67.0056L253.553 86.0223C253.553 87.7222 252.175 89.1003 250.475 89.1003L236.697 89.1003Z" fill="#FFE9E3" stroke="#343A40" stroke-width="0.879439"/>
<path d="M235.56 83.392C236.027 83.392 236.406 83.7692 236.406 84.2346C236.406 84.6999 236.027 85.0771 235.56 85.0771C235.093 85.0771 234.715 84.6999 234.715 84.2346C234.715 83.7692 235.093 83.392 235.56 83.392Z" fill="#343A40"/>
<path d="M232.009 84.2337C232.009 83.9545 232.261 83.7281 232.573 83.7281L234.828 83.7281C235.139 83.7281 235.391 83.9545 235.391 84.2337C235.391 84.5129 235.139 84.7393 234.828 84.7393L232.573 84.7393C232.261 84.7393 232.009 84.5129 232.009 84.2337Z" fill="#343A40"/>
<path d="M235.56 80.8295C236.027 80.8295 236.406 81.2067 236.406 81.6721C236.406 82.1374 236.027 82.5146 235.56 82.5146C235.093 82.5146 234.715 82.1374 234.715 81.6721C234.715 81.2067 235.093 80.8295 235.56 80.8295Z" fill="#343A40"/>
<path d="M232.009 81.6722C232.009 81.393 232.261 81.1666 232.573 81.1666L234.828 81.1666C235.139 81.1666 235.391 81.393 235.391 81.6722C235.391 81.9514 235.139 82.1777 234.828 82.1777L232.573 82.1777C232.261 82.1777 232.009 81.9514 232.009 81.6722Z" fill="#343A40"/>
<path d="M235.56 78.2689C236.027 78.2689 236.406 78.6462 236.406 79.1115C236.406 79.5769 236.027 79.9541 235.56 79.9541C235.093 79.9541 234.715 79.5769 234.715 79.1115C234.715 78.6462 235.093 78.2689 235.56 78.2689Z" fill="#343A40"/>
<path d="M232.009 79.1116C232.009 78.8324 232.261 78.6061 232.573 78.6061L234.828 78.6061C235.139 78.6061 235.391 78.8324 235.391 79.1116C235.391 79.3908 235.139 79.6172 234.828 79.6172L232.573 79.6172C232.261 79.6172 232.009 79.3908 232.009 79.1116Z" fill="#343A40"/>
<path d="M235.56 75.7084C236.027 75.7084 236.406 76.0856 236.406 76.551C236.406 77.0163 236.027 77.3936 235.56 77.3936C235.093 77.3936 234.715 77.0163 234.715 76.551C234.715 76.0856 235.093 75.7084 235.56 75.7084Z" fill="#343A40"/>
<path d="M232.009 76.5511C232.009 76.2719 232.261 76.0455 232.573 76.0455L234.828 76.0455C235.139 76.0455 235.391 76.2719 235.391 76.5511C235.391 76.8303 235.139 77.0566 234.828 77.0566L232.573 77.0566C232.261 77.0566 232.009 76.8303 232.009 76.5511Z" fill="#343A40"/>
<path d="M235.56 73.1449C236.027 73.1449 236.406 73.5221 236.406 73.9875C236.406 74.4528 236.027 74.8301 235.56 74.8301C235.093 74.8301 234.715 74.4528 234.715 73.9875C234.715 73.5221 235.093 73.1449 235.56 73.1449Z" fill="#343A40"/>
<path d="M232.009 73.9886C232.009 73.7094 232.261 73.483 232.573 73.483L234.828 73.483C235.139 73.483 235.391 73.7094 235.391 73.9886C235.391 74.2678 235.139 74.4941 234.828 74.4941L232.573 74.4941C232.261 74.4941 232.009 74.2678 232.009 73.9886Z" fill="#343A40"/>
<path d="M235.56 70.5834C236.027 70.5834 236.406 70.9606 236.406 71.426C236.406 71.8913 236.027 72.2686 235.56 72.2686C235.093 72.2686 234.715 71.8913 234.715 71.426C234.715 70.9606 235.093 70.5834 235.56 70.5834Z" fill="#343A40"/>
<path d="M232.009 71.4271C232.009 71.1478 232.261 70.9215 232.573 70.9215L234.828 70.9215C235.139 70.9215 235.391 71.1478 235.391 71.4271C235.391 71.7063 235.139 71.9326 234.828 71.9326L232.573 71.9326C232.261 71.9326 232.009 71.7063 232.009 71.4271Z" fill="#343A40"/>
<path d="M235.56 68.0228C236.027 68.0228 236.406 68.4001 236.406 68.8654C236.406 69.3308 236.027 69.708 235.56 69.708C235.093 69.708 234.715 69.3308 234.715 68.8654C234.715 68.4001 235.093 68.0228 235.56 68.0228Z" fill="#343A40"/>
<path d="M232.009 68.8646C232.009 68.5853 232.261 68.359 232.573 68.359L234.828 68.359C235.139 68.359 235.391 68.5853 235.391 68.8646C235.391 69.1438 235.139 69.3701 234.828 69.3701L232.573 69.3701C232.261 69.3701 232.009 69.1438 232.009 68.8646Z" fill="#343A40"/>
<path d="M235.56 65.4603C236.027 65.4603 236.406 65.8376 236.406 66.3029C236.406 66.7683 236.027 67.1455 235.56 67.1455C235.093 67.1455 234.715 66.7683 234.715 66.3029C234.715 65.8376 235.093 65.4603 235.56 65.4603Z" fill="#343A40"/>
<path d="M232.009 66.303C232.009 66.0238 232.261 65.7975 232.573 65.7975L234.828 65.7975C235.139 65.7975 235.391 66.0238 235.391 66.303C235.391 66.5822 235.139 66.8086 234.828 66.8086L232.573 66.8086C232.261 66.8086 232.009 66.5822 232.009 66.303Z" fill="#343A40"/>
<path d="M240.752 73.4209C239.826 73.4235 239.045 74.2017 239.043 75.1245C239.042 76.0425 239.804 76.8356 240.693 76.84C241.633 76.8448 242.408 76.0583 242.411 75.0956C242.415 74.1473 241.692 73.4183 240.752 73.4209ZM241.359 74.0141C241.641 74.0101 241.842 74.2052 241.849 74.4888C241.855 74.7501 241.652 74.9593 241.384 74.9689C241.106 74.979 240.89 74.765 240.885 74.4757C240.881 74.2091 241.077 74.0176 241.359 74.0136V74.0141Z" fill="#18231C"/>
<path d="M247.172 75.1146C247.176 76.0099 247.982 76.8248 248.865 76.8253C249.741 76.8253 250.507 76.034 250.503 75.1322C250.498 74.1826 249.72 73.4207 248.758 73.4229C247.908 73.4246 247.168 74.2142 247.172 75.1146ZM249.457 74.016C249.743 74.0143 249.945 74.2115 249.944 74.4921C249.943 74.7661 249.761 74.9687 249.511 74.9748C249.229 74.9818 249.001 74.7569 248.993 74.4623C248.986 74.208 249.184 74.0178 249.457 74.016Z" fill="#18231C"/>
<path d="M245.888 77.0508C245.95 76.9684 245.97 76.8338 245.961 76.7273C245.955 76.665 245.861 76.5813 245.793 76.5638C245.737 76.5497 245.652 76.6111 245.596 76.658C245.548 76.6979 245.524 76.7663 245.485 76.8194C245.178 77.2442 244.58 77.2016 244.337 76.7378C244.27 76.6098 244.223 76.4458 244.021 76.5432C243.869 76.6164 243.818 76.8067 243.924 76.9789C244.359 77.6874 245.409 77.6899 245.888 77.0508Z" fill="#18231C"/>
<path d="M241.358 74.0146C241.077 74.0186 240.881 74.2097 240.885 74.4767C240.889 74.7661 241.106 74.98 241.384 74.9699C241.652 74.9603 241.855 74.7507 241.848 74.4899C241.842 74.2062 241.641 74.0111 241.358 74.0151V74.0146Z" fill="white"/>
<path d="M249.457 74.0147C249.184 74.0164 248.986 74.2067 248.993 74.461C249.001 74.7551 249.229 74.9805 249.512 74.9734C249.762 74.9673 249.943 74.7643 249.944 74.4908C249.945 74.2102 249.744 74.0129 249.457 74.0147Z" fill="white"/>
<path d="M249.135 78.6609C248.731 78.6609 248.403 78.3339 248.403 77.9306C248.403 77.5272 248.731 77.2002 249.135 77.2002C249.539 77.2002 249.866 77.5272 249.866 77.9306C249.866 78.3339 249.539 78.6609 249.135 78.6609Z" fill="#FEB7B7"/>
<path d="M240.277 78.6609C239.873 78.6609 239.546 78.3339 239.546 77.9306C239.546 77.5272 239.873 77.2002 240.277 77.2002C240.681 77.2002 241.009 77.5272 241.009 77.9306C241.009 78.3339 240.681 78.6609 240.277 78.6609Z" fill="#FEB7B7"/>
<path d="M250.329 65.5672C250.992 65.5672 251.528 66.1024 251.528 66.7617C251.528 67.421 250.992 67.9562 250.329 67.9562C249.666 67.9562 249.13 67.421 249.13 66.7617C249.13 66.1024 249.666 65.5672 250.329 65.5672Z" fill="#343A40" stroke="#343A40" stroke-width="0.239847"/>
<ellipse cx="250.329" cy="66.7619" rx="0.730263" ry="0.732879" transform="rotate(-90 250.329 66.7619)" fill="#FFE9E3"/>
</g>
</g>
<defs>
<filter id="filter0_f_86_9039" x="66.8636" y="32.8636" width="85.2727" height="81.7268" filterUnits="userSpaceOnUse" color-interpolation-filters="sRGB">
<feFlood flood-opacity="0" result="BackgroundImageFix"/>
<feBlend mode="normal" in="SourceGraphic" in2="BackgroundImageFix" result="shape"/>
<feGaussianBlur stdDeviation="0.568182" result="effect1_foregroundBlur_86_9039"/>
</filter>
<filter id="filter1_f_86_9039" x="125.864" y="34.8636" width="86.2727" height="81.2727" filterUnits="userSpaceOnUse" color-interpolation-filters="sRGB">
<feFlood flood-opacity="0" result="BackgroundImageFix"/>
<feBlend mode="normal" in="SourceGraphic" in2="BackgroundImageFix" result="shape"/>
<feGaussianBlur stdDeviation="0.568182" result="effect1_foregroundBlur_86_9039"/>
</filter>
<filter id="filter2_f_86_9039" x="188.864" y="41.8636" width="85.2727" height="68.7268" filterUnits="userSpaceOnUse" color-interpolation-filters="sRGB">
<feFlood flood-opacity="0" result="BackgroundImageFix"/>
<feBlend mode="normal" in="SourceGraphic" in2="BackgroundImageFix" result="shape"/>
<feGaussianBlur stdDeviation="0.568182" result="effect1_foregroundBlur_86_9039"/>
</filter>
<filter id="filter3_d_86_9039" x="4" y="126" width="341" height="88" filterUnits="userSpaceOnUse" color-interpolation-filters="sRGB">
<feFlood flood-opacity="0" result="BackgroundImageFix"/>
<feColorMatrix in="SourceAlpha" type="matrix" values="0 0 0 0 0 0 0 0 0 0 0 0 0 0 0 0 0 0 127 0" result="hardAlpha"/>
<feOffset/>
<feGaussianBlur stdDeviation="7"/>
<feComposite in2="hardAlpha" operator="out"/>
<feColorMatrix type="matrix" values="0 0 0 0 0 0 0 0 0 0 0 0 0 0 0 0 0 0 0.08 0"/>
<feBlend mode="normal" in2="BackgroundImageFix" result="effect1_dropShadow_86_9039"/>
<feBlend mode="normal" in="SourceGraphic" in2="effect1_dropShadow_86_9039" result="shape"/>
</filter>
<filter id="filter4_d_86_9039" x="141.368" y="50.9711" width="44.9114" height="50.4876" filterUnits="userSpaceOnUse" color-interpolation-filters="sRGB">
<feFlood flood-opacity="0" result="BackgroundImageFix"/>
<feColorMatrix in="SourceAlpha" type="matrix" values="0 0 0 0 0 0 0 0 0 0 0 0 0 0 0 0 0 0 127 0" result="hardAlpha"/>
<feOffset/>
<feGaussianBlur stdDeviation="3.68781"/>
<feComposite in2="hardAlpha" operator="out"/>
<feColorMatrix type="matrix" values="0 0 0 0 0 0 0 0 0 0 0 0 0 0 0 0 0 0 0.14 0"/>
<feBlend mode="normal" in2="BackgroundImageFix" result="effect1_dropShadow_86_9039"/>
<feBlend mode="normal" in="SourceGraphic" in2="effect1_dropShadow_86_9039" result="shape"/>
</filter>
<filter id="filter5_d_86_9039" x="156.119" y="50.9711" width="44.9085" height="50.4876" filterUnits="userSpaceOnUse" color-interpolation-filters="sRGB">
<feFlood flood-opacity="0" result="BackgroundImageFix"/>
<feColorMatrix in="SourceAlpha" type="matrix" values="0 0 0 0 0 0 0 0 0 0 0 0 0 0 0 0 0 0 127 0" result="hardAlpha"/>
<feOffset/>
<feGaussianBlur stdDeviation="3.68781"/>
<feComposite in2="hardAlpha" operator="out"/>
<feColorMatrix type="matrix" values="0 0 0 0 0 0 0 0 0 0 0 0 0 0 0 0 0 0 0.14 0"/>
<feBlend mode="normal" in2="BackgroundImageFix" result="effect1_dropShadow_86_9039"/>
<feBlend mode="normal" in="SourceGraphic" in2="effect1_dropShadow_86_9039" result="shape"/>
</filter>
<filter id="filter6_d_86_9039" x="81.6244" y="43.6244" width="56.4544" height="64.1682" filterUnits="userSpaceOnUse" color-interpolation-filters="sRGB">
<feFlood flood-opacity="0" result="BackgroundImageFix"/>
<feColorMatrix in="SourceAlpha" type="matrix" values="0 0 0 0 0 0 0 0 0 0 0 0 0 0 0 0 0 0 127 0" result="hardAlpha"/>
<feOffset/>
<feGaussianBlur stdDeviation="3.68781"/>
<feComposite in2="hardAlpha" operator="out"/>
<feColorMatrix type="matrix" values="0 0 0 0 0 0 0 0 0 0 0 0 0 0 0 0 0 0 0.18 0"/>
<feBlend mode="normal" in2="BackgroundImageFix" result="effect1_dropShadow_86_9039"/>
<feBlend mode="normal" in="SourceGraphic" in2="effect1_dropShadow_86_9039" result="shape"/>
</filter>
<filter id="filter7_d_86_9039" x="197.34" y="53.1624" width="42.6391" height="46.7035" filterUnits="userSpaceOnUse" color-interpolation-filters="sRGB">
<feFlood flood-opacity="0" result="BackgroundImageFix"/>
<feColorMatrix in="SourceAlpha" type="matrix" values="0 0 0 0 0 0 0 0 0 0 0 0 0 0 0 0 0 0 127 0" result="hardAlpha"/>
<feOffset/>
<feGaussianBlur stdDeviation="5.16294"/>
<feComposite in2="hardAlpha" operator="out"/>
<feColorMatrix type="matrix" values="0 0 0 0 0 0 0 0 0 0 0 0 0 0 0 0 0 0 0.14 0"/>
<feBlend mode="normal" in2="BackgroundImageFix" result="effect1_dropShadow_86_9039"/>
<feBlend mode="normal" in="SourceGraphic" in2="effect1_dropShadow_86_9039" result="shape"/>
</filter>
<filter id="filter8_d_86_9039" x="209.143" y="53.1614" width="42.6371" height="46.7035" filterUnits="userSpaceOnUse" color-interpolation-filters="sRGB">
<feFlood flood-opacity="0" result="BackgroundImageFix"/>
<feColorMatrix in="SourceAlpha" type="matrix" values="0 0 0 0 0 0 0 0 0 0 0 0 0 0 0 0 0 0 127 0" result="hardAlpha"/>
<feOffset/>
<feGaussianBlur stdDeviation="5.16294"/>
<feComposite in2="hardAlpha" operator="out"/>
<feColorMatrix type="matrix" values="0 0 0 0 0 0 0 0 0 0 0 0 0 0 0 0 0 0 0.14 0"/>
<feBlend mode="normal" in2="BackgroundImageFix" result="effect1_dropShadow_86_9039"/>
<feBlend mode="normal" in="SourceGraphic" in2="effect1_dropShadow_86_9039" result="shape"/>
</filter>
<filter id="filter9_d_86_9039" x="221.683" y="53.1624" width="42.6361" height="46.7035" filterUnits="userSpaceOnUse" color-interpolation-filters="sRGB">
<feFlood flood-opacity="0" result="BackgroundImageFix"/>
<feColorMatrix in="SourceAlpha" type="matrix" values="0 0 0 0 0 0 0 0 0 0 0 0 0 0 0 0 0 0 127 0" result="hardAlpha"/>
<feOffset/>
<feGaussianBlur stdDeviation="5.16294"/>
<feComposite in2="hardAlpha" operator="out"/>
<feColorMatrix type="matrix" values="0 0 0 0 0 0 0 0 0 0 0 0 0 0 0 0 0 0 0.14 0"/>
<feBlend mode="normal" in2="BackgroundImageFix" result="effect1_dropShadow_86_9039"/>
<feBlend mode="normal" in="SourceGraphic" in2="effect1_dropShadow_86_9039" result="shape"/>
</filter>
<radialGradient id="paint0_radial_86_9039" cx="0" cy="0" r="1" gradientUnits="userSpaceOnUse" gradientTransform="translate(109.5 73.7273) rotate(90) scale(45.3646 47.3889)">
<stop offset="0.0190336" stop-color="#C5ECB3"/>
<stop offset="0.130568" stop-color="#FAFDAC"/>
<stop offset="0.645753" stop-color="#FFE9E3"/>
<stop offset="1" stop-color="white" stop-opacity="0"/>
</radialGradient>
<radialGradient id="paint1_radial_86_9039" cx="0" cy="0" r="1" gradientUnits="userSpaceOnUse" gradientTransform="translate(169 75.5) rotate(90) scale(45.1051 47.9598)">
<stop offset="0.0190336" stop-color="#C5ECB3"/>
<stop offset="0.130568" stop-color="#FAFDAC"/>
<stop offset="0.645753" stop-color="#FFE9E3"/>
<stop offset="1" stop-color="white" stop-opacity="0"/>
</radialGradient>
<radialGradient id="paint2_radial_86_9039" cx="0" cy="0" r="1" gradientUnits="userSpaceOnUse" gradientTransform="translate(231.5 76.2273) rotate(90) scale(37.9422 47.3889)">
<stop offset="0.0190336" stop-color="#C5ECB3"/>
<stop offset="0.130568" stop-color="#FAFDAC"/>
<stop offset="0.645753" stop-color="#FFE9E3"/>
<stop offset="1" stop-color="white" stop-opacity="0"/>
</radialGradient>
<clipPath id="clip0_86_9039">
<rect width="350" height="200" fill="white"/>
</clipPath>
</defs>
</svg>
