<svg width="350" height="200" viewBox="0 0 350 200" fill="none" xmlns="http://www.w3.org/2000/svg">
<g opacity="0.5" filter="url(#filter0_d_86_9431)">
<path fill-rule="evenodd" clip-rule="evenodd" d="M167.841 56.4296C182.37 62.537 203.61 77.514 225.823 96.2456C229.334 99.2069 234.581 98.7608 237.543 95.2492C240.504 91.7376 240.058 86.4902 236.546 83.529C214.178 64.6662 191.308 48.2493 174.287 41.0946C169.966 39.2782 165.688 37.9122 161.663 37.3457C157.708 36.7891 153.254 36.9014 149.196 38.8969C139.815 43.5098 138.903 54.0524 140.41 63.3617C141.99 73.1173 144.477 81.3693 146.748 87.7556C136.072 82.4688 122.479 75.837 111.328 72.2761C107.962 71.2013 104.592 70.3287 101.424 69.87C98.3592 69.4264 94.8827 69.2768 91.59 70.1404C88.0284 71.0745 84.4126 73.3104 82.4217 77.5121C80.6108 81.3341 80.7797 85.4909 81.5481 89.1132C82.5013 93.6067 86.9167 96.4768 91.4103 95.5236C95.7238 94.6086 98.5412 90.5033 97.9171 86.2011C98.2482 86.2299 98.6218 86.2725 99.041 86.3332C100.987 86.6149 103.409 87.2098 106.267 88.1224C116.756 91.472 130.046 98.0514 141.189 103.568C142.472 104.203 143.726 104.824 144.944 105.424C147.839 106.85 150.336 108.023 152.383 108.834C153.984 109.467 156.814 110.537 159.697 110.329C161.493 110.2 164.182 109.509 166.257 107.079C168.204 104.799 168.503 102.259 168.517 100.859C168.542 98.379 167.669 95.8963 167.179 94.5318C166.666 93.1022 166.032 91.5097 165.324 89.7341C162.651 83.0307 158.938 73.7173 156.831 60.7031C156.112 56.2622 156.502 54.4145 156.782 53.7634C157.146 53.6948 157.936 53.6197 159.345 53.8181C161.449 54.1142 164.274 54.9305 167.841 56.4296ZM156.985 53.4611C156.975 53.4498 156.918 53.4958 156.844 53.6331C156.958 53.541 156.995 53.4723 156.985 53.4611Z" fill="url(#paint0_linear_86_9431)"/>
<path d="M147.219 87.5881L147.633 88.7518L146.526 88.2037C135.843 82.9133 122.284 76.2998 111.176 72.7524C107.825 71.6825 104.484 70.8182 101.352 70.3649C98.3183 69.9257 94.9174 69.7846 91.7169 70.624C88.2622 71.5301 84.7869 73.6881 82.8736 77.7262C81.1289 81.4083 81.28 85.4395 82.0372 89.0094C82.9331 93.2328 87.0831 95.9304 91.3066 95.0345C95.3605 94.1746 98.0088 90.316 97.4223 86.2729L97.3316 85.6483L97.9604 85.703C98.3015 85.7327 98.6846 85.7764 99.1126 85.8383C101.096 86.1254 103.546 86.7286 106.419 87.6461C116.944 91.0071 130.26 97.5992 141.386 103.107L141.411 103.119C142.694 103.755 143.948 104.375 145.165 104.976C148.059 106.401 150.54 107.567 152.567 108.369C154.172 109.004 156.905 110.029 159.661 109.831C161.374 109.708 163.917 109.049 165.877 106.755C167.717 104.599 168.004 102.195 168.017 100.854C168.041 98.4748 167.2 96.0704 166.709 94.7006C166.199 93.2809 165.568 91.6972 164.859 89.9193L164.858 89.9152C162.183 83.2061 158.453 73.8515 156.338 60.783C155.614 56.3139 155.986 54.3502 156.323 53.5661L156.428 53.3214L156.449 53.3174C156.486 53.2572 156.525 53.2027 156.567 53.1562C156.594 53.1267 156.641 53.0792 156.705 53.0391C156.734 53.0211 156.801 52.9825 156.895 52.9666C156.995 52.9498 157.203 52.9513 157.361 53.1321C157.38 53.1534 157.396 53.175 157.409 53.1966C157.885 53.1774 158.54 53.1999 159.415 53.323C161.577 53.6273 164.445 54.46 168.035 55.9687C182.639 62.1076 203.928 77.1279 226.145 95.8634C229.445 98.6467 234.377 98.2274 237.161 94.9269C239.944 91.6263 239.524 86.6945 236.224 83.9112C213.86 65.0524 191.039 48.6788 174.093 41.5555C169.795 39.7487 165.561 38.3992 161.594 37.8409C157.692 37.2917 153.351 37.4111 149.417 39.3456C144.875 41.5789 142.383 45.2393 141.202 49.5016C140.016 53.7808 140.156 58.6637 140.904 63.2818C142.477 72.9997 144.955 81.2215 147.219 87.5881ZM156.52 53.2915C156.518 53.2951 156.516 53.2997 156.514 53.3051L156.569 53.2947L156.537 53.2548C156.531 53.2649 156.525 53.2772 156.52 53.2915ZM156.486 53.4642C156.486 53.5095 156.492 53.5777 156.523 53.6521C156.541 53.697 156.568 53.7443 156.608 53.79C156.647 53.8344 156.689 53.8678 156.731 53.8926C156.748 53.8451 156.765 53.8021 156.782 53.7634C156.799 53.7602 156.817 53.7569 156.836 53.7537L156.77 53.6986L156.74 53.6744L156.486 53.4642Z" stroke="white" stroke-linecap="round"/>
</g>
<rect width="41.0464" height="77.8781" transform="matrix(-0.71335 0.700808 0.700808 0.71335 191.155 35)" fill="url(#paint1_linear_86_9431)"/>
<rect x="222.647" y="77.2401" width="27.1" height="55.2198" rx="12.1532" transform="rotate(-135 222.647 77.2401)" fill="white" stroke="#343A40" stroke-width="1.5"/>
<rect x="216.046" y="45.6895" width="38.4805" height="27.0398" transform="rotate(-45 216.046 45.6895)" fill="#C5ECB3" stroke="#343A40" stroke-width="1.5"/>
<path d="M236.672 35.0071C235.648 34.0907 234.014 34.1754 233.095 35.1927C232.18 36.2047 232.232 37.8371 233.207 38.7241C234.239 39.6631 235.875 39.5631 236.836 38.5035C237.783 37.4599 237.711 35.9379 236.672 35.0071ZM236.751 36.2645C237.066 36.5404 237.094 36.9554 236.819 37.2752C236.566 37.5698 236.135 37.5998 235.83 37.3445C235.513 37.0793 235.488 36.6286 235.77 36.3043C236.03 36.0056 236.437 35.9889 236.751 36.264L236.751 36.2645Z" fill="#18231C"/>
<path d="M242.067 43.2514C241.181 44.2439 241.26 45.9441 242.232 46.8202C243.199 47.6907 244.83 47.5771 245.721 46.5769C246.66 45.5236 246.56 43.9103 245.498 42.9577C244.559 42.1158 242.958 42.2532 242.067 43.2514ZM245.678 44.3062C245.995 44.588 246.021 45.0063 245.742 45.3153C245.468 45.617 245.066 45.6602 244.785 45.4189C244.466 45.146 244.439 44.6718 244.723 44.3382C244.968 44.0505 245.375 44.037 245.678 44.3062Z" fill="#18231C"/>
<path d="M238.724 44.1124C238.874 44.0829 239.03 43.9543 239.126 43.8275C239.182 43.7536 239.161 43.5674 239.103 43.48C239.056 43.4096 238.901 43.3928 238.793 43.3888C238.7 43.3849 238.606 43.4369 238.51 43.4571C237.75 43.6215 237.132 42.9809 237.325 42.2273C237.379 42.0192 237.49 41.7915 237.17 41.6985C236.93 41.6285 236.685 41.7881 236.631 42.0838C236.406 43.2981 237.56 44.3425 238.724 44.1124Z" fill="#18231C"/>
<path d="M236.75 36.2654C236.435 35.9903 236.029 36.0066 235.768 36.3057C235.486 36.6296 235.511 37.0807 235.828 37.3459C236.133 37.6012 236.565 37.5707 236.817 37.2766C237.092 36.9568 237.064 36.5418 236.749 36.2659L236.75 36.2654Z" fill="white"/>
<path d="M245.677 44.3057C245.374 44.0365 244.967 44.05 244.722 44.3378C244.438 44.6704 244.465 45.1455 244.784 45.4184C245.065 45.6597 245.468 45.616 245.74 45.3148C246.02 45.0059 245.994 44.5879 245.677 44.3057Z" fill="white"/>
<path d="M240.705 49.1153C240.26 48.7143 240.224 48.0281 240.625 47.5827C241.026 47.1372 241.712 47.1013 242.157 47.5023C242.603 47.9034 242.639 48.5896 242.238 49.035C241.837 49.4804 241.15 49.5164 240.705 49.1153Z" fill="#FEB7B7"/>
<path d="M230.937 40.3204C230.492 39.9194 230.456 39.2332 230.857 38.7877C231.258 38.3423 231.944 38.3064 232.39 38.7074C232.835 39.1085 232.871 39.7947 232.47 40.2401C232.069 40.6855 231.383 40.7215 230.937 40.3204Z" fill="#FEB7B7"/>
<rect opacity="0.5" x="16" y="136" width="318" height="59.8667" rx="19" fill="white" stroke="#B4B4B4" stroke-width="2"/>
<path d="M284.116 167H280.916C280.703 167 280.518 166.929 280.362 166.787C280.205 166.645 280.113 166.467 280.084 166.254L279.828 164.27C279.643 164.198 279.469 164.113 279.306 164.014C279.142 163.914 278.982 163.807 278.826 163.694L276.97 164.462C276.771 164.533 276.571 164.54 276.372 164.483C276.173 164.426 276.017 164.305 275.903 164.12L274.324 161.368C274.211 161.183 274.175 160.984 274.218 160.771C274.26 160.558 274.367 160.387 274.538 160.259L276.138 159.043C276.123 158.943 276.116 158.847 276.116 158.754V158.178C276.116 158.086 276.123 157.99 276.138 157.891L274.538 156.675C274.367 156.547 274.26 156.376 274.218 156.163C274.175 155.95 274.211 155.75 274.324 155.566L275.903 152.814C276.003 152.614 276.155 152.49 276.361 152.44C276.568 152.39 276.771 152.401 276.97 152.472L278.826 153.24C278.982 153.126 279.146 153.02 279.316 152.92C279.487 152.821 279.658 152.735 279.828 152.664L280.084 150.68C280.113 150.467 280.205 150.289 280.362 150.147C280.518 150.005 280.703 149.934 280.916 149.934H284.116C284.33 149.934 284.515 150.005 284.671 150.147C284.827 150.289 284.92 150.467 284.948 150.68L285.204 152.664C285.389 152.735 285.564 152.821 285.727 152.92C285.891 153.02 286.051 153.126 286.207 153.24L288.063 152.472C288.262 152.401 288.461 152.394 288.66 152.451C288.859 152.508 289.016 152.629 289.13 152.814L290.708 155.566C290.822 155.75 290.858 155.95 290.815 156.163C290.772 156.376 290.666 156.547 290.495 156.675L288.895 157.891C288.909 157.99 288.916 158.086 288.916 158.178V158.754C288.916 158.847 288.902 158.943 288.874 159.043L290.474 160.259C290.644 160.387 290.751 160.558 290.794 160.771C290.836 160.984 290.801 161.183 290.687 161.368L289.108 164.099C288.995 164.284 288.835 164.408 288.629 164.473C288.422 164.536 288.219 164.533 288.02 164.462L286.207 163.694C286.051 163.807 285.887 163.914 285.716 164.014C285.546 164.113 285.375 164.198 285.204 164.27L284.948 166.254C284.92 166.467 284.827 166.645 284.671 166.787C284.515 166.929 284.33 167 284.116 167ZM282.559 161.454C283.384 161.454 284.088 161.162 284.671 160.579C285.254 159.996 285.546 159.292 285.546 158.467C285.546 157.642 285.254 156.938 284.671 156.355C284.088 155.772 283.384 155.48 282.559 155.48C281.72 155.48 281.012 155.772 280.436 156.355C279.86 156.938 279.572 157.642 279.572 158.467C279.572 159.292 279.86 159.996 280.436 160.579C281.012 161.162 281.72 161.454 282.559 161.454Z" fill="#B4B4B4"/>
<path d="M203.8 164.068V168.067H207.799L219.595 156.271L215.595 152.272L203.8 164.068ZM222.688 153.179C223.104 152.763 223.104 152.091 222.688 151.675L220.192 149.179C219.776 148.763 219.104 148.763 218.688 149.179L216.737 151.131L220.736 155.13L222.688 153.179Z" fill="#42C153"/>
<path d="M79.8787 150.436C78.7644 150.084 77.5396 149.934 76.365 149.934C74.4074 149.934 72.2991 150.335 70.8434 151.439C69.3877 150.335 67.2795 149.934 65.3219 149.934C63.3642 149.934 61.256 150.335 59.8003 151.439V166.147C59.8003 166.398 60.0513 166.649 60.3023 166.649C60.4026 166.649 60.4528 166.599 60.5532 166.599C61.9085 165.946 63.8662 165.494 65.3219 165.494C67.2795 165.494 69.3877 165.896 70.8434 167C72.1987 166.147 74.6583 165.494 76.365 165.494C78.0215 165.494 79.7281 165.796 81.1336 166.548C81.234 166.599 81.2842 166.599 81.3846 166.599C81.6356 166.599 81.8866 166.348 81.8866 166.097V151.439C81.2842 150.988 80.6317 150.687 79.8787 150.436ZM79.8787 163.988C78.7744 163.637 77.5697 163.487 76.365 163.487C74.6583 163.487 72.1987 164.139 70.8434 164.992V153.447C72.1987 152.594 74.6583 151.941 76.365 151.941C77.5697 151.941 78.7744 152.092 79.8787 152.443V163.988Z" fill="#B4B4B4"/>
<path d="M76.3648 155.957C77.2483 155.957 78.1016 156.047 78.8746 156.218V154.692C78.0815 154.542 77.2282 154.451 76.3648 154.451C74.6581 154.451 73.1121 154.742 71.8472 155.284V156.951C72.9816 156.308 74.5578 155.957 76.3648 155.957Z" fill="#B4B4B4"/>
<path d="M71.8472 157.954V159.621C72.9816 158.978 74.5578 158.627 76.3648 158.627C77.2483 158.627 78.1016 158.717 78.8746 158.888V157.362C78.0815 157.211 77.2282 157.121 76.3648 157.121C74.6581 157.121 73.1121 157.422 71.8472 157.954Z" fill="#B4B4B4"/>
<path d="M76.3648 159.803C74.6581 159.803 73.1121 160.094 71.8472 160.636V162.302C72.9816 161.66 74.5578 161.309 76.3648 161.309C77.2483 161.309 78.1016 161.399 78.8746 161.57V160.044C78.0815 159.883 77.2282 159.803 76.3648 159.803Z" fill="#B4B4B4"/>
<g opacity="0.9">
<path fill-rule="evenodd" clip-rule="evenodd" d="M143.898 149.932C140.754 149.932 137.969 151.638 136.532 154.243L134.466 152.177V158.016H140.305L137.79 155.501C138.958 153.255 141.203 151.728 143.898 151.728C147.581 151.728 150.635 154.782 150.635 158.465C150.635 162.148 147.581 165.202 143.898 165.202C140.934 165.202 138.508 163.315 137.52 160.711H135.634C136.622 164.304 139.946 166.998 143.898 166.998C148.659 166.998 152.431 163.136 152.431 158.465C152.431 153.794 148.569 149.932 143.898 149.932ZM142.551 154.423V159.004L146.772 161.519L147.491 160.351L143.898 158.195V154.423H142.551Z" fill="#B4B4B4"/>
</g>
<path d="M55.8585 176.793C57.9424 176.793 59.4786 177.835 59.4786 179.414C59.4786 180.87 58.2271 181.842 56.4493 182.014V183.797H60.3165V184.774H51.4434V183.797H55.2676V182.014C53.5005 181.842 52.2491 180.87 52.2598 179.414C52.2491 177.835 53.7852 176.793 55.8585 176.793ZM55.8585 177.76C54.4405 177.749 53.42 178.394 53.4307 179.414C53.42 180.467 54.4405 181.09 55.8585 181.09C57.2979 181.09 58.3077 180.467 58.3077 179.414C58.3077 178.394 57.2979 177.749 55.8585 177.76ZM68.3894 176.245V178.404H69.7429V179.393H68.3894V181.434H67.1971V176.245H68.3894ZM65.4568 176.847V177.813H62.3201V180.198C64.1463 180.193 65.1614 180.139 66.3162 179.887L66.4451 180.854C65.1775 181.122 64.0388 181.176 61.9226 181.176H61.1385V176.847H65.4568ZM63.2869 181.917V182.916H67.1971V181.917H68.3894V185.816H62.0945V181.917H63.2869ZM63.2869 184.85H67.1971V183.861H63.2869V184.85ZM77.8322 176.965V177.545C77.8215 178.211 77.8215 179.167 77.5959 180.402L76.4143 180.295C76.6023 179.291 76.6399 178.549 76.6613 177.953H72.8801V176.965H77.8322ZM75.383 179.178V181.111C76.3874 181.074 77.4187 180.999 78.3586 180.864L78.4231 181.724C76.4035 182.089 74.1154 182.121 72.4074 182.132L72.3 181.176C72.8747 181.17 73.5193 181.165 74.2014 181.154V179.178H75.383ZM80.1526 176.245V179.274H81.4094V180.273H80.1526V183.518H78.9279V176.245H80.1526ZM80.4641 184.796V185.763H73.7502V182.873H74.9533V184.796H80.4641ZM89.7831 176.245V185.967H88.6015V176.245H89.7831ZM86.7968 177.094V180.735H83.456V182.69C84.9868 182.68 86.308 182.604 87.8173 182.347L87.9247 183.324C86.2705 183.614 84.8203 183.668 83.08 183.668H82.2314V179.79H85.583V178.061H82.2206V177.094H86.7968Z" fill="#B4B4B4"/>
<path d="M282.057 176.245V181.219H280.865V178.759H278.931V177.803H280.865V176.245H282.057ZM282.057 181.638V184.151H276.847V184.893H282.369V185.838H275.676V183.26H280.876V182.572H275.666V181.638H282.057ZM277.449 177.341C277.449 178.533 278.233 179.672 279.737 180.134L279.103 181.058C278.05 180.703 277.288 180.021 276.869 179.135C276.439 180.128 275.644 180.896 274.495 181.272L273.872 180.316C275.429 179.844 276.246 178.651 276.246 177.341V176.567H277.449V177.341ZM291.344 176.245V182.014H290.152V179.64H288.497V178.662H290.152V176.245H291.344ZM288.057 182.261C290.119 182.261 291.376 182.938 291.376 184.108C291.376 185.279 290.119 185.956 288.057 185.956C286.005 185.956 284.748 185.279 284.759 184.108C284.748 182.938 286.005 182.261 288.057 182.261ZM288.057 183.174C286.703 183.174 285.941 183.496 285.941 184.108C285.941 184.71 286.703 185.032 288.057 185.032C289.411 185.032 290.184 184.71 290.184 184.108C290.184 183.496 289.411 183.174 288.057 183.174ZM286.779 177.91C286.779 179.092 287.563 180.284 289.067 180.789L288.465 181.734C287.386 181.369 286.618 180.628 286.199 179.715C285.769 180.751 284.958 181.579 283.803 181.992L283.18 181.047C284.738 180.51 285.565 179.199 285.565 177.921V177.846H283.545V176.879H288.787V177.846H286.779V177.91Z" fill="#B4B4B4"/>
<path d="M202.386 181.047V182.132H198.702V183.818H197.348V182.132H193.438V181.047H202.386ZM201.237 176.643V180.241H194.555V176.643H201.237ZM195.898 177.706V179.178H199.894V177.706H195.898ZM201.398 184.721V185.816H194.491V182.97H195.855V184.721H201.398ZM211.19 176.213V185.988H209.89V176.213H211.19ZM209.192 176.374V185.537H207.903V180.671H206.614V179.564H207.903V176.374H209.192ZM205.829 178.834C205.829 180.456 206.334 182.1 207.763 182.916L206.957 183.926C206.087 183.41 205.512 182.535 205.185 181.487C204.846 182.626 204.256 183.593 203.359 184.141L202.532 183.131C203.971 182.25 204.508 180.488 204.508 178.834V178.308H202.908V177.212H207.312V178.308H205.829V178.834ZM223.275 180.682V181.799H214.338V180.682H223.275ZM222.255 178.909V179.994H215.423V176.471H222.201V177.577H216.787V178.909H222.255ZM218.785 182.39C220.901 182.39 222.179 183.034 222.19 184.184C222.179 185.344 220.901 185.988 218.785 185.988C216.647 185.988 215.358 185.344 215.358 184.184C215.358 183.034 216.647 182.39 218.785 182.39ZM218.785 183.432C217.431 183.432 216.744 183.689 216.755 184.184C216.744 184.699 217.431 184.946 218.785 184.946C220.106 184.946 220.804 184.699 220.815 184.184C220.804 183.689 220.106 183.432 218.785 183.432ZM232.562 181.455V182.551H223.614V181.455H227.406V180.746H224.731V178.061H230.102V177.459H224.709V176.396H231.477V179.049H226.095V179.693H231.66V180.746H228.77V181.455H232.562ZM231.531 183.109V185.945H230.145V184.184H224.613V183.109H231.531Z" fill="#42C153"/>
<path d="M127.858 176.793C129.942 176.793 131.479 177.835 131.479 179.414C131.479 180.87 130.227 181.842 128.449 182.014V183.797H132.316V184.774H123.443V183.797H127.268V182.014C125.501 181.842 124.249 180.87 124.26 179.414C124.249 177.835 125.785 176.793 127.858 176.793ZM127.858 177.76C126.44 177.749 125.42 178.394 125.431 179.414C125.42 180.467 126.44 181.09 127.858 181.09C129.298 181.09 130.308 180.467 130.308 179.414C130.308 178.394 129.298 177.749 127.858 177.76ZM140.389 176.245V178.404H141.743V179.393H140.389V181.434H139.197V176.245H140.389ZM137.457 176.847V177.813H134.32V180.198C136.146 180.193 137.161 180.139 138.316 179.887L138.445 180.854C137.178 181.122 136.039 181.176 133.923 181.176H133.138V176.847H137.457ZM135.287 181.917V182.916H139.197V181.917H140.389V185.816H134.095V181.917H135.287ZM135.287 184.85H139.197V183.861H135.287V184.85ZM153.259 181.133V182.089H144.407V181.133H148.221V180.198H145.557V176.481H146.738V177.448H150.928V176.481H152.11V180.198H149.424V181.133H153.259ZM152.174 182.862V185.956H150.982V183.808H145.385V182.862H152.174ZM146.738 179.242H150.928V178.34H146.738V179.242ZM155.939 182.067V182.991H160.215V182.067H161.407V185.838H154.758V182.067H155.939ZM155.939 184.893H160.215V183.904H155.939V184.893ZM162.546 180.542V181.52H153.694V180.542H162.546ZM158.732 176.718C158.732 177.76 160.064 178.855 162.073 179.092L161.654 180.037C160.027 179.817 158.743 179.097 158.12 178.114C157.492 179.103 156.203 179.817 154.586 180.037L154.145 179.092C156.176 178.845 157.497 177.792 157.508 176.718V176.353H158.732V176.718Z" fill="#B4B4B4"/>
<defs>
<filter id="filter0_d_86_9431" x="78.999" y="35.0566" width="162.503" height="77.2988" filterUnits="userSpaceOnUse" color-interpolation-filters="sRGB">
<feFlood flood-opacity="0" result="BackgroundImageFix"/>
<feColorMatrix in="SourceAlpha" type="matrix" values="0 0 0 0 0 0 0 0 0 0 0 0 0 0 0 0 0 0 127 0" result="hardAlpha"/>
<feOffset/>
<feGaussianBlur stdDeviation="1"/>
<feComposite in2="hardAlpha" operator="out"/>
<feColorMatrix type="matrix" values="0 0 0 0 0 0 0 0 0 0 0 0 0 0 0 0 0 0 0.3 0"/>
<feBlend mode="normal" in2="BackgroundImageFix" result="effect1_dropShadow_86_9431"/>
<feBlend mode="normal" in="SourceGraphic" in2="effect1_dropShadow_86_9431" result="shape"/>
</filter>
<linearGradient id="paint0_linear_86_9431" x1="244.684" y1="98.3877" x2="86.6843" y2="57.8877" gradientUnits="userSpaceOnUse">
<stop stop-color="#E0E64E"/>
<stop offset="0.427649" stop-color="#A4E188"/>
<stop offset="1" stop-color="#F3A590"/>
</linearGradient>
<linearGradient id="paint1_linear_86_9431" x1="21.475" y1="-0.928248" x2="1.04771" y2="25.5154" gradientUnits="userSpaceOnUse">
<stop stop-color="white" stop-opacity="0"/>
<stop offset="1" stop-color="white"/>
</linearGradient>
</defs>
</svg>
