<svg width="350" height="200" viewBox="0 0 350 200" fill="none" xmlns="http://www.w3.org/2000/svg">
<rect width="350" height="200" fill="white"/>
<g clip-path="url(#clip0_86_5955)">
<path d="M141.721 121.499C140.31 120.481 139.072 119.859 135.322 120.09C131.571 120.321 129.372 121.619 126.283 124.936C125.445 125.837 124.672 128.692 125.029 128.871C125.388 129.051 125.596 128.193 126.848 127.87C128.1 127.548 128.434 128.418 129.338 128.238C130.245 128.059 129.412 127.528 130.998 126.784C132.584 126.039 135.036 127.517 136.16 128.472C138.248 130.249 141.816 136.093 142.728 135.882C143.641 135.671 142.999 129.542 142.919 127.691C142.839 125.84 143.136 122.517 141.724 121.499H141.721Z" fill="#C5ECB3"/>
<path d="M134.027 129.189C133.457 128.658 131.982 128.302 131.326 128.824C130.67 129.346 130.898 131.12 130.761 131.211C130.624 131.302 128.22 129.189 127.077 130.201C125.933 131.214 127.122 133.139 127.473 133.635C127.396 133.704 125.382 132.814 124.607 133.587C123.831 134.36 124.641 136.245 124.9 136.567C126.803 138.923 128.628 141.353 130.696 143.557C132.433 145.414 134.671 146.635 137.158 147.311C140.786 148.295 143.382 145.916 142.851 142.183C142.027 136.399 134.6 129.719 134.03 129.192L134.027 129.189Z" fill="#C5ECB3"/>
<path d="M146.582 98.6404C147.449 99.5559 148.324 100.012 149.539 100.009C151.25 100.004 152.961 100.066 154.673 100.066C165.602 100.066 176.533 100.066 187.462 100.058C189.219 100.058 190.973 100.035 192.73 100.012C194.116 99.9923 195.522 101.076 196.227 101.569C196.931 102.063 197.647 102.896 197.975 103.275C198.3 103.654 198.622 104.054 198.391 104.516C198.157 104.978 197.256 105.02 196.634 105.055C196.01 105.086 193.531 105.582 192.134 106.241C188.811 107.807 186.182 113.2 190.406 116.571C193.819 119.295 200.875 118.818 203.89 115.644C205.481 113.97 206.468 112.059 206.568 109.678C206.608 108.742 206.808 107.316 207.401 107.005C208.664 106.344 208.402 105.588 208.117 104.695C207.769 103.614 207.412 102.519 206.919 101.501C205.536 98.649 205.533 98.6946 207.834 96.6497C214.89 90.381 217.754 82.6121 216.239 73.2404C216.051 72.071 216.313 70.819 216.419 69.6098C216.63 67.2112 217.274 64.7756 217.035 62.4284C216.353 55.7661 212.706 50.8806 206.528 48.5105C200.579 46.2289 194.849 47.4125 189.79 51.4595C189.39 51.779 188.577 51.8303 188.047 51.682C187.006 51.3911 186.062 50.7323 185.018 50.4699C177.398 48.559 169.88 48.5761 162.644 52.0442C161.672 52.5091 161.15 52.3094 160.431 51.6478C157.297 48.7644 153.58 47.25 149.299 47.3041C145.566 47.3526 142.52 49.0581 139.583 51.2342C133.919 55.4295 132.464 65.0693 135.051 70.5566C135.433 71.3666 135.519 72.4846 135.327 73.3716C133.77 80.5929 135.644 86.9443 140.287 92.4801C142.167 94.7218 144.571 96.5128 146.593 98.6433L146.582 98.6404Z" fill="#C5ECB3"/>
<path d="M145.788 120.093C144.978 120.384 144.81 120.76 144.804 121.519C144.776 125.794 144.685 130.072 144.656 134.347C144.639 136.823 144.762 136.948 147.211 136.951C162.09 136.951 176.972 136.94 191.851 136.926C193.742 136.926 194.33 136.372 194.372 134.461C194.464 130.329 194.484 126.193 194.578 122.058C194.598 121.185 194.313 120.92 193.454 120.655C191.974 120.196 190.479 119.582 189.202 118.721C185.654 116.328 184.701 111.808 186.883 108.126C188.209 105.89 190.134 104.313 192.593 103.412C192.918 103.292 193.22 103.112 193.85 102.807C193.206 102.522 192.884 102.256 192.561 102.256C176.764 102.237 145.637 102.228 145.238 102.296C144.839 102.365 144.913 102.704 145.07 102.81C145.226 102.918 147.249 104.293 148.29 105.1C150.751 107.005 152.414 109.358 151.989 112.649C151.501 116.408 149.282 118.838 145.791 120.093H145.788Z" fill="#C5ECB3"/>
<path d="M205.116 121.588C203.439 122.324 201.768 123.076 200.091 123.824C200.382 122.865 200.764 121.924 201.463 121.405C204.36 119.252 207.463 117.532 211.254 118.063C211.53 115.855 210.292 110.602 209.28 109.532C209.232 109.8 209.18 110.028 209.149 110.254C208.182 116.89 204.72 120.29 198.069 121.017C197.071 121.126 196.945 121.585 196.939 122.401C196.919 126.533 196.882 130.666 196.814 134.798C196.762 137.975 195.374 139.296 192.233 139.259C190.428 139.239 188.62 139.233 186.815 139.222C177.072 139.153 157.778 138.147 157.755 139.173C157.735 140.2 161.058 142.025 163.345 142.838C168.562 144.692 174.015 145.091 179.516 144.929C184.835 144.772 194.689 144.7 195.476 144.475C196.263 144.25 197.755 144.082 198.134 142.838C198.394 141.982 198.237 140.882 198.231 139.245C198.226 137.607 199.806 137.824 199.831 138.822C199.874 140.422 198.924 143.329 200.253 144.909C201.582 146.489 204.317 147.019 206.864 146.857C209.411 146.691 214.291 142.482 216.886 138.908C217.599 137.93 218.255 135.323 217.223 134.427C216.19 133.532 214.864 135.734 214.602 134.713C214.339 133.692 217.24 131.601 215.654 130.195C214.071 128.792 211.65 133.207 211.493 131.912C211.413 131.265 211.85 130.606 212.024 130.132C212.198 129.659 212.514 129.106 211.85 128.49C211.185 127.874 209.437 128.481 208.884 128.786C207.104 129.767 205.45 130.982 203.758 132.123C203.16 132.528 202.589 132.982 201.859 133.521C202.107 130.495 207.56 127.001 209.18 126.778C210.8 126.556 212.001 126.445 212.739 127.115C213.478 127.785 213.96 128.455 214.918 128.33C216.436 128.127 217.38 128.892 217.816 130.278C218.056 131.036 218.116 131.852 218.315 132.625C218.463 133.207 218.726 134.425 219.442 134.376C220.155 134.328 220.16 129.893 219.436 127.774C217.351 121.685 211.048 118.984 205.119 121.591L205.116 121.588Z" fill="#C5ECB3"/>
<path d="M155.151 139.114C154.849 138.851 144.516 138.398 144.26 138.717C144.003 139.039 144.719 139.77 145.035 140.97C145.352 142.171 145.129 143.486 145.668 143.988C146.205 144.49 149.465 144.427 151.658 144.227C154.849 143.936 157.556 143.551 157.952 142.81C158.349 142.068 155.522 139.439 155.151 139.114Z" fill="#C5ECB3"/>
<path d="M149.282 110.188C148.287 107.41 146.039 105.964 143.458 104.918C142.862 104.675 141.73 104.541 141.642 104.079C141.553 103.617 142.754 101.994 142.383 101.632C142.012 101.27 141.265 101.726 141.04 102C139.697 103.643 138.194 105.231 137.241 107.091C136.177 109.167 135.804 111.594 136.802 113.845C138.396 117.435 141.499 118.707 145.401 117.606C148.601 116.705 150.4 113.308 149.282 110.188Z" fill="#C5ECB3"/>
<path d="M160.214 143.078L170.619 145.73H197.704C197.704 145.73 198.169 143.78 199.498 140.349C200.827 136.918 202.969 121.257 202.969 121.257L210.55 119.563L212.264 116.626L210.886 107.864L209.007 108.874L205.664 116.791L195.893 120.028L195.725 136.265L193.03 138.903L157.787 137.788L156.219 139.328L158.515 141.895L160.22 143.075L160.214 143.078Z" fill="url(#paint0_linear_86_5955)"/>
<path opacity="0.5" d="M189.213 116.438C189.213 116.438 194.353 117.787 198.48 116.438C202.606 115.089 205.051 113.027 205.555 107.867C206.06 102.708 205.265 101.761 204.255 100.264C203.245 98.7665 201.623 97.7826 198.853 98.0735C194.986 98.4813 190.083 100.903 190.083 100.01C190.083 98.4784 207.067 93.5758 210.438 87.0903C213.809 80.6049 214.907 69.6845 214.824 64.0403C214.742 58.3962 212.263 52.0391 212.263 52.0391C212.263 52.0391 216.929 54.9396 217.856 59.0522C218.783 63.1648 218.623 63.3673 217.856 66.9038C217.089 70.4403 217.856 73.1297 217.856 76.6719C217.856 80.2141 218.951 81.2237 217.856 85.2679C216.761 89.3121 207.797 98.9148 207.797 98.9148L210.886 107.864L207.096 113.403L202.153 117.955L195.893 120.028L189.216 116.432L189.213 116.438Z" fill="#66C689"/>
<path d="M148.952 107.174L144.959 104.179L144.388 101.042H192.873L196.152 103.181L191.161 105.605L187.169 109.455L186.741 113.876L191.732 119.152L196.152 119.865V124.571L194.869 137.69H143.818V121.149L144.959 119.865L149.807 116.3L150.948 111.309L148.952 107.174Z" fill="#F2F5E6"/>
<path opacity="0.5" d="M143.901 137.65L144.403 145.288L148.062 145.73L157.981 144.278V142.125L155.76 138.329L143.901 137.65Z" fill="#66C689"/>
<path d="M122.125 136.824C121.717 133.63 122.353 130.589 123.183 127.612C124.849 121.64 129.429 118.197 135.65 118.046C135.932 118.041 136.211 118.003 136.605 117.969C131.143 109.242 135.707 103.47 142.363 98.1677C141.847 97.68 141.288 97.1895 140.769 96.6561C134.226 89.9624 130.978 82.1821 132.806 72.6935C132.92 72.0946 132.723 71.3844 132.509 70.7826C130.014 63.7496 131.292 57.304 135.926 51.6542C140.267 46.3665 146.096 44.3558 152.867 45.2771C155.933 45.6934 158.651 47.0681 161.232 48.7423C161.668 49.0246 162.401 49.2071 162.861 49.0474C171.365 46.1013 179.91 45.9901 188.489 48.6168C189.336 48.8763 189.889 48.7394 190.565 48.2717C200.436 41.3926 214.445 45.8417 218.66 57.1272C220.326 61.5877 220.414 66.0169 218.946 70.526C218.766 71.0764 218.78 71.7438 218.886 72.3256C220.725 82.6898 217.956 91.4084 209.671 98.1392C208.932 98.741 208.804 99.2058 209.226 100.033C212.001 105.483 213.527 111.29 214.046 117.367C214.134 118.391 214.642 118.873 215.515 119.489C217.408 120.83 220.466 123.154 221.618 125.262C222.499 127.093 223.526 132.577 222.265 135.883C221.256 138.535 218.555 141.179 217.699 142.189C215.306 145.018 212.397 147.222 209.021 148.76C206.736 149.798 204.312 150.411 201.811 149.878C200.547 149.61 199.278 149.059 198.189 148.363C197.253 147.767 196.395 147.459 195.288 147.502C190.403 147.696 185.514 147.887 180.623 147.955C174.674 148.038 168.779 147.642 162.958 146.144C161.121 145.671 156.98 145.166 153.001 145.811C149.023 146.455 146.019 145.543 145.332 146.372C144.439 147.448 143.692 148.663 142.395 149.176C140.01 150.117 137.652 150.072 135.29 149.242C132.877 148.395 130.795 147.017 128.976 145.209C128.006 144.245 126.914 143.404 125.879 142.508L125.924 142.568C123.283 139.627 122.867 138.994 122.125 136.824ZM198.394 104.482C198.16 104.944 197.259 104.987 196.637 105.021C196.015 105.055 193.534 105.549 192.137 106.208C188.814 107.773 186.184 113.166 190.408 116.538C193.822 119.261 200.878 118.785 203.893 115.611C205.484 113.936 206.471 112.026 206.571 109.644C206.611 108.709 206.81 107.283 207.403 106.972C208.667 106.31 208.404 105.554 208.116 104.662C207.768 103.581 207.412 102.486 206.919 101.467C205.535 98.6155 205.533 98.6611 207.834 96.6162C214.89 90.3475 217.753 82.5786 216.239 73.2068C216.051 72.0375 216.313 70.7855 216.419 69.5762C216.63 67.1777 217.274 64.7421 217.035 62.3949C216.353 55.7325 212.705 50.847 206.528 48.477C200.579 46.1954 194.849 47.379 189.789 51.426C189.39 51.7454 188.577 51.7968 188.047 51.6485C187.006 51.3575 186.062 50.6987 185.018 50.4363C177.397 48.5255 169.879 48.5426 162.644 52.0107C161.671 52.4755 161.149 52.2759 160.431 51.6142C157.296 48.7308 153.58 47.2164 149.299 47.2706C145.566 47.3191 142.52 49.0246 139.582 51.2007C133.918 55.396 132.464 65.0358 135.051 70.5231C135.433 71.3331 135.518 72.4511 135.327 73.338C133.77 80.5593 135.644 86.9108 140.287 92.4465C142.166 94.6882 144.571 96.4793 146.593 98.6098C147.46 99.5253 148.335 99.9816 149.55 99.9787C151.261 99.973 152.973 100.036 154.684 100.036C165.613 100.036 176.545 100.036 187.474 100.027C189.23 100.027 190.984 100.004 192.741 99.9816C194.127 99.9616 195.533 101.045 196.238 101.539C196.942 102.032 197.658 102.865 197.986 103.244C198.314 103.624 198.633 104.023 198.402 104.485L198.394 104.482ZM145.244 102.266C144.844 102.334 144.919 102.674 145.075 102.779C145.232 102.885 147.254 104.262 148.295 105.07C150.757 106.975 152.419 109.328 151.994 112.619C151.507 116.378 149.288 118.808 145.797 120.063C144.987 120.354 144.819 120.73 144.813 121.489C144.785 125.764 144.693 130.042 144.665 134.317C144.648 136.793 144.77 136.918 147.22 136.921C162.099 136.921 176.981 136.909 191.86 136.895C193.751 136.895 194.338 136.342 194.381 134.431C194.472 130.299 194.492 126.16 194.586 122.028C194.606 121.155 194.321 120.89 193.463 120.624C191.983 120.165 190.488 119.552 189.21 118.691C185.663 116.298 184.71 111.778 186.892 108.096C188.218 105.86 190.143 104.282 192.601 103.381C192.927 103.261 193.229 103.082 193.859 102.777C193.215 102.491 192.892 102.226 192.57 102.226C176.773 102.206 145.646 102.198 145.247 102.266H145.244ZM219.447 134.343C220.16 134.294 220.166 129.859 219.442 127.74C217.357 121.651 211.054 118.95 205.125 121.557C203.448 122.293 201.776 123.046 200.099 123.793C200.39 122.835 200.772 121.894 201.471 121.375C204.369 119.221 207.472 117.502 211.262 118.032C211.539 115.825 210.301 110.571 209.289 109.502C209.24 109.77 209.189 109.998 209.157 110.223C208.191 116.86 204.728 120.259 198.077 120.987C197.079 121.095 196.954 121.554 196.948 122.37C196.928 126.502 196.891 130.635 196.822 134.768C196.771 137.945 195.382 139.265 192.242 139.228C190.437 139.208 188.629 139.203 186.823 139.191C177.081 139.123 157.787 138.116 157.764 139.143C157.741 140.169 161.067 141.995 163.354 142.807C168.57 144.661 174.023 145.061 179.525 144.898C184.844 144.741 194.698 144.67 195.485 144.445C196.272 144.219 197.764 144.051 198.143 142.807C198.402 141.952 198.246 140.851 198.24 139.214C198.234 137.577 199.814 137.794 199.84 138.792C199.883 140.392 198.933 143.298 200.262 144.878C201.591 146.458 204.326 146.989 206.873 146.826C209.42 146.663 214.3 142.451 216.895 138.877C217.608 137.899 218.264 135.292 217.231 134.397C216.199 133.501 214.873 135.703 214.61 134.682C214.348 133.661 217.249 131.571 215.663 130.164C214.077 128.758 211.659 133.176 211.502 131.881C211.422 131.234 211.858 130.575 212.032 130.102C212.206 129.628 212.523 129.075 211.858 128.459C211.194 127.843 209.445 128.45 208.892 128.756C207.113 129.737 205.458 130.952 203.767 132.092C203.168 132.497 202.598 132.951 201.868 133.49C202.116 130.464 207.569 126.97 209.189 126.748C210.809 126.525 212.009 126.414 212.748 127.084C213.487 127.755 213.969 128.425 214.927 128.299C216.444 128.097 217.388 128.861 217.825 130.247C218.064 131.006 218.124 131.821 218.324 132.594C218.472 133.176 218.734 134.394 219.45 134.346L219.447 134.343ZM127.479 133.601C127.402 133.67 125.388 132.78 124.612 133.553C123.836 134.326 124.646 136.211 124.906 136.533C126.808 138.889 128.634 141.319 130.701 143.523C132.438 145.38 134.677 146.601 137.164 147.277C140.792 148.261 143.387 145.882 142.857 142.149C142.032 136.365 134.606 129.685 134.035 129.158C133.465 128.63 131.99 128.271 131.334 128.793C130.678 129.315 130.907 131.089 130.77 131.18C130.633 131.271 128.229 129.158 127.085 130.17C125.941 131.183 127.131 133.108 127.481 133.604L127.479 133.601ZM141.647 104.049C141.559 103.587 142.76 101.964 142.389 101.602C142.018 101.239 141.271 101.696 141.046 101.969C139.702 103.612 138.199 105.201 137.247 107.06C136.183 109.137 135.809 111.564 136.807 113.814C138.402 117.405 141.505 118.677 145.406 117.576C148.606 116.674 150.406 113.278 149.288 110.158C148.293 107.38 146.045 105.934 143.464 104.887C142.868 104.645 141.736 104.511 141.647 104.049ZM142.734 135.851C143.644 135.64 143.005 129.511 142.925 127.66C142.845 125.809 143.142 122.487 141.73 121.469C140.318 120.45 139.081 119.829 135.33 120.06C131.58 120.291 129.381 121.588 126.292 124.905C125.454 125.807 124.681 128.661 125.037 128.841C125.394 129.021 125.605 128.162 126.857 127.84C128.109 127.518 128.443 128.388 129.347 128.208C130.251 128.028 129.421 127.498 131.006 126.753C132.592 126.009 135.045 127.486 136.169 128.442C138.256 130.219 141.824 136.062 142.737 135.851H142.734ZM157.961 142.776C158.36 142.035 155.531 139.405 155.16 139.08C154.858 138.817 144.525 138.364 144.268 138.683C144.012 139.003 144.728 139.736 145.044 140.937C145.361 142.137 145.138 143.452 145.677 143.954C146.216 144.456 149.473 144.393 151.666 144.194C154.858 143.903 157.564 143.518 157.961 142.776Z" fill="#18231C"/>
<path d="M201.167 52.087C207.181 52.1041 212.249 57.1664 212.261 63.1699C212.272 69.142 207.321 74.3013 201.549 74.3298C195.44 74.3612 190.412 69.2447 190.389 62.9817C190.366 56.8128 195.058 52.0698 201.167 52.087ZM197.225 55.9457C195.391 55.9201 194.085 57.1892 194.042 59.0345C194.002 60.7343 195.317 62.0947 197.057 62.1574C198.865 62.223 200.268 60.8312 200.3 58.9489C200.328 57.2149 199.053 55.9686 197.225 55.9429V55.9457Z" fill="#18231C"/>
<path d="M159.467 63.1046C159.441 68.9284 154.205 74.2303 148.475 74.2332C142.78 74.2332 137.806 69.0853 137.835 63.2187C137.866 57.0412 142.917 52.0844 149.166 52.0987C154.687 52.1101 159.493 57.2466 159.467 63.1046ZM144.628 55.9574C142.771 55.946 141.46 57.2294 141.465 59.0547C141.471 60.8372 142.652 62.1549 144.274 62.1948C146.111 62.2404 147.588 60.7773 147.643 58.8608C147.688 57.2066 146.402 55.9688 144.628 55.9574Z" fill="#18231C"/>
<path d="M173.773 78.6335C171.103 79.1498 169.289 77.6781 167.812 75.7045C167.41 75.1683 167.279 74.2928 167.338 73.5997C167.373 73.1947 167.986 72.65 168.431 72.5359C168.79 72.4447 169.343 72.8439 169.709 73.1491C170.022 73.4086 170.176 73.8536 170.427 74.1986C172.421 76.9623 176.305 76.6856 177.885 73.6682C178.322 72.8354 178.627 71.7687 179.939 72.4019C180.925 72.8782 181.256 74.1159 180.566 75.2368C179.037 77.7294 176.716 78.7676 173.773 78.6335Z" fill="#18231C"/>
<path d="M197.225 55.9463C199.053 55.972 200.328 57.2154 200.299 58.9523C200.271 60.8346 198.865 62.2264 197.056 62.1608C195.317 62.0981 194.002 60.7348 194.042 59.0379C194.085 57.1926 195.391 55.9235 197.225 55.9491V55.9463Z" fill="white"/>
<path d="M144.628 55.9571C146.402 55.9685 147.688 57.2063 147.642 58.8605C147.591 60.7742 146.111 62.2401 144.274 62.1945C142.651 62.1545 141.471 60.8341 141.465 59.0544C141.459 57.2291 142.768 55.9457 144.628 55.9571Z" fill="white"/>
<path opacity="0.8" d="M139.171 144.262C140.834 142.86 140.705 139.972 138.883 137.812C137.062 135.652 134.237 135.037 132.574 136.439C130.911 137.842 131.04 140.73 132.861 142.89C134.683 145.05 137.508 145.665 139.171 144.262Z" fill="#3AB36C"/>
<path opacity="0.8" d="M209.396 142.846C211.472 140.929 211.959 138.08 210.483 136.482C209.007 134.884 206.128 135.142 204.052 137.059C201.976 138.976 201.489 141.826 202.965 143.424C204.441 145.022 207.32 144.763 209.396 142.846Z" fill="#3AB36C"/>
<path d="M146.721 86.1748C149.345 86.1748 151.473 84.0475 151.473 81.4233C151.473 78.7992 149.345 76.6719 146.721 76.6719C144.097 76.6719 141.97 78.7992 141.97 81.4233C141.97 84.0475 144.097 86.1748 146.721 86.1748Z" fill="#FEB7B7"/>
<path d="M204.252 86.1748C206.876 86.1748 209.003 84.0475 209.003 81.4233C209.003 78.7992 206.876 76.6719 204.252 76.6719C201.628 76.6719 199.5 78.7992 199.5 81.4233C199.5 84.0475 201.628 86.1748 204.252 86.1748Z" fill="#FEB7B7"/>
<path d="M161.09 126.218C160.259 126.218 159.553 126.056 158.971 125.731C158.389 125.397 157.946 124.854 157.64 124.1C157.345 123.346 157.197 122.325 157.197 121.037C157.197 119.749 157.345 118.733 157.64 117.989C157.946 117.244 158.389 116.715 158.971 116.4C159.553 116.085 160.259 115.928 161.09 115.928C161.929 115.928 162.635 116.085 163.208 116.4C163.79 116.715 164.229 117.244 164.524 117.989C164.83 118.733 164.982 119.749 164.982 121.037C164.982 122.325 164.83 123.346 164.524 124.1C164.229 124.854 163.79 125.397 163.208 125.731C162.635 126.056 161.929 126.218 161.09 126.218ZM161.09 124.329C161.471 124.329 161.796 124.238 162.063 124.057C162.339 123.876 162.549 123.546 162.693 123.069C162.845 122.592 162.922 121.915 162.922 121.037C162.922 120.15 162.845 119.477 162.693 119.019C162.549 118.552 162.339 118.237 162.063 118.075C161.796 117.903 161.471 117.817 161.09 117.817C160.717 117.817 160.393 117.903 160.116 118.075C159.84 118.237 159.625 118.552 159.472 119.019C159.329 119.477 159.258 120.15 159.258 121.037C159.258 121.915 159.329 122.592 159.472 123.069C159.625 123.546 159.84 123.876 160.116 124.057C160.393 124.238 160.717 124.329 161.09 124.329ZM167.358 126.218C166.671 126.218 166.328 125.894 166.328 125.245V121.81C166.328 120.894 166.619 120.169 167.201 119.635C167.792 119.1 168.57 118.833 169.534 118.833C170.497 118.833 171.27 119.1 171.852 119.635C172.444 120.169 172.74 120.894 172.74 121.81V125.245C172.74 125.894 172.396 126.218 171.709 126.218C171.022 126.218 170.679 125.894 170.679 125.245V121.924C170.679 121.476 170.578 121.137 170.378 120.908C170.178 120.67 169.896 120.55 169.534 120.55C169.171 120.55 168.89 120.67 168.689 120.908C168.489 121.137 168.389 121.476 168.389 121.924V125.245C168.389 125.894 168.045 126.218 167.358 126.218ZM177.987 126.218C177.157 126.218 176.451 126.056 175.869 125.731C175.287 125.397 174.843 124.854 174.538 124.1C174.242 123.346 174.094 122.325 174.094 121.037C174.094 119.749 174.242 118.733 174.538 117.989C174.843 117.244 175.287 116.715 175.869 116.4C176.451 116.085 177.157 115.928 177.987 115.928C178.827 115.928 179.533 116.085 180.105 116.4C180.687 116.715 181.126 117.244 181.422 117.989C181.727 118.733 181.88 119.749 181.88 121.037C181.88 122.325 181.727 123.346 181.422 124.1C181.126 124.854 180.687 125.397 180.105 125.731C179.533 126.056 178.827 126.218 177.987 126.218ZM177.987 124.329C178.369 124.329 178.693 124.238 178.96 124.057C179.237 123.876 179.447 123.546 179.59 123.069C179.743 122.592 179.819 121.915 179.819 121.037C179.819 120.15 179.743 119.477 179.59 119.019C179.447 118.552 179.237 118.237 178.96 118.075C178.693 117.903 178.369 117.817 177.987 117.817C177.615 117.817 177.291 117.903 177.014 118.075C176.737 118.237 176.523 118.552 176.37 119.019C176.227 119.477 176.155 120.15 176.155 121.037C176.155 121.915 176.227 122.592 176.37 123.069C176.523 123.546 176.737 123.876 177.014 124.057C177.291 124.238 177.615 124.329 177.987 124.329Z" fill="#18231C"/>
</g>
<defs>
<linearGradient id="paint0_linear_86_5955" x1="188.452" y1="123.288" x2="199.433" y2="136.692" gradientUnits="userSpaceOnUse">
<stop stop-color="#95D99E"/>
<stop offset="1" stop-color="#C5ECB3"/>
</linearGradient>
<clipPath id="clip0_86_5955">
<rect width="100.85" height="105.071" fill="white" transform="translate(122 45)"/>
</clipPath>
</defs>
</svg>
