<svg width="350" height="200" viewBox="0 0 350 200" fill="none" xmlns="http://www.w3.org/2000/svg">
<g clip-path="url(#clip0_151_4647)">
<g opacity="0.5" filter="url(#filter0_f_151_4647)">
<path fill-rule="evenodd" clip-rule="evenodd" d="M186.475 48.8314C186.476 48.8317 186.462 48.8453 186.433 48.8715C186.461 48.8441 186.475 48.8311 186.475 48.8314ZM144.567 48.8715C144.538 48.8454 144.524 48.8317 144.525 48.8314C144.525 48.8311 144.539 48.8442 144.567 48.8715ZM144.525 78.1686C144.524 78.1683 144.538 78.1547 144.567 78.1285C144.539 78.1559 144.525 78.1689 144.525 78.1686ZM186.433 78.1285C186.462 78.1546 186.476 78.1683 186.475 78.1686C186.475 78.1689 186.461 78.1558 186.433 78.1285ZM165.5 111C202.779 111 233 89.7335 233 63.5C233 37.2665 202.779 16 165.5 16C128.221 16 98 37.2665 98 63.5C98 89.7335 128.221 111 165.5 111Z" fill="url(#paint0_radial_151_4647)"/>
</g>
<g filter="url(#filter1_d_151_4647)">
<path d="M18 170C18 153.431 31.4315 140 48 140H301C317.569 140 331 153.431 331 170V170C331 186.569 317.569 200 301 200H48C31.4315 200 18 186.569 18 170V170Z" fill="white" shape-rendering="crispEdges"/>
<path d="M48 140.5H301C317.292 140.5 330.5 153.708 330.5 170C330.5 186.292 317.292 199.5 301 199.5H48C31.7076 199.5 18.5 186.292 18.5 170C18.5 153.708 31.7076 140.5 48 140.5Z" stroke="#F0F0F0" shape-rendering="crispEdges"/>
<rect width="293" height="40.6293" transform="translate(28 149.686)" fill="white"/>
<path d="M68.0303 178.447C69.7608 178.456 71.0061 179.299 71.0061 180.581C71.0061 181.794 69.9256 182.6 68.3782 182.696V184.408H71.7752V185.012H64.322V184.408H67.6732V182.696C66.1304 182.595 65.0545 181.789 65.0545 180.581C65.0545 179.299 66.2998 178.456 68.0303 178.447ZM68.0303 179.042C66.7118 179.042 65.7504 179.665 65.7504 180.581C65.7504 181.524 66.7118 182.128 68.0303 182.137C69.3488 182.128 70.3102 181.524 70.3102 180.581C70.3102 179.665 69.3488 179.042 68.0303 179.042ZM78.6014 177.916V179.83H79.8283V180.434H78.6014V182.256H77.8872V177.916H78.6014ZM76.2299 178.456V179.052H73.3365V181.377C74.9709 181.377 75.9003 181.327 76.9899 181.103L77.0814 181.698C75.9369 181.927 74.9663 181.982 73.2541 181.982H72.6223V178.456H76.2299ZM74.1606 182.696V183.712H77.8872V182.696H78.6014V185.919H73.4464V182.696H74.1606ZM74.1606 185.324H77.8872V184.289H74.1606V185.324ZM89.7357 182.128V182.723H82.3192V182.128H85.6704V181.148H83.308V178.108H84.0222V179.052H88.051V178.108H88.7652V181.148H86.3845V182.128H89.7357ZM88.8201 183.529V186.056H88.0968V184.106H83.1432V183.529H88.8201ZM84.0222 180.572H88.051V179.601H84.0222V180.572ZM91.8922 182.806V183.758H95.9576V182.806H96.6809V185.946H91.178V182.806H91.8922ZM91.8922 185.369H95.9576V184.326H91.8922V185.369ZM97.6515 181.634V182.229H90.2349V181.634H97.6515ZM94.3186 178.392C94.3186 179.4 95.8019 180.297 97.2303 180.48L96.9648 181.057C95.7012 180.869 94.4651 180.224 93.9524 179.308C93.4305 180.228 92.1852 180.869 90.9308 181.057L90.6561 180.48C92.1028 180.288 93.577 179.427 93.577 178.392V178.008H94.3186V178.392Z" fill="#868E96"/>
<path d="M165.453 181.945V182.87H162.313V184.307H161.159V182.87H157.826V181.945H165.453ZM164.474 178.191V181.258H158.778V178.191H164.474ZM159.923 179.097V180.352H163.329V179.097H159.923ZM164.611 185.076V186.01H158.723V183.584H159.886V185.076H164.611ZM172.957 177.825V186.157H171.849V177.825H172.957ZM171.254 177.962V185.772H170.155V181.624H169.056V180.681H170.155V177.962H171.254ZM168.388 180.059C168.388 181.441 168.818 182.842 170.036 183.538L169.349 184.399C168.608 183.959 168.118 183.213 167.839 182.32C167.55 183.291 167.047 184.115 166.282 184.582L165.577 183.721C166.804 182.97 167.262 181.469 167.262 180.059V179.61H165.898V178.676H169.652V179.61H168.388V180.059ZM183.258 181.634V182.586H175.64V181.634H183.258ZM182.388 180.123V181.048H176.565V178.044H182.343V178.987H177.728V180.123H182.388ZM179.431 183.089C181.235 183.089 182.324 183.639 182.333 184.619C182.324 185.607 181.235 186.157 179.431 186.157C177.609 186.157 176.51 185.607 176.51 184.619C176.51 183.639 177.609 183.089 179.431 183.089ZM179.431 183.978C178.277 183.978 177.691 184.197 177.7 184.619C177.691 185.058 178.277 185.269 179.431 185.269C180.557 185.269 181.152 185.058 181.161 184.619C181.152 184.197 180.557 183.978 179.431 183.978ZM191.174 182.293V183.227H183.547V182.293H186.779V181.689H184.499V179.4H189.077V178.887H184.481V177.98H190.249V180.242H185.662V180.791H190.405V181.689H187.942V182.293H191.174ZM190.295 183.703V186.12H189.114V184.619H184.398V183.703H190.295Z" fill="#42C153"/>
<path d="M267.068 177.916V182.128H266.345V180.013H264.532V179.418H266.345V177.916H267.068ZM267.068 182.54V184.481H262.518V185.369H267.37V185.946H261.813V183.932H266.354V183.117H261.794V182.54H267.068ZM263.094 178.951C263.085 180.022 263.928 180.993 265.118 181.386L264.733 181.945C263.832 181.624 263.113 180.984 262.756 180.159C262.408 181.089 261.671 181.798 260.705 182.146L260.311 181.57C261.538 181.167 262.38 180.141 262.389 178.951V178.182H263.094V178.951ZM274.984 177.916V182.769H274.261V180.636H272.622V180.04H274.261V177.916H274.984ZM272.283 183.025C273.977 183.025 275.011 183.575 275.011 184.536C275.011 185.498 273.977 186.047 272.283 186.056C270.589 186.047 269.554 185.498 269.554 184.536C269.554 183.575 270.589 183.025 272.283 183.025ZM272.283 183.584C271.038 183.584 270.259 183.941 270.269 184.536C270.259 185.122 271.038 185.479 272.283 185.479C273.528 185.479 274.297 185.122 274.297 184.536C274.297 183.941 273.528 183.584 272.283 183.584ZM271.065 179.409C271.065 180.471 271.88 181.478 273.07 181.89L272.695 182.467C271.779 182.137 271.07 181.455 270.726 180.608C270.369 181.565 269.614 182.33 268.648 182.696L268.272 182.119C269.481 181.679 270.342 180.581 270.342 179.418V179.116H268.501V178.511H272.887V179.116H271.065V179.409Z" fill="#868E96"/>
<path d="M270.424 172.522H266.576C266.319 172.522 266.097 172.437 265.909 172.266C265.721 172.095 265.61 171.881 265.576 171.625L265.268 169.239C265.045 169.153 264.836 169.051 264.64 168.931C264.443 168.811 264.25 168.683 264.062 168.546L261.83 169.47C261.591 169.555 261.351 169.564 261.112 169.495C260.873 169.427 260.684 169.282 260.548 169.059L258.649 165.75C258.512 165.528 258.47 165.288 258.521 165.032C258.572 164.775 258.701 164.57 258.906 164.416L260.83 162.954C260.813 162.834 260.804 162.719 260.804 162.607V161.914C260.804 161.804 260.813 161.688 260.83 161.569L258.906 160.106C258.701 159.952 258.572 159.747 258.521 159.491C258.47 159.234 258.512 158.995 258.649 158.772L260.548 155.463C260.667 155.224 260.851 155.074 261.099 155.014C261.347 154.954 261.591 154.967 261.83 155.053L264.062 155.976C264.25 155.839 264.447 155.711 264.652 155.591C264.857 155.472 265.062 155.369 265.268 155.284L265.576 152.898C265.61 152.641 265.721 152.428 265.909 152.257C266.097 152.086 266.319 152 266.576 152H270.424C270.681 152 270.903 152.086 271.091 152.257C271.279 152.428 271.39 152.641 271.424 152.898L271.732 155.284C271.955 155.369 272.164 155.472 272.361 155.591C272.558 155.711 272.75 155.839 272.938 155.976L275.17 155.053C275.409 154.967 275.649 154.959 275.888 155.027C276.127 155.095 276.316 155.241 276.452 155.463L278.351 158.772C278.488 158.995 278.53 159.234 278.479 159.491C278.428 159.747 278.299 159.952 278.094 160.106L276.17 161.569C276.187 161.688 276.196 161.804 276.196 161.914V162.607C276.196 162.719 276.179 162.834 276.145 162.954L278.069 164.416C278.274 164.57 278.402 164.775 278.453 165.032C278.505 165.288 278.462 165.528 278.325 165.75L276.427 169.034C276.29 169.256 276.098 169.406 275.85 169.483C275.602 169.56 275.358 169.555 275.118 169.47L272.938 168.546C272.75 168.683 272.553 168.811 272.348 168.931C272.143 169.051 271.937 169.153 271.732 169.239L271.424 171.625C271.39 171.881 271.279 172.095 271.091 172.266C270.903 172.437 270.681 172.522 270.424 172.522ZM268.551 165.853C269.543 165.853 270.39 165.502 271.091 164.801C271.792 164.1 272.143 163.253 272.143 162.261C272.143 161.269 271.792 160.423 271.091 159.722C270.39 159.02 269.543 158.67 268.551 158.67C267.542 158.67 266.691 159.02 265.998 159.722C265.306 160.423 264.96 161.269 264.96 162.261C264.96 163.253 265.306 164.1 265.998 164.801C266.691 165.502 267.542 165.853 268.551 165.853Z" fill="#868E96"/>
<path d="M89.8909 153.497C88.787 153.149 87.5736 153 86.41 153C84.4706 153 82.3821 153.398 80.94 154.492C79.4979 153.398 77.4094 153 75.47 153C73.5306 153 71.4421 153.398 70 154.492V169.062C70 169.311 70.2486 169.559 70.4973 169.559C70.5967 169.559 70.6465 169.509 70.7459 169.509C72.0885 168.863 74.0279 168.415 75.47 168.415C77.4094 168.415 79.4979 168.813 80.94 169.907C82.2826 169.062 84.7193 168.415 86.41 168.415C88.051 168.415 89.7417 168.714 91.1341 169.46C91.2335 169.509 91.2833 169.509 91.3827 169.509C91.6314 169.509 91.88 169.261 91.88 169.012V154.492C91.2833 154.044 90.6368 153.746 89.8909 153.497ZM89.8909 166.924C88.7969 166.576 87.6035 166.426 86.41 166.426C84.7193 166.426 82.2826 167.073 80.94 167.918V156.481C82.2826 155.636 84.7193 154.989 86.41 154.989C87.6035 154.989 88.7969 155.138 89.8909 155.486V166.924Z" fill="#868E96"/>
<path d="M86.41 158.967C87.2852 158.967 88.1306 159.057 88.8964 159.226V157.714C88.1107 157.565 87.2653 157.476 86.41 157.476C84.7193 157.476 83.1877 157.764 81.9346 158.301V159.952C83.0584 159.315 84.6198 158.967 86.41 158.967Z" fill="#868E96"/>
<path d="M81.9346 160.947V162.598C83.0584 161.961 84.6198 161.613 86.41 161.613C87.2852 161.613 88.1306 161.702 88.8964 161.871V160.36C88.1107 160.211 87.2653 160.121 86.41 160.121C84.7193 160.121 83.1877 160.419 81.9346 160.947Z" fill="#868E96"/>
<path d="M86.41 162.776C84.7193 162.776 83.1877 163.065 81.9346 163.602V165.253C83.0584 164.616 84.6198 164.268 86.41 164.268C87.2852 164.268 88.1306 164.358 88.8964 164.527V163.015C88.1107 162.856 87.2653 162.776 86.41 162.776Z" fill="#868E96"/>
<path d="M165 167.834V172H169.166L181.453 159.713L177.287 155.547L165 167.834ZM184.675 156.491C185.108 156.058 185.108 155.358 184.675 154.925L182.075 152.325C181.642 151.892 180.942 151.892 180.509 152.325L178.476 154.358L182.642 158.524L184.675 156.491Z" fill="#42C153"/>
</g>
<path d="M149.392 85.2486L149.392 42.1369C149.392 38.3019 152.501 35.193 156.336 35.193L187.418 35.193C191.253 35.193 194.362 38.3019 194.362 42.1369L194.362 85.2486C194.362 89.0837 191.254 92.1926 187.418 92.1926L156.336 92.1926C152.501 92.1926 149.392 89.0836 149.392 85.2486Z" fill="white" stroke="#343A40" stroke-width="1.98399"/>
<line x1="156.4" y1="45.0004" x2="186.8" y2="45.0004" stroke="#555555" stroke-width="0.8"/>
<line x1="156.4" y1="53.0004" x2="186.8" y2="53.0004" stroke="#555555" stroke-width="0.8"/>
<line x1="156.4" y1="61.0004" x2="186.8" y2="61.0004" stroke="#555555" stroke-width="0.8"/>
<line x1="156.4" y1="69.0004" x2="186.8" y2="69.0004" stroke="#555555" stroke-width="0.8"/>
<line x1="156.4" y1="77.0004" x2="186.8" y2="77.0004" stroke="#555555" stroke-width="0.8"/>
<line x1="156.4" y1="85.0004" x2="186.8" y2="85.0004" stroke="#555555" stroke-width="0.8"/>
<rect x="139.612" y="81.252" width="25.5193" height="5.08194" rx="2.54097" transform="rotate(-45 139.612 81.252)" fill="#D9C7A4" stroke="#343A40" stroke-width="1.28"/>
<circle cx="166.668" cy="56.0885" r="14.8938" fill="#D9C7A4" stroke="#343A40" stroke-width="1.28"/>
<ellipse cx="166" cy="55.8002" rx="12.8" ry="13.6" fill="#D9C7A4"/>
<path d="M177.84 55.9598C177.84 62.1454 172.826 67.1598 166.64 67.1598C160.455 67.1598 155.44 62.1454 155.44 55.9598C155.44 49.7742 160.455 44.7598 166.64 44.7598C172.826 44.7598 177.84 49.7742 177.84 55.9598Z" fill="#C5ECB3" stroke="#343A40" stroke-width="1.28"/>
<path d="M162.358 48.5996L158.872 53.9671" stroke="white" stroke-width="1.12" stroke-linecap="round"/>
<path d="M162.358 48.5996L158.872 53.9671" stroke="white" stroke-width="1.12" stroke-linecap="round"/>
<path d="M162.358 48.5996L158.872 53.9671" stroke="white" stroke-width="1.12" stroke-linecap="round"/>
<path d="M165.971 46.9814L162.829 51.8196" stroke="white" stroke-width="1.12" stroke-linecap="round"/>
<path d="M165.971 46.9814L162.829 51.8196" stroke="white" stroke-width="1.12" stroke-linecap="round"/>
<path d="M165.971 46.9814L162.829 51.8196" stroke="white" stroke-width="1.12" stroke-linecap="round"/>
<path d="M162 53.4004L162 53.4386" stroke="white" stroke-width="1.12" stroke-linecap="round"/>
<path d="M162 53.4004L162 53.4386" stroke="white" stroke-width="1.12" stroke-linecap="round"/>
<path d="M162 53.4004L162 53.4386" stroke="white" stroke-width="1.12" stroke-linecap="round"/>
<path d="M161.691 53.3994C160.558 53.4026 159.603 54.3531 159.601 55.4804C159.599 56.6017 160.531 57.5704 161.619 57.5758C162.77 57.5817 163.718 56.621 163.722 55.445C163.726 54.2867 162.842 53.3962 161.691 53.3994ZM162.434 54.124C162.78 54.1191 163.026 54.3574 163.034 54.7039C163.041 55.0231 162.793 55.2785 162.466 55.2903C162.125 55.3026 161.861 55.0413 161.855 54.6878C161.849 54.3623 162.089 54.1282 162.434 54.1234V54.124Z" fill="#18231C"/>
<path d="M169.547 55.4679C169.552 56.5614 170.539 57.5569 171.618 57.5574C172.692 57.5574 173.629 56.5908 173.624 55.4893C173.618 54.3294 172.666 53.3987 171.488 53.4014C170.448 53.4035 169.542 54.368 169.547 55.4679ZM172.343 54.1259C172.693 54.1238 172.94 54.3647 172.939 54.7075C172.938 55.0421 172.716 55.2895 172.41 55.297C172.064 55.3056 171.786 55.0309 171.775 54.671C171.767 54.3605 172.009 54.128 172.343 54.1259Z" fill="#18231C"/>
<path d="M167.976 57.8339C168.051 57.7332 168.076 57.5688 168.065 57.4387C168.058 57.3626 167.943 57.2604 167.859 57.2389C167.791 57.2218 167.687 57.2968 167.618 57.3541C167.559 57.4028 167.53 57.4863 167.483 57.5511C167.107 58.07 166.375 58.0181 166.077 57.4515C165.995 57.2952 165.938 57.0949 165.69 57.2138C165.505 57.3032 165.442 57.5356 165.572 57.7461C166.105 58.6114 167.389 58.6145 167.976 57.8339Z" fill="#18231C"/>
<path d="M162.433 54.124C162.088 54.1288 161.848 54.3623 161.853 54.6884C161.859 55.0419 162.124 55.3032 162.464 55.2909C162.792 55.2791 163.04 55.0231 163.033 54.7045C163.024 54.358 162.778 54.1197 162.433 54.1246V54.124Z" fill="white"/>
<path d="M172.343 54.1279C172.009 54.1301 171.766 54.3625 171.775 54.6731C171.785 55.0324 172.064 55.3077 172.41 55.2991C172.715 55.2916 172.938 55.0436 172.939 54.7095C172.94 54.3668 172.693 54.1258 172.343 54.1279Z" fill="white"/>
<path d="M171.948 59.7989C171.454 59.7989 171.053 59.3995 171.053 58.9068C171.053 58.4141 171.454 58.0146 171.948 58.0146C172.443 58.0146 172.844 58.4141 172.844 58.9068C172.844 59.3995 172.443 59.7989 171.948 59.7989Z" fill="#FEB7B7"/>
<path d="M161.108 59.7989C160.614 59.7989 160.213 59.3995 160.213 58.9068C160.213 58.4141 160.614 58.0146 161.108 58.0146C161.603 58.0146 162.003 58.4141 162.003 58.9068C162.003 59.3995 161.603 59.7989 161.108 59.7989Z" fill="#FEB7B7"/>
</g>
<defs>
<filter id="filter0_f_151_4647" x="96.8636" y="14.8636" width="137.273" height="97.2727" filterUnits="userSpaceOnUse" color-interpolation-filters="sRGB">
<feFlood flood-opacity="0" result="BackgroundImageFix"/>
<feBlend mode="normal" in="SourceGraphic" in2="BackgroundImageFix" result="shape"/>
<feGaussianBlur stdDeviation="0.568182" result="effect1_foregroundBlur_151_4647"/>
</filter>
<filter id="filter1_d_151_4647" x="4" y="126" width="341" height="88" filterUnits="userSpaceOnUse" color-interpolation-filters="sRGB">
<feFlood flood-opacity="0" result="BackgroundImageFix"/>
<feColorMatrix in="SourceAlpha" type="matrix" values="0 0 0 0 0 0 0 0 0 0 0 0 0 0 0 0 0 0 127 0" result="hardAlpha"/>
<feOffset/>
<feGaussianBlur stdDeviation="7"/>
<feComposite in2="hardAlpha" operator="out"/>
<feColorMatrix type="matrix" values="0 0 0 0 0 0 0 0 0 0 0 0 0 0 0 0 0 0 0.08 0"/>
<feBlend mode="normal" in2="BackgroundImageFix" result="effect1_dropShadow_151_4647"/>
<feBlend mode="normal" in="SourceGraphic" in2="effect1_dropShadow_151_4647" result="shape"/>
</filter>
<radialGradient id="paint0_radial_151_4647" cx="0" cy="0" r="1" gradientUnits="userSpaceOnUse" gradientTransform="translate(165.5 63.5) rotate(90) scale(54.2403 77.0783)">
<stop offset="0.0190336" stop-color="#C5ECB3"/>
<stop offset="0.130568" stop-color="#FAFDAC"/>
<stop offset="0.645753" stop-color="#FFE9E3"/>
<stop offset="1" stop-color="white" stop-opacity="0"/>
</radialGradient>
<clipPath id="clip0_151_4647">
<rect width="350" height="200" fill="white"/>
</clipPath>
</defs>
</svg>
