<svg width="343" height="54" viewBox="0 0 343 54" fill="none" xmlns="http://www.w3.org/2000/svg">
<path d="M0.5 27C0.5 12.3645 12.3645 0.5 27 0.5H316C330.636 0.5 342.5 12.3645 342.5 27C342.5 41.6355 330.636 53.5 316 53.5H27C12.3644 53.5 0.5 41.6355 0.5 27Z" fill="black"/>
<path d="M0.5 27C0.5 12.3645 12.3645 0.5 27 0.5H316C330.636 0.5 342.5 12.3645 342.5 27C342.5 41.6355 330.636 53.5 316 53.5H27C12.3644 53.5 0.5 41.6355 0.5 27Z" stroke="#959595"/>
<path d="M36.2808 33.424C35.933 34.2275 35.5213 34.9672 35.0442 35.6472C34.394 36.5743 33.8616 37.216 33.4513 37.5724C32.8153 38.1573 32.1338 38.4568 31.4041 38.4739C30.8802 38.4739 30.2485 38.3248 29.513 38.0224C28.7752 37.7214 28.0972 37.5724 27.4772 37.5724C26.827 37.5724 26.1296 37.7214 25.3837 38.0224C24.6366 38.3248 24.0348 38.4824 23.5747 38.498C22.8749 38.5278 22.1774 38.2197 21.4812 37.5724C21.0368 37.1848 20.481 36.5204 19.8151 35.5791C19.1007 34.5739 18.5134 33.4084 18.0533 32.0795C17.5605 30.6442 17.3135 29.2543 17.3135 27.9087C17.3135 26.3673 17.6465 25.0379 18.3137 23.9238C18.838 23.029 19.5355 22.3231 20.4084 21.8049C21.2814 21.2867 22.2247 21.0227 23.2405 21.0058C23.7963 21.0058 24.5252 21.1777 25.431 21.5156C26.3342 21.8546 26.9141 22.0265 27.1684 22.0265C27.3585 22.0265 28.0028 21.8255 29.0949 21.4247C30.1278 21.0531 30.9995 20.8992 31.7136 20.9598C33.6487 21.1159 35.1024 21.8788 36.0693 23.253C34.3386 24.3016 33.4826 25.7703 33.4996 27.6544C33.5152 29.122 34.0476 30.3432 35.0939 31.3129C35.5681 31.7629 36.0977 32.1107 36.6868 32.3578C36.5591 32.7283 36.4242 33.0832 36.2808 33.424ZM31.8428 15.9601C31.8428 17.1104 31.4226 18.1844 30.5849 19.1785C29.5741 20.3602 28.3514 21.0431 27.0256 20.9354C27.0087 20.7974 26.9989 20.6521 26.9989 20.4995C26.9989 19.3953 27.4796 18.2135 28.3333 17.2472C28.7595 16.758 29.3015 16.3512 29.9588 16.0267C30.6147 15.7071 31.2352 15.5303 31.8187 15.5C31.8357 15.6538 31.8428 15.8076 31.8428 15.9601V15.9601Z" fill="white"/>
<path d="M117.227 32H114.783L119.266 19.2734H122.078L126.578 32H124.135L123.08 28.8535H118.281L117.227 32ZM118.896 27.0078H122.465L120.725 21.875H120.619L118.896 27.0078ZM127.984 35.5859V22.4551H130.182V24.0195H130.322C130.674 23.334 131.377 22.332 133.064 22.332C135.262 22.332 137.002 24.0547 137.002 27.2363C137.002 30.3828 135.314 32.1758 133.064 32.1758C131.412 32.1758 130.674 31.1914 130.322 30.4883H130.234V35.5859H127.984ZM130.182 27.2188C130.182 29.082 130.99 30.3301 132.449 30.3301C133.926 30.3301 134.717 29.0293 134.717 27.2188C134.717 25.4434 133.943 24.1602 132.449 24.1602C130.99 24.1602 130.182 25.373 130.182 27.2188ZM138.76 35.5859V22.4551H140.957V24.0195H141.098C141.449 23.334 142.152 22.332 143.84 22.332C146.037 22.332 147.777 24.0547 147.777 27.2363C147.777 30.3828 146.09 32.1758 143.84 32.1758C142.188 32.1758 141.449 31.1914 141.098 30.4883H141.01V35.5859H138.76ZM140.957 27.2188C140.957 29.082 141.766 30.3301 143.225 30.3301C144.701 30.3301 145.492 29.0293 145.492 27.2188C145.492 25.4434 144.719 24.1602 143.225 24.1602C141.766 24.1602 140.957 25.373 140.957 27.2188ZM151.785 19.2734V32H149.535V19.2734H151.785ZM158.166 32.1934C155.283 32.1934 153.525 30.2773 153.525 27.2891C153.525 24.3359 155.318 22.332 158.043 22.332C160.381 22.332 162.402 23.791 162.402 27.1484V27.8516H155.74C155.767 29.4775 156.725 30.4355 158.184 30.4355C159.168 30.4355 159.836 30.0137 160.117 29.4512H162.314C161.91 31.1035 160.381 32.1934 158.166 32.1934ZM155.758 26.3223H160.258C160.24 25.0215 159.379 24.0723 158.078 24.0723C156.725 24.0723 155.828 25.1006 155.758 26.3223ZM178.117 30.1016V31.7188H163.598V30.1016H169.855V27.5176H165.32V22.3145H174.461V20.3457H165.285V18.7637H176.395V23.8613H167.271V25.918H176.764V27.5176H171.789V30.1016H178.117ZM197.945 30.1016V31.7188H183.426V30.1016H189.684V27.5176H185.148V22.3145H194.289V20.3457H185.113V18.7637H196.223V23.8613H187.1V25.918H196.592V27.5176H191.617V30.1016H197.945ZM211.621 19.2207V21.0137C211.621 23.1406 211.621 25.3379 211.041 28.6777L209.055 28.502C209.67 25.373 209.67 23.0703 209.67 21.0137V20.8027H200.512V19.2207H211.621ZM213.467 29.7852V31.3848H198.982V29.7852H213.467ZM227.775 17.6914V29.1699H225.807V17.6914H227.775ZM228.215 31.666V33.248H217.264V28.0098H219.232V31.666H228.215ZM219.109 18.7285C221.518 18.7285 223.381 20.3984 223.381 22.7012C223.381 25.0566 221.518 26.6914 219.109 26.6914C216.684 26.6914 214.82 25.0566 214.82 22.7012C214.82 20.3984 216.684 18.7285 219.109 18.7285ZM219.109 20.4336C217.756 20.4336 216.719 21.3301 216.736 22.7012C216.719 24.1074 217.756 24.9863 219.109 24.9863C220.428 24.9863 221.465 24.1074 221.465 22.7012C221.465 21.3301 220.428 20.4336 219.109 20.4336Z" fill="#FBFBFB"/>
</svg>
