<svg width="343" height="54" viewBox="0 0 343 54" fill="none" xmlns="http://www.w3.org/2000/svg">
<rect x="0.5" y="0.5" width="342" height="53" rx="26.5" fill="white"/>
<rect x="0.5" y="0.5" width="342" height="53" rx="26.5" stroke="#DEE2E6"/>
<rect width="24" height="24" transform="translate(15 15)" fill="white"/>
<path fill-rule="evenodd" clip-rule="evenodd" d="M38.04 27.2615C38.04 26.446 37.9668 25.6619 37.8309 24.9092H27V29.3576H33.1891C32.9225 30.7951 32.1123 32.013 30.8943 32.8285V35.714H34.6109C36.7855 33.7119 38.04 30.7637 38.04 27.2615Z" fill="#4285F4"/>
<path fill-rule="evenodd" clip-rule="evenodd" d="M26.9995 38.4996C30.1045 38.4996 32.7077 37.4698 34.6104 35.7134L30.8938 32.828C29.864 33.518 28.5467 33.9257 26.9995 33.9257C24.0042 33.9257 21.469 31.9028 20.5647 29.1846H16.7227V32.1641C18.6149 35.9225 22.504 38.4996 26.9995 38.4996Z" fill="#34A853"/>
<path fill-rule="evenodd" clip-rule="evenodd" d="M20.5652 29.1855C20.3352 28.4955 20.2045 27.7584 20.2045 27.0005C20.2045 26.2425 20.3352 25.5055 20.5652 24.8155V21.8359H16.7232C15.9443 23.3884 15.5 25.1448 15.5 27.0005C15.5 28.8562 15.9443 30.6125 16.7232 32.165L20.5652 29.1855Z" fill="#FBBC05"/>
<path fill-rule="evenodd" clip-rule="evenodd" d="M26.9995 20.0739C28.6879 20.0739 30.2038 20.6541 31.3956 21.7936L34.694 18.4952C32.7024 16.6395 30.0992 15.5 26.9995 15.5C22.504 15.5 18.6149 18.077 16.7227 21.8355L20.5647 24.815C21.469 22.0968 24.0042 20.0739 26.9995 20.0739Z" fill="#EA4335"/>
<path d="M118.765 23.334C118.36 21.9805 117.306 21.1543 115.759 21.1543C113.702 21.1543 112.226 22.7539 112.226 25.6191C112.226 28.5195 113.685 30.1191 115.812 30.1191C117.728 30.1191 118.958 28.959 118.993 27.1484H116.04V25.3379H121.208V26.8672C121.208 30.1367 118.958 32.1758 115.812 32.1758C112.296 32.1758 109.923 29.6797 109.923 25.6367C109.923 21.5586 112.401 19.0977 115.741 19.0977C118.554 19.0977 120.716 20.8379 121.103 23.334H118.765ZM127.343 32.1934C124.565 32.1934 122.772 30.2246 122.772 27.2715C122.772 24.3008 124.565 22.332 127.343 22.332C130.138 22.332 131.913 24.3008 131.913 27.2715C131.913 30.2246 130.138 32.1934 127.343 32.1934ZM127.36 30.4004C128.89 30.4004 129.646 29.0117 129.646 27.2539C129.646 25.5137 128.89 24.1074 127.36 24.1074C125.796 24.1074 125.04 25.5137 125.04 27.2539C125.04 29.0117 125.796 30.4004 127.36 30.4004ZM137.819 32.1934C135.042 32.1934 133.249 30.2246 133.249 27.2715C133.249 24.3008 135.042 22.332 137.819 22.332C140.614 22.332 142.39 24.3008 142.39 27.2715C142.39 30.2246 140.614 32.1934 137.819 32.1934ZM137.837 30.4004C139.366 30.4004 140.122 29.0117 140.122 27.2539C140.122 25.5137 139.366 24.1074 137.837 24.1074C136.272 24.1074 135.517 25.5137 135.517 27.2539C135.517 29.0117 136.272 30.4004 137.837 30.4004ZM148.296 35.7793C145.765 35.7793 144.165 34.6543 144.007 32.8613H146.239C146.397 33.6875 147.188 34.0918 148.331 34.0918C149.667 34.0918 150.546 33.5117 150.546 32.1055V30.2773H150.44C150.089 30.9805 149.333 31.8594 147.681 31.8594C145.483 31.8594 143.743 30.2598 143.743 27.1484C143.743 24.002 145.483 22.332 147.698 22.332C149.386 22.332 150.089 23.334 150.44 24.0195H150.546V22.4551H152.761V32.1582C152.761 34.6016 150.88 35.7793 148.296 35.7793ZM148.296 30.1016C149.737 30.1016 150.563 29.0117 150.563 27.1836C150.563 25.373 149.755 24.1602 148.296 24.1602C146.802 24.1602 146.028 25.4434 146.028 27.1836C146.028 28.9414 146.819 30.1016 148.296 30.1016ZM157.155 19.2734V32H154.905V19.2734H157.155ZM163.536 32.1934C160.653 32.1934 158.896 30.2773 158.896 27.2891C158.896 24.3359 160.688 22.332 163.413 22.332C165.751 22.332 167.772 23.791 167.772 27.1484V27.8516H161.11C161.137 29.4775 162.095 30.4355 163.554 30.4355C164.538 30.4355 165.206 30.0137 165.487 29.4512H167.685C167.28 31.1035 165.751 32.1934 163.536 32.1934ZM161.128 26.3223H165.628C165.61 25.0215 164.749 24.0723 163.448 24.0723C162.095 24.0723 161.198 25.1006 161.128 26.3223ZM183.487 30.1016V31.7188H168.968V30.1016H175.226V27.5176H170.69V22.3145H179.831V20.3457H170.655V18.7637H181.765V23.8613H172.642V25.918H182.134V27.5176H177.159V30.1016H183.487ZM203.315 30.1016V31.7188H188.796V30.1016H195.054V27.5176H190.519V22.3145H199.659V20.3457H190.483V18.7637H201.593V23.8613H192.47V25.918H201.962V27.5176H196.987V30.1016H203.315ZM216.991 19.2207V21.0137C216.991 23.1406 216.991 25.3379 216.411 28.6777L214.425 28.502C215.04 25.373 215.04 23.0703 215.04 21.0137V20.8027H205.882V19.2207H216.991ZM218.837 29.7852V31.3848H204.353V29.7852H218.837ZM233.146 17.6914V29.1699H231.177V17.6914H233.146ZM233.585 31.666V33.248H222.634V28.0098H224.603V31.666H233.585ZM224.479 18.7285C226.888 18.7285 228.751 20.3984 228.751 22.7012C228.751 25.0566 226.888 26.6914 224.479 26.6914C222.054 26.6914 220.19 25.0566 220.19 22.7012C220.19 20.3984 222.054 18.7285 224.479 18.7285ZM224.479 20.4336C223.126 20.4336 222.089 21.3301 222.106 22.7012C222.089 24.1074 223.126 24.9863 224.479 24.9863C225.798 24.9863 226.835 24.1074 226.835 22.7012C226.835 21.3301 225.798 20.4336 224.479 20.4336Z" fill="#242729"/>
</svg>
