<svg width="343" height="54" viewBox="0 0 343 54" fill="none" xmlns="http://www.w3.org/2000/svg">
<path d="M0 27C0 12.0883 12.0883 0 27 0H316C330.912 0 343 12.0883 343 27C343 41.9117 330.912 54 316 54H27C12.0883 54 0 41.9117 0 27Z" fill="#FEE500"/>
<g clip-path="url(#clip0_69_4635)">
<path fill-rule="evenodd" clip-rule="evenodd" d="M27.334 18.1992C21.5347 18.1992 16.834 21.831 16.834 26.3102C16.834 29.0959 18.6521 31.5517 21.4208 33.0123L20.2559 37.2678C20.1529 37.6438 20.583 37.9435 20.9132 37.7256L26.0196 34.3555C26.4505 34.397 26.8884 34.4213 27.334 34.4213C33.1329 34.4213 37.8339 30.7897 37.8339 26.3102C37.8339 21.831 33.1329 18.1992 27.334 18.1992Z" fill="black"/>
</g>
<path d="M124.205 19.2383C124.205 24.0371 122.887 28.1504 117.033 31.0684L115.961 29.5918C118.712 28.2295 120.347 26.6475 121.27 24.7578L116.33 25.2324L116.084 23.5449L121.867 23.1758C122.069 22.4375 122.192 21.6553 122.254 20.8203H116.91V19.2383H124.205ZM128.389 17.6738V23.8965H130.744V25.4961H128.389V33.5293H126.438V17.6738H128.389ZM139.762 19.2383C139.762 24.0371 138.443 28.1504 132.59 31.0684L131.518 29.5918C134.269 28.2295 135.903 26.6475 136.826 24.7578L131.887 25.2324L131.641 23.5449L137.424 23.1758C137.626 22.4375 137.749 21.6553 137.811 20.8203H132.467V19.2383H139.762ZM143.945 17.6738V23.8965H146.301V25.4961H143.945V33.5293H141.994V17.6738H143.945ZM154.281 18.5703C157.691 18.5703 160.205 20.2754 160.205 22.8594C160.205 25.2412 158.157 26.832 155.248 27.1133V30.0312H161.576V31.6309H147.057V30.0312H153.314V27.1133C150.423 26.832 148.375 25.2412 148.393 22.8594C148.375 20.2754 150.889 18.5703 154.281 18.5703ZM154.281 20.1523C151.961 20.1348 150.291 21.1895 150.309 22.8594C150.291 24.582 151.961 25.6016 154.281 25.6016C156.637 25.6016 158.289 24.582 158.289 22.8594C158.289 21.1895 156.637 20.1348 154.281 20.1523ZM177.133 30.1016V31.7188H162.613V30.1016H168.871V27.5176H164.336V22.3145H173.477V20.3457H164.301V18.7637H175.41V23.8613H166.287V25.918H175.779V27.5176H170.805V30.1016H177.133ZM196.961 30.1016V31.7188H182.441V30.1016H188.699V27.5176H184.164V22.3145H193.305V20.3457H184.129V18.7637H195.238V23.8613H186.115V25.918H195.607V27.5176H190.633V30.1016H196.961ZM210.637 19.2207V21.0137C210.637 23.1406 210.637 25.3379 210.057 28.6777L208.07 28.502C208.686 25.373 208.686 23.0703 208.686 21.0137V20.8027H199.527V19.2207H210.637ZM212.482 29.7852V31.3848H197.998V29.7852H212.482ZM226.791 17.6914V29.1699H224.822V17.6914H226.791ZM227.23 31.666V33.248H216.279V28.0098H218.248V31.666H227.23ZM218.125 18.7285C220.533 18.7285 222.396 20.3984 222.396 22.7012C222.396 25.0566 220.533 26.6914 218.125 26.6914C215.699 26.6914 213.836 25.0566 213.836 22.7012C213.836 20.3984 215.699 18.7285 218.125 18.7285ZM218.125 20.4336C216.771 20.4336 215.734 21.3301 215.752 22.7012C215.734 24.1074 216.771 24.9863 218.125 24.9863C219.443 24.9863 220.48 24.1074 220.48 22.7012C220.48 21.3301 219.443 20.4336 218.125 20.4336Z" fill="#242729"/>
<defs>
<clipPath id="clip0_69_4635">
<rect width="20.9999" height="21" fill="white" transform="translate(16.834 17.5)"/>
</clipPath>
</defs>
</svg>
