<svg width="48" height="48" viewBox="0 0 48 48" fill="none" xmlns="http://www.w3.org/2000/svg">
  <title>새벽 학습</title>
  <defs>
    <linearGradient id="frog" x1=".15" y1="0" x2=".78" y2="1">
      <stop offset="0" stop-color="#E9FFD2"/><stop offset=".52" stop-color="#C8EDA5"/><stop offset="1" stop-color="#91C978"/>
    </linearGradient>
    <radialGradient id="eye" cx=".32" cy=".24" r=".82">
      <stop offset="0" stop-color="#5A4637"/><stop offset=".46" stop-color="#2A201C"/><stop offset="1" stop-color="#171311"/>
    </radialGradient>
    <linearGradient id="paper" x1=".2" y1="0" x2=".72" y2="1">
      <stop offset="0" stop-color="#FFFDF3"/><stop offset=".62" stop-color="#FFF0D2"/><stop offset="1" stop-color="#E8CFA9"/>
    </linearGradient>
    <linearGradient id="blue" x1=".12" y1="0" x2=".84" y2="1">
      <stop offset="0" stop-color="#90C4EE"/><stop offset=".55" stop-color="#679DD4"/><stop offset="1" stop-color="#456FA9"/>
    </linearGradient>
    <linearGradient id="coral" x1=".14" y1="0" x2=".82" y2="1">
      <stop offset="0" stop-color="#F8C0AF"/><stop offset=".56" stop-color="#E9948F"/><stop offset="1" stop-color="#C96D75"/>
    </linearGradient>
    <linearGradient id="purple" x1=".15" y1="0" x2=".82" y2="1">
      <stop offset="0" stop-color="#C9B9EA"/><stop offset=".57" stop-color="#9A84CB"/><stop offset="1" stop-color="#7463A8"/>
    </linearGradient>
    <linearGradient id="teal" x1=".14" y1="0" x2=".82" y2="1">
      <stop offset="0" stop-color="#A7DFC5"/><stop offset=".55" stop-color="#70BA94"/><stop offset="1" stop-color="#468D70"/>
    </linearGradient>
    <linearGradient id="gold" x1=".15" y1="0" x2=".78" y2="1">
      <stop offset="0" stop-color="#FFE8A4"/><stop offset=".54" stop-color="#EAC36D"/><stop offset="1" stop-color="#C8903F"/>
    </linearGradient>
    <linearGradient id="night" x1=".12" y1="0" x2=".84" y2="1">
      <stop offset="0" stop-color="#8A94CB"/><stop offset=".58" stop-color="#5D6FAE"/><stop offset="1" stop-color="#3F4D7C"/>
    </linearGradient>
  </defs>
  
    <path d="M5 35.5c5.8-7.8 12.2-11.3 19-11.3s13.2 3.5 19 11.3V44H5v-8.5Z" fill="url(#teal)" stroke="#3F8368" stroke-width="1.35"/>
    <circle cx="24" cy="24" r="12.4" fill="url(#gold)" stroke="#A97737" stroke-width="1.2"/>
    <path d="M15.5 19.8c2.25-4.4 5.9-6.5 10.9-6.2" stroke="#FFF" stroke-width="1.05" stroke-linecap="round" opacity=".48"/>
    <path d="M24 3v5M8.5 9.5l3.5 3.6M39.5 9.5 36 13.1M3 24h5M40 24h5" stroke="#D7AA52" stroke-width="2.2" stroke-linecap="round"/>
    <path d="M5.5 39c7.3-3.9 13.5-3.7 18.5.5 5-4.2 11.2-4.4 18.5-.5" stroke="#CFEBAF" stroke-width="2.2" stroke-linecap="round"/>
    <path d="M19.5 28.8c2.6-1.7 6.4-1.7 9 0l-1.3 4.1c-2.1-.5-4.2-.5-6.3 0l-1.4-4.1Z" fill="url(#frog)" stroke="#709D62" stroke-width=".85"/>
  
</svg>
