<svg width="48" height="48" viewBox="0 0 48 48" fill="none" xmlns="http://www.w3.org/2000/svg">
  <title>오늘 기분 남기기</title>
  <defs>
    <linearGradient id="frog" x1=".15" y1="0" x2=".78" y2="1">
      <stop offset="0" stop-color="#E9FFD2"/><stop offset=".52" stop-color="#C8EDA5"/><stop offset="1" stop-color="#91C978"/>
    </linearGradient>
    <radialGradient id="eye" cx=".32" cy=".24" r=".82">
      <stop offset="0" stop-color="#5A4637"/><stop offset=".46" stop-color="#2A201C"/><stop offset="1" stop-color="#171311"/>
    </radialGradient>
    <linearGradient id="paper" x1=".2" y1="0" x2=".72" y2="1">
      <stop offset="0" stop-color="#FFFDF3"/><stop offset=".62" stop-color="#FFF0D2"/><stop offset="1" stop-color="#E8CFA9"/>
    </linearGradient>
    <linearGradient id="blue" x1=".12" y1="0" x2=".84" y2="1">
      <stop offset="0" stop-color="#90C4EE"/><stop offset=".55" stop-color="#679DD4"/><stop offset="1" stop-color="#456FA9"/>
    </linearGradient>
    <linearGradient id="coral" x1=".14" y1="0" x2=".82" y2="1">
      <stop offset="0" stop-color="#F8C0AF"/><stop offset=".56" stop-color="#E9948F"/><stop offset="1" stop-color="#C96D75"/>
    </linearGradient>
    <linearGradient id="purple" x1=".15" y1="0" x2=".82" y2="1">
      <stop offset="0" stop-color="#C9B9EA"/><stop offset=".57" stop-color="#9A84CB"/><stop offset="1" stop-color="#7463A8"/>
    </linearGradient>
    <linearGradient id="teal" x1=".14" y1="0" x2=".82" y2="1">
      <stop offset="0" stop-color="#A7DFC5"/><stop offset=".55" stop-color="#70BA94"/><stop offset="1" stop-color="#468D70"/>
    </linearGradient>
    <linearGradient id="gold" x1=".15" y1="0" x2=".78" y2="1">
      <stop offset="0" stop-color="#FFE8A4"/><stop offset=".54" stop-color="#EAC36D"/><stop offset="1" stop-color="#C8903F"/>
    </linearGradient>
    <linearGradient id="night" x1=".12" y1="0" x2=".84" y2="1">
      <stop offset="0" stop-color="#8A94CB"/><stop offset=".58" stop-color="#5D6FAE"/><stop offset="1" stop-color="#3F4D7C"/>
    </linearGradient>
  </defs>
  
    <path d="M5 9.5A6.5 6.5 0 0 1 11.5 3h25A6.5 6.5 0 0 1 43 9.5v20a6.5 6.5 0 0 1-6.5 6.5H23l-9.4 7 .95-7H11.5A6.5 6.5 0 0 1 5 29.5v-20Z" fill="url(#coral)" stroke="#AA6268" stroke-width="1.35" stroke-linejoin="round"/>
    <path d="M8 10c.5-2.5 2.3-4 5-4h18" stroke="#FFF" stroke-opacity=".5" stroke-width="1.2" stroke-linecap="round"/>
    <ellipse cx="24" cy="21.5" rx="13.2" ry="10.7" fill="#FFF5DD" fill-opacity=".8"/>
    <path d="M24 18.2c-2.8-3.7-8-1.15-6.5 3.15C18.6 24.5 24 27.7 24 27.7s5.4-3.2 6.5-6.35c1.5-4.3-3.7-6.85-6.5-3.15Z" fill="url(#purple)" stroke="#7463A8" stroke-width="1.05"/>
    <path d="M19.7 19.4c.8-1.3 2.2-1.75 3.35-1.05" stroke="#FFF" stroke-opacity=".6" stroke-width=".95" stroke-linecap="round"/>
    <path d="M17.5 31c4.2 1.7 8.8 1.7 13 0" stroke="url(#teal)" stroke-width="1.65" stroke-linecap="round"/>
    <path d="M38.3 6.3c.55 2 1.45 2.9 2.2 2.2-.05 0-.05 0 0 0-2.05.55-2.95 1.45-2.2 2.2-.55-2-1.45-2.9-2.2-2.2 2.05-.55 2.95-1.45 2.2-2.2Z" fill="#FFE8A4"/>
  
</svg>
