<svg width="48" height="48" viewBox="0 0 48 48" fill="none" xmlns="http://www.w3.org/2000/svg">
  <title>태그 달기</title>
  <defs>
    <linearGradient id="frog" x1=".15" y1="0" x2=".78" y2="1">
      <stop offset="0" stop-color="#E9FFD2"/><stop offset=".52" stop-color="#C8EDA5"/><stop offset="1" stop-color="#91C978"/>
    </linearGradient>
    <radialGradient id="eye" cx=".32" cy=".24" r=".82">
      <stop offset="0" stop-color="#5A4637"/><stop offset=".46" stop-color="#2A201C"/><stop offset="1" stop-color="#171311"/>
    </radialGradient>
    <linearGradient id="paper" x1=".2" y1="0" x2=".72" y2="1">
      <stop offset="0" stop-color="#FFFDF3"/><stop offset=".62" stop-color="#FFF0D2"/><stop offset="1" stop-color="#E8CFA9"/>
    </linearGradient>
    <linearGradient id="blue" x1=".12" y1="0" x2=".84" y2="1">
      <stop offset="0" stop-color="#90C4EE"/><stop offset=".55" stop-color="#679DD4"/><stop offset="1" stop-color="#456FA9"/>
    </linearGradient>
    <linearGradient id="coral" x1=".14" y1="0" x2=".82" y2="1">
      <stop offset="0" stop-color="#F8C0AF"/><stop offset=".56" stop-color="#E9948F"/><stop offset="1" stop-color="#C96D75"/>
    </linearGradient>
    <linearGradient id="purple" x1=".15" y1="0" x2=".82" y2="1">
      <stop offset="0" stop-color="#C9B9EA"/><stop offset=".57" stop-color="#9A84CB"/><stop offset="1" stop-color="#7463A8"/>
    </linearGradient>
    <linearGradient id="teal" x1=".14" y1="0" x2=".82" y2="1">
      <stop offset="0" stop-color="#A7DFC5"/><stop offset=".55" stop-color="#70BA94"/><stop offset="1" stop-color="#468D70"/>
    </linearGradient>
    <linearGradient id="gold" x1=".15" y1="0" x2=".78" y2="1">
      <stop offset="0" stop-color="#FFE8A4"/><stop offset=".54" stop-color="#EAC36D"/><stop offset="1" stop-color="#C8903F"/>
    </linearGradient>
    <linearGradient id="night" x1=".12" y1="0" x2=".84" y2="1">
      <stop offset="0" stop-color="#8A94CB"/><stop offset=".58" stop-color="#5D6FAE"/><stop offset="1" stop-color="#3F4D7C"/>
    </linearGradient>
  </defs>
  
    <path d="M5 8.5A4.5 4.5 0 0 1 9.5 4h15.7L44 22.8 23.1 43.5 5 25.5v-17Z" fill="url(#purple)" stroke="#665893" stroke-width="1.4" stroke-linejoin="round"/>
    <path d="M8 9.2A2.2 2.2 0 0 1 10.2 7h12.5L39.8 24" stroke="#FFF" stroke-width="1.15" stroke-linecap="round" opacity=".43"/>
    <circle cx="13" cy="12" r="3.3" fill="url(#paper)" stroke="#8A719B" stroke-width="1.05"/>
    <path d="M16.5 4.5c-3.9-2.9-8.7-1-8.5 3.7" stroke="url(#gold)" stroke-width="2.2" stroke-linecap="round"/>
    <path d="M15.6 27.3c2.5-1.8 5.7-2.1 8.5-.5 2-1.45 4.9-1.65 7.2-.25l-1.3 6.35c-4.5-1.35-8.8-1.25-13 .25l-1.4-5.85Z" fill="url(#frog)" stroke="#709D62" stroke-width="1.05"/>
    <path d="M19.7 29.3c2.35-.8 4.55-.75 6.7.2" stroke="#FFF" stroke-width=".9" stroke-linecap="round" opacity=".55"/>
  
</svg>
