<svg width="32" height="38" viewBox="0 0 32 38" fill="none" xmlns="http://www.w3.org/2000/svg">
<path d="M3.68656 30.6716L3.68656 10.6803C3.68656 8.90191 5.1282 7.46027 6.90655 7.46027L21.3198 7.46027C23.0982 7.46027 24.5398 8.90191 24.5398 10.6803L24.5398 30.6716C24.5398 32.4499 23.0982 33.8916 21.3199 33.8916L6.90656 33.8916C5.1282 33.8916 3.68656 32.4499 3.68656 30.6716Z" fill="#C5ECB3" stroke="#343A40" stroke-width="0.919998"/>
<path d="M5.71469 28.9456C6.20325 28.9456 6.5993 29.3417 6.5993 29.8302C6.5993 30.3188 6.20325 30.7148 5.71469 30.7148C5.22613 30.7148 4.83008 30.3188 4.83008 29.8302C4.83008 29.3417 5.22613 28.9456 5.71469 28.9456Z" fill="#343A40"/>
<path d="M2 29.8315C2 29.5384 2.26404 29.3008 2.58974 29.3008L4.94871 29.3008C5.27442 29.3008 5.53845 29.5384 5.53845 29.8315C5.53845 30.1247 5.27442 30.3623 4.94871 30.3623L2.58974 30.3623C2.26404 30.3623 2 30.1247 2 29.8315Z" fill="#343A40"/>
<path d="M5.71469 26.2581C6.20325 26.2581 6.5993 26.6542 6.5993 27.1427C6.5993 27.6313 6.20325 28.0273 5.71469 28.0273C5.22613 28.0273 4.83008 27.6313 4.83008 27.1427C4.83008 26.6542 5.22613 26.2581 5.71469 26.2581Z" fill="#343A40"/>
<path d="M2 27.1411C2 26.848 2.26404 26.6103 2.58974 26.6103L4.94871 26.6103C5.27442 26.6103 5.53845 26.848 5.53845 27.1411C5.53845 27.4342 5.27442 27.6719 4.94871 27.6719L2.58974 27.6719C2.26404 27.6719 2 27.4342 2 27.1411Z" fill="#343A40"/>
<path d="M5.71469 23.5667C6.20325 23.5667 6.5993 23.9628 6.5993 24.4513C6.5993 24.9399 6.20325 25.3359 5.71469 25.3359C5.22613 25.3359 4.83008 24.9399 4.83008 24.4513C4.83008 23.9628 5.22613 23.5667 5.71469 23.5667Z" fill="#343A40"/>
<path d="M2 24.4526C2 24.1595 2.26404 23.9219 2.58974 23.9219L4.94871 23.9219C5.27442 23.9219 5.53845 24.1595 5.53845 24.4526C5.53845 24.7458 5.27442 24.9834 4.94871 24.9834L2.58974 24.9834C2.26404 24.9834 2 24.7458 2 24.4526Z" fill="#343A40"/>
<path d="M5.71469 20.8792C6.20325 20.8792 6.5993 21.2753 6.5993 21.7638C6.5993 22.2524 6.20325 22.6484 5.71469 22.6484C5.22613 22.6484 4.83008 22.2524 4.83008 21.7638C4.83008 21.2753 5.22613 20.8792 5.71469 20.8792Z" fill="#343A40"/>
<path d="M2 21.7632C2 21.47 2.26404 21.2324 2.58974 21.2324L4.94871 21.2324C5.27442 21.2324 5.53845 21.47 5.53845 21.7632C5.53845 22.0563 5.27442 22.2939 4.94871 22.2939L2.58974 22.2939C2.26404 22.2939 2 22.0563 2 21.7632Z" fill="#343A40"/>
<path d="M5.71469 18.1888C6.20325 18.1888 6.5993 18.5848 6.5993 19.0734C6.5993 19.562 6.20325 19.958 5.71469 19.958C5.22613 19.958 4.83008 19.562 4.83008 19.0734C4.83008 18.5848 5.22613 18.1888 5.71469 18.1888Z" fill="#343A40"/>
<path d="M2 19.0747C2 18.7816 2.26404 18.5439 2.58974 18.5439L4.94871 18.5439C5.27442 18.5439 5.53845 18.7816 5.53845 19.0747C5.53845 19.3678 5.27442 19.6055 4.94871 19.6055L2.58974 19.6055C2.26404 19.6055 2 19.3678 2 19.0747Z" fill="#343A40"/>
<path d="M5.71469 15.5003C6.20325 15.5003 6.5993 15.8964 6.5993 16.3849C6.5993 16.8735 6.20325 17.2695 5.71469 17.2695C5.22613 17.2695 4.83008 16.8735 4.83008 16.3849C4.83008 15.8964 5.22613 15.5003 5.71469 15.5003Z" fill="#343A40"/>
<path d="M2 16.3843C2 16.0911 2.26404 15.8535 2.58974 15.8535L4.94871 15.8535C5.27442 15.8535 5.53845 16.0911 5.53845 16.3843C5.53845 16.6774 5.27442 16.915 4.94871 16.915L2.58974 16.915C2.26404 16.915 2 16.6774 2 16.3843Z" fill="#343A40"/>
<path d="M5.71469 12.8099C6.20325 12.8099 6.5993 13.2059 6.5993 13.6945C6.5993 14.183 6.20325 14.5791 5.71469 14.5791C5.22613 14.5791 4.83008 14.183 4.83008 13.6945C4.83008 13.2059 5.22613 12.8099 5.71469 12.8099Z" fill="#343A40"/>
<path d="M2 13.6938C2 13.4007 2.26404 13.1631 2.58974 13.1631L4.94871 13.1631C5.27442 13.1631 5.53845 13.4007 5.53845 13.6938C5.53845 13.987 5.27442 14.2246 4.94871 14.2246L2.58974 14.2246C2.26404 14.2246 2 13.987 2 13.6938Z" fill="#343A40"/>
<path d="M5.71469 10.1234C6.20325 10.1234 6.5993 10.5194 6.5993 11.008C6.5993 11.4965 6.20325 11.8926 5.71469 11.8926C5.22613 11.8926 4.83008 11.4965 4.83008 11.008C4.83008 10.5194 5.22613 10.1234 5.71469 10.1234Z" fill="#343A40"/>
<path d="M2 11.0083C2 10.7152 2.26404 10.4775 2.58974 10.4775L4.94871 10.4775C5.27442 10.4775 5.53845 10.7152 5.53845 11.0083C5.53845 11.3014 5.27442 11.5391 4.94871 11.5391L2.58974 11.5391C2.26404 11.5391 2 11.3014 2 11.0083Z" fill="#343A40"/>
<path d="M11.1488 18.332C10.1799 18.3348 9.36362 19.1502 9.36179 20.1172C9.35995 21.0791 10.1574 21.9101 11.0872 21.9147C12.0712 21.9198 12.8811 21.0957 12.8848 20.0869C12.8884 19.0932 12.1328 18.3293 11.1488 18.332ZM11.7836 18.9536C12.079 18.9494 12.2894 19.1539 12.2963 19.4511C12.3027 19.7249 12.0909 19.944 11.8107 19.9541C11.5195 19.9647 11.2935 19.7405 11.2884 19.4373C11.2838 19.158 11.4892 18.9573 11.7836 18.9531V18.9536Z" fill="#18231C"/>
<path d="M17.8652 20.1067C17.8693 21.0448 18.7128 21.8988 19.6357 21.8992C20.553 21.8992 21.3542 21.07 21.3496 20.1251C21.3445 19.1301 20.531 18.3317 19.5245 18.334C18.6351 18.3358 17.8611 19.1632 17.8652 20.1067ZM20.2554 18.9555C20.5544 18.9537 20.7657 19.1604 20.7648 19.4544C20.7639 19.7415 20.5737 19.9538 20.3123 19.9602C20.0165 19.9675 19.7785 19.7319 19.7698 19.4232C19.7624 19.1567 19.9696 18.9574 20.2554 18.9555Z" fill="#18231C"/>
<path d="M16.5211 22.1351C16.5859 22.0488 16.607 21.9077 16.5974 21.7961C16.5919 21.7309 16.4931 21.6431 16.4214 21.6248C16.3636 21.6101 16.2744 21.6744 16.2156 21.7235C16.1651 21.7653 16.1403 21.837 16.0999 21.8926C15.7788 22.3377 15.1531 22.2932 14.8986 21.8071C14.8283 21.673 14.7792 21.5012 14.5679 21.6032C14.4089 21.6799 14.3556 21.8793 14.4668 22.0598C14.9221 22.8021 16.0198 22.8048 16.5211 22.1351Z" fill="#18231C"/>
<path d="M11.7841 18.9541C11.4896 18.9582 11.2843 19.1585 11.2889 19.4383C11.2935 19.7415 11.5199 19.9657 11.8112 19.9551C12.0914 19.945 12.3032 19.7254 12.2967 19.4521C12.2898 19.1548 12.0794 18.9504 11.7841 18.9546V18.9541Z" fill="white"/>
<path d="M20.2552 18.9551C19.9695 18.9569 19.7623 19.1563 19.7696 19.4227C19.7779 19.731 20.0163 19.9671 20.3122 19.9597C20.5735 19.9533 20.7637 19.7406 20.7646 19.454C20.7656 19.16 20.5547 18.9533 20.2552 18.9551Z" fill="white"/>
<path d="M19.9183 23.8217C19.4956 23.8217 19.1529 23.479 19.1529 23.0563C19.1529 22.6337 19.4956 22.291 19.9183 22.291C20.3409 22.291 20.6836 22.6337 20.6836 23.0563C20.6836 23.479 20.3409 23.8217 19.9183 23.8217Z" fill="#FEB7B7"/>
<path d="M10.6517 23.8217C10.229 23.8217 9.88635 23.479 9.88635 23.0563C9.88635 22.6337 10.229 22.291 10.6517 22.291C11.0743 22.291 11.417 22.6337 11.417 23.0563C11.417 23.479 11.0743 23.8217 10.6517 23.8217Z" fill="#FEB7B7"/>
<circle cx="21.1671" cy="11.4882" r="1.25454" transform="rotate(-90 21.1671 11.4882)" fill="#343A40" stroke="#343A40" stroke-width="0.250908"/>
<circle cx="21.1671" cy="11.4882" r="0.766679" transform="rotate(-90 21.1671 11.4882)" fill="#C5ECB3"/>
<path d="M28.5 1V8" stroke="#1C5A00"/>
<line x1="25" y1="4.5" x2="32" y2="4.5" stroke="#1C5A00"/>
</svg>
