<svg width="303" height="282" viewBox="0 0 303 282" fill="none" xmlns="http://www.w3.org/2000/svg">
<g clip-path="url(#clip0_164_5365)">
<path d="M239.367 229.304C239.367 231.144 239.21 233.002 239.406 234.82C239.677 237.359 236.625 240.137 233.541 240.397C230.089 240.69 226.997 238.144 226.976 235.113C226.922 227.172 227.001 219.23 226.976 211.289C226.954 204.005 226.83 196.723 226.815 189.442C226.801 182.232 226.865 175.018 226.894 167.808C226.894 167.69 226.912 167.569 226.912 167.451C226.955 164.224 226.773 164.16 223.581 164.199C218.4 164.267 213.215 164.146 208.034 164.142C202.379 164.142 196.727 164.199 191.072 164.214C185.645 164.228 180.214 164.214 175.068 164.214C173.346 166.218 171.692 168.147 169.848 170.29C171.692 175.674 170.782 181.198 167.349 186.55C170.872 186.789 173.749 188.269 176.092 190.758C178.862 193.703 180.428 197.144 180.31 201.273C180.253 203.199 180.485 205.142 180.285 207.046C179.836 211.325 176.759 214.331 172.44 214.93C171.271 215.094 170.094 215.198 168.935 215.326C168.935 218.86 168.946 222.326 168.935 225.788C168.91 231.34 168.825 236.895 168.85 242.447C168.871 247.536 168.935 252.628 169.121 257.713C169.246 261.161 167.994 263.849 164.888 265.19C161.123 266.813 155.482 264.851 155.499 259.613C155.531 249.622 155.35 239.63 155.264 229.639C155.246 227.361 155.264 225.082 154.957 222.689C154.205 224.344 153.42 225.984 152.711 227.656C151.523 230.448 149.79 232.581 146.674 233.383C144.474 233.947 142.288 233.469 141.008 231.55C139.738 229.646 138.166 228.284 136.069 227.371C135.014 226.915 134.14 226.038 133.035 225.246C130.892 227.296 128.699 229.479 126.413 231.554C124.684 233.123 122.444 233.508 120.262 233.283C118.34 233.087 116.479 232.324 114.567 231.807C114.567 237.355 114.567 243.175 114.567 248.991C114.567 252.592 114.703 256.197 114.553 259.792C114.368 264.245 112.407 265.376 109.119 265.568C104.74 265.828 101.649 263.443 101.602 259.856C101.46 249.137 101.438 238.418 101.388 227.703C101.367 223.563 101.388 219.427 101.388 215.226C99.8585 215.037 98.4393 214.952 97.0594 214.673C93.383 213.928 89.992 210.815 89.5961 207.656C89.3287 205.513 89.3572 203.331 89.3251 201.163C89.2717 197.632 89.6068 194.134 92.2705 191.506C93.8822 189.916 95.8327 188.661 97.6656 187.302C98.1148 186.971 98.7032 186.824 99.4306 186.504C96.7991 182.802 95.7543 178.723 96.3676 174.476C96.8026 171.452 96.2357 169.502 94.0427 167.127C92.078 164.998 90.4698 164.182 87.7241 164.296C82.6036 164.51 77.4653 164.356 72.0595 164.356C72.0595 167.377 72.0702 170.418 72.0595 173.463C72.0381 178.445 71.9668 183.43 71.9775 188.411C71.9882 193.5 72.1023 198.588 72.1023 203.676C72.1023 206.843 71.9133 210.009 71.9133 213.176C71.9133 216.531 72.0809 219.887 72.0987 223.242C72.1166 226.487 72.031 229.728 72.0167 232.973C72.0132 233.793 72.138 234.617 72.138 235.437C72.138 237.47 70.9292 239.267 69.0108 239.884C66.1795 240.793 63.441 240.689 61.33 238.308C60.6525 237.544 60.2674 236.4 60.0677 235.369C59.7468 233.718 59.6898 232.014 59.4758 229.849C58.4417 231.518 57.8855 233.048 56.8121 233.993C55.2824 235.344 55.4821 236.867 55.4964 238.543C55.5427 244.387 55.5142 250.235 55.4964 256.079C55.4928 257.367 55.6212 258.7 55.3252 259.923C55.0792 260.947 54.5086 262.099 53.717 262.748C51.4207 264.634 48.6536 264.762 46.0113 263.728C43.2585 262.651 41.9534 260.44 42.1817 257.385C42.2851 255.976 42.1959 254.55 42.1924 253.131C42.1745 246.758 42.1567 240.39 42.1424 234.018C42.1175 224.037 42.0818 214.053 42.0747 204.072C42.0711 195.482 42.1068 186.896 42.1175 178.306C42.1246 173.677 42.1175 169.049 42.1175 164.392C39.6036 164.392 37.2038 164.385 34.804 164.392C32.7893 164.399 30.8246 164.349 29.0238 163.165C25.918 161.133 26.0072 158.138 26 154.914C25.9858 148.588 30.4323 145.015 34.0302 140.84C36.7866 137.645 39.1614 134.086 42.1531 131.148C43.8897 129.444 42.9447 128.021 42.9198 126.384C42.8485 121.367 42.8984 116.346 42.8235 111.326C42.7843 108.862 43.4796 106.801 45.6405 105.314C44.3996 103.203 43.1373 101.199 42.0533 99.1057C41.7466 98.5137 41.9107 97.6437 41.9499 96.9091C42.039 95.2189 42.335 93.5216 42.2672 91.8421C42.1817 89.7989 42.5703 89.0073 44.4887 88.0838C46.1433 87.2886 47.2701 88.0053 48.4182 89.1178C52.1089 92.7015 53.7456 97.4262 55.6889 101.983C55.8957 102.468 56.1133 102.95 56.3129 103.438C56.7194 104.429 57.2151 104.761 58.4489 104.465C61.9933 103.62 65.3986 104.476 68.5472 106.116C70.2731 107.015 71.0183 108.655 70.8008 110.709C70.7509 111.169 71.2358 111.75 71.5995 112.164C71.8527 112.449 72.4232 112.442 72.6871 112.72C74.7232 114.881 77.2192 114.76 79.9114 114.538C83.4844 114.25 87.093 114.364 90.6837 114.243C91.1401 114.228 91.7249 113.964 92.0066 113.615C92.6271 112.841 93.0906 111.946 93.6112 111.105C89.047 106.612 85.2637 101.702 83.1848 95.711C80.7316 88.6472 80.3037 81.4228 81.6515 74.0416C82.4146 69.8661 83.6377 65.9223 85.8592 62.2923C86.0553 61.9714 85.9697 61.2689 85.7415 60.9266C81.1844 54.1551 80.8314 46.8845 84.2367 39.7778C89.0221 29.7936 100.08 25.2579 110.346 29.7009C113.655 31.1343 116.568 33.3808 118.354 36.7077C118.911 37.7453 119.513 37.8452 120.633 37.5207C126.238 35.8982 131.961 35.4917 137.731 36.376C140.198 36.754 142.613 37.485 145.069 37.945C145.44 38.0163 146.086 37.592 146.332 37.2176C150.418 31.0523 156.216 27.9928 163.53 28.1319C171.267 28.2781 177.076 32.1541 180.471 38.8935C184.14 46.1784 183.619 53.5097 178.517 60.1742C177.668 61.2832 177.668 62.0748 178.367 63.28C181.045 67.8799 181.979 72.979 182.421 78.2208C182.999 85.035 182.09 91.5711 178.991 98.0965C181.594 98.0965 183.994 98.1928 186.372 98.0359C187.078 97.9896 187.841 97.3442 188.397 96.7915C189.738 95.4507 190.954 93.9852 192.256 92.6016C193.151 91.6496 194.192 91.4392 195.201 92.3877C197.169 94.2419 199.141 96.0997 201.01 98.0502C202.012 99.0985 201.334 100.101 200.571 101.021C199.066 102.846 197.601 104.7 196.096 106.526C195.472 107.286 195.322 107.903 195.936 108.862C196.888 110.349 197.562 112.01 198.339 113.604C198.713 114.374 199.163 114.517 200.108 114.478C203.235 114.357 206.376 114.499 209.511 114.581C211.543 114.635 213.604 115.027 215.605 114.806C218.425 114.496 221.203 113.772 223.991 113.194C225.204 112.945 226.398 112.624 227.771 112.292C228.085 110.288 229.098 108.591 231.137 107.621C231.422 107.485 231.672 107.129 231.793 106.815C233.883 101.502 235.723 96.0747 238.133 90.915C239.089 88.8718 237.93 87.3385 238.14 85.5734C238.276 84.4288 238.265 83.2628 238.233 82.111C238.219 81.6261 238.137 81.0056 237.834 80.6919C234.132 76.8729 230.385 73.1003 226.573 69.2421C225.903 70.704 225.264 72.2587 224.491 73.7421C223.92 74.8368 223.264 75.9137 222.49 76.8764C220.975 78.7592 218.764 78.5096 216.738 78.3563C213.091 78.0781 209.842 76.4806 206.847 74.5337C204.593 73.0717 202.539 71.2639 200.528 69.4631C197.505 66.7567 195.123 63.5011 193.789 59.6786C193.133 57.7923 192.22 55.6064 193.482 53.6203C194.338 52.2724 195.386 50.8639 196.699 50.0224C201.049 47.2268 205.656 44.9054 211.001 44.8555C212.313 44.8413 213.337 44.8805 214.1 43.5326C218.364 36.0195 226.188 37.3174 230.431 43.1261C231.455 44.5275 232.079 46.3282 232.489 48.0398C233.063 50.4182 231.501 52.1833 230.021 53.7415C228.413 55.4424 228.352 55.4353 229.953 57.1469C232.289 59.65 234.557 62.2174 236.842 64.767C240.016 68.3114 243.111 71.9271 246.381 75.3788C247.155 76.1954 248.435 76.6375 249.565 76.9834C251.152 77.4684 253.862 80.5243 254.365 82.3785C255.435 86.3258 254.311 89.5279 251.052 91.81C249.127 93.1579 248.249 95.0014 247.39 97.009C245.411 101.641 243.361 106.241 241.321 110.848C240.783 112.064 241.507 112.495 242.466 112.702C244.719 113.194 246.98 113.64 249.244 114.078C251.994 114.613 254.329 115.929 256.401 117.776C258.334 119.499 258.48 121.848 258.351 124.12C258.287 125.3 258.619 125.896 259.361 126.662C261.767 129.14 264.082 131.708 266.417 134.254C270.047 138.208 273.62 142.22 277.314 146.117C279.422 148.339 280.584 150.831 280.431 153.912C280.37 155.096 280.385 156.287 280.385 157.474C280.385 161.646 277.168 164.67 273.003 164.556C268.632 164.435 264.253 164.453 259.878 164.396C258.954 164.385 258.273 164.478 258.301 165.711C258.448 171.705 258.605 177.7 258.637 183.694C258.683 193.068 258.644 202.443 258.619 211.821C258.587 223.049 258.519 234.275 258.498 245.503C258.49 249.754 258.537 254.004 258.637 258.251C258.719 261.785 256.244 264.352 252.653 264.174C251.273 264.106 249.804 263.971 248.553 263.443C244.887 261.899 244.751 258.583 244.769 255.242C244.794 250.214 244.623 245.175 244.855 240.158C244.98 237.455 244.22 235.384 242.462 233.412C241.353 232.164 240.612 230.588 239.706 229.158L239.349 229.311L239.367 229.304ZM174.666 143.978C175.678 143.511 176.712 143.086 177.7 142.569C182.122 140.251 185.317 136.928 186.069 131.797C186.554 128.484 186.03 125.364 183.256 123.104C182.656 122.615 181.608 122.255 180.895 122.412C179.626 122.693 178.427 123.364 177.244 123.959C174.459 125.357 171.513 126.334 168.429 125.742C164.685 125.025 160.973 124.045 157.343 122.89C155.617 122.34 154.102 121.631 152.247 122.401C151.876 122.554 151.003 121.838 150.579 121.335C150.45 121.182 150.932 120.226 151.345 119.955C152.732 119.046 154.18 118.222 155.66 117.47C163.373 113.561 169.278 107.785 173.771 100.425C176.933 95.2439 178.659 89.56 178.909 83.655C179.216 76.4628 177.572 69.4703 174.209 63.0197C173.371 61.4116 173.674 60.381 174.819 59.1366C178.178 55.4923 179.494 51.2134 178.734 46.2426C177.565 38.5583 172.658 33.7266 165.263 32.0935C158.969 30.7028 151.648 34.4648 148.357 40.4197C147.986 41.0865 147.53 41.7069 147.088 42.3916C146.599 42.2418 146.146 42.1241 145.711 41.9637C137.05 38.7794 128.389 38.4478 119.752 42.0136C118.066 42.7089 117.146 42.3666 116.293 40.6443C113.697 35.3919 109.479 32.1327 103.538 31.7619C95.2123 31.2413 88.2661 36.5722 86.4618 44.7272C85.8699 47.4015 85.6452 50.1044 86.312 52.9107C86.9396 55.5565 88.3838 57.6033 89.9278 59.6679C90.5625 60.513 90.7372 61.2154 90.0419 62.1853C89.0149 63.6224 87.8632 65.0915 87.3247 66.7317C85.4313 72.5333 84.2296 78.5238 84.6825 84.6463C85.2673 92.5446 88.3232 99.4979 93.3937 105.61C98.1826 111.383 104.009 115.694 110.88 118.668C113.319 119.723 113.284 119.805 112.132 122.276C111.201 122.077 110.21 121.806 109.197 121.674C108.531 121.588 107.785 121.552 107.161 121.756C102.044 123.439 96.9809 125.279 91.839 126.883C88.3659 127.967 84.9963 129.18 82.4931 131.932C79.6511 135.06 79.102 141.036 84.8536 142.954C86.633 143.546 88.53 143.767 90.345 144.27C91.3648 144.552 91.7428 144.242 92.2134 143.315C94.4171 138.989 98.0721 136.604 102.875 136.536C113.712 136.383 124.548 136.475 135.388 136.432C139.207 136.418 143.026 136.244 146.845 136.251C151.623 136.261 156.401 136.468 161.18 136.44C165.081 136.418 168.753 136.957 171.57 139.941C172.733 141.171 173.646 142.633 174.662 143.974L174.666 143.978ZM103.984 168.022C103.959 167.633 103.913 167.352 103.927 167.07C104.041 164.948 104.152 162.823 104.302 160.705C104.384 159.539 105.197 158.94 106.216 159.143C106.612 159.222 107.036 160.249 107.069 160.862C107.265 164.684 107.393 168.51 107.461 172.337C107.582 179.015 107.782 185.701 107.639 192.376C107.6 194.263 108.349 194.43 109.675 194.487C110.203 194.509 110.738 194.388 111.269 194.395C112.888 194.416 113.562 193.764 113.523 192.031C113.444 188.721 113.647 185.409 113.647 182.096C113.647 177.207 113.573 172.319 113.544 167.43C113.53 164.802 113.544 162.178 113.544 159.539C116.3 159.703 116.604 159.96 116.661 162.288C116.707 164.21 116.671 166.136 116.671 168.125H149.434C149.477 167.569 149.541 167.109 149.541 166.646C149.548 164.752 149.398 162.841 149.605 160.969C149.673 160.355 150.582 159.51 151.238 159.364C152.197 159.15 152.95 159.582 152.928 160.969C152.864 165.636 153.057 170.311 152.978 174.979C152.886 180.427 152.575 185.872 152.443 191.324C152.422 192.248 152.504 193.517 153.078 194.042C154.287 195.143 155.895 194.855 157.414 194.395C158.744 193.992 158.84 192.951 158.883 191.863C158.912 191.1 158.851 190.337 158.858 189.574C158.951 181.854 159.058 174.134 159.144 166.414C159.172 163.857 159.147 161.3 159.147 158.708C154.786 159.56 152.115 158.337 150.739 154.996C149.862 152.86 150.643 150.599 152.764 149.134C155.293 147.387 159.561 147.558 161.493 149.733C164.546 153.174 161.932 155.795 159.825 158.501C162.253 159.25 162.217 161.24 162.367 163.126C162.499 164.809 162.602 166.492 162.72 168.19C163.048 168.168 163.223 168.168 163.394 168.14C163.626 168.1 163.854 168.011 164.089 167.993C168.468 167.64 171.135 165.027 171.831 160.987C172.469 157.264 172.587 153.356 172.273 149.587C171.738 143.115 167.252 139.617 161.144 139.528C155.724 139.446 150.3 139.471 144.88 139.471C138.469 139.471 132.058 139.51 125.646 139.52C118.975 139.528 112.3 139.531 105.628 139.513C99.8906 139.496 94.7523 142.081 94.114 148.713C93.7824 152.176 93.8145 155.542 94.2174 158.961C94.7309 163.308 98.368 168.418 103.984 168.043V168.022ZM200.282 117.826C200.557 118.436 200.824 119.024 201.088 119.613C204.433 127.108 207.817 134.589 211.108 142.109C212.631 145.589 211.743 146.791 207.831 146.859C207.713 146.859 207.596 146.845 207.475 146.841C204.29 146.766 201.106 146.638 197.925 146.631C192.58 146.62 187.231 146.631 181.886 146.741C179.889 146.78 177.896 147.116 175.518 147.358C176.274 148.449 176.67 149.02 176.801 149.209H274.922C268.956 142.644 263.197 136.308 257.324 129.843C254.329 133.077 250.218 133.744 246.135 134.011C240.676 134.364 235.181 134.457 229.711 134.3C226.248 134.2 222.761 133.64 219.363 132.92C215.18 132.032 213.044 129.408 213.016 125.742C212.994 123.079 213.012 120.415 213.012 117.83H200.286L200.282 117.826ZM176.021 160.662C176.331 160.716 176.502 160.776 176.673 160.776C183.345 160.716 190.013 160.598 196.684 160.591C203.263 160.584 209.842 160.726 216.425 160.719C221.802 160.712 227.183 160.502 232.56 160.527C241.146 160.566 249.733 160.705 258.319 160.837C263.012 160.908 267.705 161.051 272.397 161.158C274.119 161.197 276.302 159.76 276.434 158.255C276.598 156.405 276.473 154.529 276.473 152.789H176.473C176.306 155.709 176.167 158.145 176.024 160.659L176.021 160.662ZM90.7586 148.382C90.7015 148.246 90.6481 148.107 90.591 147.971C88.8509 147.729 87.1108 147.462 85.3671 147.251C80.564 146.666 76.0318 141.92 76.5096 137.716C77.0089 133.352 78.9914 129.686 82.6928 127.211C85.2673 125.489 87.3889 123.492 88.5549 120.568C88.9222 119.652 89.4286 118.792 89.9313 117.79H77.4546C77.5259 118.208 77.583 118.668 77.6828 119.117C78.8274 124.23 76.1245 128.331 70.9506 129.379C70.6118 129.447 70.1269 129.789 70.0662 130.078C69.5635 132.474 67.6023 133.362 65.6803 133.594C61.5404 134.09 57.3435 134.339 53.1715 134.297C51.089 134.275 49.028 133.334 46.9313 132.92C46.4535 132.824 45.6975 133.02 45.3802 133.369C41.6468 137.488 37.9704 141.656 34.2905 145.818C33.4312 146.791 32.6075 147.793 31.7695 148.784C31.8693 148.934 31.9656 149.088 32.0655 149.237C33.2707 149.177 34.476 149.07 35.6848 149.066C43.8611 149.038 52.0411 148.995 60.2175 149.034C65.5412 149.059 70.8614 149.252 76.1816 149.312C80.5782 149.366 84.9749 149.366 89.3715 149.305C89.8351 149.298 90.2915 148.706 90.7515 148.389L90.7586 148.382ZM116.967 191.677C119.535 192.419 122.198 193.443 124.958 193.928C130.132 194.84 135.378 194.994 140.601 194.284C142.93 193.967 145.237 193.432 147.505 192.815C148.065 192.662 148.813 191.824 148.838 191.275C149.095 185.227 149.188 179.169 149.416 173.121C149.47 171.705 148.913 171.424 147.658 171.445C144.353 171.502 141.044 171.445 137.735 171.442C130.881 171.438 124.031 171.442 116.967 171.442V191.681V191.677ZM248.296 164.438C248.296 168.988 248.285 173.321 248.296 177.653C248.317 186.903 248.374 196.153 248.374 205.402C248.374 215.244 248.328 225.086 248.31 234.927C248.296 242.565 248.292 250.203 248.292 257.841C248.292 259.77 249.729 260.808 252.257 260.736C254.033 260.687 255.171 259.488 255.096 257.713C255.028 256.072 254.86 254.436 254.868 252.799C254.889 248.121 255.014 243.439 255.035 238.76C255.074 228.819 255.085 218.881 255.089 208.94C255.089 199.651 255.089 190.362 255.032 181.073C255.014 178.252 254.775 175.432 254.714 172.608C254.657 169.915 254.704 167.216 254.704 164.438H248.296ZM45.2768 164.278C45.4729 165.451 45.7332 166.257 45.7189 167.056C45.6369 170.982 45.4408 174.9 45.3659 178.826C45.2803 183.259 45.2162 187.691 45.2625 192.123C45.3124 197.08 45.587 202.036 45.6013 206.993C45.6227 214.171 45.4586 221.352 45.4586 228.53C45.4586 233.287 45.6191 238.047 45.669 242.804C45.7189 247.589 45.7617 252.375 45.7261 257.156C45.7047 260.109 47.9725 261.592 50.6433 260.137C51.3351 259.759 52.1017 258.8 52.1409 258.073C52.2943 255.302 52.1695 252.514 52.1409 249.732C52.0589 241.178 51.9413 232.624 51.9056 224.069C51.8878 219.651 52.0732 215.23 52.0625 210.808C52.034 199.052 51.9413 187.299 51.8842 175.542C51.8664 171.82 51.8842 168.093 51.8842 164.274H45.2803L45.2768 164.278ZM176.784 202.553C175.414 202.963 174.373 203.477 173.296 203.562C170.23 203.801 167.149 203.912 164.072 203.987C158.445 204.126 152.814 204.268 147.184 204.293C138.911 204.329 130.639 204.286 122.366 204.229C115.487 204.183 108.609 204.151 101.734 203.933C98.7781 203.84 95.8327 203.291 92.8018 202.942C92.8018 203.47 92.7626 204.119 92.8089 204.764C93.0692 208.544 95.1873 211.165 98.2361 211.389C100.172 211.532 102.119 211.596 104.059 211.593C110.371 211.585 116.678 211.493 122.99 211.511C128.66 211.525 134.326 211.678 139.995 211.696C145.793 211.714 151.591 211.66 157.389 211.607C162.339 211.564 167.291 211.518 172.237 211.4C174.291 211.35 176.684 209.011 176.773 207.06C176.841 205.606 176.787 204.147 176.787 202.55L176.784 202.553ZM90.7265 160.819C90.5161 158.623 90.238 156.472 90.131 154.319C90.0668 153.031 89.6247 152.55 88.2982 152.611C86.2015 152.703 84.0941 152.636 81.9939 152.596C76.6558 152.496 71.3214 152.318 65.987 152.283C62.3819 152.258 58.7769 152.479 55.1754 152.486C50.5577 152.493 45.9364 152.372 41.3187 152.34C37.5033 152.311 33.6915 152.332 29.5159 152.332C29.5159 153.477 29.6051 154.65 29.4981 155.809C29.1986 159.025 30.4288 160.666 33.6451 160.78C37.7137 160.926 41.793 160.89 45.8687 160.887C55.154 160.88 64.4394 160.837 73.7283 160.823C79.3623 160.812 84.9963 160.823 90.7301 160.823L90.7265 160.819ZM230.274 164.317C230.235 164.627 230.171 164.909 230.171 165.191C230.182 170.639 230.185 176.088 230.224 181.536C230.246 184.842 230.36 188.147 230.367 191.456C230.378 194.872 230.292 198.288 230.285 201.708C230.278 203.701 230.456 205.698 230.335 207.681C230.228 209.467 230.595 211.204 230.495 212.997C230.292 216.645 230.378 220.304 230.338 223.962C230.306 227.293 230.178 230.627 230.296 233.954C230.324 234.799 230.962 236.122 231.615 236.336C232.71 236.696 234.079 236.5 235.241 236.193C235.577 236.104 235.701 234.827 235.734 234.086C235.84 231.543 235.648 228.969 236.001 226.466C236.233 224.839 235.951 223.616 235.07 222.343C233.933 220.696 232.817 219.024 231.825 217.287C230.945 215.747 231.287 214.103 232.485 213.611C234.197 212.912 234.507 214.356 235.152 215.394C238.062 220.061 241.025 224.7 243.978 229.368C244.57 229.011 244.944 228.88 244.937 228.776C244.751 226.045 244.976 223.174 244.177 220.628C243.461 218.346 241.635 216.403 240.259 214.335C238.95 212.373 237.698 210.359 236.215 208.533C235.338 207.456 234.247 206.69 235.794 205.377C235.983 205.217 236.069 204.842 236.072 204.564C236.083 202.707 236.072 200.849 236.044 198.987C235.983 195.268 235.862 191.553 235.837 187.834C235.787 180.481 235.762 173.128 235.78 165.772C235.78 164.449 235.295 163.936 233.997 164.064C232.835 164.178 231.665 164.224 230.264 164.314L230.274 164.317ZM63.548 164.271C63.4517 166.31 63.2734 168.428 63.2627 170.547C63.2128 178.081 63.1129 185.616 63.2413 193.147C63.3197 197.807 62.6815 202.539 64.172 207.121C64.2433 207.339 64.0793 207.699 63.9188 207.916C62.4782 209.852 60.8486 211.671 59.6006 213.721C58.0352 216.292 55.6568 218.532 55.4464 221.744C55.261 224.551 55.4072 227.382 55.4072 230.202C55.557 230.26 55.7103 230.317 55.8601 230.374C57.9782 226.444 60.1141 222.525 62.2001 218.582C62.8384 217.38 63.3697 216.118 63.901 214.862C64.5642 213.297 65.7659 213.361 67.0103 213.871C68.3475 214.42 67.7948 215.611 67.4596 216.392C66.8107 217.9 65.7801 219.241 65.0919 220.735C64.2932 222.475 63.2805 224.265 63.0987 226.105C62.817 228.976 63.1379 231.907 63.2484 234.809C63.3055 236.343 64.229 237.113 65.8194 237.077C67.8554 237.035 68.7469 236.279 68.7148 234.624C68.6078 229.176 68.4545 223.723 68.4081 218.275C68.3939 216.463 68.7505 214.652 68.7683 212.841C68.7933 210.227 68.5936 207.61 68.615 204.996C68.6684 197.857 68.8467 190.722 68.8646 183.587C68.8753 178.677 68.754 173.763 68.6007 168.856C68.4295 163.265 69.3852 164.453 63.8225 164.125C63.7762 164.125 63.7262 164.174 63.5515 164.271H63.548ZM149.537 195.882C138.398 199.208 127.583 199.458 117.149 195.436C116.197 196.135 115.441 197.112 114.546 197.265C112.26 197.661 109.893 197.95 107.593 197.786C105.357 197.625 103.624 195.55 104.07 193.899C104.662 191.706 103.799 190.397 102.044 189.431C101.538 189.638 101.082 189.912 100.586 190.019C97.6228 190.672 95.6045 192.608 93.9179 194.951C92.299 197.197 93.5399 200.046 96.364 200.232C100.985 200.539 105.621 200.685 110.253 200.717C114.97 200.749 119.688 200.521 124.409 200.485C127.939 200.46 131.469 200.578 135.003 200.606C137.078 200.621 139.15 200.549 141.225 200.578C145.344 200.635 149.459 200.781 153.577 200.806C158.826 200.838 164.075 200.663 169.317 200.831C171.652 200.906 173.699 200.435 175.575 199.191C175.946 198.945 176.259 197.911 176.056 197.622C174.673 195.657 173.418 193.453 171.588 192.002C169.773 190.565 167.327 189.92 165.68 189.167C162.221 189.948 162.667 192.28 162.624 194.523C162.61 195.265 162.007 196.245 161.376 196.677C158.744 198.474 155.72 198.467 152.682 198.199C151.11 198.06 149.766 197.632 149.552 195.882H149.537ZM184.625 118.593C187.595 122.365 190.359 125.945 190.07 130.898C189.781 135.819 186.825 139.217 183.683 142.544C185.491 143.439 204.444 143.307 207.482 142.345C206.818 140.89 206.155 139.449 205.506 138.001C201.712 129.561 197.94 121.114 194.106 112.695C193.718 111.846 192.965 111.162 192.298 110.292C189.613 113.198 187.178 115.833 184.628 118.596L184.625 118.593ZM46.4464 110.566C46.4464 112.92 46.4214 115.184 46.4535 117.445C46.4891 119.966 46.7637 122.501 46.5961 125.008C46.4392 127.35 47.5767 129.533 49.923 130.089C54.8082 131.248 59.7539 130.877 64.6747 130.374C66.1866 130.221 67.1458 128.631 67.128 127.172C67.0817 123.449 67.1031 119.727 67.0995 116.004C67.0995 114.16 67.0995 112.321 67.0995 110.27C59.9643 112.592 53.2998 111.179 46.4464 110.57V110.566ZM158.83 215.123C158.905 216.1 159.051 217.016 159.033 217.929C158.937 222.714 158.68 227.5 158.698 232.281C158.719 237.912 158.994 243.539 159.104 249.169C159.165 252.325 159.24 255.495 159.065 258.643C158.944 260.801 159.646 261.874 161.868 262.066C164.474 262.288 165.38 261.653 165.505 259.182C165.669 255.948 165.416 252.696 165.416 249.451C165.423 242.201 165.48 234.952 165.505 227.703C165.519 223.52 165.505 219.337 165.505 215.123H158.826H158.83ZM111.39 214.848C109.023 214.973 107.001 215.083 104.972 215.19C104.861 215.683 104.687 216.085 104.69 216.488C104.74 220.525 104.865 224.558 104.876 228.591C104.893 234.927 104.833 241.267 104.826 247.604C104.826 251.33 104.943 255.056 104.865 258.779C104.815 261.196 105.824 262.416 108.227 262.395C110.395 262.377 111.483 261.068 111.291 258.765C111.187 257.531 111.069 256.29 111.087 255.056C111.134 252.175 111.305 249.294 111.337 246.409C111.39 241.349 111.38 236.289 111.383 231.229C111.39 225.792 111.383 220.354 111.383 214.845L111.39 214.848ZM199.223 52.7039C208.772 56.8652 216.022 63.2979 222.055 71.3138C222.604 69.9089 223.139 68.7215 223.538 67.4948C225.357 61.925 225.781 56.6013 220.957 52.1084C218.076 49.4233 214.884 48.0647 210.833 48.5818C206.722 49.106 202.974 50.4075 199.223 52.7039ZM239.41 164.285C239.41 167.166 239.413 169.869 239.41 172.575C239.396 179.768 239.406 186.96 239.346 194.152C239.314 197.9 238.686 201.708 239.175 205.381C239.674 209.132 242.73 211.785 245.058 214.745V164.285H239.413H239.41ZM59.6933 164.349C58.5273 164.349 57.5681 164.224 56.6695 164.403C56.2167 164.492 55.5427 165.13 55.5356 165.533C55.4322 171.331 55.4037 177.129 55.393 182.927C55.3823 189.613 55.4108 196.299 55.4179 202.985C55.4215 206.608 55.4179 210.23 55.4179 213.853C55.6497 213.903 55.8815 213.953 56.1132 214.003C57.429 211.66 58.7555 209.321 60.0428 206.964C60.2282 206.622 60.3173 206.18 60.3102 205.784C60.2104 200.563 60.0749 195.347 59.9643 190.126C59.8645 185.469 59.7539 180.809 59.7005 176.152C59.6577 172.255 59.6898 168.357 59.6898 164.353L59.6933 164.349ZM241.931 116.214C241.995 118.942 240.612 120.219 238.422 120.946C234.132 122.373 230.759 121.114 228.359 117.177C228.11 116.767 227.429 116.222 227.104 116.311C224.291 117.074 221.485 117.883 218.746 118.874C218.022 119.135 217.537 120.058 216.942 120.679C217.537 121.192 218.058 121.991 218.742 122.173C221.288 122.857 223.888 123.353 226.473 123.899C232.966 125.264 239.492 125.111 245.989 124.024C248.463 123.61 250.892 122.811 253.277 122.005C254.468 121.602 254.811 120.768 253.513 119.841C250.089 117.398 246.131 116.76 241.938 116.214H241.931ZM140.658 215.019C140.198 215.347 139.703 215.586 139.353 215.964C138.273 217.137 137.217 218.343 136.205 219.576C134.914 221.149 135.149 223.517 136.872 224.501C137.66 224.954 138.804 224.971 139.763 224.9C141.197 224.79 141.75 225.392 141.974 226.719C142.37 229.033 143.529 230.149 145.469 230.292C147.034 230.406 148.386 229.086 149.266 227.147C150.75 223.877 152.451 220.71 154.02 217.48C154.305 216.891 154.708 216.025 154.476 215.615C154.244 215.201 153.285 215.051 152.643 215.044C148.714 214.994 144.781 215.019 140.658 215.019ZM114.985 227.364C115.666 227.603 116.261 227.724 116.764 228.013C117.581 228.48 118.304 229.101 119.121 229.571C121.778 231.105 124.366 230.038 124.94 227.043C125.247 225.46 126.106 225.299 127.429 225.346C129.601 225.421 131.544 222.6 130.446 220.764C129.273 218.803 127.707 217.07 126.278 215.265C126.135 215.087 125.757 215.034 125.486 215.03C122.013 215.016 118.54 215.019 114.985 215.019V227.364ZM165.337 121.502C166.967 119.641 168.005 117.78 169.584 116.778C174.858 113.437 178.452 108.469 182.578 104.016C183.22 103.324 183.541 102.333 184.108 101.299C182.257 101.152 180.72 101.149 179.23 100.885C177.764 100.625 176.923 101.374 176.167 102.365C174.559 104.472 173.054 106.665 171.374 108.716C169.845 110.584 168.283 112.46 166.486 114.057C164.346 115.961 161.946 117.573 159.511 119.424C161.693 120.205 163.776 120.95 165.341 121.51L165.337 121.502ZM196.92 55.9024C197.369 57.6247 197.423 59.2721 198.189 60.4595C199.801 62.9484 201.573 65.4088 203.67 67.4877C206.644 70.4366 210.003 73.0147 214.26 73.899C215.665 74.1914 217.156 74.0702 218.607 74.1343C218.71 73.8812 218.817 73.6244 218.921 73.3713C217.323 71.4671 215.729 69.5594 213.971 67.4627C213.308 69.67 212.602 70.162 210.456 70.2155C210.291 69.7377 210.124 69.2492 209.963 68.7928C210.912 68.101 211.789 67.4627 213.073 66.5285C210.612 64.5209 208.469 62.7059 206.234 61.0157C205.831 60.7091 205.039 60.9123 204.387 60.8802C204.372 59.3969 200.471 56.4872 196.923 55.9095L196.92 55.9024ZM216.97 125.054C216.56 126.612 217.156 127.835 218.764 128.466C220.34 129.087 221.927 129.797 223.578 130.096C229.583 131.187 235.655 131.276 241.724 130.841C245.743 130.552 249.868 130.613 253.481 128.306C254.579 127.604 255.089 126.801 254.575 125.721C241.924 128.677 229.44 129.044 216.967 125.054H216.97ZM188.162 102.404C186.964 103.83 185.966 105.053 184.931 106.241C182.41 109.129 180.011 112.139 177.297 114.834C175.336 116.781 174.259 119.748 171.139 120.465C170.576 120.593 170.087 121.032 169.563 121.328C169.795 121.609 170.023 121.888 170.255 122.169C171.267 121.645 172.284 121.135 173.286 120.597C174.113 120.155 174.89 119.37 175.746 119.281C178.534 118.992 180.624 117.573 182.443 115.622C184.504 113.412 186.522 111.169 188.558 108.933C189.506 107.892 190.444 106.843 191.247 105.959C190.145 104.693 189.157 103.556 188.162 102.408V102.404ZM250.785 84.8139C250.781 82.111 248.881 79.9038 246.527 79.8646C243.824 79.8182 241.514 82.1039 241.51 84.8282C241.51 86.7323 244.559 89.289 246.784 89.2462C248.717 89.207 250.792 86.9106 250.788 84.8139H250.785ZM241.574 91.6496C239.46 96.7915 237.356 101.916 235.227 107.093C235.947 107.35 236.361 107.435 236.711 107.635C238.361 108.569 239.239 107.974 239.856 106.298C241.075 102.975 242.427 99.7012 243.717 96.4028C244.113 95.3937 244.488 94.3774 244.848 93.4325C243.593 92.7478 242.619 92.2201 241.574 91.6496ZM242.94 76.6696C237.884 71.1248 233.027 65.8011 228.392 60.7234C228.334 61.5292 228.153 62.8129 228.181 64.0966C228.195 64.8205 228.342 65.7297 228.794 66.2218C230.945 68.5574 233.23 70.7647 235.441 73.0432C237.074 74.7227 238.668 76.4414 240.298 78.1601C241.282 77.6039 242.091 77.151 242.936 76.6732L242.94 76.6696ZM226.616 52.5648C227.575 51.0921 229.379 49.3984 228.356 46.9736C227.168 44.1566 225.022 42.1883 221.816 42.0992C219.916 42.0457 218.578 43.3615 217.666 44.6309C220.739 47.3552 223.653 49.9368 226.616 52.5648ZM95.9968 113.405C93.4009 116.343 91.8355 119.556 90.8549 123.293C95.248 121.93 99.3878 120.647 103.941 119.231C102.116 118.015 100.803 117.213 99.5697 116.3C98.3395 115.391 97.1842 114.374 95.9968 113.405ZM162.727 185.976C166.09 184.132 167.62 176.516 167.277 173.531C167.085 171.873 166.66 170.425 164.41 171.438C164.061 171.595 163.522 171.331 162.727 171.206V185.972V185.976ZM104.034 172.016C102.825 171.78 101.663 171.552 100.458 171.317C98.6176 175.385 100.429 183.958 104.034 186.307V172.016ZM231.483 114.421C231.415 116.493 232.959 117.915 235.263 117.908C236.636 117.905 238.262 116.428 238.287 115.159C238.319 113.558 236.468 111.222 235.117 111.165C233.223 111.083 231.54 112.592 231.48 114.421H231.483ZM46.9135 100.507C48.0581 102.896 49.1635 105.207 50.2297 107.428H54.0558C52.8612 104.633 51.738 102.015 50.6326 99.4266C49.2206 99.8367 48.0581 100.175 46.9135 100.507ZM70.8293 125.521C73.1435 124.808 74.3488 123.239 74.2418 121.42C74.117 119.217 72.4446 116.988 70.8293 116.781V125.521ZM197.048 99.8901C195.943 98.8489 194.937 97.8719 193.889 96.9412C193.668 96.7451 193.251 96.5918 192.987 96.6595C191.457 97.0589 190.815 99.0237 191.746 100.325C194.345 103.948 194.673 103.93 197.048 99.8901ZM157.029 150.813C155.817 151.569 154.825 152.186 153.838 152.803C154.355 153.577 154.761 154.871 155.417 155.01C156.459 155.231 157.724 154.832 158.769 154.39C159.186 154.215 159.632 152.967 159.418 152.675C158.905 151.969 158.013 151.537 157.033 150.813H157.029ZM49.9801 95.9107C48.7784 94.7233 47.9262 93.8818 47.0739 93.0402C46.5212 93.8925 45.9186 94.7162 45.4372 95.604C45.209 96.0284 45.2197 96.5775 45.0307 97.5438C46.6817 96.9983 48.0082 96.5633 49.9801 95.9107ZM132.771 218.132C133.645 216.877 134.351 215.857 135.221 214.609C133.431 214.698 132.008 214.77 130.417 214.848C131.181 215.911 131.887 216.895 132.774 218.129L132.771 218.132ZM62.0182 107.093C60.7666 107.221 59.5293 107.35 58.292 107.475C61.4299 108.805 62.1822 108.662 62.0182 107.093Z" fill="#495057"/>
<path d="M37.0151 263.861C35.5638 264.128 34.9362 263.13 34.8613 262.067C34.7579 260.637 36.0416 260.437 37.1185 260.42C38.3808 260.402 39.5468 260.797 39.5147 262.363C39.4791 264.078 38.0349 263.686 37.0151 263.861Z" fill="#495057"/>
<path d="M262.673 263.557C261.681 263.682 260.804 263.653 260.758 262.277C260.719 261.118 261.054 260.277 262.38 260.245C263.66 260.212 265.319 259.916 265.461 261.706C265.604 263.497 263.949 263.404 262.673 263.554V263.557Z" fill="#495057"/>
<path d="M174.665 143.978C173.649 142.633 172.736 141.171 171.574 139.945C168.757 136.964 165.084 136.422 161.183 136.443C156.405 136.472 151.627 136.265 146.849 136.254C143.03 136.247 139.211 136.422 135.392 136.436C124.555 136.479 113.715 136.383 102.879 136.54C98.0719 136.607 94.4205 138.996 92.2169 143.318C91.7462 144.245 91.3646 144.555 90.3484 144.274C88.537 143.771 86.6364 143.55 84.857 142.958C79.109 141.04 79.6545 135.063 82.4965 131.936C84.9997 129.183 88.3694 127.971 91.8425 126.887C96.9808 125.282 102.048 123.446 107.165 121.759C107.789 121.552 108.534 121.588 109.201 121.677C110.21 121.809 111.201 122.08 112.135 122.28C113.287 119.809 113.323 119.727 110.884 118.671C104.013 115.701 98.186 111.386 93.3971 105.613C88.3266 99.5015 85.2707 92.5446 84.6859 84.6499C84.233 78.5274 85.4347 72.5369 87.3282 66.7353C87.863 65.095 89.0183 63.6259 90.0453 62.1889C90.7371 61.219 90.5623 60.5166 89.9312 59.6715C88.3872 57.6069 86.943 55.5601 86.3155 52.9143C85.6487 50.108 85.8769 47.4051 86.4652 44.7307C88.266 36.5757 95.2157 31.2449 103.542 31.7655C109.482 32.1363 113.701 35.3955 116.297 40.6479C117.145 42.3702 118.065 42.7125 119.756 42.0172C128.392 38.4514 137.057 38.7794 145.715 41.9672C146.15 42.1277 146.603 42.2454 147.091 42.3951C147.537 41.7105 147.993 41.0901 148.36 40.4233C151.652 34.4719 158.972 30.71 165.266 32.0971C172.661 33.7302 177.568 38.5619 178.738 46.2462C179.493 51.2205 178.181 55.4959 174.822 59.1402C173.674 60.3846 173.375 61.4151 174.213 63.0233C177.575 69.4739 179.219 76.4664 178.912 83.6586C178.659 89.56 176.937 95.2439 173.774 100.429C169.281 107.792 163.376 113.569 155.663 117.473C154.183 118.222 152.732 119.049 151.349 119.959C150.939 120.23 150.454 121.185 150.582 121.338C151.006 121.841 151.88 122.558 152.251 122.405C154.105 121.634 155.62 122.344 157.346 122.893C160.98 124.048 164.692 125.029 168.432 125.746C171.517 126.334 174.462 125.361 177.247 123.963C178.431 123.367 179.629 122.693 180.898 122.415C181.612 122.258 182.66 122.619 183.259 123.107C186.03 125.368 186.554 128.488 186.072 131.801C185.324 136.932 182.129 140.259 177.703 142.573C176.716 143.09 175.682 143.514 174.669 143.981L174.665 143.978ZM102.23 38.5976C97.7867 38.569 94.7878 40.3947 92.684 43.5933C89.8955 47.833 91.5608 54.0838 96.0358 56.3339C96.6492 56.6405 97.7617 56.5906 98.3287 56.2198C99.7015 55.3247 100.907 54.1659 102.151 53.0783C104.159 51.331 106.031 49.4019 108.17 47.8437C109.942 46.5529 110.534 45.3762 109.504 43.4007C107.871 40.2735 105.075 38.9648 102.226 38.5976H102.23ZM164.071 38.7081C160.534 38.4549 157.047 40.4981 155.549 43.6967C154.683 45.5473 155.096 46.8346 156.826 47.89C157.475 48.2858 158.092 48.7637 158.651 49.2807C160.876 51.3346 162.977 53.5347 165.33 55.421C166.143 56.07 167.848 56.5193 168.65 56.1021C171.392 54.6758 173.068 52.2261 173.435 49.0846C174.027 44.0497 169.406 38.6225 164.075 38.7045L164.071 38.7081ZM92.3238 78.0175C90.5766 77.9783 88.216 80.1677 88.2267 81.8115C88.2374 83.327 90.3056 85.5164 91.7284 85.5164C93.932 85.5164 95.7042 83.68 95.7007 81.3943C95.7007 79.508 94.2494 78.0567 92.3238 78.0175ZM174.337 82.4035C174.33 80.592 172.39 78.3277 170.825 78.2992C168.978 78.2671 166.999 80.2711 167.002 82.1752C167.002 83.8583 168.857 85.8373 170.451 85.8623C172.184 85.8908 174.344 83.9653 174.337 82.4035Z" fill="#C5ECB3"/>
<path d="M103.984 168.022C98.3716 168.396 94.7345 163.286 94.2174 158.94C93.8109 155.52 93.7824 152.154 94.114 148.691C94.7523 142.059 99.8906 139.477 105.628 139.492C112.3 139.51 118.975 139.506 125.646 139.499C132.058 139.492 138.469 139.452 144.88 139.449C150.3 139.449 155.724 139.424 161.144 139.506C167.252 139.599 171.738 143.093 172.273 149.565C172.583 153.338 172.469 157.242 171.831 160.965C171.135 165.005 168.468 167.619 164.089 167.972C163.854 167.99 163.629 168.082 163.394 168.118C163.223 168.146 163.045 168.146 162.72 168.168C162.602 166.471 162.499 164.787 162.367 163.104C162.217 161.222 162.253 159.228 159.825 158.48C161.932 155.777 164.542 153.152 161.493 149.711C159.564 147.536 155.296 147.365 152.764 149.112C150.643 150.578 149.862 152.842 150.739 154.974C152.115 158.319 154.783 159.539 159.147 158.686C159.147 161.279 159.172 163.839 159.144 166.392C159.058 174.112 158.951 181.832 158.858 189.552C158.848 190.315 158.908 191.082 158.883 191.841C158.844 192.932 158.744 193.974 157.414 194.373C155.895 194.833 154.287 195.122 153.078 194.02C152.508 193.499 152.422 192.226 152.443 191.303C152.575 185.854 152.886 180.409 152.978 174.957C153.057 170.29 152.864 165.615 152.928 160.947C152.946 159.56 152.197 159.129 151.238 159.343C150.582 159.489 149.673 160.334 149.605 160.947C149.395 162.819 149.544 164.727 149.541 166.624C149.541 167.084 149.477 167.547 149.434 168.104H116.671C116.671 166.114 116.707 164.188 116.661 162.266C116.604 159.938 116.3 159.681 113.544 159.517C113.544 162.156 113.53 164.78 113.544 167.408C113.573 172.297 113.651 177.186 113.647 182.075C113.647 185.387 113.444 188.7 113.523 192.009C113.565 193.742 112.888 194.394 111.269 194.373C110.738 194.366 110.206 194.487 109.675 194.466C108.349 194.409 107.6 194.245 107.639 192.355C107.782 185.68 107.582 178.997 107.461 172.315C107.393 168.489 107.261 164.659 107.069 160.84C107.036 160.227 106.612 159.2 106.216 159.121C105.197 158.918 104.384 159.517 104.302 160.683C104.152 162.805 104.041 164.927 103.927 167.048C103.913 167.326 103.959 167.608 103.984 168V168.022ZM109.322 159.146C113.701 158.825 115.302 156.722 115.527 152.689C115.637 150.72 112.414 148.003 110.224 148.014C106.662 148.032 103.524 150.699 103.489 153.741C103.456 156.315 106.498 159.129 109.322 159.146Z" fill="#EBC684"/>
<path d="M200.282 117.826H213.008C213.008 120.411 212.99 123.075 213.012 125.738C213.04 129.404 215.173 132.028 219.359 132.916C222.757 133.637 226.244 134.196 229.707 134.296C235.177 134.453 240.672 134.364 246.131 134.007C250.214 133.744 254.325 133.073 257.32 129.839C263.193 136.304 268.952 142.64 274.918 149.205H176.797C176.665 149.016 176.27 148.445 175.514 147.354C177.896 147.115 179.885 146.78 181.882 146.737C187.227 146.63 192.576 146.613 197.921 146.627C201.105 146.634 204.29 146.762 207.47 146.837C207.588 146.837 207.706 146.859 207.827 146.855C211.739 146.791 212.63 145.589 211.104 142.105C207.813 134.585 204.429 127.108 201.084 119.609C200.82 119.02 200.553 118.432 200.278 117.822L200.282 117.826Z" fill="#FFE6B7"/>
<path d="M176.02 160.662C176.163 158.144 176.302 155.709 176.469 152.792H276.469C276.469 154.529 276.594 156.404 276.43 158.258C276.294 159.767 274.115 161.2 272.393 161.161C267.701 161.054 263.008 160.911 258.315 160.84C249.729 160.708 241.142 160.569 232.556 160.53C227.179 160.505 221.802 160.719 216.421 160.722C209.842 160.729 203.259 160.583 196.68 160.594C190.009 160.601 183.341 160.715 176.669 160.779C176.498 160.779 176.323 160.722 176.017 160.665L176.02 160.662Z" fill="#FFE6B7"/>
<path d="M90.7583 148.381C90.2983 148.702 89.8419 149.294 89.3784 149.298C84.9817 149.362 80.5851 149.358 76.1885 149.305C70.8647 149.241 65.5445 149.052 60.2244 149.027C52.048 148.988 43.8716 149.03 35.6916 149.059C34.4864 149.062 33.2811 149.169 32.0723 149.23C31.9725 149.08 31.8762 148.927 31.7764 148.777C32.6143 147.786 33.438 146.784 34.2974 145.81C37.9773 141.646 41.6536 137.477 45.387 133.362C45.7008 133.016 46.4568 132.82 46.9382 132.913C49.0313 133.327 51.0959 134.268 53.1783 134.289C57.3467 134.336 61.5437 134.082 65.6872 133.587C67.6056 133.359 69.5703 132.471 70.0731 130.071C70.1337 129.782 70.6187 129.44 70.9574 129.372C76.1314 128.32 78.8343 124.223 77.6897 119.11C77.5898 118.66 77.5328 118.2 77.4615 117.783H89.9382C89.4354 118.785 88.9291 119.645 88.5618 120.561C87.3958 123.485 85.2741 125.485 82.6996 127.204C78.9947 129.679 77.0122 133.341 76.5165 137.709C76.0351 141.913 80.5708 146.659 85.374 147.244C87.1176 147.458 88.8578 147.725 90.5979 147.964C90.6549 148.1 90.7084 148.239 90.7655 148.374L90.7583 148.381Z" fill="#FFE6B7"/>
<path d="M116.967 191.678V171.438C124.031 171.438 130.884 171.438 137.734 171.438C141.043 171.438 144.352 171.499 147.658 171.442C148.913 171.421 149.469 171.702 149.416 173.118C149.184 179.169 149.095 185.224 148.838 191.271C148.813 191.821 148.068 192.659 147.504 192.812C145.236 193.429 142.929 193.964 140.601 194.281C135.381 194.991 130.132 194.837 124.958 193.924C122.198 193.439 119.531 192.413 116.967 191.674V191.678Z" fill="#C5ECB3"/>
<path d="M248.296 164.438H254.704C254.704 167.216 254.657 169.916 254.714 172.608C254.775 175.432 255.014 178.249 255.032 181.073C255.089 190.362 255.089 199.651 255.089 208.94C255.089 218.881 255.078 228.819 255.035 238.761C255.017 243.439 254.893 248.121 254.868 252.799C254.86 254.436 255.028 256.076 255.096 257.713C255.171 259.489 254.033 260.687 252.257 260.737C249.729 260.808 248.292 259.77 248.292 257.841C248.292 250.203 248.292 242.565 248.31 234.927C248.328 225.086 248.378 215.244 248.374 205.402C248.374 196.153 248.317 186.903 248.296 177.653C248.285 173.321 248.296 168.988 248.296 164.438Z" fill="#FFE6B7"/>
<path d="M45.2765 164.278H51.8804C51.8804 168.097 51.8661 171.824 51.8804 175.546C51.9374 187.303 52.0302 199.056 52.0587 210.812C52.0694 215.23 51.884 219.652 51.9018 224.073C51.9374 232.628 52.0551 241.182 52.1371 249.736C52.1657 252.518 52.2905 255.306 52.1371 258.077C52.0979 258.808 51.3313 259.767 50.6395 260.141C47.9651 261.596 45.6973 260.113 45.7222 257.16C45.7579 252.375 45.7151 247.59 45.6652 242.808C45.6153 238.048 45.4548 233.291 45.4548 228.534C45.4548 221.356 45.6224 214.175 45.5974 206.997C45.5832 202.04 45.3086 197.084 45.2587 192.127C45.2123 187.695 45.2765 183.263 45.3621 178.83C45.437 174.904 45.6331 170.986 45.7151 167.06C45.7329 166.261 45.4691 165.455 45.273 164.282L45.2765 164.278Z" fill="#FFE6B7"/>
<path d="M176.783 202.554C176.783 204.151 176.837 205.613 176.769 207.064C176.68 209.015 174.287 211.354 172.234 211.404C167.284 211.522 162.335 211.568 157.386 211.611C151.588 211.661 145.79 211.718 139.992 211.7C134.322 211.682 128.656 211.529 122.986 211.515C116.675 211.5 110.367 211.593 104.055 211.597C102.112 211.597 100.169 211.536 98.2324 211.393C95.1836 211.169 93.0655 208.548 92.8052 204.768C92.7625 204.123 92.7981 203.474 92.7981 202.946C95.8326 203.295 98.7744 203.845 101.73 203.937C108.605 204.155 115.484 204.183 122.362 204.233C130.635 204.29 138.908 204.333 147.18 204.297C152.811 204.272 158.441 204.13 164.068 203.991C167.145 203.916 170.226 203.805 173.293 203.566C174.369 203.484 175.411 202.967 176.78 202.557L176.783 202.554Z" fill="#EBC684"/>
<path d="M90.7267 160.819C84.9929 160.819 79.3589 160.812 73.725 160.819C64.4396 160.837 55.1543 160.876 45.8653 160.883C41.7896 160.883 37.7139 160.919 33.6418 160.776C30.4254 160.662 29.1952 159.022 29.4947 155.805C29.6017 154.647 29.5126 153.47 29.5126 152.329C33.6846 152.329 37.5 152.307 41.3154 152.336C45.9331 152.368 50.5544 152.489 55.1721 152.482C58.7771 152.478 62.3822 152.257 65.9836 152.279C71.3216 152.314 76.6561 152.493 81.9905 152.593C84.0908 152.632 86.1982 152.7 88.2948 152.607C89.6213 152.55 90.0635 153.028 90.1277 154.315C90.2346 156.472 90.5128 158.619 90.7232 160.815L90.7267 160.819Z" fill="#FFE6B7"/>
<path d="M230.274 164.318C231.679 164.228 232.845 164.186 234.008 164.068C235.306 163.94 235.794 164.453 235.791 165.776C235.773 173.129 235.794 180.481 235.848 187.838C235.873 191.557 235.994 195.272 236.055 198.991C236.087 200.849 236.094 202.707 236.083 204.568C236.083 204.846 235.994 205.221 235.805 205.381C234.257 206.694 235.348 207.457 236.226 208.537C237.709 210.363 238.961 212.377 240.269 214.339C241.646 216.407 243.471 218.347 244.188 220.632C244.987 223.178 244.762 226.049 244.948 228.78C244.955 228.887 244.577 229.015 243.988 229.372C241.032 224.704 238.073 220.065 235.163 215.398C234.518 214.36 234.207 212.916 232.496 213.615C231.294 214.103 230.955 215.751 231.836 217.291C232.827 219.028 233.94 220.704 235.081 222.347C235.962 223.62 236.244 224.847 236.012 226.47C235.659 228.973 235.851 231.547 235.744 234.09C235.712 234.831 235.587 236.108 235.252 236.197C234.09 236.507 232.72 236.7 231.626 236.34C230.973 236.126 230.335 234.803 230.306 233.958C230.189 230.631 230.317 227.297 230.349 223.966C230.385 220.311 230.303 216.649 230.506 213.001C230.606 211.208 230.235 209.468 230.346 207.685C230.463 205.702 230.289 203.702 230.296 201.712C230.306 198.296 230.388 194.88 230.378 191.46C230.367 188.155 230.257 184.849 230.235 181.54C230.196 176.092 230.192 170.643 230.182 165.195C230.182 164.913 230.246 164.631 230.285 164.321L230.274 164.318Z" fill="#FFE6B7"/>
<path d="M63.5477 164.27C63.7224 164.171 63.7723 164.121 63.8187 164.124C69.3813 164.452 68.4221 163.265 68.5969 168.856C68.7466 173.766 68.8714 178.676 68.8607 183.586C68.8429 190.722 68.6682 197.86 68.6111 204.995C68.5897 207.609 68.7894 210.226 68.7644 212.84C68.7466 214.652 68.39 216.463 68.4043 218.275C68.4471 223.727 68.6004 229.175 68.711 234.624C68.7431 236.282 67.8516 237.034 65.8155 237.077C64.2216 237.113 63.3016 236.342 63.2446 234.809C63.134 231.907 62.8167 228.975 63.0948 226.105C63.2767 224.265 64.2894 222.475 65.0881 220.735C65.7763 219.241 66.8068 217.897 67.4558 216.392C67.791 215.611 68.3437 214.42 67.0065 213.871C65.762 213.361 64.5568 213.297 63.8971 214.862C63.3658 216.117 62.8345 217.379 62.1962 218.581C60.1102 222.525 57.9743 226.444 55.8562 230.373C55.7065 230.316 55.5531 230.259 55.4034 230.202C55.4034 227.382 55.2572 224.554 55.4426 221.744C55.653 218.531 58.0314 216.295 59.5968 213.721C60.8448 211.671 62.4744 209.852 63.915 207.916C64.0754 207.702 64.2394 207.338 64.1681 207.121C62.6776 202.539 63.3159 197.81 63.2375 193.146C63.1091 185.615 63.2089 178.077 63.2588 170.546C63.2731 168.428 63.4478 166.31 63.5441 164.27H63.5477Z" fill="#FFE6B7"/>
<path d="M149.537 195.881C149.751 197.632 151.095 198.064 152.668 198.199C155.706 198.467 158.73 198.474 161.361 196.677C161.996 196.245 162.595 195.265 162.609 194.523C162.656 192.28 162.21 189.948 165.665 189.167C167.316 189.923 169.759 190.565 171.574 192.002C173.407 193.453 174.662 195.66 176.042 197.622C176.245 197.91 175.931 198.948 175.56 199.19C173.685 200.431 171.638 200.906 169.302 200.831C164.061 200.66 158.808 200.838 153.563 200.806C149.444 200.781 145.329 200.635 141.211 200.578C139.139 200.549 137.064 200.624 134.989 200.606C131.458 200.578 127.928 200.46 124.395 200.485C119.677 200.517 114.956 200.749 110.238 200.717C105.606 200.685 100.971 200.535 96.3495 200.232C93.5254 200.046 92.2881 197.197 93.9034 194.951C95.59 192.604 97.6083 190.672 100.571 190.019C101.067 189.909 101.527 189.638 102.03 189.431C103.784 190.397 104.647 191.709 104.055 193.899C103.61 195.553 105.342 197.629 107.578 197.786C109.878 197.95 112.246 197.657 114.532 197.265C115.427 197.112 116.183 196.135 117.135 195.436C127.572 199.458 138.383 199.208 149.523 195.881H149.537Z" fill="#EBC684"/>
<path d="M184.625 118.593C187.178 115.829 189.61 113.194 192.295 110.288C192.961 111.158 193.717 111.843 194.103 112.691C197.936 121.11 201.708 129.558 205.502 137.998C206.151 139.446 206.818 140.886 207.478 142.341C204.44 143.304 185.488 143.436 183.68 142.541C186.821 139.217 189.777 135.816 190.066 130.895C190.358 125.946 187.591 122.362 184.621 118.589L184.625 118.593Z" fill="#FBFFE4"/>
<path d="M46.4467 110.566C53.3002 111.176 59.9647 112.588 67.0999 110.267C67.0999 112.317 67.0999 114.157 67.0999 116C67.0999 119.723 67.0821 123.446 67.1284 127.169C67.1462 128.63 66.187 130.217 64.6751 130.371C59.7543 130.877 54.8086 131.244 49.9234 130.085C47.5771 129.529 46.4396 127.347 46.5965 125.004C46.7641 122.497 46.4895 119.966 46.4539 117.441C46.4218 115.177 46.4467 112.912 46.4467 110.563V110.566Z" fill="#FFD380"/>
<path d="M158.829 215.123H165.508C165.508 219.341 165.519 223.521 165.508 227.703C165.483 234.952 165.423 242.202 165.419 249.451C165.419 252.696 165.672 255.948 165.508 259.182C165.383 261.653 164.478 262.288 161.871 262.067C159.65 261.878 158.947 260.801 159.068 258.644C159.243 255.495 159.168 252.329 159.108 249.169C159.001 243.539 158.722 237.912 158.701 232.282C158.683 227.496 158.936 222.715 159.036 217.929C159.054 217.016 158.908 216.1 158.833 215.123H158.829Z" fill="#EBC684"/>
<path d="M111.39 214.848C111.39 220.357 111.394 225.795 111.39 231.233C111.383 236.292 111.394 241.352 111.344 246.412C111.315 249.293 111.141 252.175 111.094 255.059C111.077 256.293 111.194 257.534 111.298 258.768C111.49 261.071 110.403 262.38 108.235 262.398C105.831 262.415 104.822 261.2 104.872 258.782C104.95 255.059 104.829 251.333 104.833 247.607C104.836 241.27 104.901 234.93 104.883 228.594C104.872 224.557 104.744 220.524 104.697 216.491C104.694 216.089 104.868 215.686 104.979 215.194C107.004 215.087 109.026 214.976 111.397 214.851L111.39 214.848Z" fill="#EBC684"/>
<path d="M199.224 52.7043C202.975 50.4079 206.723 49.1099 210.834 48.5822C214.885 48.0652 218.076 49.4202 220.957 52.1088C225.778 56.6017 225.357 61.9254 223.539 67.4952C223.139 68.7219 222.605 69.9093 222.055 71.3142C216.026 63.2983 208.773 56.8656 199.224 52.7043Z" fill="#DAFFB8"/>
<path d="M241.931 116.215C246.128 116.76 250.082 117.399 253.505 119.841C254.807 120.768 254.465 121.603 253.27 122.006C250.885 122.812 248.456 123.61 245.982 124.024C239.485 125.112 232.963 125.265 226.466 123.899C223.881 123.354 221.281 122.858 218.735 122.173C218.051 121.988 217.53 121.193 216.935 120.679C217.53 120.059 218.015 119.135 218.739 118.875C221.477 117.887 224.284 117.074 227.097 116.311C227.422 116.222 228.103 116.768 228.352 117.178C230.748 121.114 234.125 122.373 238.415 120.947C240.604 120.219 241.988 118.939 241.924 116.215H241.931Z" fill="#DAFFB8"/>
<path d="M140.658 215.019C144.78 215.019 148.71 214.994 152.643 215.044C153.285 215.051 154.244 215.204 154.476 215.614C154.707 216.025 154.305 216.891 154.019 217.479C152.45 220.71 150.749 223.88 149.266 227.146C148.385 229.086 147.034 230.405 145.468 230.291C143.529 230.149 142.37 229.033 141.974 226.718C141.746 225.388 141.197 224.789 139.763 224.9C138.804 224.975 137.659 224.953 136.871 224.5C135.153 223.516 134.914 221.149 136.204 219.576C137.217 218.342 138.273 217.137 139.353 215.964C139.703 215.586 140.198 215.343 140.658 215.019Z" fill="#C5ECB3"/>
<path d="M114.984 227.364V215.019C118.543 215.019 122.016 215.015 125.486 215.03C125.757 215.03 126.135 215.087 126.277 215.265C127.707 217.069 129.273 218.799 130.446 220.763C131.544 222.6 129.597 225.424 127.429 225.346C126.106 225.299 125.243 225.46 124.94 227.043C124.362 230.038 121.774 231.108 119.121 229.571C118.308 229.1 117.58 228.48 116.764 228.013C116.261 227.727 115.665 227.606 114.984 227.364Z" fill="#C5ECB3"/>
<path d="M165.338 121.503C163.769 120.943 161.69 120.198 159.508 119.417C161.943 117.566 164.343 115.954 166.483 114.05C168.276 112.453 169.842 110.574 171.371 108.709C173.051 106.658 174.556 104.465 176.164 102.358C176.92 101.367 177.761 100.621 179.227 100.878C180.717 101.142 182.254 101.149 184.105 101.292C183.538 102.326 183.217 103.317 182.575 104.009C178.453 108.466 174.855 113.43 169.581 116.771C168.002 117.773 166.967 119.631 165.334 121.496L165.338 121.503Z" fill="#FBFFE4"/>
<path d="M196.92 55.9026C200.471 56.4803 204.369 59.39 204.383 60.8734C205.039 60.909 205.827 60.7058 206.23 61.0089C208.466 62.6991 210.609 64.5176 213.069 66.5216C211.785 67.4558 210.908 68.0977 209.96 68.7859C210.117 69.2459 210.288 69.7344 210.452 70.2086C212.598 70.1552 213.308 69.6631 213.968 67.4558C215.726 69.5525 217.32 71.4567 218.917 73.3644C218.814 73.6176 218.707 73.8743 218.603 74.1275C217.152 74.0597 215.661 74.181 214.257 73.8921C209.999 73.0114 206.64 70.4333 203.666 67.4808C201.569 65.4019 199.797 62.9415 198.185 60.4526C197.419 59.2652 197.365 57.6178 196.916 55.8955L196.92 55.9026Z" fill="#DAFFB8"/>
<path d="M216.97 125.054C229.44 129.044 241.928 128.677 254.579 125.721C255.092 126.801 254.583 127.603 253.484 128.306C249.872 130.613 245.746 130.552 241.728 130.841C235.659 131.276 229.586 131.187 223.581 130.096C221.93 129.796 220.344 129.087 218.768 128.466C217.159 127.835 216.564 126.612 216.974 125.054H216.97Z" fill="#DAFFB8"/>
<path d="M188.162 102.404C189.157 103.549 190.144 104.686 191.246 105.955C190.444 106.843 189.506 107.892 188.558 108.929C186.525 111.162 184.503 113.408 182.442 115.619C180.624 117.569 178.538 118.989 175.746 119.277C174.89 119.366 174.112 120.151 173.285 120.593C172.283 121.132 171.263 121.641 170.254 122.166C170.022 121.884 169.794 121.606 169.562 121.324C170.087 121.028 170.579 120.59 171.139 120.461C174.259 119.744 175.332 116.778 177.297 114.831C180.01 112.139 182.41 109.126 184.931 106.237C185.965 105.05 186.964 103.83 188.162 102.4V102.404Z" fill="#FFCC00"/>
<path d="M250.785 84.8143C250.789 86.911 248.713 89.2074 246.781 89.2466C244.559 89.2894 241.507 86.7327 241.507 84.8285C241.51 82.1043 243.821 79.8186 246.524 79.865C248.877 79.9077 250.778 82.115 250.781 84.8143H250.785Z" fill="#DAFFB8"/>
<path d="M241.574 91.6494C242.618 92.2199 243.592 92.7477 244.847 93.4323C244.487 94.3773 244.109 95.3935 243.717 96.4026C242.426 99.701 241.078 102.974 239.855 106.298C239.238 107.974 238.361 108.569 236.71 107.635C236.36 107.435 235.947 107.35 235.227 107.093C237.355 101.919 239.459 96.7949 241.574 91.6494Z" fill="#DAFFB8"/>
<path d="M242.94 76.6696C242.091 77.1474 241.285 77.6002 240.301 78.1565C238.672 76.4378 237.078 74.7191 235.445 73.0396C233.234 70.761 230.945 68.5538 228.798 66.2182C228.345 65.7261 228.199 64.8168 228.185 64.093C228.156 62.8129 228.334 61.5292 228.395 60.7197C233.031 65.801 237.884 71.1247 242.944 76.666L242.94 76.6696Z" fill="#DAFFB8"/>
<path d="M226.615 52.5647C223.652 49.9402 220.742 47.3586 217.665 44.6308C218.578 43.3613 219.915 42.0491 221.816 42.099C225.021 42.1882 227.168 44.1565 228.355 46.9735C229.379 49.3982 227.571 51.092 226.615 52.5647Z" fill="#DAFFB8"/>
<path d="M95.9964 113.404C97.1838 114.374 98.3391 115.39 99.5693 116.3C100.803 117.213 102.119 118.015 103.941 119.231C99.3875 120.643 95.2476 121.927 90.8545 123.292C91.8351 119.555 93.4005 116.343 95.9964 113.404Z" fill="#FBFFE4"/>
<path d="M162.728 185.975V171.209C163.523 171.334 164.061 171.598 164.411 171.441C166.661 170.428 167.085 171.876 167.278 173.534C167.623 176.515 166.09 184.135 162.728 185.979V185.975Z" fill="#A1DEA3"/>
<path d="M104.034 172.015V186.307C100.425 183.961 98.6175 175.385 100.457 171.316C101.666 171.552 102.825 171.776 104.034 172.015Z" fill="#C5ECB3"/>
<path d="M231.483 114.421C231.544 112.592 233.227 111.083 235.121 111.165C236.472 111.222 238.323 113.558 238.291 115.159C238.266 116.428 236.64 117.905 235.267 117.908C232.96 117.915 231.419 116.493 231.487 114.421H231.483Z" fill="#DAFFB8"/>
<path d="M46.9131 100.507C48.0577 100.176 49.2202 99.8368 50.6322 99.4268C51.7412 102.016 52.8608 104.636 54.0554 107.428H50.2293C49.1631 105.207 48.0577 102.893 46.9131 100.507Z" fill="#FFCC00"/>
<path d="M70.8291 125.521V116.781C72.448 116.988 74.1168 119.217 74.2416 121.42C74.345 123.239 73.1433 124.808 70.8291 125.521Z" fill="#FFD380"/>
<path d="M197.048 99.8905C194.673 103.931 194.345 103.948 191.746 100.325C190.812 99.024 191.457 97.0592 192.987 96.6598C193.251 96.5921 193.668 96.7454 193.889 96.9415C194.937 97.8722 195.946 98.8492 197.048 99.8905Z" fill="#FF5BB2"/>
<path d="M157.029 150.813C158.013 151.537 158.905 151.969 159.414 152.675C159.625 152.967 159.179 154.215 158.765 154.39C157.721 154.829 156.455 155.232 155.414 155.01C154.761 154.871 154.355 153.577 153.834 152.803C154.822 152.186 155.813 151.569 157.025 150.813H157.029Z" fill="white"/>
<path d="M49.9796 95.9105C48.0077 96.5595 46.6848 96.9981 45.0303 97.5437C45.2193 96.5773 45.2086 96.0282 45.4368 95.6039C45.9146 94.7124 46.5208 93.8887 47.0735 93.04C47.9257 93.8816 48.7779 94.7267 49.9796 95.9105Z" fill="#FF5BB2"/>
<path d="M62.0183 107.093C62.1859 108.662 61.4299 108.804 58.292 107.474C59.5293 107.346 60.7631 107.221 62.0183 107.093Z" fill="#FFD380"/>
<path d="M102.23 38.598C105.079 38.9688 107.871 40.2775 109.508 43.4011C110.538 45.373 109.946 46.5533 108.174 47.8441C106.031 49.4024 104.159 51.3315 102.155 53.0787C100.91 54.1627 99.7052 55.3252 98.3323 56.2202C97.7654 56.5875 96.6493 56.641 96.0395 56.3343C91.5644 54.0843 89.8956 47.8334 92.6877 43.5937C94.7915 40.3952 97.7903 38.5695 102.233 38.598H102.23Z" fill="#495057"/>
<path d="M164.071 38.708C169.402 38.626 174.023 44.0531 173.431 49.088C173.064 52.2295 171.388 54.6792 168.646 56.1056C167.847 56.5227 166.139 56.0735 165.326 55.4245C162.973 53.5382 160.872 51.3345 158.647 49.2842C158.088 48.7671 157.471 48.2893 156.822 47.8935C155.096 46.838 154.679 45.5472 155.545 43.7001C157.043 40.5016 160.53 38.4584 164.067 38.7116L164.071 38.708Z" fill="#495057"/>
<path d="M92.3237 78.0171C94.2493 78.0599 95.697 79.5076 95.7006 81.3939C95.7006 83.6796 93.9319 85.5196 91.7282 85.516C90.3055 85.516 88.2409 83.3266 88.2266 81.8111C88.2124 80.1673 90.5765 77.9779 92.3237 78.0171Z" fill="#495057"/>
<path d="M174.338 82.4035C174.345 83.9653 172.184 85.8872 170.451 85.8623C168.857 85.8373 167.003 83.8583 167.003 82.1752C167.003 80.2711 168.978 78.2671 170.825 78.2992C172.394 78.3277 174.331 80.592 174.338 82.4035Z" fill="#495057"/>
<path d="M109.322 159.147C106.495 159.129 103.456 156.316 103.489 153.741C103.528 150.7 106.662 148.033 110.224 148.015C112.417 148.004 115.637 150.725 115.527 152.689C115.302 156.719 113.701 158.826 109.322 159.147ZM108.559 155.467C110.731 155.51 112.21 154.383 112.121 153.174C112 151.506 110.574 151.559 109.458 151.484C108.035 151.388 107.147 152.461 107.172 153.649C107.186 154.383 108.256 155.096 108.559 155.467Z" fill="#495057"/>
<path d="M108.559 155.467C108.253 155.096 107.187 154.383 107.172 153.648C107.147 152.461 108.035 151.387 109.458 151.484C110.574 151.558 112.004 151.505 112.122 153.174C112.211 154.383 110.731 155.509 108.559 155.467Z" fill="white"/>
</g>
<defs>
<clipPath id="clip0_164_5365">
<rect width="254.463" height="237.75" fill="white" transform="translate(26 28)"/>
</clipPath>
</defs>
</svg>
