<svg width="37" height="37" viewBox="0 0 37 37" fill="none" xmlns="http://www.w3.org/2000/svg">
<g clip-path="url(#clip0_130_4624)">
<rect x="13.252" y="34.1718" width="12.3584" height="31" rx="4.5" transform="rotate(-135 13.252 34.1718)" fill="white" stroke="#343A40"/>
<rect x="10.7071" y="19.2715" width="22.6301" height="12.2852" transform="rotate(-45 10.7071 19.2715)" fill="#C5ECB3" stroke="#343A40"/>
<path d="M20.0422 14C19.3338 14.002 18.7369 14.5961 18.7356 15.3006C18.7343 16.0014 19.3174 16.6069 19.9972 16.6102C20.7167 16.6139 21.3088 16.0135 21.3115 15.2785C21.3142 14.5546 20.7617 13.998 20.0422 14ZM20.5064 14.4528C20.7224 14.4498 20.8762 14.5988 20.8812 14.8153C20.8859 15.0148 20.7311 15.1744 20.5262 15.1818C20.3133 15.1895 20.148 15.0262 20.1443 14.8053C20.1409 14.6018 20.2911 14.4555 20.5064 14.4525V14.4528Z" fill="#18231C"/>
<path d="M24.9523 15.2925C24.9553 15.976 25.572 16.5982 26.2468 16.5985C26.9176 16.5985 27.5033 15.9944 27.5 15.3059C27.4963 14.581 26.9014 13.9993 26.1655 14.001C25.5152 14.0023 24.9493 14.6051 24.9523 15.2925ZM26.6999 14.4538C26.9186 14.4525 27.0731 14.6031 27.0724 14.8173C27.0717 15.0265 26.9327 15.1811 26.7416 15.1858C26.5252 15.1911 26.3513 15.0194 26.3449 14.7945C26.3395 14.6004 26.491 14.4552 26.6999 14.4538Z" fill="#18231C"/>
<path d="M23.97 16.7714C24.0173 16.7085 24.0328 16.6057 24.0257 16.5244C24.0217 16.4769 23.9495 16.413 23.8971 16.3996C23.8548 16.3889 23.7896 16.4357 23.7466 16.4715C23.7097 16.502 23.6915 16.5542 23.662 16.5947C23.4272 16.919 22.9697 16.8866 22.7836 16.5325C22.7322 16.4347 22.6963 16.3095 22.5418 16.3839C22.4256 16.4397 22.3866 16.585 22.4679 16.7165C22.8008 17.2574 23.6034 17.2593 23.97 16.7714Z" fill="#18231C"/>
<path d="M20.5059 14.4531C20.2906 14.4561 20.1405 14.6021 20.1438 14.8059C20.1472 15.0268 20.3128 15.1901 20.5257 15.1824C20.7306 15.175 20.8855 15.0151 20.8808 14.8159C20.8757 14.5994 20.7219 14.4504 20.5059 14.4535V14.4531Z" fill="white"/>
<path d="M26.6998 14.4551C26.4908 14.4564 26.3394 14.6017 26.3447 14.7958C26.3508 15.0204 26.5251 15.1924 26.7414 15.187C26.9325 15.1824 27.0716 15.0274 27.0723 14.8186C27.0729 14.6044 26.9188 14.4537 26.6998 14.4551Z" fill="white"/>
<path d="M26.4531 17.9999C26.1441 17.9999 25.8935 17.7503 25.8935 17.4424C25.8935 17.1344 26.1441 16.8848 26.4531 16.8848C26.7622 16.8848 27.0127 17.1344 27.0127 17.4424C27.0127 17.7503 26.7622 17.9999 26.4531 17.9999Z" fill="#FEB7B7"/>
<path d="M19.6777 17.9999C19.3687 17.9999 19.1181 17.7503 19.1181 17.4424C19.1181 17.1344 19.3687 16.8848 19.6777 16.8848C19.9868 16.8848 20.2373 17.1344 20.2373 17.4424C20.2373 17.7503 19.9868 17.9999 19.6777 17.9999Z" fill="#FEB7B7"/>
</g>
<circle cx="2.5" cy="34.5" r="1.5" stroke="#42C153"/>
<defs>
<clipPath id="clip0_130_4624">
<rect width="31" height="31" fill="white" transform="translate(5 2)"/>
</clipPath>
</defs>
</svg>
