<svg width="31" height="31" viewBox="0 0 31 31" fill="none" xmlns="http://www.w3.org/2000/svg">
<g clip-path="url(#clip0_77_4573)">
<rect x="8.25195" y="32.1718" width="12.3584" height="31" rx="4.5" transform="rotate(-135 8.25195 32.1718)" fill="white" stroke="#343A40"/>
<rect x="5.70711" y="17.2715" width="22.6301" height="12.2852" transform="rotate(-45 5.70711 17.2715)" fill="#C5ECB3" stroke="#343A40"/>
<path d="M15.0422 12C14.3338 12.002 13.7369 12.5961 13.7356 13.3006C13.7343 14.0014 14.3174 14.6069 14.9972 14.6102C15.7167 14.6139 16.3088 14.0135 16.3115 13.2785C16.3142 12.5546 15.7617 11.998 15.0422 12ZM15.5064 12.4528C15.7224 12.4498 15.8762 12.5988 15.8812 12.8153C15.8859 13.0148 15.7311 13.1744 15.5262 13.1818C15.3133 13.1895 15.148 13.0262 15.1443 12.8053C15.1409 12.6018 15.2911 12.4555 15.5064 12.4525V12.4528Z" fill="#18231C"/>
<path d="M19.9523 13.2925C19.9553 13.976 20.572 14.5982 21.2468 14.5985C21.9176 14.5985 22.5033 13.9944 22.5 13.3059C22.4963 12.581 21.9014 11.9993 21.1655 12.001C20.5152 12.0023 19.9493 12.6051 19.9523 13.2925ZM21.6999 12.4538C21.9186 12.4525 22.0731 12.6031 22.0724 12.8173C22.0717 13.0265 21.9327 13.1811 21.7416 13.1858C21.5252 13.1911 21.3513 13.0194 21.3449 12.7945C21.3395 12.6004 21.491 12.4552 21.6999 12.4538Z" fill="#18231C"/>
<path d="M18.97 14.7714C19.0173 14.7085 19.0328 14.6057 19.0257 14.5244C19.0217 14.4769 18.9495 14.413 18.8971 14.3996C18.8548 14.3889 18.7896 14.4357 18.7466 14.4715C18.7097 14.502 18.6915 14.5542 18.662 14.5947C18.4272 14.919 17.9697 14.8866 17.7836 14.5325C17.7322 14.4347 17.6963 14.3095 17.5418 14.3839C17.4256 14.4397 17.3866 14.585 17.4679 14.7165C17.8008 15.2574 18.6034 15.2593 18.97 14.7714Z" fill="#18231C"/>
<path d="M15.5059 12.4531C15.2906 12.4561 15.1405 12.6021 15.1438 12.8059C15.1472 13.0268 15.3128 13.1901 15.5257 13.1824C15.7306 13.175 15.8855 13.0151 15.8808 12.8159C15.8757 12.5994 15.7219 12.4504 15.5059 12.4535V12.4531Z" fill="white"/>
<path d="M21.6998 12.4551C21.4908 12.4564 21.3394 12.6017 21.3447 12.7958C21.3508 13.0204 21.5251 13.1924 21.7414 13.187C21.9325 13.1824 22.0716 13.0274 22.0723 12.8186C22.0729 12.6044 21.9188 12.4537 21.6998 12.4551Z" fill="white"/>
<path d="M21.4531 15.9999C21.1441 15.9999 20.8935 15.7503 20.8935 15.4424C20.8935 15.1344 21.1441 14.8848 21.4531 14.8848C21.7622 14.8848 22.0127 15.1344 22.0127 15.4424C22.0127 15.7503 21.7622 15.9999 21.4531 15.9999Z" fill="#FEB7B7"/>
<path d="M14.6777 15.9999C14.3687 15.9999 14.1181 15.7503 14.1181 15.4424C14.1181 15.1344 14.3687 14.8848 14.6777 14.8848C14.9868 14.8848 15.2373 15.1344 15.2373 15.4424C15.2373 15.7503 14.9868 15.9999 14.6777 15.9999Z" fill="#FEB7B7"/>
</g>
<defs>
<clipPath id="clip0_77_4573">
<rect width="31" height="31" fill="white"/>
</clipPath>
</defs>
</svg>
