<svg width="31" height="31" viewBox="0 0 31 31" fill="none" xmlns="http://www.w3.org/2000/svg">
<g clip-path="url(#clip0_77_4573)">
<rect x="8.25195" y="32.1718" width="12.3584" height="31" rx="4.5" transform="rotate(-135 8.25195 32.1718)" fill="white" stroke="#343A40"/>
<rect x="5.70711" y="17.2715" width="22.6301" height="12.2852" transform="rotate(-45 5.70711 17.2715)" fill="#C5ECB3" stroke="#343A40"/>
<path d="M14.4903 12C13.6822 12.0023 13.0012 12.6825 12.9997 13.4891C12.9982 14.2916 13.6634 14.9848 14.439 14.9886C15.2598 14.9928 15.9354 14.3053 15.9385 13.4638C15.9415 12.635 15.3112 11.9977 14.4903 12ZM15.0199 12.5185C15.2663 12.515 15.4418 12.6856 15.4476 12.9335C15.4529 13.1619 15.2763 13.3447 15.0425 13.3531C14.7996 13.3619 14.6111 13.1749 14.6068 12.922C14.603 12.689 14.7743 12.5215 15.0199 12.5181V12.5185Z" fill="#18231C"/>
<path d="M20.0934 13.4798C20.0968 14.2623 20.8004 14.9746 21.5703 14.975C22.3355 14.975 23.0038 14.2833 23 13.4951C22.9958 12.6651 22.3171 11.9991 21.4775 12.001C20.7356 12.0025 20.0899 12.6927 20.0934 13.4798ZM22.0872 12.5195C22.3367 12.5179 22.5129 12.6904 22.5122 12.9356C22.5114 13.1751 22.3528 13.3522 22.1347 13.3575C21.8879 13.3636 21.6894 13.1671 21.6822 12.9096C21.676 12.6873 21.8488 12.521 22.0872 12.5195Z" fill="#18231C"/>
<path d="M18.9716 15.1727C19.0257 15.1006 19.0433 14.983 19.0353 14.8899C19.0307 14.8354 18.9483 14.7623 18.8885 14.7469C18.8402 14.7347 18.7659 14.7883 18.7168 14.8293C18.6747 14.8642 18.654 14.924 18.6202 14.9703C18.3524 15.3417 17.8305 15.3045 17.6182 14.8991C17.5595 14.7872 17.5185 14.6438 17.3423 14.7289C17.2097 14.7929 17.1652 14.9592 17.258 15.1098C17.6377 15.7291 18.5535 15.7313 18.9716 15.1727Z" fill="#18231C"/>
<path d="M15.0195 12.5186C14.7739 12.522 14.6026 12.6891 14.6064 12.9224C14.6102 13.1754 14.7992 13.3624 15.0421 13.3536C15.2759 13.3451 15.4525 13.162 15.4471 12.9339C15.4414 12.686 15.2659 12.5155 15.0195 12.5189V12.5186Z" fill="white"/>
<path d="M22.0867 12.5195C21.8484 12.5211 21.6756 12.6874 21.6817 12.9096C21.6886 13.1668 21.8875 13.3637 22.1343 13.3576C22.3523 13.3522 22.5109 13.1748 22.5117 12.9357C22.5125 12.6904 22.3366 12.518 22.0867 12.5195Z" fill="white"/>
<path d="M21.8069 16.5796C21.4543 16.5796 21.1685 16.2937 21.1685 15.9411C21.1685 15.5886 21.4543 15.3027 21.8069 15.3027C22.1595 15.3027 22.4453 15.5886 22.4453 15.9411C22.4453 16.2937 22.1595 16.5796 21.8069 16.5796Z" fill="#FEB7B7"/>
<path d="M14.0755 16.5796C13.7229 16.5796 13.437 16.2937 13.437 15.9411C13.437 15.5886 13.7229 15.3027 14.0755 15.3027C14.428 15.3027 14.7139 15.5886 14.7139 15.9411C14.7139 16.2937 14.428 16.5796 14.0755 16.5796Z" fill="#FEB7B7"/>
</g>
<defs>
<clipPath id="clip0_77_4573">
<rect width="31" height="31" fill="white"/>
</clipPath>
</defs>
</svg>
