<svg width="50" height="50" viewBox="0 0 50 50" fill="none" xmlns="http://www.w3.org/2000/svg">
<g opacity="0.5" filter="url(#filter0_d_148_4774)">
<path fill-rule="evenodd" clip-rule="evenodd" d="M15.7352 32.6368C18.2005 33.6731 21.8044 36.2143 25.5734 39.3927C26.1693 39.8951 27.0596 39.8194 27.5621 39.2236C28.0646 38.6278 27.9889 37.7374 27.393 37.2349C23.5976 34.0343 19.717 31.2488 16.8289 30.0348C16.0957 29.7266 15.3699 29.4948 14.687 29.3987C14.016 29.3042 13.2602 29.3233 12.5716 29.6619C10.9798 30.4446 10.8251 32.2334 11.0809 33.813C11.3489 35.4683 11.7708 36.8685 12.1563 37.9521C10.3447 37.055 8.03826 35.9298 6.14618 35.3256C5.57511 35.1432 5.00336 34.9951 4.46576 34.9173C3.94572 34.842 3.35584 34.8167 2.79714 34.9632C2.19281 35.1217 1.57928 35.5011 1.24148 36.214C0.934204 36.8625 0.962873 37.5678 1.09325 38.1825C1.25498 38.9449 2.00418 39.4319 2.76665 39.2702C3.49854 39.1149 3.97661 38.4183 3.8707 37.6883C3.92688 37.6932 3.99028 37.7005 4.06141 37.7107C4.39162 37.7585 4.80263 37.8595 5.28754 38.0143C7.06731 38.5827 9.32235 39.6991 11.213 40.635C11.4306 40.7428 11.6435 40.8482 11.8502 40.95C12.3414 41.1921 12.765 41.3911 13.1124 41.5286C13.3841 41.6361 13.8643 41.8176 14.3534 41.7824C14.6582 41.7605 15.1144 41.6431 15.4665 41.2309C15.7969 40.844 15.8476 40.413 15.8499 40.1755C15.8541 39.7547 15.706 39.3334 15.623 39.1019C15.536 38.8593 15.4282 38.5891 15.3081 38.2878C14.8547 37.1504 14.2246 35.5701 13.8671 33.3619C13.7451 32.6084 13.8113 32.2949 13.8588 32.1844C13.9205 32.1727 14.0545 32.16 14.2937 32.1937C14.6507 32.2439 15.1301 32.3824 15.7352 32.6368ZM13.8932 32.1331C13.8915 32.1312 13.8819 32.139 13.8694 32.1623C13.8886 32.1466 13.8948 32.135 13.8932 32.1331Z" fill="url(#paint0_linear_148_4774)"/>
<path d="M12.2362 37.9237L12.3064 38.1211L12.1186 38.0281C10.3058 37.1305 8.00524 36.0083 6.12037 35.4064C5.5519 35.2249 4.98498 35.0782 4.45361 35.0013C3.93878 34.9268 3.36171 34.9028 2.81866 35.0453C2.23248 35.199 1.64279 35.5652 1.31815 36.2503C1.02212 36.8751 1.04775 37.5591 1.17624 38.1648C1.32825 38.8815 2.03242 39.3392 2.74904 39.1872C3.43691 39.0413 3.88627 38.3866 3.78674 37.7005L3.77136 37.5945L3.87806 37.6038C3.93593 37.6089 4.00093 37.6163 4.07356 37.6268C4.41001 37.6755 4.82586 37.7778 5.31335 37.9335C7.09921 38.5038 9.35858 39.6223 11.2463 40.5569L11.2506 40.559L11.2526 40.56C11.4696 40.6674 11.6817 40.7724 11.8877 40.8739C12.3786 41.1158 12.7996 41.3136 13.1436 41.4497C13.4159 41.5574 13.8796 41.7314 14.3473 41.6978C14.638 41.6769 15.0694 41.5652 15.402 41.1758C15.7142 40.8101 15.7628 40.4021 15.7651 40.1746C15.7691 39.7709 15.6264 39.3629 15.5431 39.1305C15.4567 38.8896 15.3496 38.6209 15.2293 38.3192L15.229 38.3185C14.7752 37.1801 14.1424 35.5929 13.7834 33.3754C13.6606 32.6171 13.7237 32.2839 13.7808 32.1509L13.7986 32.1094L13.8023 32.1087C13.8086 32.0985 13.8153 32.0892 13.8224 32.0813C13.8269 32.0763 13.8348 32.0683 13.8458 32.0615C13.8507 32.0584 13.8621 32.0519 13.878 32.0492C13.8948 32.0463 13.9303 32.0466 13.9571 32.0773C13.9602 32.0809 13.9629 32.0845 13.9652 32.0882C14.046 32.0849 14.1571 32.0888 14.3055 32.1096C14.6723 32.1613 15.1591 32.3026 15.7681 32.5586C18.2461 33.6002 21.8583 36.1488 25.6281 39.3278C26.1882 39.8001 27.025 39.7289 27.4972 39.1689C27.9695 38.6089 27.8984 37.7721 27.3383 37.2998C23.5437 34.0999 19.6715 31.3216 16.7961 30.113C16.0667 29.8064 15.3483 29.5774 14.6752 29.4827C14.0132 29.3895 13.2765 29.4098 12.609 29.738C11.8384 30.1169 11.4155 30.738 11.2152 31.4612C11.014 32.1873 11.0377 33.0159 11.1646 33.7994C11.4316 35.4484 11.8519 36.8434 12.2362 37.9237ZM13.8143 32.1043C13.814 32.1049 13.8137 32.1057 13.8134 32.1066L13.8227 32.1049L13.8172 32.0981C13.8162 32.0998 13.8152 32.1019 13.8143 32.1043ZM13.8086 32.1336C13.8086 32.1413 13.8096 32.1529 13.8148 32.1655C13.8179 32.1731 13.8225 32.1811 13.8293 32.1889C13.8359 32.1964 13.843 32.2021 13.8502 32.2063C13.8531 32.1982 13.856 32.1909 13.8588 32.1844C13.8617 32.1838 13.8648 32.1833 13.868 32.1827L13.8567 32.1734L13.8517 32.1693L13.8086 32.1336Z" stroke="white" stroke-width="0.169678" stroke-linecap="round"/>
</g>
<rect width="6.96466" height="13.2142" transform="matrix(-0.71335 0.700808 0.700808 0.71335 19.6924 29)" fill="url(#paint1_linear_148_4774)"/>
<g clip-path="url(#clip0_148_4774)">
<rect x="23.0508" y="42.285" width="13.5543" height="34" rx="4.93548" transform="rotate(-135 23.0508 42.285)" fill="white" stroke="#343A40" stroke-width="1.09677"/>
<rect x="20.2599" y="25.9434" width="24.8201" height="13.4741" transform="rotate(-45 20.2599 25.9434)" fill="#C5ECB3" stroke="#343A40" stroke-width="1.09677"/>
<path d="M30.4985 20.1621C29.7215 20.1643 29.0669 20.8159 29.0654 21.5886C29.0639 22.3572 29.7035 23.0213 30.4491 23.0249C31.2382 23.029 31.8877 22.3704 31.8906 21.5643C31.8936 20.7704 31.2876 20.1599 30.4985 20.1621ZM31.0076 20.6588C31.2445 20.6555 31.4132 20.8188 31.4187 21.0563C31.4239 21.2751 31.254 21.4502 31.0293 21.4583C30.7958 21.4667 30.6145 21.2876 30.6105 21.0453C30.6068 20.8221 30.7714 20.6617 31.0076 20.6584V20.6588Z" fill="#18231C"/>
<path d="M35.8835 21.5796C35.8868 22.3292 36.5632 23.0116 37.3032 23.012C38.0389 23.012 38.6814 22.3494 38.6777 21.5943C38.6737 20.7992 38.0212 20.1613 37.2141 20.1631C36.5009 20.1646 35.8802 20.8257 35.8835 21.5796ZM37.8002 20.6597C38.04 20.6583 38.2095 20.8235 38.2088 21.0584C38.208 21.2878 38.0555 21.4574 37.8459 21.4625C37.6086 21.4684 37.4178 21.2801 37.4108 21.0334C37.4049 20.8205 37.5711 20.6612 37.8002 20.6597Z" fill="#18231C"/>
<path d="M34.8052 23.2017C34.8572 23.1327 34.8741 23.02 34.8664 22.9308C34.862 22.8787 34.7828 22.8086 34.7253 22.7939C34.6789 22.7822 34.6074 22.8336 34.5603 22.8728C34.5197 22.9062 34.4998 22.9635 34.4674 23.0079C34.2099 23.3636 33.7082 23.328 33.5041 22.9396C33.4477 22.8324 33.4083 22.6952 33.2388 22.7767C33.1114 22.838 33.0686 22.9973 33.1578 23.1415C33.5229 23.7347 34.4032 23.7369 34.8052 23.2017Z" fill="#18231C"/>
<path d="M31.0067 20.6592C30.7706 20.6625 30.6059 20.8225 30.6096 21.0461C30.6133 21.2883 30.7949 21.4675 31.0285 21.459C31.2532 21.451 31.423 21.2755 31.4179 21.0571C31.4123 20.8196 31.2436 20.6562 31.0067 20.6595V20.6592Z" fill="white"/>
<path d="M37.8004 20.6621C37.5713 20.6636 37.4052 20.8229 37.411 21.0358C37.4177 21.2821 37.6089 21.4708 37.8461 21.4649C38.0557 21.4598 38.2082 21.2898 38.209 21.0608C38.2097 20.8258 38.0406 20.6607 37.8004 20.6621Z" fill="white"/>
<path d="M37.5288 24.5493C37.1899 24.5493 36.9151 24.2755 36.9151 23.9377C36.9151 23.6 37.1899 23.3262 37.5288 23.3262C37.8678 23.3262 38.1426 23.6 38.1426 23.9377C38.1426 24.2755 37.8678 24.5493 37.5288 24.5493Z" fill="#FEB7B7"/>
<path d="M30.0982 24.5493C29.7592 24.5493 29.4844 24.2755 29.4844 23.9377C29.4844 23.6 29.7592 23.3262 30.0982 23.3262C30.4371 23.3262 30.7119 23.6 30.7119 23.9377C30.7119 24.2755 30.4371 24.5493 30.0982 24.5493Z" fill="#FEB7B7"/>
</g>
<defs>
<filter id="filter0_d_148_4774" x="0.660644" y="29.0103" width="27.5732" height="13.1162" filterUnits="userSpaceOnUse" color-interpolation-filters="sRGB">
<feFlood flood-opacity="0" result="BackgroundImageFix"/>
<feColorMatrix in="SourceAlpha" type="matrix" values="0 0 0 0 0 0 0 0 0 0 0 0 0 0 0 0 0 0 127 0" result="hardAlpha"/>
<feOffset/>
<feGaussianBlur stdDeviation="0.169678"/>
<feComposite in2="hardAlpha" operator="out"/>
<feColorMatrix type="matrix" values="0 0 0 0 0 0 0 0 0 0 0 0 0 0 0 0 0 0 0.3 0"/>
<feBlend mode="normal" in2="BackgroundImageFix" result="effect1_dropShadow_148_4774"/>
<feBlend mode="normal" in="SourceGraphic" in2="effect1_dropShadow_148_4774" result="shape"/>
</filter>
<linearGradient id="paint0_linear_148_4774" x1="28.7739" y1="39.7561" x2="1.96475" y2="32.8842" gradientUnits="userSpaceOnUse">
<stop stop-color="#E0E64E"/>
<stop offset="0.427649" stop-color="#A4E188"/>
<stop offset="1" stop-color="#F3A590"/>
</linearGradient>
<linearGradient id="paint1_linear_148_4774" x1="3.64384" y1="-0.157503" x2="0.177774" y2="4.3294" gradientUnits="userSpaceOnUse">
<stop stop-color="white" stop-opacity="0"/>
<stop offset="1" stop-color="white"/>
</linearGradient>
<clipPath id="clip0_148_4774">
<rect width="34" height="34" fill="white" transform="translate(14 7)"/>
</clipPath>
</defs>
</svg>
