<svg width="31" height="31" viewBox="0 0 31 31" fill="none" xmlns="http://www.w3.org/2000/svg">
<rect x="2.70711" y="27.1992" width="16.2523" height="3.09556" transform="rotate(-45 2.70711 27.1992)" fill="#D9C7A4" stroke="#343A40"/>
<circle cx="20" cy="11" r="10" fill="#D3E9FF"/>
<path d="M29 11C29 15.9706 24.9706 20 20 20C15.0294 20 11 15.9706 11 11C11 6.02944 15.0294 2 20 2C24.9706 2 29 6.02944 29 11Z" fill="#C5ECB3"/>
<path d="M16.4903 9.00001C15.6822 9.00231 15.0012 9.68249 14.9997 10.4891C14.9982 11.2916 15.6634 11.9848 16.439 11.9886C17.2598 11.9928 17.9354 11.3053 17.9385 10.4638C17.9415 9.63497 17.3112 8.99771 16.4903 9.00001ZM17.0199 9.51848C17.2663 9.51503 17.4418 9.68555 17.4476 9.93349C17.4529 10.1619 17.2763 10.3447 17.0425 10.3531C16.7996 10.3619 16.6111 10.1749 16.6068 9.92199C16.603 9.689 16.7743 9.52154 17.0199 9.5181V9.51848Z" fill="#18231C"/>
<path d="M22.0934 10.4798C22.0968 11.2623 22.8004 11.9746 23.5703 11.975C24.3355 11.975 25.0038 11.2833 25 10.4951C24.9958 9.66507 24.3171 8.99906 23.4775 9.00098C22.7356 9.00251 22.0899 9.69266 22.0934 10.4798ZM24.0872 9.51945C24.3367 9.51792 24.5129 9.69036 24.5122 9.93561C24.5114 10.1751 24.3528 10.3522 24.1347 10.3575C23.8879 10.3636 23.6894 10.1671 23.6822 9.90955C23.676 9.6873 23.8488 9.52099 24.0872 9.51945Z" fill="#18231C"/>
<path d="M20.9716 12.1727C21.0257 12.1006 21.0433 11.983 21.0353 11.8899C21.0307 11.8354 20.9483 11.7623 20.8885 11.7469C20.8402 11.7347 20.7659 11.7883 20.7168 11.8293C20.6747 11.8642 20.654 11.924 20.6202 11.9703C20.3524 12.3417 19.8305 12.3045 19.6182 11.8991C19.5595 11.7872 19.5185 11.6438 19.3423 11.7289C19.2097 11.7929 19.1652 11.9592 19.258 12.1098C19.6377 12.7291 20.5535 12.7313 20.9716 12.1727Z" fill="#18231C"/>
<path d="M17.0195 9.51855C16.7739 9.522 16.6026 9.68908 16.6064 9.92245C16.6102 10.1754 16.7992 10.3624 17.0421 10.3536C17.2759 10.3451 17.4525 10.162 17.4471 9.93395C17.4414 9.68601 17.2659 9.51549 17.0195 9.51894V9.51855Z" fill="white"/>
<path d="M24.0867 9.51954C23.8484 9.52107 23.6756 9.68738 23.6817 9.90964C23.6886 10.1668 23.8875 10.3637 24.1343 10.3576C24.3523 10.3522 24.5109 10.1748 24.5117 9.9357C24.5125 9.69045 24.3366 9.51801 24.0867 9.51954Z" fill="white"/>
<path d="M23.8069 13.5796C23.4543 13.5796 23.1685 13.2937 23.1685 12.9411C23.1685 12.5886 23.4543 12.3027 23.8069 12.3027C24.1595 12.3027 24.4453 12.5886 24.4453 12.9411C24.4453 13.2937 24.1595 13.5796 23.8069 13.5796Z" fill="#FEB7B7"/>
<path d="M16.0755 13.5796C15.7229 13.5796 15.437 13.2937 15.437 12.9411C15.437 12.5886 15.7229 12.3027 16.0755 12.3027C16.428 12.3027 16.7139 12.5886 16.7139 12.9411C16.7139 13.2937 16.428 13.5796 16.0755 13.5796Z" fill="#FEB7B7"/>
</svg>
