<svg width="50" height="50" viewBox="0 0 50 50" fill="none" xmlns="http://www.w3.org/2000/svg">
<path d="M14.62 38.9053L14.62 11.9605C14.62 9.56355 16.5631 7.62048 18.96 7.62048L38.3866 7.62047C40.7835 7.62047 42.7266 9.56355 42.7266 11.9605L42.7266 38.9052C42.7266 41.3022 40.7835 43.2452 38.3866 43.2452L18.96 43.2452C16.5631 43.2452 14.62 41.3022 14.62 38.9053Z" fill="white" stroke="#343A40" stroke-width="1.24"/>
<line x1="19" y1="13.75" x2="38" y2="13.75" stroke="#555555" stroke-width="0.5"/>
<line x1="19" y1="18.75" x2="38" y2="18.75" stroke="#555555" stroke-width="0.5"/>
<line x1="19" y1="23.75" x2="38" y2="23.75" stroke="#555555" stroke-width="0.5"/>
<line x1="19" y1="28.75" x2="38" y2="28.75" stroke="#555555" stroke-width="0.5"/>
<line x1="19" y1="33.75" x2="38" y2="33.75" stroke="#555555" stroke-width="0.5"/>
<line x1="19" y1="38.75" x2="38" y2="38.75" stroke="#555555" stroke-width="0.5"/>
<rect x="8.50709" y="36.4072" width="15.9496" height="3.17622" rx="1.58811" transform="rotate(-45 8.50709 36.4072)" fill="#D9C7A4" stroke="#343A40" stroke-width="0.8"/>
<circle cx="25.4166" cy="20.6803" r="9.30861" fill="#D9C7A4" stroke="#343A40" stroke-width="0.8"/>
<ellipse cx="25" cy="20.5" rx="8" ry="8.5" fill="#D9C7A4"/>
<path d="M32.4004 20.5996C32.4004 24.4656 29.2664 27.5996 25.4004 27.5996C21.5344 27.5996 18.4004 24.4656 18.4004 20.5996C18.4004 16.7336 21.5344 13.5996 25.4004 13.5996C29.2664 13.5996 32.4004 16.7336 32.4004 20.5996Z" fill="#C5ECB3" stroke="#343A40" stroke-width="0.8"/>
<path d="M22.7236 16L20.5451 19.3547" stroke="white" stroke-width="0.7" stroke-linecap="round"/>
<path d="M22.7236 16L20.5451 19.3547" stroke="white" stroke-width="0.7" stroke-linecap="round"/>
<path d="M22.7236 16L20.5451 19.3547" stroke="white" stroke-width="0.7" stroke-linecap="round"/>
<path d="M24.9814 14.9883L23.0177 18.0122" stroke="white" stroke-width="0.7" stroke-linecap="round"/>
<path d="M24.9814 14.9883L23.0177 18.0122" stroke="white" stroke-width="0.7" stroke-linecap="round"/>
<path d="M24.9814 14.9883L23.0177 18.0122" stroke="white" stroke-width="0.7" stroke-linecap="round"/>
<path d="M22.5 19L22.5001 19.0239" stroke="white" stroke-width="0.7" stroke-linecap="round"/>
<path d="M22.5 19L22.5001 19.0239" stroke="white" stroke-width="0.7" stroke-linecap="round"/>
<path d="M22.5 19L22.5001 19.0239" stroke="white" stroke-width="0.7" stroke-linecap="round"/>
<path d="M22.3068 19C21.5985 19.002 21.0016 19.5961 21.0002 20.3006C20.9989 21.0014 21.582 21.6069 22.2618 21.6102C22.9813 21.6139 23.5735 21.0135 23.5762 20.2785C23.5788 19.5546 23.0263 18.998 22.3068 19ZM22.771 19.4528C22.987 19.4498 23.1409 19.5988 23.1459 19.8153C23.1506 20.0148 22.9957 20.1744 22.7909 20.1818C22.5779 20.1895 22.4126 20.0262 22.409 19.8053C22.4056 19.6018 22.5557 19.4555 22.771 19.4525V19.4528Z" fill="#18231C"/>
<path d="M27.2169 20.2925C27.22 20.976 27.8366 21.5982 28.5114 21.5985C29.1822 21.5985 29.768 20.9944 29.7646 20.3059C29.7609 19.581 29.1661 18.9993 28.4302 19.001C27.7799 19.0023 27.2139 19.6051 27.2169 20.2925ZM28.9646 19.4538C29.1832 19.4525 29.3377 19.6031 29.3371 19.8173C29.3364 20.0265 29.1973 20.1811 29.0062 20.1858C28.7899 20.1911 28.6159 20.0194 28.6095 19.7945C28.6041 19.6004 28.7556 19.4552 28.9646 19.4538Z" fill="#18231C"/>
<path d="M26.2346 21.7714C26.282 21.7085 26.2974 21.6057 26.2904 21.5244C26.2863 21.4769 26.2141 21.413 26.1617 21.3996C26.1194 21.3889 26.0542 21.4357 26.0112 21.4715C25.9743 21.502 25.9562 21.5542 25.9266 21.5947C25.6918 21.919 25.2343 21.8866 25.0483 21.5325C24.9969 21.4347 24.9609 21.3095 24.8064 21.3839C24.6902 21.4397 24.6512 21.585 24.7325 21.7165C25.0654 22.2574 25.8681 22.2593 26.2346 21.7714Z" fill="#18231C"/>
<path d="M22.7706 19.4531C22.5553 19.4561 22.4051 19.6021 22.4085 19.8059C22.4118 20.0268 22.5774 20.1901 22.7904 20.1824C22.9953 20.175 23.1501 20.0151 23.1454 19.8159C23.1404 19.5994 22.9865 19.4504 22.7706 19.4535V19.4531Z" fill="white"/>
<path d="M28.9644 19.4551C28.7555 19.4564 28.604 19.6017 28.6094 19.7958C28.6154 20.0204 28.7898 20.1924 29.0061 20.187C29.1972 20.1824 29.3362 20.0274 29.3369 19.8186C29.3376 19.6044 29.1834 19.4537 28.9644 19.4551Z" fill="white"/>
<path d="M28.7178 22.9999C28.4087 22.9999 28.1582 22.7503 28.1582 22.4424C28.1582 22.1344 28.4087 21.8848 28.7178 21.8848C29.0268 21.8848 29.2773 22.1344 29.2773 22.4424C29.2773 22.7503 29.0268 22.9999 28.7178 22.9999Z" fill="#FEB7B7"/>
<path d="M21.9424 22.9999C21.6333 22.9999 21.3828 22.7503 21.3828 22.4424C21.3828 22.1344 21.6333 21.8848 21.9424 21.8848C22.2514 21.8848 22.502 22.1344 22.502 22.4424C22.502 22.7503 22.2514 22.9999 21.9424 22.9999Z" fill="#FEB7B7"/>
</svg>
