<svg width="31" height="31" viewBox="0 0 31 31" fill="none" xmlns="http://www.w3.org/2000/svg">
<rect x="2.50709" y="26.4072" width="15.9496" height="3.17622" rx="1.58811" transform="rotate(-45 2.50709 26.4072)" fill="#D9C7A4" stroke="#343A40" stroke-width="0.8"/>
<circle cx="19.4166" cy="10.6803" r="9.30861" fill="#D9C7A4" stroke="#343A40" stroke-width="0.8"/>
<ellipse cx="19" cy="10.5" rx="8" ry="8.5" fill="#D9C7A4"/>
<path d="M26.4004 10.5996C26.4004 14.4656 23.2664 17.5996 19.4004 17.5996C15.5344 17.5996 12.4004 14.4656 12.4004 10.5996C12.4004 6.73362 15.5344 3.59961 19.4004 3.59961C23.2664 3.59961 26.4004 6.73362 26.4004 10.5996Z" fill="#C5ECB3" stroke="#343A40" stroke-width="0.8"/>
<path d="M16.7236 6L14.5451 9.35468" stroke="white" stroke-width="0.7" stroke-linecap="round"/>
<path d="M16.7236 6L14.5451 9.35468" stroke="white" stroke-width="0.7" stroke-linecap="round"/>
<path d="M16.7236 6L14.5451 9.35468" stroke="white" stroke-width="0.7" stroke-linecap="round"/>
<path d="M18.9814 4.98828L17.0177 8.01215" stroke="white" stroke-width="0.7" stroke-linecap="round"/>
<path d="M18.9814 4.98828L17.0177 8.01215" stroke="white" stroke-width="0.7" stroke-linecap="round"/>
<path d="M18.9814 4.98828L17.0177 8.01215" stroke="white" stroke-width="0.7" stroke-linecap="round"/>
<path d="M16.5 9L16.5001 9.02387" stroke="white" stroke-width="0.7" stroke-linecap="round"/>
<path d="M16.5 9L16.5001 9.02387" stroke="white" stroke-width="0.7" stroke-linecap="round"/>
<path d="M16.5 9L16.5001 9.02387" stroke="white" stroke-width="0.7" stroke-linecap="round"/>
<path d="M16.3068 9.00001C15.5985 9.00201 15.0016 9.59608 15.0002 10.3006C14.9989 11.0014 15.582 11.6069 16.2618 11.6102C16.9813 11.6139 17.5735 11.0135 17.5762 10.2785C17.5788 9.55458 17.0263 8.998 16.3068 9.00001ZM16.771 9.45284C16.987 9.44983 17.1409 9.59876 17.1459 9.8153C17.1506 10.0148 16.9957 10.1744 16.7909 10.1818C16.5779 10.1895 16.4126 10.0262 16.409 9.80526C16.4056 9.60177 16.5557 9.45552 16.771 9.4525V9.45284Z" fill="#18231C"/>
<path d="M21.2169 10.2925C21.22 10.976 21.8366 11.5982 22.5114 11.5985C23.1822 11.5985 23.768 10.9944 23.7646 10.3059C23.7609 9.58099 23.1661 8.99931 22.4302 9.00098C21.7799 9.00232 21.2139 9.60509 21.2169 10.2925ZM22.9646 9.45381C23.1832 9.45247 23.3377 9.60308 23.3371 9.81728C23.3364 10.0265 23.1973 10.1811 23.0062 10.1858C22.7899 10.1911 22.6159 10.0194 22.6095 9.79452C22.6041 9.60041 22.7556 9.45515 22.9646 9.45381Z" fill="#18231C"/>
<path d="M20.2346 11.7714C20.282 11.7085 20.2974 11.6057 20.2904 11.5244C20.2863 11.4769 20.2141 11.413 20.1617 11.3996C20.1194 11.3889 20.0542 11.4357 20.0112 11.4715C19.9743 11.502 19.9562 11.5542 19.9266 11.5947C19.6918 11.919 19.2343 11.8866 19.0483 11.5325C18.9969 11.4347 18.9609 11.3095 18.8064 11.3839C18.6902 11.4397 18.6512 11.585 18.7325 11.7165C19.0654 12.2574 19.8681 12.2593 20.2346 11.7714Z" fill="#18231C"/>
<path d="M16.7706 9.45312C16.5553 9.45614 16.4051 9.60206 16.4085 9.80589C16.4118 10.0268 16.5774 10.1901 16.7904 10.1824C16.9953 10.175 17.1501 10.0151 17.1454 9.81593C17.1404 9.59938 16.9865 9.45045 16.7706 9.45346V9.45312Z" fill="white"/>
<path d="M22.9644 9.45509C22.7555 9.45643 22.604 9.60168 22.6094 9.7958C22.6154 10.0204 22.7898 10.1924 23.0061 10.187C23.1972 10.1824 23.3362 10.0274 23.3369 9.81856C23.3376 9.60436 23.1834 9.45375 22.9644 9.45509Z" fill="white"/>
<path d="M22.7178 12.9999C22.4087 12.9999 22.1582 12.7503 22.1582 12.4424C22.1582 12.1344 22.4087 11.8848 22.7178 11.8848C23.0268 11.8848 23.2773 12.1344 23.2773 12.4424C23.2773 12.7503 23.0268 12.9999 22.7178 12.9999Z" fill="#FEB7B7"/>
<path d="M15.9424 12.9999C15.6333 12.9999 15.3828 12.7503 15.3828 12.4424C15.3828 12.1344 15.6333 11.8848 15.9424 11.8848C16.2514 11.8848 16.502 12.1344 16.502 12.4424C16.502 12.7503 16.2514 12.9999 15.9424 12.9999Z" fill="#FEB7B7"/>
</svg>
