<svg width="31" height="31" viewBox="0 0 31 31" fill="none" xmlns="http://www.w3.org/2000/svg">
<path d="M6.21358 25.1674L6.21358 5.74205C6.21358 4.01404 7.6144 2.61322 9.3424 2.61322L23.3476 2.61322C25.0756 2.61322 26.4765 4.01404 26.4765 5.74205L26.4765 25.1674C26.4765 26.8954 25.0756 28.2962 23.3476 28.2962L9.3424 28.2962C7.6144 28.2962 6.21358 26.8954 6.21358 25.1674Z" fill="white" stroke="#343A40" stroke-width="0.893951"/>
<line x1="9.37207" y1="7.02875" x2="23.0697" y2="7.02875" stroke="#555555" stroke-width="0.360465"/>
<line x1="9.37207" y1="10.6332" x2="23.0697" y2="10.6332" stroke="#555555" stroke-width="0.360465"/>
<line x1="9.37207" y1="14.2377" x2="23.0697" y2="14.2377" stroke="#555555" stroke-width="0.360465"/>
<line x1="9.37207" y1="17.8422" x2="23.0697" y2="17.8422" stroke="#555555" stroke-width="0.360465"/>
<line x1="9.37207" y1="21.4477" x2="23.0697" y2="21.4477" stroke="#555555" stroke-width="0.360465"/>
<line x1="9.37207" y1="25.0522" x2="23.0697" y2="25.0522" stroke="#555555" stroke-width="0.360465"/>
<rect x="1.80723" y="23.3633" width="11.4985" height="2.28983" rx="1.14491" transform="rotate(-45 1.80723 23.3633)" fill="#D9C7A4" stroke="#343A40" stroke-width="0.576744"/>
<circle cx="13.9983" cy="12.0256" r="6.71086" fill="#D9C7A4" stroke="#343A40" stroke-width="0.576744"/>
<ellipse cx="13.6981" cy="11.8955" rx="5.76744" ry="6.12791" fill="#D9C7A4"/>
<path d="M19.0325 11.9674C19.0325 14.7545 16.7731 17.0139 13.986 17.0139C11.1989 17.0139 8.93945 14.7545 8.93945 11.9674C8.93945 9.1803 11.1989 6.9209 13.986 6.9209C16.7731 6.9209 19.0325 9.1803 19.0325 11.9674Z" fill="#C5ECB3" stroke="#343A40" stroke-width="0.576744"/>
<path d="M12.0566 8.65137L10.4861 11.0699" stroke="white" stroke-width="0.504651" stroke-linecap="round"/>
<path d="M12.0566 8.65137L10.4861 11.0699" stroke="white" stroke-width="0.504651" stroke-linecap="round"/>
<path d="M12.0566 8.65137L10.4861 11.0699" stroke="white" stroke-width="0.504651" stroke-linecap="round"/>
<path d="M13.6846 7.92188L12.2689 10.1019" stroke="white" stroke-width="0.504651" stroke-linecap="round"/>
<path d="M13.6846 7.92188L12.2689 10.1019" stroke="white" stroke-width="0.504651" stroke-linecap="round"/>
<path d="M13.6846 7.92188L12.2689 10.1019" stroke="white" stroke-width="0.504651" stroke-linecap="round"/>
<path d="M11.8955 10.8135L11.8956 10.8306" stroke="white" stroke-width="0.504651" stroke-linecap="round"/>
<path d="M11.8955 10.8135L11.8956 10.8306" stroke="white" stroke-width="0.504651" stroke-linecap="round"/>
<path d="M11.8955 10.8135L11.8956 10.8306" stroke="white" stroke-width="0.504651" stroke-linecap="round"/>
<path d="M11.7568 10.8145C11.2461 10.8159 10.8158 11.2442 10.8148 11.7521C10.8138 12.2574 11.2342 12.6938 11.7243 12.6963C12.243 12.6989 12.6699 12.266 12.6719 11.7362C12.6738 11.2143 12.2755 10.813 11.7568 10.8145ZM12.0914 11.1409C12.2471 11.1387 12.358 11.2461 12.3617 11.4022C12.3651 11.546 12.2534 11.6611 12.1057 11.6664C11.9522 11.672 11.8331 11.5542 11.8304 11.395C11.828 11.2483 11.9362 11.1428 12.0914 11.1407V11.1409Z" fill="#18231C"/>
<path d="M15.2961 11.7466C15.2983 12.2393 15.7429 12.6878 16.2293 12.6881C16.7129 12.6881 17.1352 12.2525 17.1328 11.7562C17.1301 11.2336 16.7013 10.8142 16.1707 10.8154C15.7019 10.8164 15.2939 11.251 15.2961 11.7466ZM16.556 11.1419C16.7136 11.1409 16.825 11.2495 16.8245 11.4039C16.8241 11.5547 16.7238 11.6662 16.586 11.6696C16.4301 11.6734 16.3046 11.5497 16.3 11.3875C16.2962 11.2476 16.4054 11.1429 16.556 11.1419Z" fill="#18231C"/>
<path d="M14.5875 12.8122C14.6217 12.7669 14.6328 12.6928 14.6277 12.6342C14.6248 12.5999 14.5728 12.5538 14.535 12.5442C14.5045 12.5365 14.4575 12.5702 14.4265 12.5961C14.3999 12.618 14.3868 12.6557 14.3655 12.6848C14.1962 12.9187 13.8664 12.8953 13.7323 12.64C13.6952 12.5695 13.6693 12.4793 13.5579 12.5328C13.4741 12.5731 13.446 12.6779 13.5046 12.7727C13.7446 13.1626 14.3233 13.164 14.5875 12.8122Z" fill="#18231C"/>
<path d="M12.09 11.1416C11.9348 11.1438 11.8266 11.249 11.829 11.3959C11.8314 11.5552 11.9508 11.6729 12.1043 11.6674C12.252 11.6621 12.3637 11.5467 12.3603 11.4032C12.3566 11.247 12.2457 11.1397 12.09 11.1418V11.1416Z" fill="white"/>
<path d="M16.5557 11.1426C16.4051 11.1435 16.2958 11.2483 16.2997 11.3882C16.3041 11.5501 16.4298 11.6741 16.5857 11.6703C16.7235 11.6669 16.8237 11.5552 16.8242 11.4046C16.8247 11.2502 16.7136 11.1416 16.5557 11.1426Z" fill="white"/>
<path d="M16.3778 13.6985C16.155 13.6985 15.9744 13.5185 15.9744 13.2965C15.9744 13.0745 16.155 12.8945 16.3778 12.8945C16.6006 12.8945 16.7812 13.0745 16.7812 13.2965C16.7812 13.5185 16.6006 13.6985 16.3778 13.6985Z" fill="#FEB7B7"/>
<path d="M11.4931 13.6985C11.2703 13.6985 11.0896 13.5185 11.0896 13.2965C11.0896 13.0745 11.2703 12.8945 11.4931 12.8945C11.7159 12.8945 11.8965 13.0745 11.8965 13.2965C11.8965 13.5185 11.7159 13.6985 11.4931 13.6985Z" fill="#FEB7B7"/>
</svg>
