<svg width="137" height="124" viewBox="0 0 137 124" fill="none" xmlns="http://www.w3.org/2000/svg">
<g clip-path="url(#clip0_153_5150)">
<path d="M36.0466 85.2256C34.6349 84.2074 33.3971 83.5857 29.6467 83.8167C25.8963 84.0477 23.6974 85.3454 20.6087 88.6623C19.7702 89.5635 18.9973 92.4184 19.3538 92.598C19.7131 92.7777 19.9213 91.9193 21.1734 91.597C22.4254 91.2747 22.7591 92.1446 23.6632 91.9649C24.5701 91.7852 23.7373 91.2548 25.3231 90.5104C26.9088 89.766 29.3615 91.2433 30.4852 92.1988C32.5729 93.9756 36.1407 99.8194 37.0534 99.6083C37.966 99.3973 37.3243 93.2683 37.2445 91.4173C37.1646 89.5664 37.4612 86.2438 36.0495 85.2256H36.0466Z" fill="#C5ECB3"/>
<path d="M28.3526 92.9154C27.7822 92.385 26.3077 92.0285 25.6518 92.5504C24.9958 93.0723 25.224 94.8462 25.0871 94.9375C24.9502 95.0288 22.5459 92.9154 21.4023 93.9279C20.2586 94.9404 21.4479 96.8655 21.7987 97.3617C21.7217 97.4302 19.7082 96.5403 18.9324 97.3132C18.1567 98.0861 18.9666 99.9713 19.2262 100.294C21.1285 102.649 22.9538 105.079 25.0215 107.284C26.7583 109.141 28.9972 110.361 31.4841 111.037C35.1119 112.021 37.7072 109.643 37.1768 105.909C36.3525 100.125 28.9259 93.4459 28.3555 92.9183L28.3526 92.9154Z" fill="#C5ECB3"/>
<path d="M40.9067 62.367C41.7737 63.2825 42.6493 63.7388 43.8642 63.736C45.5755 63.7303 47.2867 63.793 48.9979 63.793C59.9268 63.793 70.8586 63.793 81.7875 63.7845C83.5444 63.7845 85.2983 63.7616 87.0552 63.7388C88.4413 63.7189 89.8473 64.8026 90.5518 65.296C91.2562 65.7894 91.9721 66.6222 92.3 67.0015C92.6252 67.3808 92.9475 67.7801 92.7164 68.2421C92.4826 68.7042 91.5813 68.747 90.9596 68.7812C90.335 68.8126 87.8566 69.3088 86.4591 69.9676C83.1365 71.5334 80.507 76.9265 84.7308 80.2976C88.1447 83.0213 95.2005 82.545 98.2151 79.3707C99.8066 77.6966 100.793 75.7857 100.893 73.4043C100.933 72.4688 101.133 71.0428 101.726 70.732C102.989 70.0703 102.727 69.3145 102.442 68.4218C102.094 67.3409 101.737 66.2457 101.244 65.2276C99.8607 62.3756 99.8579 62.4212 102.159 60.3763C109.215 54.1076 112.079 46.3387 110.564 36.9669C110.376 35.7976 110.639 34.5456 110.744 33.3363C110.955 30.9378 111.6 28.5022 111.36 26.1549C110.678 19.4926 107.031 14.6071 100.853 12.2371C94.9039 9.95549 89.1742 11.1391 84.1148 15.1861C83.7155 15.5055 82.9026 15.5569 82.3722 15.4085C81.3312 15.1176 80.3872 14.4588 79.3433 14.1964C71.7227 12.2856 64.2048 12.3027 56.9693 15.7708C55.9967 16.2356 55.4748 16.036 54.7561 15.3743C51.6217 12.4909 47.9056 10.9765 43.6247 11.0307C39.8914 11.0792 36.8454 12.7847 33.9079 14.9608C28.2438 19.1561 26.7892 28.7959 29.376 34.2832C29.7582 35.0932 29.8437 36.2112 29.6527 37.0981C28.0954 44.3194 29.9692 50.6709 34.6123 56.2066C36.4918 58.4483 38.896 60.2394 40.9181 62.3698L40.9067 62.367Z" fill="#C5ECB3"/>
<path d="M40.114 83.8195C39.304 84.1104 39.1357 84.4869 39.13 85.2456C39.1015 89.5207 39.0103 93.7988 38.9817 98.0739C38.9646 100.549 39.0873 100.675 41.5371 100.678C56.4161 100.678 71.2979 100.666 86.1769 100.652C88.0678 100.652 88.6553 100.099 88.6981 98.188C88.7893 94.0554 88.8093 89.92 88.9034 85.7846C88.9234 84.9119 88.6382 84.6466 87.7797 84.3814C86.2995 83.9222 84.8051 83.309 83.5274 82.4477C79.9795 80.0549 79.0269 75.5344 81.2087 71.8525C82.5349 69.6165 84.46 68.0393 86.9184 67.1381C87.2436 67.0183 87.5459 66.8386 88.1762 66.5335C87.5316 66.2483 87.2093 65.983 86.8871 65.983C71.0897 65.9631 39.9628 65.9545 39.5635 66.023C39.1643 66.0914 39.2384 66.4308 39.3953 66.5363C39.5521 66.6447 41.5742 68.0194 42.6152 68.8265C45.0765 70.7316 46.7392 73.0846 46.3143 76.3758C45.8266 80.1347 43.6077 82.5647 40.1168 83.8195H40.114Z" fill="#C5ECB3"/>
<path d="M99.4417 85.3143C97.7647 86.0501 96.0935 86.803 94.4165 87.5502C94.7074 86.592 95.0895 85.6508 95.7883 85.1317C98.6859 82.9785 101.789 81.2587 105.579 81.7892C105.856 79.5817 104.618 74.3283 103.606 73.2588C103.557 73.5269 103.506 73.755 103.474 73.9803C102.508 80.617 99.0453 84.0166 92.3944 84.7439C91.3962 84.8522 91.2707 85.3114 91.265 86.1271C91.245 90.2597 91.208 94.3922 91.1395 98.5248C91.0882 101.702 89.6992 103.022 86.5592 102.985C84.7538 102.965 82.9457 102.96 81.1403 102.948C71.3978 102.88 52.104 101.873 52.0811 102.9C52.0612 103.927 55.3838 105.752 57.6711 106.565C62.8874 108.418 68.3405 108.818 73.842 108.655C79.161 108.498 89.0148 108.427 89.8019 108.202C90.5891 107.976 92.0807 107.808 92.46 106.565C92.7195 105.709 92.5627 104.608 92.557 102.971C92.5513 101.334 94.1313 101.551 94.1569 102.549C94.1997 104.149 93.25 107.055 94.579 108.635C95.9081 110.215 98.6432 110.746 101.19 110.583C103.737 110.418 108.617 106.208 111.212 102.635C111.925 101.656 112.581 99.0496 111.549 98.154C110.516 97.2585 109.19 99.4603 108.928 98.4392C108.665 97.4182 111.566 95.3277 109.98 93.9216C108.397 92.5185 105.976 96.9334 105.819 95.6386C105.739 94.9911 106.175 94.3323 106.349 93.8589C106.523 93.3855 106.84 92.8322 106.175 92.2161C105.511 91.6001 103.763 92.2076 103.209 92.5128C101.43 93.4938 99.7754 94.7088 98.0842 95.8496C97.4852 96.2546 96.9148 96.7081 96.1847 97.2471C96.4329 94.2211 101.886 90.7274 103.506 90.5049C105.126 90.2825 106.326 90.1712 107.065 90.8415C107.804 91.5117 108.286 92.1819 109.244 92.0564C110.761 91.8539 111.705 92.6183 112.142 94.0044C112.381 94.763 112.441 95.5787 112.641 96.3516C112.789 96.9334 113.052 98.1512 113.767 98.1027C114.48 98.0542 114.486 93.6193 113.762 91.5003C111.677 85.4112 105.374 82.7104 99.4446 85.3171L99.4417 85.3143Z" fill="#C5ECB3"/>
<path d="M49.4776 102.84C49.1753 102.578 38.8424 102.124 38.5858 102.444C38.3291 102.766 39.0449 103.496 39.3615 104.697C39.6781 105.898 39.4556 107.212 39.9947 107.714C40.5308 108.216 43.7907 108.154 45.9839 107.954C49.1753 107.663 51.8819 107.278 52.2783 106.536C52.6747 105.795 49.8484 103.165 49.4776 102.84Z" fill="#C5ECB3"/>
<path d="M43.6084 73.9148C42.6131 71.1369 40.3657 69.691 37.7846 68.6443C37.1885 68.4018 36.0563 68.2678 35.9679 67.8058C35.8794 67.3438 37.0801 65.721 36.7094 65.3588C36.3386 64.9965 35.5914 65.4529 35.3661 65.7267C34.0228 67.3694 32.5198 68.958 31.5672 70.8175C30.5034 72.8938 30.1298 75.3208 31.128 77.5711C32.7223 81.1618 35.8253 82.4338 39.7268 81.3329C42.9268 80.4317 44.7264 77.0349 43.6084 73.9148Z" fill="#C5ECB3"/>
<path d="M54.5396 106.805L64.9438 109.457H92.0294C92.0294 109.457 92.4943 107.506 93.8233 104.075C95.1523 100.644 97.2942 84.9839 97.2942 84.9839L104.875 83.2898L106.589 80.3522L105.211 71.5908L103.332 72.6004L99.9894 80.5176L90.2183 83.7547L90.0501 99.9912L87.3549 102.629L52.1126 101.514L50.5439 103.054L52.8398 105.621L54.5453 106.802L54.5396 106.805Z" fill="url(#paint0_linear_153_5150)"/>
<path opacity="0.5" d="M83.5391 80.1642C83.5391 80.1642 88.6784 81.5132 92.8053 80.1642C96.9321 78.8151 99.3763 76.7531 99.8811 71.5938C100.386 66.4345 99.5902 65.4877 98.5806 63.9904C97.571 62.4931 95.9482 61.5091 93.1789 61.8C89.3115 62.2079 84.4089 64.6292 84.4089 63.7365C84.4089 62.205 101.393 57.3024 104.764 50.8169C108.135 44.3314 109.233 33.4111 109.15 27.7669C109.067 22.1228 106.589 15.7656 106.589 15.7656C106.589 15.7656 111.255 18.6661 112.182 22.7787C113.109 26.8913 112.949 27.0938 112.182 30.6303C111.415 34.1668 112.182 36.8563 112.182 40.3985C112.182 43.9407 113.277 44.9503 112.182 48.9945C111.087 53.0386 102.123 62.6414 102.123 62.6414L105.212 71.591L101.421 77.1296L96.4787 81.6814L90.2185 83.7548L83.5419 80.1585L83.5391 80.1642Z" fill="#66C689"/>
<path d="M43.2772 70.9004L39.2844 67.9058L38.714 64.7686H87.1982L90.4781 66.9076L85.487 69.3318L81.4942 73.182L81.0664 77.6026L86.0574 82.8789L90.4781 83.5919V88.2977L89.1946 101.417H38.1436V84.8753L39.2844 83.5919L44.1328 80.0268L45.2736 75.0358L43.2772 70.9004Z" fill="#F2F5E6"/>
<path opacity="0.5" d="M38.2256 101.377L38.7275 109.015L42.3867 109.457L52.306 108.005V105.852L50.0843 102.056L38.2256 101.377Z" fill="#66C689"/>
<path d="M16.451 100.55C16.0431 97.3562 16.6791 94.316 17.5091 91.3385C19.1746 85.3663 23.755 81.924 29.9752 81.7728C30.2576 81.7671 30.5371 81.73 30.9307 81.6958C25.469 72.9686 30.0323 67.1962 36.6889 61.8943C36.1727 61.4066 35.6137 60.916 35.0946 60.3827C28.5521 53.689 25.3036 45.9087 27.1318 36.42C27.2459 35.8211 27.0491 35.111 26.8352 34.5092C24.3396 27.4761 25.6174 21.0306 30.2519 15.3807C34.5926 10.0931 40.4222 8.08241 47.1929 9.00361C50.2588 9.42001 52.9767 10.7947 55.5578 12.4688C55.9942 12.7512 56.7271 12.9337 57.1863 12.774C65.691 9.82785 74.2357 9.71662 82.8145 12.3433C83.6616 12.6029 84.2149 12.466 84.8908 11.9982C94.7616 5.11917 108.771 9.56831 112.986 20.8537C114.652 25.3143 114.74 29.7435 113.271 34.2525C113.092 34.803 113.106 35.4703 113.211 36.0521C115.051 46.4164 112.282 55.135 103.996 61.8657C103.258 62.4675 103.129 62.9324 103.552 63.7595C106.327 69.2097 107.852 75.0164 108.371 81.094C108.46 82.1179 108.968 82.5999 109.84 83.2159C111.734 84.5564 114.791 86.8808 115.944 88.9884C116.825 90.8194 117.852 96.3038 116.591 99.6093C115.581 102.262 112.88 104.906 112.025 105.915C109.632 108.744 106.723 110.949 103.346 112.486C101.062 113.524 98.6375 114.137 96.1363 113.604C94.8729 113.336 93.6037 112.786 92.5143 112.09C91.5788 111.494 90.7203 111.186 89.6137 111.228C84.7282 111.422 79.8399 111.613 74.9487 111.682C68.9994 111.765 63.1043 111.368 57.2833 109.871C55.4466 109.397 51.3055 108.893 47.3269 109.537C43.3483 110.182 40.3452 109.269 39.6578 110.099C38.7651 111.174 38.0179 112.389 36.7203 112.903C34.336 113.844 31.9773 113.798 29.6159 112.968C27.2031 112.121 25.1211 110.744 23.3015 108.935C22.3318 107.971 21.2395 107.13 20.2042 106.235L20.2499 106.294C17.6089 103.354 17.1925 102.721 16.451 100.55ZM92.7196 68.2086C92.4857 68.6706 91.5845 68.7134 90.9628 68.7477C90.341 68.7819 87.8598 69.2753 86.4623 69.9341C83.1397 71.4998 80.5101 76.893 84.7339 80.2641C88.1478 82.9878 95.2037 82.5115 98.2183 79.3372C99.8097 77.6631 100.797 75.7522 100.896 73.3708C100.936 72.4353 101.136 71.0093 101.729 70.6984C102.993 70.0368 102.73 69.281 102.442 68.3883C102.094 67.3074 101.738 66.2122 101.244 65.194C99.861 62.342 99.8582 62.3877 102.16 60.3428C109.216 54.074 112.079 46.3051 110.565 36.9334C110.376 35.7641 110.639 34.512 110.744 33.3028C110.955 30.9042 111.6 28.4686 111.36 26.1214C110.679 19.4591 107.031 14.5736 100.854 12.2036C94.9042 9.92196 89.1745 11.1055 84.1151 15.1526C83.7158 15.472 82.903 15.5233 82.3725 15.375C81.3315 15.0841 80.3875 14.4253 79.3436 14.1629C71.723 12.2521 64.2051 12.2692 56.9696 15.7372C55.997 16.2021 55.4751 16.0025 54.7564 15.3408C51.622 12.4574 47.9059 10.943 43.625 10.9972C39.8917 11.0457 36.8457 12.7512 33.9082 14.9273C28.2441 19.1226 26.7895 28.7624 29.3763 34.2497C29.7585 35.0596 29.844 36.1776 29.653 37.0646C28.0958 44.2859 29.9695 50.6373 34.6126 56.1731C36.4921 58.4148 38.8963 60.2059 40.9184 62.3363C41.7854 63.2518 42.661 63.7081 43.876 63.7053C45.5872 63.6996 47.2984 63.7623 49.0096 63.7623C59.9385 63.7623 70.8703 63.7623 81.7992 63.7538C83.5561 63.7538 85.3101 63.731 87.0669 63.7081C88.453 63.6882 89.859 64.7719 90.5635 65.2653C91.2679 65.7587 91.9838 66.5915 92.3118 66.9708C92.6397 67.3502 92.9592 67.7494 92.7282 68.2115L92.7196 68.2086ZM39.5694 65.9926C39.1701 66.0611 39.2443 66.4004 39.4011 66.506C39.558 66.6115 41.5801 67.989 42.6211 68.7961C45.0824 70.7013 46.7451 73.0542 46.3201 76.3454C45.8324 80.1044 43.6136 82.5343 40.1227 83.7892C39.3127 84.0801 39.1445 84.4566 39.1388 85.2152C39.1102 89.4904 39.019 93.7684 38.9905 98.0436C38.9733 100.519 39.096 100.645 41.5459 100.647C56.4248 100.647 71.3067 100.636 86.1856 100.622C88.0765 100.622 88.664 100.068 88.7068 98.1576C88.7981 94.0251 88.818 89.8868 88.9121 85.7542C88.9321 84.8815 88.6469 84.6163 87.7885 84.351C86.3083 83.8919 84.8138 83.2787 83.5361 82.4174C79.9882 80.0245 79.0356 75.5041 81.2174 71.8221C82.5436 69.5861 84.4687 68.009 86.9271 67.1077C87.2523 66.988 87.5546 66.8083 88.1849 66.5031C87.5403 66.2179 87.2181 65.9527 86.8958 65.9527C71.0985 65.9327 39.9715 65.9242 39.5723 65.9926H39.5694ZM113.773 98.0692C114.486 98.0207 114.492 93.5859 113.767 91.4668C111.683 85.3778 105.38 82.6769 99.4503 85.2836C97.7734 86.0195 96.1021 86.7724 94.4251 87.5196C94.716 86.5613 95.0982 85.6202 95.7969 85.1011C98.6946 82.9478 101.798 81.2281 105.588 81.7585C105.865 79.5511 104.627 74.2977 103.614 73.2282C103.566 73.4963 103.514 73.7244 103.483 73.9497C102.516 80.5864 99.0539 83.986 92.403 84.7132C91.4048 84.8216 91.2793 85.2808 91.2736 86.0965C91.2537 90.229 91.2166 94.3616 91.1481 98.4942C91.0968 101.671 89.7079 102.992 86.5678 102.955C84.7625 102.935 82.9543 102.929 81.149 102.918C71.4065 102.849 52.1126 101.842 52.0898 102.869C52.067 103.896 55.3924 105.721 57.6797 106.534C62.8961 108.388 68.3491 108.787 73.8507 108.625C79.1697 108.468 89.0234 108.396 89.8105 108.171C90.5977 107.946 92.0893 107.777 92.4686 106.534C92.7282 105.678 92.5713 104.578 92.5656 102.94C92.5599 101.303 94.1399 101.52 94.1656 102.518C94.2083 104.118 93.2586 107.025 94.5877 108.605C95.9167 110.185 98.6518 110.715 101.199 110.553C103.745 110.39 108.625 106.178 111.221 102.604C111.934 101.626 112.59 99.019 111.557 98.1234C110.525 97.2279 109.199 99.4296 108.936 98.4086C108.674 97.3876 111.574 95.2971 109.989 93.891C108.403 92.485 105.984 96.9028 105.827 95.6079C105.748 94.9605 106.184 94.3017 106.358 93.8283C106.532 93.3548 106.848 92.8016 106.184 92.1855C105.519 91.5695 103.771 92.177 103.218 92.4821C101.438 93.4632 99.784 94.6782 98.0928 95.819C97.4939 96.224 96.9235 96.6774 96.1934 97.2165C96.4415 94.1905 101.895 90.6968 103.514 90.4743C105.134 90.2519 106.335 90.1406 107.074 90.8108C107.812 91.4811 108.294 92.1513 109.253 92.0258C110.77 91.8233 111.714 92.5877 112.15 93.9737C112.39 94.7324 112.45 95.548 112.649 96.3209C112.798 96.9028 113.06 98.1206 113.776 98.0721L113.773 98.0692ZM21.8042 97.3277C21.7272 97.3962 19.7137 96.5063 18.9379 97.2792C18.1622 98.0521 18.9722 99.9373 19.2317 100.26C21.134 102.615 22.9593 105.045 25.027 107.25C26.7639 109.107 29.0027 110.327 31.4897 111.003C35.1174 111.987 37.7128 109.608 37.1823 105.875C36.358 100.091 28.9314 93.4119 28.361 92.8843C27.7906 92.3566 26.3161 91.9973 25.6601 92.5192C25.0042 93.0411 25.2323 94.8151 25.0954 94.9063C24.9585 94.9976 22.5543 92.8843 21.4106 93.8967C20.267 94.9092 21.4563 96.8343 21.8071 97.3306L21.8042 97.3277ZM35.973 67.7751C35.8846 67.3131 37.0853 65.6903 36.7145 65.3281C36.3438 64.9659 35.5966 65.4222 35.3712 65.696C34.0279 67.3388 32.5249 68.9273 31.5724 70.7868C30.5086 72.8631 30.1349 75.2902 31.1331 77.5404C32.7274 81.1311 35.8304 82.4031 39.732 81.3022C42.9319 80.401 44.7316 77.0042 43.6136 73.8841C42.6182 71.1063 40.3708 69.6603 37.7898 68.6136C37.1937 68.3712 36.0614 68.2371 35.973 67.7751ZM37.0596 99.5779C37.9694 99.3669 37.3306 93.2379 37.2507 91.387C37.1709 89.536 37.4675 86.2134 36.0557 85.1952C34.644 84.1771 33.4062 83.5553 29.6558 83.7863C25.9054 84.0173 23.7065 85.315 20.6178 88.6319C19.7793 89.5331 19.0064 92.388 19.3629 92.5677C19.7194 92.7474 19.9304 91.8889 21.1825 91.5666C22.4345 91.2444 22.7682 92.1142 23.6723 91.9345C24.5764 91.7549 23.7464 91.2244 25.3321 90.48C26.9179 89.7356 29.3706 91.213 30.4943 92.1684C32.582 93.9452 36.1498 99.789 37.0625 99.5779H37.0596ZM52.2866 106.503C52.6858 105.761 49.8566 103.132 49.4859 102.806C49.1836 102.544 38.8507 102.091 38.594 102.41C38.3373 102.729 39.0532 103.462 39.3698 104.663C39.6863 105.864 39.4639 107.179 40.0029 107.681C40.542 108.182 43.799 108.12 45.9922 107.92C49.1836 107.629 51.8901 107.244 52.2866 106.503Z" fill="#18231C"/>
<path d="M95.4917 15.8135C101.507 15.8306 106.575 20.893 106.586 26.8965C106.597 32.8686 101.646 38.0279 95.8739 38.0564C89.7649 38.0878 84.7368 32.9713 84.714 26.7082C84.6911 20.5393 89.3827 15.7964 95.4917 15.8135ZM91.5502 19.6723C89.7164 19.6466 88.4102 20.9158 88.3674 22.761C88.3275 24.4608 89.6422 25.8212 91.382 25.884C93.1901 25.9496 94.5933 24.5578 94.6247 22.6755C94.6532 20.9414 93.3784 19.6951 91.5502 19.6694V19.6723Z" fill="#18231C"/>
<path d="M53.7918 26.8312C53.7662 32.655 48.5299 37.9569 42.8002 37.9597C37.1047 37.9597 32.1308 32.8118 32.1593 26.9452C32.1907 20.7678 37.2416 15.811 43.4904 15.8252C49.0119 15.8366 53.8175 20.9731 53.7918 26.8312ZM38.9528 19.684C37.0961 19.6726 35.7842 20.956 35.7899 22.7813C35.7956 24.5638 36.9764 25.8814 38.5992 25.9214C40.4359 25.967 41.9132 24.5039 41.9674 22.5874C42.013 20.9332 40.7268 19.6954 38.9528 19.684Z" fill="#18231C"/>
<path d="M68.0983 42.3601C65.4288 42.8763 63.615 41.4047 62.1376 39.4311C61.7355 38.8949 61.6043 38.0193 61.6642 37.3263C61.6984 36.9213 62.3116 36.3766 62.7565 36.2625C63.1159 36.1712 63.6691 36.5705 64.0342 36.8757C64.3479 37.1352 64.5019 37.5801 64.7529 37.9252C66.7465 40.6888 70.6309 40.4122 72.2109 37.3947C72.6473 36.5619 72.9525 35.4953 74.2644 36.1284C75.2512 36.6047 75.582 37.8425 74.8918 38.9633C73.3631 41.456 71.0416 42.4941 68.0983 42.3601Z" fill="#18231C"/>
<path d="M91.5499 19.6729C93.3781 19.6985 94.6529 20.942 94.6244 22.6789C94.5959 24.5612 93.1899 25.953 91.3817 25.8874C89.6419 25.8247 88.3272 24.4614 88.3671 22.7644C88.4099 20.9192 89.7161 19.65 91.5499 19.6757V19.6729Z" fill="white"/>
<path d="M38.9529 19.6837C40.7269 19.6951 42.0132 20.9329 41.9675 22.587C41.9162 24.5007 40.436 25.9667 38.5993 25.921C36.9765 25.8811 35.7958 24.5606 35.7901 22.781C35.7844 20.9557 37.0934 19.6723 38.9529 19.6837Z" fill="white"/>
<path opacity="0.8" d="M33.4964 107.989C35.1594 106.587 35.0307 103.699 33.209 101.538C31.3874 99.3781 28.5626 98.7637 26.8996 100.166C25.2367 101.568 25.3654 104.456 27.1871 106.617C29.0087 108.777 31.8335 109.391 33.4964 107.989Z" fill="#3AB36C"/>
<path opacity="0.8" d="M103.721 106.573C105.797 104.656 106.284 101.806 104.808 100.208C103.332 98.6101 100.453 98.8687 98.3772 100.786C96.3011 102.703 95.8145 105.552 97.2902 107.15C98.7659 108.749 101.645 108.49 103.721 106.573Z" fill="#3AB36C"/>
<path d="M41.0464 49.9014C43.6705 49.9014 45.7978 47.7741 45.7978 45.1499C45.7978 42.5257 43.6705 40.3984 41.0464 40.3984C38.4222 40.3984 36.2949 42.5257 36.2949 45.1499C36.2949 47.7741 38.4222 49.9014 41.0464 49.9014Z" fill="#FEB7B7"/>
<path d="M98.5776 49.9014C101.202 49.9014 103.329 47.7741 103.329 45.1499C103.329 42.5257 101.202 40.3984 98.5776 40.3984C95.9535 40.3984 93.8262 42.5257 93.8262 45.1499C93.8262 47.7741 95.9535 49.9014 98.5776 49.9014Z" fill="#FEB7B7"/>
<path d="M52.7104 77.512C52.8464 77.512 52.9744 77.528 53.1024 77.544C53.3024 77.576 53.4864 77.672 53.6384 77.824C54.1584 78.368 54.2704 79.304 54.3024 80.064C54.3264 80.552 54.3184 81.048 54.2624 81.528C54.2064 82.024 54.1344 82.56 53.8704 82.968C53.6464 83.312 53.2944 83.536 52.9344 83.608C52.6064 83.672 52.2464 83.632 51.9424 83.456C51.6544 83.288 51.4624 83.024 51.3184 82.688C51.2144 82.44 51.1504 82.168 51.1344 81.896C51.0944 81.448 51.0784 81 51.0784 80.552C51.0784 80.248 51.0944 79.952 51.1264 79.656C51.1424 79.416 51.1664 79.168 51.2064 78.936C51.2464 78.744 51.2704 78.576 51.3504 78.4C51.4304 78.224 51.5344 78.056 51.6704 77.928C51.9024 77.696 52.2064 77.568 52.5104 77.528C52.5744 77.52 52.6464 77.52 52.7104 77.512ZM56.5904 83.24C56.5744 83.368 56.5664 83.488 56.5264 83.616C56.5104 83.656 56.4944 83.688 56.4784 83.728C56.4464 83.792 56.3984 83.856 56.3344 83.904C56.2144 83.976 56.0624 83.992 55.9264 83.96C55.8464 83.944 55.7744 83.912 55.7184 83.864C55.5264 83.688 55.5344 83.272 55.5344 83.256V78.416C55.5264 78.168 55.5344 77.768 55.6864 77.624C55.7984 77.512 55.9344 77.496 56.0784 77.496C56.2624 77.496 56.4304 77.608 56.4944 77.784C56.5904 78.008 56.5824 78.256 56.5904 78.504V78.544C56.6144 79.36 56.5904 80.264 56.5904 81.032V82.952C56.5904 83.048 56.5984 83.144 56.5904 83.24ZM52.6864 82.544C52.7824 82.544 52.8864 82.512 52.9824 82.448C53.1584 82.32 53.2224 82.096 53.2704 81.84C53.3584 81.352 53.3504 80.76 53.3344 80.256C53.3264 79.848 53.3184 79.32 53.1264 78.992C53.0224 78.816 52.8624 78.704 52.6944 78.728C52.5184 78.744 52.3584 78.856 52.2624 79.064L52.1904 79.232C52.1264 79.432 52.0944 79.656 52.0784 79.872C52.0624 80.088 52.0464 80.312 52.0464 80.528C52.0544 80.744 52.0304 80.944 52.0464 81.152C52.0864 81.704 52.1584 82.536 52.6864 82.544ZM59.7894 77.704H60.2454C60.9254 77.704 61.0614 78.216 61.0694 78.736V82.632C61.0694 82.656 61.0534 83.136 60.9254 83.352C60.7654 83.616 60.1814 83.624 60.1494 83.624H58.6214C58.4214 83.624 57.7574 83.592 57.5894 83.184C57.4454 82.832 57.4534 82.44 57.4614 82.064V79.184C57.4534 79.12 57.3734 78.352 57.5494 78.016C57.7654 77.584 58.3254 77.696 58.7174 77.696H59.3894C59.4614 77.72 59.6934 77.704 59.7894 77.704ZM62.9974 83.248C62.9814 83.376 62.9734 83.496 62.9334 83.624C62.9174 83.664 62.9014 83.696 62.8854 83.736C62.8534 83.8 62.8054 83.864 62.7414 83.912C62.6214 83.984 62.4694 84 62.3334 83.968C62.2534 83.952 62.1814 83.92 62.1254 83.872C61.9334 83.696 61.9414 83.28 61.9414 83.264V78.416C61.9334 78.168 61.9414 77.768 62.0934 77.624C62.2054 77.512 62.3414 77.496 62.4854 77.496C62.6694 77.496 62.8374 77.608 62.9014 77.784C62.9974 78.008 62.9894 78.256 62.9974 78.504V78.544C63.0214 79.36 62.9974 80.264 62.9974 81.032V82.96C62.9974 83.056 63.0054 83.152 62.9974 83.248ZM58.4854 79.312V82.328C58.4934 82.416 58.5494 82.592 58.6694 82.616C58.7414 82.632 58.7414 82.632 58.8374 82.632C58.9334 82.632 59.3974 82.632 59.4934 82.624C59.6214 82.616 59.7574 82.608 59.8614 82.544C59.9734 82.48 59.9654 82.296 59.9574 82.144V82.056C59.9654 81.688 59.9574 81.208 59.9574 79.472C59.9574 79.472 59.9494 79.12 59.9254 78.944C59.9014 78.736 59.7414 78.72 59.6774 78.72H59.6694L58.8294 78.704C58.5734 78.704 58.5654 78.768 58.5174 78.92C58.4934 79.024 58.4774 79.176 58.4854 79.312ZM66.594 77.864C67.026 77.864 67.338 77.904 67.522 78.208C67.61 78.352 67.618 78.504 67.562 78.64C67.49 78.784 67.346 78.88 67.162 78.904C66.906 78.944 66.602 78.944 66.066 78.928C66.05 79.296 66.066 79.744 66.066 79.808V80.704C66.066 80.792 66.082 80.968 66.09 81.04C66.17 81.128 66.354 81.328 66.442 81.432C66.546 81.56 66.658 81.696 66.778 81.864C66.858 81.96 66.93 82.064 66.978 82.136C67.178 82.424 67.434 82.784 67.506 83.12C67.538 83.264 67.522 83.472 67.394 83.584C67.306 83.664 67.202 83.704 67.09 83.704C66.842 83.704 66.602 83.536 66.466 83.392C66.266 83.176 66.09 82.936 65.922 82.712C65.802 82.544 65.674 82.376 65.538 82.216C65.53 82.2 65.522 82.184 65.506 82.176C65.506 82.184 65.498 82.184 65.498 82.192C65.442 82.28 65.37 82.36 65.314 82.44C65.234 82.536 65.162 82.64 65.098 82.736C64.954 82.96 64.81 83.184 64.618 83.376C64.386 83.608 64.17 83.72 63.97 83.72C63.922 83.72 63.866 83.712 63.818 83.696C63.698 83.664 63.61 83.584 63.57 83.472C63.49 83.296 63.53 83.056 63.602 82.896C63.69 82.712 63.802 82.56 63.914 82.4C63.986 82.304 64.058 82.208 64.114 82.112C64.314 81.792 64.818 81.184 64.93 81.04V78.928H64.442C64.042 78.928 63.922 78.92 63.85 78.904C63.658 78.872 63.506 78.744 63.442 78.56C63.386 78.4 63.41 78.232 63.506 78.112C63.594 77.992 63.738 77.904 63.89 77.872C63.946 77.864 63.994 77.856 64.058 77.856C64.098 77.856 64.138 77.856 64.17 77.864H66.594ZM69.29 83.256C69.274 83.384 69.266 83.504 69.226 83.632C69.21 83.672 69.194 83.704 69.178 83.744C69.146 83.808 69.098 83.872 69.034 83.92C68.914 83.992 68.762 84.008 68.626 83.976C68.546 83.96 68.474 83.928 68.418 83.88C68.226 83.704 68.234 83.288 68.234 83.272V78.416C68.226 78.168 68.234 77.768 68.386 77.624C68.498 77.512 68.634 77.496 68.778 77.496C68.962 77.496 69.13 77.608 69.194 77.784C69.29 78.008 69.282 78.256 69.29 78.504V78.544C69.314 79.36 69.29 80.264 69.29 81.032V82.968C69.29 83.064 69.298 83.16 69.29 83.256ZM71.953 82.56C71.945 82.432 71.945 82.304 71.945 82.176V79.632C71.945 79.464 71.945 79.288 71.929 79.112C71.921 79.056 71.913 78.936 71.857 78.912C71.801 78.88 71.729 78.896 71.665 78.888C71.593 78.88 71.521 78.896 71.449 78.888H71.073C70.897 78.896 70.705 78.88 70.529 78.888C70.449 78.896 70.377 78.888 70.297 78.888C70.177 78.888 70.041 78.888 69.937 78.816C69.785 78.712 69.745 78.536 69.745 78.368C69.737 78.264 69.761 78.16 69.809 78.064C69.833 78.008 69.865 77.96 69.913 77.928C69.969 77.872 70.089 77.832 70.161 77.816C70.385 77.76 70.641 77.768 70.873 77.768H72.265C72.401 77.784 72.569 77.8 72.697 77.848C72.777 77.88 72.873 77.936 72.921 78.008C73.017 78.16 73.017 78.304 73.033 78.48C73.057 78.776 73.049 79.072 73.049 79.368V81.992C73.049 82.016 73.065 82.68 73.049 83.016C73.033 83.232 72.985 83.496 72.705 83.6C72.609 83.64 72.513 83.656 72.433 83.656C72.297 83.656 72.137 83.6 72.081 83.48C72.001 83.32 71.953 83.12 71.953 82.912V82.56ZM75.337 79.968C75.489 79.976 75.657 79.984 75.801 79.992C75.857 79.992 75.921 80.008 75.985 80.016C76.193 80.056 76.345 80.192 76.345 80.416C76.345 80.568 76.337 80.792 76.201 80.896C76.137 80.944 76.073 80.984 75.993 81C75.825 81.024 75.537 81 75.369 81.008C75.353 81.008 75.337 81.016 75.337 81.048C75.329 81.312 75.337 81.784 75.337 82.056C75.345 82.328 75.345 82.608 75.337 82.872V82.984C75.337 83.264 75.337 83.672 75.145 83.864C75.081 83.936 74.993 83.976 74.889 83.976C74.889 83.976 74.881 83.968 74.873 83.968C74.353 83.952 74.297 83.328 74.297 82.992V78.24C74.297 78.224 74.289 77.824 74.465 77.648C74.537 77.576 74.705 77.536 74.825 77.536C74.945 77.536 75.049 77.584 75.121 77.656C75.265 77.808 75.273 77.976 75.289 78.152C75.297 78.184 75.297 78.216 75.297 78.248C75.321 78.424 75.321 78.624 75.329 78.816C75.329 78.984 75.337 78.928 75.337 79.784C75.337 79.84 75.337 79.904 75.337 79.968ZM52.5395 85.696C53.1795 86.04 53.4435 86.64 53.3795 87.472C53.3155 88.536 52.7955 89.056 51.6915 89.056C51.1075 89.056 50.7875 89.104 50.2675 88.768C49.7635 88.44 49.6115 87.856 49.6115 87.296C49.6115 86.736 49.8035 86.216 50.2595 85.864C50.6355 85.568 51.1235 85.424 51.5875 85.464C52.0115 85.496 52.1635 85.528 52.5395 85.696ZM52.9875 92.032C52.9635 92.024 52.9475 92.008 52.9315 92C52.8195 92.048 52.6915 92.072 52.5635 92.072C52.2035 92.072 51.8035 92.064 51.4115 92.072C50.9395 92.08 50.5075 92.072 50.5075 91.536C50.5075 91.16 50.4835 90.52 50.4995 90.136C50.5155 89.904 50.4755 89.848 50.5875 89.64C50.7155 89.4 51.0835 89.336 51.2275 89.576C51.3715 89.824 51.3475 89.896 51.3395 90.184L52.5155 90.16C52.5235 90.04 52.5155 89.824 52.5555 89.664C52.6275 89.408 52.9635 89.4 53.1155 89.488C53.2515 89.568 53.2675 89.64 53.2835 89.776C53.2995 89.904 53.3075 90.04 53.3075 90.24C53.3075 90.496 53.3075 90.72 53.2995 90.96L53.3235 90.936C53.4755 90.76 53.6275 90.576 53.7795 90.392C53.8915 90.24 54.0915 90.072 54.1075 89.88C54.1235 89.584 54.1315 89.352 54.5235 89.352C54.6675 89.352 54.8995 89.384 54.9555 89.52C55.0195 89.68 54.9555 89.776 55.0115 89.944C55.0595 90.088 55.1395 90.184 55.2115 90.32C55.3715 90.584 55.5475 90.776 55.7315 91.016C55.8675 91.2 56.0195 91.4 56.0675 91.624C56.1555 92.008 55.5875 92.208 55.3315 91.944C54.9955 91.624 54.7955 91.256 54.4995 90.896C54.4995 90.888 53.7635 91.728 53.6915 91.808C53.5955 91.92 53.4355 92.016 53.2835 92.048C53.1795 92.072 53.0755 92.072 52.9875 92.032ZM54.5075 87.784H54.3155C54.0035 87.768 53.7475 87.792 53.6115 87.584C53.5475 87.48 53.5555 87.288 53.5795 87.176C53.6115 87.056 53.6835 86.976 53.8915 86.928C53.9795 86.912 54.4195 86.896 54.5075 86.888V86.2C54.4995 86.088 54.4995 85.96 54.5315 85.848C54.5555 85.768 54.5635 85.688 54.6355 85.608C54.7235 85.504 54.8915 85.456 55.0675 85.48C55.2275 85.504 55.3475 85.576 55.3955 85.68C55.4595 85.808 55.4675 86.048 55.4675 86.088V88.696H55.4595C55.4595 88.712 55.4275 89 55.2195 89.128C55.1475 89.168 55.0755 89.192 54.9955 89.192C54.8995 89.192 54.8115 89.16 54.7315 89.104C54.6755 89.064 54.6275 89.016 54.5955 88.944C54.5315 88.832 54.5155 88.704 54.5075 88.592V87.784ZM52.4275 87.56C52.4275 87.096 52.3715 86.704 51.9155 86.536C51.4275 86.368 50.6915 86.52 50.5875 87.184C50.5235 87.64 50.7155 88.136 51.3795 88.192C51.8275 88.24 52.3075 88.096 52.4275 87.56ZM51.6515 91.232H52.5075C52.5155 91.104 52.5155 90.96 52.5235 90.816C52.3075 90.832 52.0835 90.84 51.8435 90.84C51.6835 90.84 51.5075 90.84 51.3315 90.832L51.3395 91.216C51.3875 91.256 51.5955 91.232 51.6515 91.232ZM60.6761 92.096C60.3961 92.152 57.7161 92.096 57.4601 92.104C57.2441 92.104 56.9961 92.088 56.8121 91.952C56.5721 91.768 56.5641 91.312 56.5561 91.288C56.5561 91.288 56.5641 90.096 56.5641 90.064C56.5641 89.912 56.6121 89.768 56.7561 89.704C56.8281 89.672 56.9241 89.664 57.0121 89.656C57.1961 89.648 57.4201 89.696 57.4601 89.912V90.112C57.4761 90.272 57.5241 90.224 57.6521 90.232H60.8121V90.024C60.8201 89.832 60.8841 89.688 61.0761 89.656C61.2281 89.624 61.4921 89.624 61.6121 89.728C61.7161 89.824 61.6921 89.968 61.6921 90.096C61.6761 90.584 61.7161 91.04 61.6681 91.528C61.6601 91.672 61.6121 91.76 61.5321 91.88C61.3641 92.128 60.9241 92.08 60.6761 92.096ZM57.9161 87.768C57.7161 87.904 57.5401 88.096 57.2601 88.152C57.0681 88.192 56.8601 88.264 56.7001 88.024C56.5241 87.768 56.7161 87.584 56.8761 87.432C57.1961 87.144 57.5481 86.808 57.9081 86.56C58.1401 86.408 58.6041 85.976 58.6041 85.976C58.6041 85.976 58.5321 85.584 58.7561 85.408C58.8921 85.312 59.1721 85.28 59.3401 85.32C59.5881 85.384 59.6361 85.528 59.6681 85.72C59.6841 85.88 59.7161 86.016 59.8361 86.152C59.9241 86.248 60.0761 86.344 60.1801 86.432C60.5481 86.752 60.9001 87.008 61.2841 87.328C61.5321 87.528 61.6841 87.976 61.3721 88.144C61.0601 88.264 60.7641 88.072 60.5641 87.896C60.3481 87.736 60.0361 87.576 59.8361 87.392L59.1241 86.88C59.1241 86.88 58.7321 87.184 58.6921 87.216C58.4601 87.392 58.1721 87.592 57.9161 87.768ZM56.8041 88.448C57.3321 88.464 58.4281 88.448 59.0441 88.448C59.7161 88.448 60.5081 88.432 61.2281 88.448H61.2681C61.6361 88.448 62.1481 88.328 62.1481 88.904C62.1481 89.024 62.0921 89.112 61.9881 89.208C61.8201 89.352 61.5561 89.344 61.3401 89.336C61.2921 89.328 61.2441 89.328 61.1961 89.328H56.7881C56.7721 89.328 56.4041 89.336 56.2521 89.176C56.1881 89.104 56.1561 89.032 56.1561 88.928C56.1561 88.816 56.1961 88.752 56.2601 88.688C56.3961 88.56 56.5481 88.464 56.7081 88.448C56.7401 88.448 56.7721 88.456 56.8041 88.448ZM57.7721 91.384L60.4761 91.376C60.5881 91.384 60.7881 91.424 60.7881 91.248C60.7881 91.168 60.8201 91.104 60.7561 91.032C60.6841 90.944 60.5721 90.952 60.4681 90.96C60.4201 90.96 57.9481 90.952 57.9321 90.952C57.7321 90.944 57.4761 90.912 57.4761 91.112C57.4761 91.168 57.4761 91.2 57.4841 91.24C57.5321 91.416 57.6361 91.392 57.7721 91.384ZM63.9166 86.488V89.864C63.9006 89.944 63.9006 90.008 63.9166 90.104V90.2C63.9166 90.24 63.9246 90.264 63.9646 90.288C63.9966 90.32 64.0286 90.336 64.0846 90.336H65.2526C65.3726 90.336 65.4926 90.36 65.6126 90.36C65.7246 90.36 65.8286 90.368 65.9006 90.368C65.9806 90.384 66.0846 90.384 66.1806 90.424C66.2846 90.432 66.3726 90.472 66.4446 90.528C66.4846 90.56 66.5166 90.592 66.5326 90.624C66.5486 90.672 66.5646 90.72 66.5806 90.776V90.928C66.5646 91.056 66.5326 91.16 66.4446 91.248C66.3886 91.336 66.2846 91.384 66.1646 91.408C66.0846 91.408 66.0126 91.432 65.9326 91.432C65.8686 91.432 65.7966 91.456 65.7086 91.456H65.5566C65.4926 91.456 65.4126 91.456 65.3166 91.432H63.8046C63.6926 91.432 63.5966 91.408 63.4926 91.408C63.4046 91.392 63.3246 91.392 63.2366 91.36C63.1566 91.344 63.0766 91.296 63.0286 91.248C62.9566 91.176 62.9326 91.104 62.9006 91.048C62.8606 90.976 62.8526 90.912 62.8366 90.824C62.7886 90.656 62.7806 90.472 62.7806 90.312C62.7886 90.128 62.7886 89.944 62.7886 89.752V87.28C62.7886 87.224 62.7806 87.112 62.7806 87.016V86.672C62.7806 86.568 62.7886 86.448 62.7886 86.368C62.7886 86.264 62.8366 86.152 62.8606 86.032C62.9086 85.912 62.9966 85.824 63.1406 85.76C63.1886 85.752 63.2526 85.736 63.3246 85.736C63.3726 85.72 63.4446 85.72 63.5086 85.736C63.5726 85.752 63.6446 85.776 63.6926 85.808C63.7566 85.864 63.8046 85.912 63.8126 85.976C63.8526 86.048 63.8766 86.128 63.8766 86.216C63.9006 86.304 63.9166 86.376 63.9166 86.488ZM68.1086 86.472V91.168C68.0926 91.232 68.0926 91.28 68.0766 91.352C68.0766 91.416 68.0606 91.472 68.0446 91.528C68.0206 91.56 68.0206 91.576 68.0206 91.584C68.0126 91.616 68.0126 91.632 67.9886 91.64C67.9566 91.728 67.9086 91.776 67.8526 91.832C67.7246 91.896 67.5886 91.92 67.4446 91.88C67.3566 91.872 67.2926 91.832 67.2366 91.776C67.1886 91.752 67.1566 91.68 67.1326 91.616C67.1086 91.536 67.0926 91.496 67.0686 91.424C67.0606 91.352 67.0606 91.304 67.0606 91.264V86.4C67.0366 86.28 67.0366 86.16 67.0606 86.064C67.0606 85.944 67.0926 85.848 67.1326 85.76C67.1566 85.688 67.2046 85.616 67.2766 85.56C67.3566 85.512 67.4606 85.48 67.5886 85.48C67.7006 85.48 67.7966 85.512 67.8686 85.568C67.9406 85.624 67.9886 85.712 68.0206 85.816C68.0606 85.904 68.0766 86.008 68.0926 86.144C68.1086 86.264 68.1086 86.376 68.1086 86.472ZM72.1645 90.56C72.4765 90.56 72.7645 90.632 72.8045 90.976C72.8445 91.32 72.4925 91.528 72.2045 91.544C71.9805 91.552 70.9085 91.544 70.3885 91.544H70.3245C70.0845 91.536 69.8045 91.536 69.5645 91.464C69.3965 91.416 69.2285 91.264 69.1485 91.08C69.0445 90.848 69.0685 90.352 69.0685 90.328V86.928C69.0605 86.872 69.0045 86.304 69.1645 86.04C69.3005 85.816 69.9085 85.808 69.9645 85.808H71.8365C71.8685 85.808 72.5405 85.784 72.6445 86.12C72.6845 86.24 72.6765 86.528 72.6285 86.616C72.5885 86.688 72.5165 86.736 72.4285 86.76C72.3325 86.784 72.1805 86.8 71.9725 86.8C71.8365 86.8 71.7325 86.792 70.7485 86.792C70.6045 86.792 70.4205 86.8 70.3485 86.832C70.1965 86.896 70.2045 87.248 70.2205 87.368V87.376L70.2525 90.144C70.2525 90.352 70.3325 90.504 70.5805 90.504C70.6365 90.512 71.4605 90.56 72.1645 90.56ZM74.2925 87.976L74.9245 88.032C75.1165 88.072 75.2845 88.2 75.2845 88.432C75.2845 88.512 75.2845 88.584 75.2605 88.664C75.2285 88.84 75.1325 88.992 74.9325 88.992L74.2765 89C74.2605 89.552 74.2765 90.4 74.2765 91.064C74.2765 91.344 74.2685 91.936 73.7965 91.968C73.2765 92 73.2365 91.488 73.2365 91.152V86.24C73.2365 86.224 73.2285 85.824 73.4045 85.648C73.4765 85.576 73.6445 85.536 73.7645 85.536C73.8845 85.536 73.9885 85.584 74.0605 85.656C74.2045 85.808 74.2125 85.976 74.2285 86.152C74.2765 86.736 74.2925 87.368 74.2925 87.976ZM75.9652 85.792C76.0532 85.656 76.2212 85.592 76.3572 85.592C76.4772 85.592 76.5892 85.592 76.6932 85.616C77.1412 85.736 77.0212 86.616 77.0212 86.96V89.32C77.0212 89.528 77.0372 89.752 76.9652 89.944C76.8212 90.304 76.0532 90.28 75.9092 89.936C75.8772 89.84 75.8612 89.672 75.8532 89.56C75.8452 89.376 75.8532 89.176 75.8532 88.976V86.296C75.8532 86.168 75.8772 85.928 75.9652 85.792ZM76.8852 90.936C76.9172 90.984 76.9492 91.032 76.9652 91.096C77.0292 91.32 77.0132 91.648 76.7492 91.76C76.5172 91.856 76.0692 91.816 75.9652 91.536C75.9092 91.384 75.9012 91.168 75.9572 91.016C76.0212 90.856 76.1732 90.808 76.3332 90.808C76.5332 90.8 76.7492 90.8 76.8852 90.936Z" fill="#18231C"/>
</g>
<defs>
<linearGradient id="paint0_linear_153_5150" x1="82.7774" y1="87.0145" x2="93.7577" y2="100.419" gradientUnits="userSpaceOnUse">
<stop stop-color="#95D99E"/>
<stop offset="1" stop-color="#C5ECB3"/>
</linearGradient>
<clipPath id="clip0_153_5150">
<rect width="100.85" height="105.071" fill="white" transform="translate(16.3252 8.72656)"/>
</clipPath>
</defs>
</svg>
