<svg width="31" height="31" viewBox="0 0 31 31" fill="none" xmlns="http://www.w3.org/2000/svg">
<g clip-path="url(#clip0_77_4560)">
<path d="M1.29199 29.4854L3.83067 18.234L12.5434 26.9467L1.29199 29.4854Z" fill="#FFEDBF"/>
<rect x="4.47468" y="18.3105" width="24.8398" height="11.2584" transform="rotate(-45 4.47468 18.3105)" fill="#C5ECB3" stroke="#343A40"/>
<path d="M13.8421 12C13.1147 12.0021 12.5018 12.6143 12.5004 13.3403C12.499 14.0626 13.0978 14.6865 13.7959 14.69C14.5347 14.6937 15.1427 14.075 15.1455 13.3176C15.1483 12.5715 14.5809 11.9979 13.8421 12ZM14.3187 12.4667C14.5405 12.4636 14.6985 12.617 14.7037 12.8402C14.7085 13.0458 14.5495 13.2103 14.3391 13.2179C14.1204 13.2258 13.9507 13.0575 13.9469 12.8299C13.9435 12.6202 14.0977 12.4694 14.3187 12.4663V12.4667Z" fill="#18231C"/>
<path d="M18.8838 13.331C18.887 14.0353 19.5202 14.6765 20.2131 14.6768C20.9019 14.6768 21.5034 14.0543 21.5 13.3448C21.4962 12.5977 20.8854 11.9983 20.1297 12C19.4619 12.0014 18.8807 12.6226 18.8838 13.331ZM20.6784 12.4667C20.9029 12.4653 21.0616 12.6205 21.0609 12.8412C21.0602 13.0568 20.9174 13.2162 20.7212 13.221C20.4991 13.2265 20.3204 13.0496 20.3138 12.8178C20.3083 12.6177 20.4639 12.468 20.6784 12.4667Z" fill="#18231C"/>
<path d="M17.8756 14.8543C17.9243 14.7894 17.9401 14.6835 17.9329 14.5997C17.9288 14.5507 17.8546 14.4849 17.8008 14.4711C17.7573 14.46 17.6904 14.5083 17.6463 14.5452C17.6083 14.5766 17.5897 14.6304 17.5594 14.6721C17.3183 15.0064 16.8485 14.9729 16.6574 14.608C16.6047 14.5073 16.5678 14.3783 16.4091 14.4549C16.2898 14.5125 16.2497 14.6621 16.3332 14.7977C16.675 15.3551 17.4993 15.3571 17.8756 14.8543Z" fill="#18231C"/>
<path d="M14.3171 12.4688C14.096 12.4719 13.9419 12.6222 13.9453 12.8323C13.9488 13.0599 14.1188 13.2282 14.3375 13.2203C14.5479 13.2127 14.7069 13.0479 14.702 12.8426C14.6969 12.6195 14.5389 12.466 14.3171 12.4691V12.4688Z" fill="white"/>
<path d="M20.678 12.4688C20.4635 12.4701 20.308 12.6198 20.3135 12.8199C20.3197 13.0513 20.4987 13.2286 20.7208 13.2231C20.9171 13.2182 21.0599 13.0586 21.0605 12.8433C21.0612 12.6226 20.9029 12.4674 20.678 12.4688Z" fill="white"/>
<path d="M20.4273 16.1209C20.11 16.1209 19.8527 15.8637 19.8527 15.5463C19.8527 15.2289 20.11 14.9717 20.4273 14.9717C20.7447 14.9717 21.002 15.2289 21.002 15.5463C21.002 15.8637 20.7447 16.1209 20.4273 16.1209Z" fill="#FEB7B7"/>
<path d="M13.4674 16.1209C13.15 16.1209 12.8928 15.8637 12.8928 15.5463C12.8928 15.2289 13.15 14.9717 13.4674 14.9717C13.7847 14.9717 14.042 15.2289 14.042 15.5463C14.042 15.8637 13.7847 16.1209 13.4674 16.1209Z" fill="#FEB7B7"/>
<path d="M1.3308 29.4479L2.66991 23.579L7.1997 28.1088L1.3308 29.4479Z" fill="#343A40"/>
</g>
<defs>
<clipPath id="clip0_77_4560">
<rect width="31" height="31" fill="white"/>
</clipPath>
</defs>
</svg>
