<svg width="31" height="31" viewBox="0 0 31 31" fill="none" xmlns="http://www.w3.org/2000/svg">
<g clip-path="url(#clip0_77_4560)">
<path d="M1.29199 29.4854L3.83067 18.234L12.5434 26.9467L1.29199 29.4854Z" fill="#FFEDBF"/>
<rect x="4.47468" y="18.3105" width="24.8398" height="11.2584" transform="rotate(-45 4.47468 18.3105)" fill="#C5ECB3" stroke="#343A40"/>
<path d="M14.3421 12C13.6147 12.0021 13.0018 12.6143 13.0004 13.3403C12.999 14.0626 13.5978 14.6865 14.2959 14.69C15.0347 14.6937 15.6427 14.075 15.6455 13.3176C15.6483 12.5715 15.0809 11.9979 14.3421 12ZM14.8187 12.4667C15.0405 12.4636 15.1985 12.617 15.2037 12.8402C15.2085 13.0458 15.0495 13.2103 14.8391 13.2179C14.6204 13.2258 14.4507 13.0575 14.4469 12.8299C14.4435 12.6202 14.5977 12.4694 14.8187 12.4663V12.4667Z" fill="#18231C"/>
<path d="M19.3838 13.331C19.387 14.0353 20.0202 14.6765 20.7131 14.6768C21.4019 14.6768 22.0034 14.0543 22 13.3448C21.9962 12.5977 21.3854 11.9983 20.6297 12C19.9619 12.0014 19.3807 12.6226 19.3838 13.331ZM21.1784 12.4667C21.4029 12.4653 21.5616 12.6205 21.5609 12.8412C21.5602 13.0568 21.4174 13.2162 21.2212 13.221C20.9991 13.2265 20.8204 13.0496 20.8138 12.8178C20.8083 12.6177 20.9639 12.468 21.1784 12.4667Z" fill="#18231C"/>
<path d="M18.3756 14.8543C18.4243 14.7894 18.4401 14.6835 18.4329 14.5997C18.4288 14.5507 18.3546 14.4849 18.3008 14.4711C18.2573 14.46 18.1904 14.5083 18.1463 14.5452C18.1083 14.5766 18.0897 14.6304 18.0594 14.6721C17.8183 15.0064 17.3485 14.9729 17.1574 14.608C17.1047 14.5073 17.0678 14.3783 16.9091 14.4549C16.7898 14.5125 16.7497 14.6621 16.8332 14.7977C17.175 15.3551 17.9993 15.3571 18.3756 14.8543Z" fill="#18231C"/>
<path d="M14.8171 12.4688C14.596 12.4719 14.4419 12.6222 14.4453 12.8323C14.4488 13.0599 14.6188 13.2282 14.8375 13.2203C15.0479 13.2127 15.2069 13.0479 15.202 12.8426C15.1969 12.6195 15.0389 12.466 14.8171 12.4691V12.4688Z" fill="white"/>
<path d="M21.178 12.4688C20.9635 12.4701 20.808 12.6198 20.8135 12.8199C20.8197 13.0513 20.9987 13.2286 21.2208 13.2231C21.4171 13.2182 21.5599 13.0586 21.5605 12.8433C21.5612 12.6226 21.4029 12.4674 21.178 12.4688Z" fill="white"/>
<path d="M20.9273 16.1209C20.61 16.1209 20.3527 15.8637 20.3527 15.5463C20.3527 15.2289 20.61 14.9717 20.9273 14.9717C21.2447 14.9717 21.502 15.2289 21.502 15.5463C21.502 15.8637 21.2447 16.1209 20.9273 16.1209Z" fill="#FEB7B7"/>
<path d="M13.9674 16.1209C13.65 16.1209 13.3928 15.8637 13.3928 15.5463C13.3928 15.2289 13.65 14.9717 13.9674 14.9717C14.2847 14.9717 14.542 15.2289 14.542 15.5463C14.542 15.8637 14.2847 16.1209 13.9674 16.1209Z" fill="#FEB7B7"/>
<path d="M1.3308 29.4479L2.66991 23.579L7.1997 28.1088L1.3308 29.4479Z" fill="#343A40"/>
</g>
<defs>
<clipPath id="clip0_77_4560">
<rect width="31" height="31" fill="white"/>
</clipPath>
</defs>
</svg>
