<svg width="50" height="50" viewBox="0 0 50 50" fill="none" xmlns="http://www.w3.org/2000/svg">
<g clip-path="url(#clip0_148_4779)">
<path d="M18.292 37.4854L20.8307 26.234L29.5434 34.9467L18.292 37.4854Z" fill="#FFEDBF"/>
<rect x="21.4561" y="26.292" width="24.8398" height="11.48" transform="rotate(-45 21.4561 26.292)" fill="#C5ECB3" stroke="#343A40"/>
<path d="M18.3308 37.4479L19.6699 31.579L24.1997 36.1088L18.3308 37.4479Z" fill="#343A40"/>
<line x1="20.005" y1="32.4255" x2="21.1498" y2="26.5357" stroke="#343A40" stroke-linecap="round"/>
<line x1="23.3547" y1="35.7561" x2="29.4153" y2="34.6023" stroke="#343A40" stroke-linecap="round"/>
<path d="M31.3068 20C30.5985 20.002 30.0016 20.5961 30.0002 21.3006C29.9989 22.0014 30.582 22.6069 31.2618 22.6102C31.9813 22.6139 32.5735 22.0135 32.5762 21.2785C32.5788 20.5546 32.0263 19.998 31.3068 20ZM31.771 20.4528C31.987 20.4498 32.1409 20.5988 32.1459 20.8153C32.1506 21.0148 31.9957 21.1744 31.7909 21.1818C31.5779 21.1895 31.4126 21.0262 31.409 20.8053C31.4056 20.6018 31.5557 20.4555 31.771 20.4525V20.4528Z" fill="#18231C"/>
<path d="M36.2169 21.2925C36.22 21.976 36.8366 22.5982 37.5114 22.5985C38.1822 22.5985 38.768 21.9944 38.7646 21.3059C38.7609 20.581 38.1661 19.9993 37.4302 20.001C36.7799 20.0023 36.2139 20.6051 36.2169 21.2925ZM37.9646 20.4538C38.1832 20.4525 38.3377 20.6031 38.3371 20.8173C38.3364 21.0265 38.1973 21.1811 38.0062 21.1858C37.7899 21.1911 37.6159 21.0194 37.6095 20.7945C37.6041 20.6004 37.7556 20.4552 37.9646 20.4538Z" fill="#18231C"/>
<path d="M35.2346 22.7714C35.282 22.7085 35.2974 22.6057 35.2904 22.5244C35.2863 22.4769 35.2141 22.413 35.1617 22.3996C35.1194 22.3889 35.0542 22.4357 35.0112 22.4715C34.9743 22.502 34.9562 22.5542 34.9266 22.5947C34.6918 22.919 34.2343 22.8866 34.0483 22.5325C33.9969 22.4347 33.9609 22.3095 33.8064 22.3839C33.6902 22.4397 33.6512 22.585 33.7325 22.7165C34.0654 23.2574 34.8681 23.2593 35.2346 22.7714Z" fill="#18231C"/>
<path d="M31.7706 20.4531C31.5553 20.4561 31.4051 20.6021 31.4085 20.8059C31.4118 21.0268 31.5774 21.1901 31.7904 21.1824C31.9953 21.175 32.1501 21.0151 32.1454 20.8159C32.1404 20.5994 31.9865 20.4504 31.7706 20.4535V20.4531Z" fill="white"/>
<path d="M37.9644 20.4551C37.7555 20.4564 37.604 20.6017 37.6094 20.7958C37.6154 21.0204 37.7898 21.1924 38.0061 21.187C38.1972 21.1824 38.3362 21.0274 38.3369 20.8186C38.3376 20.6044 38.1834 20.4537 37.9644 20.4551Z" fill="white"/>
<path d="M37.7178 23.9999C37.4087 23.9999 37.1582 23.7503 37.1582 23.4424C37.1582 23.1344 37.4087 22.8848 37.7178 22.8848C38.0268 22.8848 38.2773 23.1344 38.2773 23.4424C38.2773 23.7503 38.0268 23.9999 37.7178 23.9999Z" fill="#FEB7B7"/>
<path d="M30.9424 23.9999C30.6333 23.9999 30.3828 23.7503 30.3828 23.4424C30.3828 23.1344 30.6333 22.8848 30.9424 22.8848C31.2514 22.8848 31.502 23.1344 31.502 23.4424C31.502 23.7503 31.2514 23.9999 30.9424 23.9999Z" fill="#FEB7B7"/>
</g>
<g opacity="0.5" filter="url(#filter0_d_148_4779)">
<path fill-rule="evenodd" clip-rule="evenodd" d="M12.4093 35.2496C14.1509 35.9588 16.6968 37.698 19.3593 39.8731C19.7803 40.217 20.4092 40.1652 20.7642 39.7574C21.1191 39.3496 21.0657 38.7403 20.6447 38.3964C17.9636 36.2061 15.2222 34.2997 13.182 33.4689C12.664 33.258 12.1513 33.0993 11.6689 33.0336C11.1948 32.9689 10.6609 32.982 10.1744 33.2137C9.04999 33.7493 8.94068 34.9736 9.12134 36.0546C9.31067 37.1874 9.60875 38.1457 9.88103 38.8872C8.60129 38.2733 6.97196 37.5032 5.63534 37.0897C5.23192 36.9649 4.82802 36.8636 4.44824 36.8103C4.08087 36.7588 3.66416 36.7415 3.26948 36.8417C2.84256 36.9502 2.40915 37.2098 2.17051 37.6977C1.95345 38.1416 1.9737 38.6243 2.0658 39.0449C2.18005 39.5667 2.70931 39.9 3.24794 39.7893C3.76497 39.683 4.10269 39.2063 4.02787 38.7067C4.06756 38.7101 4.11235 38.715 4.1626 38.7221C4.39587 38.7548 4.68622 38.8239 5.02878 38.9298C6.28605 39.3188 7.87908 40.0828 9.21466 40.7233C9.36843 40.7971 9.51879 40.8692 9.66483 40.9389C10.0118 41.1046 10.3111 41.2408 10.5565 41.3349C10.7484 41.4084 11.0876 41.5326 11.4332 41.5086C11.6485 41.4936 11.9708 41.4132 12.2195 41.1311C12.4529 40.8663 12.4887 40.5714 12.4904 40.4088C12.4933 40.1208 12.3887 39.8325 12.33 39.6741C12.2686 39.5081 12.1925 39.3232 12.1076 39.117C11.7873 38.3386 11.3422 37.2571 11.0896 35.7459C11.0035 35.2302 11.0502 35.0156 11.0837 34.94C11.1273 34.9321 11.222 34.9233 11.391 34.9464C11.6432 34.9808 11.9818 35.0755 12.4093 35.2496ZM11.108 34.9049C11.1069 34.9036 11.1001 34.9089 11.0912 34.9249C11.1048 34.9142 11.1092 34.9062 11.108 34.9049Z" fill="#FF0000"/>
<path d="M9.95802 38.859L10.0276 39.0485L9.84556 38.9612C8.56467 38.3467 6.9409 37.5795 5.6111 37.1681C5.21014 37.044 4.81078 36.944 4.43686 36.8916C4.07436 36.8407 3.66966 36.8247 3.28968 36.9212C2.87955 37.0254 2.46959 37.2729 2.24419 37.7338C2.0386 38.1541 2.05576 38.6156 2.14592 39.0273C2.2501 39.5032 2.7346 39.811 3.23143 39.7089C3.70759 39.6111 4.01486 39.1736 3.94676 38.7189L3.9314 38.6163L4.03477 38.625C4.07604 38.6285 4.12233 38.6336 4.17399 38.6408C4.41311 38.6744 4.70801 38.7447 5.05302 38.8515C6.31607 39.2422 7.91323 40.0082 9.24614 40.6475L9.25013 40.6494L9.25107 40.6499C9.40453 40.7234 9.5545 40.7954 9.70016 40.8649C10.0469 41.0304 10.3436 41.1654 10.5859 41.2583C10.7782 41.332 11.102 41.4494 11.4275 41.4267C11.6298 41.4126 11.9284 41.3374 12.1579 41.0769C12.3732 40.8327 12.4068 40.5603 12.4084 40.408C12.4111 40.137 12.3121 39.862 12.2531 39.7026C12.1923 39.5382 12.1168 39.3548 12.0318 39.1482L12.0315 39.1475C11.7107 38.3681 11.2628 37.2797 11.0087 35.7594C10.9218 35.2389 10.9654 35.0047 11.0088 34.9068L11.0263 34.8671L11.0314 34.8662C11.0348 34.8614 11.0386 34.8567 11.0425 34.8525C11.0464 34.8483 11.0537 34.8411 11.0639 34.8349C11.0685 34.8322 11.0792 34.8262 11.0941 34.8238C11.1094 34.8213 11.1429 34.8211 11.1689 34.8499C11.2262 34.8483 11.3026 34.8515 11.402 34.8651C11.6635 34.9007 12.0091 34.9981 12.4402 35.1737C14.194 35.8878 16.7479 37.6338 19.4112 39.8096C19.7981 40.1257 20.3767 40.0776 20.7023 39.7036C21.0266 39.331 20.9783 38.7748 20.5929 38.46C17.9125 36.2703 15.1792 34.3707 13.151 33.5449C12.6368 33.3354 12.131 33.1794 11.6578 33.1148C11.1921 33.0513 10.6762 33.0655 10.2097 33.2877C9.67164 33.5441 9.3771 33.9634 9.23733 34.4522C9.09669 34.944 9.11294 35.5068 9.20224 36.0411C9.3905 37.1675 9.68695 38.1207 9.95802 38.859ZM11.0399 34.8617C11.0395 34.8623 11.0386 34.8634 11.0375 34.8651L11.0433 34.864L11.0407 34.8607C11.0404 34.861 11.0402 34.8614 11.0399 34.8617ZM11.0274 34.8918C11.0271 34.8937 11.0268 34.8958 11.0266 34.898C11.0263 34.9013 11.0259 34.9072 11.0268 34.9148C11.0282 34.9273 11.033 34.9442 11.0471 34.9598C11.0544 34.9679 11.0622 34.9736 11.0701 34.9777C11.0746 34.9625 11.0793 34.95 11.0837 34.94C11.0838 34.94 11.0839 34.94 11.084 34.94L11.0837 34.9397L11.0764 34.9335L11.0274 34.8918Z" stroke="white" stroke-width="0.164031" stroke-linecap="round"/>
</g>
<defs>
<filter id="filter0_d_148_4779" x="1.67194" y="32.6719" width="19.6551" height="9.16784" filterUnits="userSpaceOnUse" color-interpolation-filters="sRGB">
<feFlood flood-opacity="0" result="BackgroundImageFix"/>
<feColorMatrix in="SourceAlpha" type="matrix" values="0 0 0 0 0 0 0 0 0 0 0 0 0 0 0 0 0 0 127 0" result="hardAlpha"/>
<feOffset/>
<feGaussianBlur stdDeviation="0.164031"/>
<feComposite in2="hardAlpha" operator="out"/>
<feColorMatrix type="matrix" values="0 0 0 0 0 0 0 0 0 0 0 0 0 0 0 0 0 0 0.3 0"/>
<feBlend mode="normal" in2="BackgroundImageFix" result="effect1_dropShadow_148_4779"/>
<feBlend mode="normal" in="SourceGraphic" in2="effect1_dropShadow_148_4779" result="shape"/>
</filter>
<clipPath id="clip0_148_4779">
<rect width="31" height="31" fill="white" transform="translate(17 8)"/>
</clipPath>
</defs>
</svg>
