<svg width="31" height="31" viewBox="0 0 31 31" fill="none" xmlns="http://www.w3.org/2000/svg">
<g clip-path="url(#clip0_77_4560)">
<path d="M1.29199 29.4854L3.83067 18.234L12.5434 26.9467L1.29199 29.4854Z" fill="#FFEDBF"/>
<rect x="4.45613" y="18.292" width="24.8398" height="11.48" transform="rotate(-45 4.45613 18.292)" fill="#C5ECB3" stroke="#343A40"/>
<path d="M1.3308 29.4479L2.66991 23.579L7.1997 28.1088L1.3308 29.4479Z" fill="#343A40"/>
<line x1="3.00498" y1="24.4255" x2="4.14984" y2="18.5357" stroke="#343A40" stroke-linecap="round"/>
<line x1="6.3547" y1="27.7561" x2="12.4153" y2="26.6023" stroke="#343A40" stroke-linecap="round"/>
<path d="M14.3068 12C13.5985 12.002 13.0016 12.5961 13.0002 13.3006C12.9989 14.0014 13.582 14.6069 14.2618 14.6102C14.9813 14.6139 15.5735 14.0135 15.5762 13.2785C15.5788 12.5546 15.0263 11.998 14.3068 12ZM14.771 12.4528C14.987 12.4498 15.1409 12.5988 15.1459 12.8153C15.1506 13.0148 14.9957 13.1744 14.7909 13.1818C14.5779 13.1895 14.4126 13.0262 14.409 12.8053C14.4056 12.6018 14.5557 12.4555 14.771 12.4525V12.4528Z" fill="#18231C"/>
<path d="M19.2169 13.2925C19.22 13.976 19.8366 14.5982 20.5114 14.5985C21.1822 14.5985 21.768 13.9944 21.7646 13.3059C21.7609 12.581 21.1661 11.9993 20.4302 12.001C19.7799 12.0023 19.2139 12.6051 19.2169 13.2925ZM20.9646 12.4538C21.1832 12.4525 21.3377 12.6031 21.3371 12.8173C21.3364 13.0265 21.1973 13.1811 21.0062 13.1858C20.7899 13.1911 20.6159 13.0194 20.6095 12.7945C20.6041 12.6004 20.7556 12.4552 20.9646 12.4538Z" fill="#18231C"/>
<path d="M18.2346 14.7714C18.282 14.7085 18.2974 14.6057 18.2904 14.5244C18.2863 14.4769 18.2141 14.413 18.1617 14.3996C18.1194 14.3889 18.0542 14.4357 18.0112 14.4715C17.9743 14.502 17.9562 14.5542 17.9266 14.5947C17.6918 14.919 17.2343 14.8866 17.0483 14.5325C16.9969 14.4347 16.9609 14.3095 16.8064 14.3839C16.6902 14.4397 16.6512 14.585 16.7325 14.7165C17.0654 15.2574 17.8681 15.2593 18.2346 14.7714Z" fill="#18231C"/>
<path d="M14.7706 12.4531C14.5553 12.4561 14.4051 12.6021 14.4085 12.8059C14.4118 13.0268 14.5774 13.1901 14.7904 13.1824C14.9953 13.175 15.1501 13.0151 15.1454 12.8159C15.1404 12.5994 14.9865 12.4504 14.7706 12.4535V12.4531Z" fill="white"/>
<path d="M20.9644 12.4551C20.7555 12.4564 20.604 12.6017 20.6094 12.7958C20.6154 13.0204 20.7898 13.1924 21.0061 13.187C21.1972 13.1824 21.3362 13.0274 21.3369 12.8186C21.3376 12.6044 21.1834 12.4537 20.9644 12.4551Z" fill="white"/>
<path d="M20.7178 15.9999C20.4087 15.9999 20.1582 15.7503 20.1582 15.4424C20.1582 15.1344 20.4087 14.8848 20.7178 14.8848C21.0268 14.8848 21.2773 15.1344 21.2773 15.4424C21.2773 15.7503 21.0268 15.9999 20.7178 15.9999Z" fill="#FEB7B7"/>
<path d="M13.9424 15.9999C13.6333 15.9999 13.3828 15.7503 13.3828 15.4424C13.3828 15.1344 13.6333 14.8848 13.9424 14.8848C14.2514 14.8848 14.502 15.1344 14.502 15.4424C14.502 15.7503 14.2514 15.9999 13.9424 15.9999Z" fill="#FEB7B7"/>
</g>
<defs>
<clipPath id="clip0_77_4560">
<rect width="31" height="31" fill="white"/>
</clipPath>
</defs>
</svg>
