<svg width="50" height="50" viewBox="0 0 50 50" fill="none" xmlns="http://www.w3.org/2000/svg">
<g opacity="0.5" filter="url(#filter0_d_148_4779)">
<path fill-rule="evenodd" clip-rule="evenodd" d="M11.4093 35.2496C13.1509 35.9588 15.6968 37.698 18.3593 39.8731C18.7803 40.217 19.4092 40.1652 19.7642 39.7574C20.1191 39.3496 20.0657 38.7403 19.6447 38.3964C16.9636 36.2061 14.2222 34.2997 12.182 33.4689C11.664 33.258 11.1513 33.0993 10.6689 33.0336C10.1948 32.9689 9.66087 32.982 9.17444 33.2137C8.04999 33.7493 7.94068 34.9736 8.12134 36.0546C8.31067 37.1874 8.60875 38.1457 8.88103 38.8872C7.60129 38.2733 5.97196 37.5032 4.63534 37.0897C4.23192 36.9649 3.82802 36.8636 3.44824 36.8103C3.08087 36.7588 2.66416 36.7415 2.26948 36.8417C1.84256 36.9502 1.40915 37.2098 1.17052 37.6977C0.953445 38.1416 0.9737 38.6243 1.0658 39.0449C1.18005 39.5667 1.70931 39.9 2.24794 39.7893C2.76497 39.683 3.10269 39.2063 3.02787 38.7067C3.06756 38.7101 3.11235 38.715 3.1626 38.7221C3.39587 38.7548 3.68622 38.8239 4.02878 38.9298C5.28605 39.3188 6.87908 40.0828 8.21466 40.7234C8.36843 40.7971 8.51879 40.8692 8.66483 40.9389C9.01181 41.1046 9.31106 41.2408 9.55651 41.3349C9.74841 41.4084 10.0876 41.5326 10.4332 41.5086C10.6485 41.4936 10.9708 41.4132 11.2195 41.1311C11.4529 40.8663 11.4887 40.5714 11.4904 40.4088C11.4933 40.1208 11.3887 39.8325 11.33 39.6741C11.2686 39.5081 11.1925 39.3232 11.1076 39.117C10.7873 38.3386 10.3422 37.2571 10.0896 35.7459C10.0035 35.2302 10.0502 35.0156 10.0837 34.94C10.1273 34.9321 10.222 34.9233 10.391 34.9464C10.6432 34.9808 10.9818 35.0755 11.4093 35.2496ZM10.108 34.9049C10.1069 34.9036 10.1001 34.9089 10.0912 34.9249C10.1048 34.9142 10.1092 34.9062 10.108 34.9049Z" fill="#FF0000"/>
<path d="M8.95802 38.859L9.02762 39.0485L8.84556 38.9612C7.56467 38.3467 5.9409 37.5795 4.6111 37.1681C4.21014 37.044 3.81078 36.944 3.43686 36.8916C3.07436 36.8407 2.66966 36.8247 2.28968 36.9212C1.87955 37.0254 1.46959 37.2729 1.24419 37.7338C1.03859 38.1541 1.05576 38.6156 1.14592 39.0273C1.2501 39.5032 1.7346 39.811 2.23143 39.7089C2.70759 39.6111 3.01486 39.1736 2.94676 38.7189L2.9314 38.6163L3.03477 38.625C3.07604 38.6285 3.12232 38.6336 3.17399 38.6408C3.41312 38.6744 3.70801 38.7447 4.05302 38.8515C5.31607 39.2422 6.91322 40.0082 8.24613 40.6475L8.25013 40.6494L8.25178 40.6502C8.40499 40.7237 8.55472 40.7955 8.70016 40.8649C9.04688 41.0304 9.34365 41.1654 9.58586 41.2583C9.77821 41.332 10.102 41.4494 10.4275 41.4267C10.6298 41.4126 10.9284 41.3374 11.1579 41.0769C11.3732 40.8327 11.4068 40.5603 11.4084 40.408C11.4111 40.137 11.3121 39.862 11.2531 39.7026C11.1923 39.5382 11.1168 39.3548 11.0318 39.1482L11.0315 39.1475C10.7108 38.3682 10.2628 37.2797 10.0087 35.7594C9.92176 35.2389 9.96536 35.0047 10.0088 34.9068L10.0263 34.8671L10.0314 34.8662C10.0348 34.8614 10.0386 34.8567 10.0425 34.8525C10.0464 34.8483 10.0537 34.8411 10.0639 34.8349C10.0685 34.8322 10.0792 34.8262 10.0941 34.8238C10.1094 34.8213 10.1429 34.8211 10.1689 34.8499C10.2262 34.8483 10.3026 34.8515 10.402 34.8651C10.6635 34.9007 11.0091 34.9981 11.4402 35.1737C13.194 35.8878 15.7479 37.6338 18.4112 39.8096C18.7981 40.1257 19.3767 40.0776 19.7023 39.7036C20.0266 39.331 19.9783 38.7748 19.5929 38.46C16.9125 36.2703 14.1792 34.3707 12.151 33.5449C11.6368 33.3354 11.131 33.1794 10.6578 33.1148C10.1921 33.0513 9.6762 33.0655 9.20971 33.2877C8.67164 33.5441 8.3771 33.9634 8.23733 34.4522C8.09669 34.944 8.11294 35.5068 8.20224 36.0411C8.3905 37.1675 8.68695 38.1207 8.95802 38.859ZM10.0399 34.8617C10.0395 34.8623 10.0386 34.8634 10.0375 34.8651L10.0433 34.864L10.0407 34.8607C10.0404 34.861 10.0402 34.8614 10.0399 34.8617ZM10.0274 34.8918C10.0271 34.8937 10.0268 34.8958 10.0266 34.898C10.0263 34.9013 10.0259 34.9072 10.0268 34.9148C10.0282 34.9273 10.033 34.9442 10.0471 34.9598C10.0544 34.9679 10.0622 34.9736 10.0701 34.9777C10.0746 34.9625 10.0793 34.95 10.0837 34.94C10.0838 34.94 10.0839 34.94 10.084 34.94L10.0837 34.9397L10.0764 34.9335L10.0274 34.8918Z" stroke="white" stroke-width="0.164031" stroke-linecap="round"/>
</g>
<g clip-path="url(#clip0_148_4779)">
<path d="M19.292 39.4854L21.8307 28.234L30.5434 36.9467L19.292 39.4854Z" fill="#FFEDBF"/>
<rect x="22.4561" y="28.292" width="24.8398" height="11.48" transform="rotate(-45 22.4561 28.292)" fill="#C5ECB3" stroke="#343A40"/>
<path d="M19.3308 39.4479L20.6699 33.579L25.1997 38.1088L19.3308 39.4479Z" fill="#343A40"/>
<line x1="21.005" y1="34.4255" x2="22.1498" y2="28.5357" stroke="#343A40" stroke-linecap="round"/>
<line x1="24.3547" y1="37.7561" x2="30.4153" y2="36.6023" stroke="#343A40" stroke-linecap="round"/>
<path d="M32.3068 22C31.5985 22.002 31.0016 22.5961 31.0002 23.3006C30.9989 24.0014 31.582 24.6069 32.2618 24.6102C32.9813 24.6139 33.5735 24.0135 33.5762 23.2785C33.5788 22.5546 33.0263 21.998 32.3068 22ZM32.771 22.4528C32.987 22.4498 33.1409 22.5988 33.1459 22.8153C33.1506 23.0148 32.9957 23.1744 32.7909 23.1818C32.5779 23.1895 32.4126 23.0262 32.409 22.8053C32.4056 22.6018 32.5557 22.4555 32.771 22.4525V22.4528Z" fill="#18231C"/>
<path d="M37.2169 23.2925C37.22 23.976 37.8366 24.5982 38.5114 24.5985C39.1822 24.5985 39.768 23.9944 39.7646 23.3059C39.7609 22.581 39.1661 21.9993 38.4302 22.001C37.7799 22.0023 37.2139 22.6051 37.2169 23.2925ZM38.9646 22.4538C39.1832 22.4525 39.3377 22.6031 39.3371 22.8173C39.3364 23.0265 39.1973 23.1811 39.0062 23.1858C38.7899 23.1911 38.6159 23.0194 38.6095 22.7945C38.6041 22.6004 38.7556 22.4552 38.9646 22.4538Z" fill="#18231C"/>
<path d="M36.2346 24.7714C36.282 24.7085 36.2974 24.6057 36.2904 24.5244C36.2863 24.4769 36.2141 24.413 36.1617 24.3996C36.1194 24.3889 36.0542 24.4357 36.0112 24.4715C35.9743 24.502 35.9562 24.5542 35.9266 24.5947C35.6918 24.919 35.2343 24.8866 35.0483 24.5325C34.9969 24.4347 34.9609 24.3095 34.8064 24.3839C34.6902 24.4397 34.6512 24.585 34.7325 24.7165C35.0654 25.2574 35.8681 25.2593 36.2346 24.7714Z" fill="#18231C"/>
<path d="M32.7706 22.4531C32.5553 22.4561 32.4051 22.6021 32.4085 22.8059C32.4118 23.0268 32.5774 23.1901 32.7904 23.1824C32.9953 23.175 33.1501 23.0151 33.1454 22.8159C33.1404 22.5994 32.9865 22.4504 32.7706 22.4535V22.4531Z" fill="white"/>
<path d="M38.9644 22.4551C38.7555 22.4564 38.604 22.6017 38.6094 22.7958C38.6154 23.0204 38.7898 23.1924 39.0061 23.187C39.1972 23.1824 39.3362 23.0274 39.3369 22.8186C39.3376 22.6044 39.1834 22.4537 38.9644 22.4551Z" fill="white"/>
<path d="M38.7178 25.9999C38.4087 25.9999 38.1582 25.7503 38.1582 25.4424C38.1582 25.1344 38.4087 24.8848 38.7178 24.8848C39.0268 24.8848 39.2773 25.1344 39.2773 25.4424C39.2773 25.7503 39.0268 25.9999 38.7178 25.9999Z" fill="#FEB7B7"/>
<path d="M31.9424 25.9999C31.6333 25.9999 31.3828 25.7503 31.3828 25.4424C31.3828 25.1344 31.6333 24.8848 31.9424 24.8848C32.2514 24.8848 32.502 25.1344 32.502 25.4424C32.502 25.7503 32.2514 25.9999 31.9424 25.9999Z" fill="#FEB7B7"/>
</g>
<defs>
<filter id="filter0_d_148_4779" x="0.671938" y="32.6719" width="19.6551" height="9.16784" filterUnits="userSpaceOnUse" color-interpolation-filters="sRGB">
<feFlood flood-opacity="0" result="BackgroundImageFix"/>
<feColorMatrix in="SourceAlpha" type="matrix" values="0 0 0 0 0 0 0 0 0 0 0 0 0 0 0 0 0 0 127 0" result="hardAlpha"/>
<feOffset/>
<feGaussianBlur stdDeviation="0.164031"/>
<feComposite in2="hardAlpha" operator="out"/>
<feColorMatrix type="matrix" values="0 0 0 0 0 0 0 0 0 0 0 0 0 0 0 0 0 0 0.3 0"/>
<feBlend mode="normal" in2="BackgroundImageFix" result="effect1_dropShadow_148_4779"/>
<feBlend mode="normal" in="SourceGraphic" in2="effect1_dropShadow_148_4779" result="shape"/>
</filter>
<clipPath id="clip0_148_4779">
<rect width="31" height="31" fill="white" transform="translate(18 10)"/>
</clipPath>
</defs>
</svg>
