<svg width="37" height="43" viewBox="0 0 37 43" fill="none" xmlns="http://www.w3.org/2000/svg">
<path d="M2.64783 37.1562L2.64783 5.77613C2.64783 2.98468 4.91075 0.721756 7.70221 0.721756L30.3265 0.721755C33.118 0.721755 35.3809 2.98467 35.3809 5.77613L35.3809 37.1562C35.3809 39.9476 33.118 42.2106 30.3265 42.2106L7.7022 42.2106C4.91075 42.2106 2.64783 39.9476 2.64783 37.1562Z" fill="url(#paint0_linear_164_5308)" stroke="#343A40" stroke-width="1.44411"/>
<path d="M5.8329 34.4475C6.59978 34.4475 7.22146 35.0692 7.22146 35.836C7.22146 36.6029 6.59978 37.2246 5.8329 37.2246C5.06602 37.2246 4.44434 36.6029 4.44434 35.836C4.44434 35.0692 5.06602 34.4475 5.8329 34.4475Z" fill="#343A40"/>
<path d="M-3.64176e-08 35.8358C-5.65306e-08 35.3757 0.414454 35.0027 0.925709 35.0027L4.62855 35.0027C5.1398 35.0027 5.55426 35.3757 5.55426 35.8358C5.55426 36.2959 5.1398 36.6689 4.62855 36.6689L0.925709 36.6689C0.414454 36.6689 -1.63047e-08 36.2959 -3.64176e-08 35.8358Z" fill="#343A40"/>
<path d="M5.83192 30.2258C6.59881 30.2258 7.22049 30.8475 7.22049 31.6144C7.22049 32.3812 6.59881 33.0029 5.83192 33.0029C5.06504 33.0029 4.44336 32.3812 4.44336 31.6144C4.44336 30.8475 5.06504 30.2258 5.83192 30.2258Z" fill="#343A40"/>
<path d="M-3.64176e-08 31.6141C-5.65306e-08 31.154 0.414454 30.781 0.925709 30.781L4.62855 30.781C5.1398 30.781 5.55426 31.154 5.55426 31.6141C5.55426 32.0743 5.1398 32.4473 4.62855 32.4473L0.925709 32.4473C0.414454 32.4473 -1.63047e-08 32.0743 -3.64176e-08 31.6141Z" fill="#343A40"/>
<path d="M5.83192 26.0051C6.59881 26.0051 7.22049 26.6268 7.22049 27.3937C7.22049 28.1605 6.59881 28.7822 5.83192 28.7822C5.06504 28.7822 4.44336 28.1605 4.44336 27.3937C4.44336 26.6268 5.06504 26.0051 5.83192 26.0051Z" fill="#343A40"/>
<path d="M-3.64176e-08 27.3934C-5.65306e-08 26.9333 0.414454 26.5603 0.925709 26.5603L4.62855 26.5603C5.1398 26.5603 5.55426 26.9333 5.55426 27.3934C5.55426 27.8536 5.1398 28.2266 4.62855 28.2266L0.925709 28.2266C0.414454 28.2266 -1.63047e-08 27.8536 -3.64176e-08 27.3934Z" fill="#343A40"/>
<path d="M5.8329 21.7834C6.59978 21.7834 7.22146 22.4051 7.22146 23.172C7.22146 23.9389 6.59978 24.5605 5.8329 24.5605C5.06602 24.5605 4.44434 23.9389 4.44434 23.172C4.44434 22.4051 5.06602 21.7834 5.8329 21.7834Z" fill="#343A40"/>
<path d="M-3.64176e-08 23.1717C-5.65306e-08 22.7116 0.414454 22.3386 0.925709 22.3386L4.62855 22.3386C5.1398 22.3386 5.55426 22.7116 5.55426 23.1717C5.55426 23.6319 5.1398 24.0049 4.62855 24.0049L0.925709 24.0049C0.414454 24.0049 -1.63047e-08 23.6319 -3.64176e-08 23.1717Z" fill="#343A40"/>
<path d="M5.8329 17.5617C6.59978 17.5617 7.22146 18.1834 7.22146 18.9503C7.22146 19.7172 6.59978 20.3389 5.8329 20.3389C5.06602 20.3389 4.44434 19.7172 4.44434 18.9503C4.44434 18.1834 5.06602 17.5617 5.8329 17.5617Z" fill="#343A40"/>
<path d="M-3.64176e-08 18.9501C-5.65306e-08 18.4899 0.414454 18.1169 0.925709 18.1169L4.62855 18.1169C5.1398 18.1169 5.55426 18.4899 5.55426 18.9501C5.55426 19.4102 5.1398 19.7832 4.62855 19.7832L0.925709 19.7832C0.414454 19.7832 -1.63047e-08 19.4102 -3.64176e-08 18.9501Z" fill="#343A40"/>
<path d="M5.8329 13.341C6.59978 13.341 7.22146 13.9627 7.22146 14.7296C7.22146 15.4965 6.59978 16.1182 5.8329 16.1182C5.06602 16.1182 4.44434 15.4965 4.44434 14.7296C4.44434 13.9627 5.06602 13.341 5.8329 13.341Z" fill="#343A40"/>
<path d="M-3.64176e-08 14.7294C-5.65306e-08 14.2692 0.414454 13.8962 0.925709 13.8962L4.62855 13.8962C5.1398 13.8962 5.55426 14.2692 5.55426 14.7294C5.55426 15.1895 5.1398 15.5625 4.62855 15.5625L0.925709 15.5625C0.414454 15.5625 -1.63047e-08 15.1895 -3.64176e-08 14.7294Z" fill="#343A40"/>
<path d="M5.8329 9.11936C6.59978 9.11936 7.22146 9.74104 7.22146 10.5079C7.22146 11.2748 6.59978 11.8965 5.8329 11.8965C5.06602 11.8965 4.44434 11.2748 4.44434 10.5079C4.44434 9.74104 5.06602 9.11936 5.8329 9.11936Z" fill="#343A40"/>
<path d="M-3.64176e-08 10.5077C-5.65306e-08 10.0476 0.414454 9.67454 0.925709 9.67454L4.62855 9.67454C5.1398 9.67454 5.55426 10.0476 5.55426 10.5077C5.55426 10.9678 5.1398 11.3408 4.62855 11.3408L0.925709 11.3408C0.414454 11.3408 -1.63047e-08 10.9678 -3.64176e-08 10.5077Z" fill="#343A40"/>
<path d="M5.8329 4.89865C6.59978 4.89865 7.22146 5.52033 7.22146 6.28722C7.22146 7.0541 6.59978 7.67578 5.8329 7.67578C5.06602 7.67578 4.44434 7.0541 4.44434 6.28722C4.44434 5.52033 5.06602 4.89865 5.8329 4.89865Z" fill="#343A40"/>
<path d="M-3.64176e-08 6.28698C-5.65306e-08 5.82685 0.414454 5.45384 0.925709 5.45384L4.62855 5.45384C5.1398 5.45384 5.55426 5.82685 5.55426 6.28698C5.55426 6.74711 5.1398 7.12012 4.62855 7.12012L0.925709 7.12012C0.414454 7.12012 -1.63047e-08 6.74711 -3.64176e-08 6.28698Z" fill="#343A40"/>
<path d="M14.241 17.7852C12.7285 17.7895 11.4541 19.0694 11.4512 20.5873C11.4484 22.0972 12.6934 23.4016 14.1449 23.4089C15.6811 23.4168 16.9454 22.1232 16.9512 20.5397C16.9569 18.98 15.7772 17.7808 14.241 17.7852ZM15.2321 18.7608C15.6932 18.7543 16.0217 19.0752 16.0325 19.5417C16.0425 19.9715 15.7119 20.3154 15.2744 20.3313C14.8197 20.3479 14.4669 19.996 14.459 19.5201C14.4518 19.0817 14.7724 18.7666 15.2321 18.7601V18.7608Z" fill="#18231C"/>
<path d="M24.7263 20.5707C24.7328 22.0432 26.0495 23.3837 27.4903 23.3844C28.9224 23.3844 30.1732 22.0828 30.166 20.5996C30.1581 19.0377 28.888 17.7845 27.3167 17.7881C25.9283 17.791 24.7199 19.0896 24.7263 20.5707ZM28.4577 18.7637C28.9246 18.7608 29.2545 19.0853 29.253 19.5468C29.2516 19.9975 28.9547 20.3306 28.5466 20.3407C28.0848 20.3522 27.7133 19.9823 27.6997 19.4978C27.6882 19.0795 28.0116 18.7666 28.4577 18.7637Z" fill="#18231C"/>
<path d="M22.1285 23.9402C22.2296 23.8046 22.2626 23.5832 22.2475 23.408C22.2389 23.3056 22.0847 23.1679 21.9728 23.1391C21.8825 23.116 21.7433 23.2169 21.6515 23.2941C21.5727 23.3597 21.5339 23.4722 21.4708 23.5594C20.9695 24.2582 19.9928 24.1882 19.5954 23.4253C19.4857 23.2148 19.409 22.9451 19.0791 23.1052C18.831 23.2256 18.7478 23.5385 18.9213 23.8219C19.6321 24.9872 21.3459 24.9914 22.1285 23.9402Z" fill="#18231C"/>
<path d="M15.2317 18.7607C14.772 18.7672 14.4514 19.0816 14.4586 19.5208C14.4657 19.9967 14.8193 20.3486 15.274 20.332C15.7114 20.3161 16.042 19.9714 16.032 19.5424C16.0212 19.0759 15.6928 18.755 15.2317 18.7615V18.7607Z" fill="white"/>
<path d="M28.4576 18.7637C28.0115 18.7666 27.6881 19.0795 27.6996 19.4977C27.7125 19.9816 28.0847 20.3522 28.5465 20.3407C28.9546 20.3306 29.2515 19.9967 29.2529 19.5468C29.2544 19.0853 28.9252 18.7608 28.4576 18.7637Z" fill="white"/>
<path d="M27.9312 26.4036C27.2713 26.4036 26.7364 25.8658 26.7364 25.2023C26.7364 24.5388 27.2713 24.001 27.9312 24.001C28.5911 24.001 29.126 24.5388 29.126 25.2023C29.126 25.8658 28.5911 26.4036 27.9312 26.4036Z" fill="#FEB7B7"/>
<path d="M13.4654 26.4036C12.8055 26.4036 12.2706 25.8658 12.2706 25.2023C12.2706 24.5388 12.8055 24.001 13.4654 24.001C14.1252 24.001 14.6602 24.5388 14.6602 25.2023C14.6602 25.8658 14.1252 26.4036 13.4654 26.4036Z" fill="#FEB7B7"/>
<circle cx="30.0861" cy="7.04478" r="1.96924" transform="rotate(-90 30.0861 7.04478)" fill="#343A40" stroke="#343A40" stroke-width="0.393847"/>
<circle cx="30.0863" cy="7.04558" r="1.20344" transform="rotate(-90 30.0863 7.04558)" fill="#FFE9E3"/>
<defs>
<linearGradient id="paint0_linear_164_5308" x1="16.2024" y1="3.60023" x2="21.6032" y2="40.8055" gradientUnits="userSpaceOnUse">
<stop stop-color="#FFE9E3"/>
<stop offset="0.5" stop-color="#FAFDAC"/>
<stop offset="1" stop-color="#C5ECB3"/>
</linearGradient>
</defs>
</svg>
