<svg width="28" height="28" viewBox="0 0 28 28" fill="none" xmlns="http://www.w3.org/2000/svg">
<g clip-path="url(#clip0_164_5275)">
<path d="M14.0875 23.9465C11.6318 23.8702 9.2304 23.5465 6.88126 22.9032C4.99753 22.3875 3.37213 21.4265 2.16992 19.8353C0.71541 17.9104 0.530455 15.0606 1.72161 12.9578C1.79197 12.8331 1.85027 12.6351 1.80102 12.5185C0.710384 9.90702 2.22722 6.48735 4.78544 5.48015C6.5023 4.80366 8.20309 4.7735 9.76918 5.83398C10.2366 6.15061 10.5422 6.09834 11.0066 5.9355C13.0592 5.2178 15.1128 5.36154 17.1563 6.01793C17.3162 6.06919 17.5624 6.06919 17.6881 5.97973C20.5881 3.93115 25.5085 5.17859 26.2212 9.72508C26.3669 10.6519 26.2453 11.5133 25.9659 12.3838C25.9156 12.5406 25.9468 12.7638 26.0231 12.9136C27.0706 14.9672 27.2555 16.9886 26.0231 19.0673C24.4319 21.7512 21.934 22.9303 19.0159 23.3987C17.3855 23.6601 15.731 23.7686 14.0875 23.9465ZM14.8514 22.6358C16.1753 22.4719 17.6047 22.3131 19.027 22.108C19.5527 22.0327 20.0674 21.8618 20.58 21.712C22.515 21.1491 24.1454 20.169 25.0863 18.3014C25.8513 16.7815 25.798 15.2355 24.9365 13.7971C24.5767 13.196 24.5204 12.7507 24.7546 12.0983C25.3859 10.3372 25.0501 8.7028 23.6951 7.39605C22.4396 6.18479 20.9188 5.88926 19.2884 6.55872C18.7918 6.76278 18.3837 7.1729 17.9112 7.44832C17.7092 7.56593 17.3493 7.71067 17.2277 7.62021C16.4024 7.00302 15.4445 6.86933 14.4775 6.78791C13.2652 6.68538 12.0419 6.71855 10.9714 7.37494C10.2848 7.79612 10.318 7.84135 9.66766 7.26839C8.15987 5.93852 6.02182 5.88826 4.39944 7.11962C2.82028 8.31781 2.20209 10.6197 3.03238 12.3295C3.25553 12.7899 3.3078 13.1508 2.9017 13.5358C2.72881 13.6986 2.61422 13.9539 2.54386 14.1891C2.0292 15.905 2.18601 17.5334 3.25553 19.0141C4.28485 20.4384 5.75143 21.2195 7.38687 21.702C9.78426 22.4106 12.2631 22.5031 14.8504 22.6368L14.8514 22.6358Z" fill="black"/>
<path d="M14.8515 22.636C12.2642 22.5033 9.78535 22.4099 7.38796 21.7012C5.75252 21.2177 4.28493 20.4367 3.25662 19.0133C2.18609 17.5327 2.02928 15.9043 2.54495 14.1884C2.61531 13.9532 2.73091 13.6979 2.90279 13.535C3.30889 13.151 3.25662 12.7892 3.03347 12.3288C2.20318 10.6179 2.82137 8.31606 4.40053 7.11887C6.02291 5.88851 8.16096 5.93877 9.66875 7.26764C10.3191 7.8406 10.2859 7.79537 10.9725 7.37419C12.043 6.71679 13.2653 6.68463 14.4786 6.78716C15.4456 6.86858 16.4035 7.00327 17.2288 7.61946C17.3504 7.70992 17.7103 7.56518 17.9123 7.44757C18.3848 7.17215 18.7929 6.76203 19.2894 6.55797C20.9199 5.88952 22.4407 6.18404 23.6962 7.3953C25.0512 8.70305 25.3869 10.3365 24.7557 12.0976C24.5215 12.751 24.5778 13.1953 24.9376 13.7964C25.7991 15.2348 25.8523 16.7808 25.0874 18.3006C24.1475 20.1683 22.5161 21.1494 20.5811 21.7113C20.0685 21.86 19.5538 22.0309 19.0281 22.1073C17.6057 22.3124 16.1764 22.4712 14.8525 22.635L14.8515 22.636ZM20.8797 7.94514C19.209 7.93408 17.9063 9.2931 17.8872 11.0683C17.8701 12.6575 19.2724 14.1281 20.8103 14.1271C22.7111 14.1271 23.7354 12.2946 23.7636 10.9758C23.7997 9.30114 22.5061 7.9562 20.8797 7.94514ZM4.00046 11.0743C3.98237 12.8083 5.24791 14.0708 7.01906 14.0818C8.54193 14.0919 9.88989 12.6052 9.88386 10.9215C9.87783 9.34738 8.54092 7.99238 6.97986 7.97831C5.35848 7.96323 4.01956 9.35542 4.00147 11.0733L4.00046 11.0743Z" fill="#FAFDAC"/>
<ellipse cx="20.792" cy="11.1313" rx="2.16116" ry="2.21142" fill="white"/>
<ellipse cx="7.02054" cy="11.1313" rx="2.16116" ry="2.21142" fill="white"/>
<path d="M20.8793 7.94538C22.5047 7.95644 23.7994 9.30038 23.7632 10.976C23.7351 12.2948 22.7108 14.1263 20.81 14.1273C19.273 14.1273 17.8698 12.6577 17.8869 11.0685C17.906 9.29334 19.2087 7.93432 20.8793 7.94538ZM21.4422 10.193C21.4603 9.68336 21.1236 9.27927 20.6682 9.26319C20.0169 9.24007 19.4379 9.73563 19.4308 10.3217C19.4248 10.7891 19.9244 11.3077 20.3848 11.3118C20.9487 11.3158 21.4201 10.8182 21.4422 10.193ZM22.2987 12.135C22.3047 11.736 22.0051 11.3731 21.6614 11.362C21.2985 11.351 20.7326 11.928 20.7084 12.3351C20.6883 12.6607 21.1065 13.104 21.4382 13.1091C21.8051 13.1151 22.2926 12.5622 22.2987 12.135Z" fill="black"/>
<path d="M4.00022 11.0746C4.01831 9.35572 5.35723 7.96454 6.97861 7.97961C8.54068 7.99369 9.87758 9.34869 9.88261 10.9228C9.88864 12.6065 8.54068 14.0932 7.01781 14.0831C5.24766 14.0711 3.98112 12.8096 3.99921 11.0756L4.00022 11.0746ZM7.53146 10.1629C7.53749 9.64823 7.18367 9.31451 6.63282 9.31451C5.9523 9.31451 5.50399 9.68844 5.50499 10.2524C5.506 10.7771 5.97442 11.2686 6.47199 11.2686C7.05601 11.2686 7.52342 10.7791 7.53146 10.1629ZM7.42291 13.1423C7.48223 13.1141 7.67421 13.0418 7.67421 13.0418C7.67421 13.0418 8.16071 12.899 8.26626 12.4849C8.33964 12.1964 8.30043 11.7069 8.11648 11.5712C7.90841 11.4174 7.48221 11.5561 7.1515 11.5712C7.12034 11.5722 7.09018 11.5953 7.06103 11.6114C6.6871 11.8144 6.3192 12.118 6.46294 12.5382C6.55039 12.7935 6.97058 13.0418 7.07109 13.092C7.17161 13.1423 7.36359 13.1704 7.42291 13.1423Z" fill="black"/>
<path d="M11.3936 16.3584C11.3936 16.3584 12.1977 18.0672 14.2584 18.0672C16.319 18.0672 17.0226 16.3584 17.0226 16.3584" stroke="black" stroke-width="1.00519" stroke-linecap="round"/>
<path d="M7.17825 18.4686C6.4941 18.4686 5.9395 17.916 5.9395 17.2343C5.9395 16.5526 6.4941 16 7.17825 16C7.86239 16 8.41699 16.5526 8.41699 17.2343C8.41699 17.916 7.86239 18.4686 7.17825 18.4686Z" fill="#FEB7B7"/>
<path d="M21.1782 18.4686C20.4941 18.4686 19.9395 17.916 19.9395 17.2343C19.9395 16.5526 20.4941 16 21.1782 16C21.8624 16 22.417 16.5526 22.417 17.2343C22.417 17.916 21.8624 18.4686 21.1782 18.4686Z" fill="#FEB7B7"/>
</g>
<defs>
<clipPath id="clip0_164_5275">
<rect width="25.94" height="18.9469" fill="white" transform="translate(0.939453 5)"/>
</clipPath>
</defs>
</svg>
