<svg width="28" height="28" viewBox="0 0 28 28" fill="none" xmlns="http://www.w3.org/2000/svg">
<g clip-path="url(#clip0_164_5274)">
<path d="M14.148 23.9465C11.6924 23.8702 9.29094 23.5465 6.94181 22.9032C5.05808 22.3875 3.43268 21.4265 2.23047 19.8353C0.775957 17.9104 0.591002 15.0606 1.78216 12.9578C1.85252 12.8331 1.91082 12.6351 1.86157 12.5185C0.770931 9.90702 2.28777 6.48735 4.84598 5.48015C6.56285 4.80366 8.26364 4.7735 9.82973 5.83398C10.2971 6.15061 10.6027 6.09834 11.0671 5.9355C13.1197 5.2178 15.1733 5.36154 17.2169 6.01793C17.3767 6.06919 17.623 6.06919 17.7486 5.97973C20.6486 3.93115 25.569 5.17859 26.2817 9.72508C26.4275 10.6519 26.3058 11.5133 26.0264 12.3838C25.9761 12.5406 26.0073 12.7638 26.0837 12.9136C27.1311 14.9672 27.3161 16.9886 26.0837 19.0673C24.4925 21.7512 21.9946 22.9303 19.0765 23.3987C17.4461 23.6601 15.7915 23.7686 14.148 23.9465ZM14.912 22.6358C16.2358 22.4719 17.6652 22.3131 19.0876 22.108C19.6133 22.0327 20.1279 21.8618 20.6406 21.712C22.5756 21.1491 24.206 20.169 25.1469 18.3014C25.9118 16.7815 25.8585 15.2355 24.9971 13.7971C24.6372 13.196 24.5809 12.7507 24.8151 12.0983C25.4464 10.3372 25.1107 8.7028 23.7557 7.39605C22.5002 6.18479 20.9793 5.88926 19.3489 6.55872C18.8523 6.76278 18.4442 7.1729 17.9718 7.44832C17.7697 7.56593 17.4099 7.71067 17.2883 7.62021C16.463 7.00302 15.505 6.86933 14.538 6.78791C13.3258 6.68538 12.1025 6.71855 11.0319 7.37494C10.3454 7.79612 10.3786 7.84135 9.7282 7.26839C8.22041 5.93852 6.08237 5.88826 4.45999 7.11962C2.88083 8.31781 2.26264 10.6197 3.09293 12.3295C3.31608 12.7899 3.36835 13.1508 2.96225 13.5358C2.78936 13.6986 2.67477 13.9539 2.6044 14.1891C2.08974 15.905 2.24655 17.5334 3.31608 19.0141C4.3454 20.4384 5.81197 21.2195 7.44742 21.702C9.84481 22.4106 12.3236 22.5031 14.911 22.6368L14.912 22.6358Z" fill="black"/>
<path d="M14.9121 22.636C12.3247 22.5033 9.8459 22.4099 7.44851 21.7012C5.81306 21.2177 4.34548 20.4367 3.31717 19.0133C2.24664 17.5327 2.08983 15.9043 2.60549 14.1884C2.67586 13.9532 2.79145 13.6979 2.96334 13.535C3.36944 13.151 3.31717 12.7892 3.09402 12.3288C2.26373 10.6179 2.88192 8.31606 4.46108 7.11887C6.08346 5.88851 8.2215 5.93877 9.72929 7.26764C10.3797 7.8406 10.3465 7.79537 11.033 7.37419C12.1036 6.71679 13.3259 6.68463 14.5391 6.78716C15.5061 6.86858 16.4641 7.00327 17.2893 7.61946C17.411 7.70992 17.7708 7.56518 17.9729 7.44757C18.4453 7.17215 18.8534 6.76203 19.35 6.55797C20.9804 5.88952 22.5013 6.18404 23.7568 7.3953C25.1118 8.70305 25.4475 10.3365 24.8162 12.0976C24.582 12.751 24.6383 13.1953 24.9982 13.7964C25.8596 15.2348 25.9129 16.7808 25.1479 18.3006C24.2081 20.1683 22.5767 21.1494 20.6417 21.7113C20.129 21.86 19.6144 22.0309 19.0886 22.1073C17.6663 22.3124 16.2369 22.4712 14.9131 22.635L14.9121 22.636ZM20.9402 7.94514C19.2696 7.93408 17.9668 9.2931 17.9478 11.0683C17.9307 12.6575 19.3329 14.1281 20.8708 14.1271C22.7717 14.1271 23.796 12.2946 23.8241 10.9758C23.8603 9.30114 22.5666 7.9562 20.9402 7.94514ZM4.06101 11.0743C4.04292 12.8083 5.30846 14.0708 7.07961 14.0818C8.60247 14.0919 9.95044 12.6052 9.9444 10.9215C9.93837 9.34738 8.60147 7.99238 7.0404 7.97831C5.41903 7.96323 4.08011 9.35542 4.06202 11.0733L4.06101 11.0743Z" fill="#C5ECB3"/>
<ellipse cx="20.8526" cy="11.1313" rx="2.16116" ry="2.21142" fill="white"/>
<ellipse cx="7.08109" cy="11.1313" rx="2.16116" ry="2.21142" fill="white"/>
<path d="M20.9399 7.94538C22.5653 7.95644 23.86 9.30038 23.8238 10.976C23.7956 12.2948 22.7713 14.1263 20.8705 14.1273C19.3336 14.1273 17.9303 12.6577 17.9474 11.0685C17.9665 9.29334 19.2692 7.93432 20.9399 7.94538ZM21.5028 10.193C21.5209 9.68336 21.1841 9.27927 20.7288 9.26319C20.0774 9.24007 19.4984 9.73563 19.4914 10.3217C19.4854 10.7891 19.9849 11.3077 20.4453 11.3118C21.0092 11.3158 21.4807 10.8182 21.5028 10.193ZM22.3592 12.135C22.3652 11.736 22.0657 11.3731 21.7219 11.362C21.359 11.351 20.7931 11.928 20.769 12.3351C20.7489 12.6607 21.1671 13.104 21.4988 13.1091C21.8657 13.1151 22.3532 12.5622 22.3592 12.135Z" fill="black"/>
<path d="M4.06077 11.0746C4.07886 9.35572 5.41778 7.96454 7.03915 7.97961C8.60122 7.99369 9.93813 9.34869 9.94315 10.9228C9.94919 12.6065 8.60122 14.0932 7.07836 14.0831C5.30821 14.0711 4.04167 12.8096 4.05976 11.0756L4.06077 11.0746ZM7.59201 10.1629C7.59804 9.64823 7.24421 9.31451 6.69337 9.31451C6.01285 9.31451 5.56454 9.68844 5.56554 10.2524C5.56655 10.7771 6.03497 11.2686 6.53254 11.2686C7.11655 11.2686 7.58397 10.7791 7.59201 10.1629ZM7.48346 13.1423C7.54278 13.1141 7.73476 13.0418 7.73476 13.0418C7.73476 13.0418 8.22126 12.899 8.3268 12.4849C8.40018 12.1964 8.36098 11.7069 8.17703 11.5712C7.96896 11.4174 7.54275 11.5561 7.21205 11.5712C7.18088 11.5722 7.15073 11.5953 7.12158 11.6114C6.74765 11.8144 6.37975 12.118 6.52349 12.5382C6.61094 12.7935 7.03112 13.0418 7.13164 13.092C7.23216 13.1423 7.42414 13.1704 7.48346 13.1423Z" fill="black"/>
<path d="M11.4541 16.3584C11.4541 16.3584 12.2583 18.0672 14.3189 18.0672C16.3795 18.0672 17.0832 16.3584 17.0832 16.3584" stroke="black" stroke-width="1.00519" stroke-linecap="round"/>
<path d="M7.23879 18.4686C6.55465 18.4686 6.00005 17.916 6.00005 17.2343C6.00005 16.5526 6.55465 16 7.23879 16C7.92293 16 8.47754 16.5526 8.47754 17.2343C8.47754 17.916 7.92293 18.4686 7.23879 18.4686Z" fill="#FEB7B7"/>
<path d="M21.2388 18.4686C20.5547 18.4686 20 17.916 20 17.2343C20 16.5526 20.5547 16 21.2388 16C21.9229 16 22.4775 16.5526 22.4775 17.2343C22.4775 17.916 21.9229 18.4686 21.2388 18.4686Z" fill="#FEB7B7"/>
</g>
<defs>
<clipPath id="clip0_164_5274">
<rect width="25.94" height="18.9469" fill="white" transform="translate(1 5)"/>
</clipPath>
</defs>
</svg>
