<svg width="31" height="37" viewBox="0 0 31 37" fill="none" xmlns="http://www.w3.org/2000/svg">
<path d="M2.27332 31.9053L2.27332 4.96046C2.27332 2.56355 4.21639 0.620476 6.6133 0.620476L26.0399 0.620475C28.4368 0.620475 30.3799 2.56355 30.3799 4.96046L30.3799 31.9052C30.3799 34.3022 28.4368 36.2452 26.0399 36.2452L6.61331 36.2452C4.2164 36.2452 2.27332 34.3022 2.27332 31.9053Z" fill="white" stroke="#343A40" stroke-width="1.24"/>
<path d="M5.00773 29.5793C5.66623 29.5793 6.20004 30.1131 6.20004 30.7716C6.20004 31.4301 5.66623 31.9639 5.00773 31.9639C4.34924 31.9639 3.81543 31.4301 3.81543 30.7716C3.81543 30.1131 4.34924 29.5793 5.00773 29.5793Z" fill="#343A40"/>
<path d="M-3.12704e-08 30.7719C-4.85405e-08 30.3768 0.355875 30.0565 0.794869 30.0565L3.97435 30.0565C4.41334 30.0565 4.76922 30.3768 4.76922 30.7719C4.76922 31.167 4.41334 31.4873 3.97435 31.4873L0.794869 31.4873C0.355875 31.4873 -1.40002e-08 31.167 -3.12704e-08 30.7719Z" fill="#343A40"/>
<path d="M5.00773 25.9543C5.66623 25.9543 6.20004 26.4881 6.20004 27.1466C6.20004 27.8051 5.66623 28.3389 5.00773 28.3389C4.34924 28.3389 3.81543 27.8051 3.81543 27.1466C3.81543 26.4881 4.34924 25.9543 5.00773 25.9543Z" fill="#343A40"/>
<path d="M-3.12704e-08 27.1469C-4.85405e-08 26.7518 0.355875 26.4315 0.794869 26.4315L3.97435 26.4315C4.41334 26.4315 4.76922 26.7518 4.76922 27.1469C4.76922 27.542 4.41334 27.8623 3.97435 27.8623L0.794869 27.8623C0.355875 27.8623 -1.40002e-08 27.542 -3.12704e-08 27.1469Z" fill="#343A40"/>
<path d="M5.00773 22.3302C5.66623 22.3302 6.20004 22.864 6.20004 23.5225C6.20004 24.181 5.66623 24.7148 5.00773 24.7148C4.34924 24.7148 3.81543 24.181 3.81543 23.5225C3.81543 22.864 4.34924 22.3302 5.00773 22.3302Z" fill="#343A40"/>
<path d="M-3.12704e-08 23.5229C-4.85405e-08 23.1278 0.355875 22.8075 0.794869 22.8075L3.97435 22.8075C4.41334 22.8075 4.76922 23.1278 4.76922 23.5229C4.76922 23.918 4.41334 24.2383 3.97435 24.2383L0.794869 24.2383C0.355875 24.2383 -1.40002e-08 23.918 -3.12704e-08 23.5229Z" fill="#343A40"/>
<path d="M5.00773 18.7052C5.66623 18.7052 6.20004 19.239 6.20004 19.8975C6.20004 20.556 5.66623 21.0898 5.00773 21.0898C4.34924 21.0898 3.81543 20.556 3.81543 19.8975C3.81543 19.239 4.34924 18.7052 5.00773 18.7052Z" fill="#343A40"/>
<path d="M-3.12704e-08 19.8979C-4.85405e-08 19.5028 0.355875 19.1825 0.794869 19.1825L3.97435 19.1825C4.41334 19.1825 4.76922 19.5028 4.76922 19.8979C4.76922 20.293 4.41334 20.6133 3.97435 20.6133L0.794869 20.6133C0.355875 20.6133 -1.40002e-08 20.293 -3.12704e-08 19.8979Z" fill="#343A40"/>
<path d="M5.00773 15.0812C5.66623 15.0812 6.20004 15.615 6.20004 16.2735C6.20004 16.932 5.66623 17.4658 5.00773 17.4658C4.34924 17.4658 3.81543 16.932 3.81543 16.2735C3.81543 15.615 4.34924 15.0812 5.00773 15.0812Z" fill="#343A40"/>
<path d="M-3.12704e-08 16.2739C-4.85405e-08 15.8788 0.355875 15.5585 0.794869 15.5585L3.97435 15.5585C4.41334 15.5585 4.76922 15.8788 4.76922 16.2739C4.76922 16.669 4.41334 16.9893 3.97435 16.9893L0.794869 16.9893C0.355875 16.9893 -1.40002e-08 16.669 -3.12704e-08 16.2739Z" fill="#343A40"/>
<path d="M5.00773 11.4562C5.66623 11.4562 6.20004 11.99 6.20004 12.6485C6.20004 13.307 5.66623 13.8408 5.00773 13.8408C4.34924 13.8408 3.81543 13.307 3.81543 12.6485C3.81543 11.99 4.34924 11.4562 5.00773 11.4562Z" fill="#343A40"/>
<path d="M-3.12704e-08 12.6479C-4.85405e-08 12.2528 0.355875 11.9325 0.794869 11.9325L3.97435 11.9325C4.41334 11.9325 4.76922 12.2528 4.76922 12.6479C4.76922 13.043 4.41334 13.3633 3.97435 13.3633L0.794869 13.3633C0.355875 13.3633 -1.40002e-08 13.043 -3.12704e-08 12.6479Z" fill="#343A40"/>
<path d="M5.00773 7.83121C5.66623 7.83121 6.20004 8.36502 6.20004 9.02352C6.20004 9.68201 5.66623 10.2158 5.00773 10.2158C4.34924 10.2158 3.81543 9.68201 3.81543 9.02352C3.81543 8.36502 4.34924 7.83121 5.00773 7.83121Z" fill="#343A40"/>
<path d="M-3.12704e-08 9.0229C-4.85405e-08 8.6278 0.355875 8.30752 0.794869 8.30752L3.97435 8.30752C4.41334 8.30752 4.76922 8.6278 4.76922 9.0229C4.76922 9.41799 4.41334 9.73828 3.97435 9.73828L0.794869 9.73828C0.355875 9.73828 -1.40002e-08 9.41799 -3.12704e-08 9.0229Z" fill="#343A40"/>
<path d="M5.00773 4.20719C5.66623 4.20719 6.20004 4.741 6.20004 5.39949C6.20004 6.05798 5.66623 6.5918 5.00773 6.5918C4.34924 6.5918 3.81543 6.05798 3.81543 5.39949C3.81543 4.741 4.34924 4.20719 5.00773 4.20719Z" fill="#343A40"/>
<path d="M-3.12704e-08 5.39985C-4.85405e-08 5.00476 0.355875 4.68447 0.794869 4.68447L3.97435 4.68447C4.41334 4.68447 4.76922 5.00476 4.76922 5.39985C4.76922 5.79495 4.41334 6.11523 3.97435 6.11523L0.794869 6.11523C0.355875 6.11523 -1.40002e-08 5.79495 -3.12704e-08 5.39985Z" fill="#343A40"/>
<path d="M12.3291 15.2715C11.0233 15.2752 9.92306 16.3742 9.92059 17.6776C9.91811 18.9741 10.993 20.0941 12.2462 20.1003C13.5724 20.1071 14.664 18.9964 14.6689 17.6367C14.6739 16.2974 13.6554 15.2678 12.3291 15.2715ZM13.1848 16.1092C13.5829 16.1036 13.8665 16.3792 13.8758 16.7798C13.8845 17.1488 13.599 17.4441 13.2213 17.4577C12.8288 17.472 12.5242 17.1698 12.5173 16.7612C12.5112 16.3847 12.7879 16.1142 13.1848 16.1086V16.1092Z" fill="#18231C"/>
<path d="M21.3818 17.6638C21.3873 18.9281 22.5241 20.0791 23.768 20.0797C25.0045 20.0797 26.0843 18.9621 26.0781 17.6885C26.0713 16.3474 24.9748 15.2713 23.6182 15.2744C22.4195 15.2769 21.3762 16.392 21.3818 17.6638ZM24.6033 16.1121C25.0063 16.1097 25.2911 16.3883 25.2899 16.7846C25.2887 17.1715 25.0323 17.4576 24.68 17.4662C24.2813 17.4762 23.9606 17.1585 23.9488 16.7424C23.9389 16.3833 24.2181 16.1146 24.6033 16.1121Z" fill="#18231C"/>
<path d="M19.57 20.3983C19.6573 20.2819 19.6858 20.0918 19.6728 19.9414C19.6654 19.8534 19.5322 19.7352 19.4356 19.7104C19.3576 19.6906 19.2375 19.7773 19.1583 19.8435C19.0902 19.8999 19.0567 19.9965 19.0022 20.0714C18.5694 20.6713 17.7261 20.6113 17.3831 19.9562C17.2884 19.7754 17.2222 19.5439 16.9373 19.6813C16.7231 19.7847 16.6513 20.0534 16.8011 20.2968C17.4147 21.2973 18.8944 21.3009 19.57 20.3983Z" fill="#18231C"/>
<path d="M13.1848 16.1094C12.7879 16.1149 12.5112 16.3849 12.5173 16.762C12.5235 17.1706 12.8288 17.4728 13.2213 17.4585C13.599 17.4449 13.8845 17.1489 13.8758 16.7805C13.8665 16.3799 13.5829 16.1044 13.1848 16.11V16.1094Z" fill="white"/>
<path d="M24.6034 16.1113C24.2183 16.1138 23.939 16.3825 23.9489 16.7416C23.9601 17.1571 24.2814 17.4754 24.6802 17.4654C25.0325 17.4568 25.2888 17.1701 25.29 16.7838C25.2913 16.3875 25.0071 16.1089 24.6034 16.1113Z" fill="white"/>
<path d="M24.1491 22.6714C23.5794 22.6714 23.1176 22.2096 23.1176 21.6399C23.1176 21.0702 23.5794 20.6084 24.1491 20.6084C24.7188 20.6084 25.1807 21.0702 25.1807 21.6399C25.1807 22.2096 24.7188 22.6714 24.1491 22.6714Z" fill="#FEB7B7"/>
<path d="M11.6589 22.6714C11.0892 22.6714 10.6274 22.2096 10.6274 21.6399C10.6274 21.0702 11.0892 20.6084 11.6589 20.6084C12.2286 20.6084 12.6904 21.0702 12.6904 21.6399C12.6904 22.2096 12.2286 22.6714 11.6589 22.6714Z" fill="#FEB7B7"/>
<circle cx="25.8336" cy="6.04919" r="1.6909" transform="rotate(-90 25.8336 6.04919)" fill="#343A40" stroke="#343A40" stroke-width="0.338181"/>
<circle cx="25.8341" cy="6.04966" r="1.03335" transform="rotate(-90 25.8341 6.04966)" fill="white"/>
</svg>
