<svg width="31" height="37" viewBox="0 0 31 37" fill="none" xmlns="http://www.w3.org/2000/svg">
<path d="M6.61331 36.38C4.2164 36.38 2.27332 34.4369 2.27332 32.04L2.27332 5.09523C2.27332 2.69832 4.21639 0.755241 6.6133 0.755241L26.0399 0.75524C28.4368 0.75524 30.3799 2.69832 30.3799 5.09523L30.3799 32.04C30.3799 34.4369 28.4368 36.38 26.0399 36.38L6.61331 36.38Z" fill="#FAFDAC" stroke="#343A40" stroke-width="1.24"/>
<path d="M5.00773 29.714C5.66623 29.714 6.20004 30.2478 6.20004 30.9063C6.20004 31.5648 5.66623 32.0986 5.00773 32.0986C4.34924 32.0986 3.81543 31.5648 3.81543 30.9063C3.81543 30.2478 4.34924 29.714 5.00773 29.714Z" fill="#343A40"/>
<path d="M-3.12704e-08 30.9067C-4.85405e-08 30.5116 0.355875 30.1913 0.794869 30.1913L3.97435 30.1913C4.41334 30.1913 4.76922 30.5116 4.76922 30.9067C4.76922 31.3018 4.41334 31.6221 3.97435 31.6221L0.794869 31.6221C0.355875 31.6221 -1.40002e-08 31.3018 -3.12704e-08 30.9067Z" fill="#343A40"/>
<path d="M5.00773 26.089C5.66623 26.089 6.20004 26.6228 6.20004 27.2813C6.20004 27.9398 5.66623 28.4736 5.00773 28.4736C4.34924 28.4736 3.81543 27.9398 3.81543 27.2813C3.81543 26.6228 4.34924 26.089 5.00773 26.089Z" fill="#343A40"/>
<path d="M-3.12704e-08 27.2817C-4.85405e-08 26.8866 0.355875 26.5663 0.794869 26.5663L3.97435 26.5663C4.41334 26.5663 4.76922 26.8866 4.76922 27.2817C4.76922 27.6768 4.41334 27.9971 3.97435 27.9971L0.794869 27.9971C0.355875 27.9971 -1.40002e-08 27.6768 -3.12704e-08 27.2817Z" fill="#343A40"/>
<path d="M5.00773 22.465C5.66623 22.465 6.20004 22.9988 6.20004 23.6573C6.20004 24.3158 5.66623 24.8496 5.00773 24.8496C4.34924 24.8496 3.81543 24.3158 3.81543 23.6573C3.81543 22.9988 4.34924 22.465 5.00773 22.465Z" fill="#343A40"/>
<path d="M-3.12704e-08 23.6577C-4.85405e-08 23.2626 0.355875 22.9423 0.794869 22.9423L3.97435 22.9423C4.41334 22.9423 4.76922 23.2626 4.76922 23.6577C4.76922 24.0528 4.41334 24.373 3.97435 24.373L0.794869 24.373C0.355875 24.373 -1.40002e-08 24.0528 -3.12704e-08 23.6577Z" fill="#343A40"/>
<path d="M5.00773 18.84C5.66623 18.84 6.20004 19.3738 6.20004 20.0323C6.20004 20.6908 5.66623 21.2246 5.00773 21.2246C4.34924 21.2246 3.81543 20.6908 3.81543 20.0323C3.81543 19.3738 4.34924 18.84 5.00773 18.84Z" fill="#343A40"/>
<path d="M-3.12704e-08 20.0327C-4.85405e-08 19.6376 0.355875 19.3173 0.794869 19.3173L3.97435 19.3173C4.41334 19.3173 4.76922 19.6376 4.76922 20.0327C4.76922 20.4278 4.41334 20.748 3.97435 20.748L0.794869 20.748C0.355875 20.748 -1.40002e-08 20.4278 -3.12704e-08 20.0327Z" fill="#343A40"/>
<path d="M5.00773 15.216C5.66623 15.216 6.20004 15.7498 6.20004 16.4083C6.20004 17.0668 5.66623 17.6006 5.00773 17.6006C4.34924 17.6006 3.81543 17.0668 3.81543 16.4083C3.81543 15.7498 4.34924 15.216 5.00773 15.216Z" fill="#343A40"/>
<path d="M-3.12704e-08 16.4086C-4.85405e-08 16.0135 0.355875 15.6933 0.794869 15.6933L3.97435 15.6933C4.41334 15.6933 4.76922 16.0135 4.76922 16.4086C4.76922 16.8037 4.41334 17.124 3.97435 17.124L0.794869 17.124C0.355875 17.124 -1.40002e-08 16.8037 -3.12704e-08 16.4086Z" fill="#343A40"/>
<path d="M5.00773 11.591C5.66623 11.591 6.20004 12.1248 6.20004 12.7833C6.20004 13.4418 5.66623 13.9756 5.00773 13.9756C4.34924 13.9756 3.81543 13.4418 3.81543 12.7833C3.81543 12.1248 4.34924 11.591 5.00773 11.591Z" fill="#343A40"/>
<path d="M-3.12704e-08 12.7827C-4.85405e-08 12.3876 0.355875 12.0673 0.794869 12.0673L3.97435 12.0673C4.41334 12.0673 4.76922 12.3876 4.76922 12.7827C4.76922 13.1778 4.41334 13.498 3.97435 13.498L0.794869 13.498C0.355875 13.498 -1.40002e-08 13.1778 -3.12704e-08 12.7827Z" fill="#343A40"/>
<path d="M5.00773 7.96598C5.66623 7.96598 6.20004 8.49979 6.20004 9.15828C6.20004 9.81677 5.66623 10.3506 5.00773 10.3506C4.34924 10.3506 3.81543 9.81677 3.81543 9.15828C3.81543 8.49979 4.34924 7.96598 5.00773 7.96598Z" fill="#343A40"/>
<path d="M-3.12704e-08 9.15766C-4.85405e-08 8.76257 0.355875 8.44228 0.794869 8.44228L3.97435 8.44228C4.41334 8.44228 4.76922 8.76257 4.76922 9.15766C4.76922 9.55276 4.41334 9.87305 3.97435 9.87305L0.794869 9.87305C0.355875 9.87305 -1.40002e-08 9.55276 -3.12704e-08 9.15766Z" fill="#343A40"/>
<path d="M5.00773 4.34195C5.66623 4.34195 6.20004 4.87577 6.20004 5.53426C6.20004 6.19275 5.66623 6.72656 5.00773 6.72656C4.34924 6.72656 3.81543 6.19275 3.81543 5.53426C3.81543 4.87577 4.34924 4.34195 5.00773 4.34195Z" fill="#343A40"/>
<path d="M-3.12704e-08 5.53462C-4.85405e-08 5.13952 0.355875 4.81923 0.794869 4.81923L3.97435 4.81923C4.41334 4.81923 4.76922 5.13952 4.76922 5.53462C4.76922 5.92971 4.41334 6.25 3.97435 6.25L0.794869 6.25C0.355875 6.25 -1.40002e-08 5.92971 -3.12704e-08 5.53462Z" fill="#343A40"/>
<path d="M12.3291 15.4063C11.0233 15.41 9.92306 16.509 9.92059 17.8123C9.91811 19.1088 10.993 20.2289 12.2462 20.2351C13.5724 20.2419 14.664 19.1311 14.6689 17.7715C14.6739 16.4322 13.6554 15.4025 12.3291 15.4063ZM13.1848 16.244C13.5829 16.2384 13.8665 16.5139 13.8758 16.9145C13.8845 17.2836 13.599 17.5789 13.2213 17.5925C12.8288 17.6068 12.5242 17.3046 12.5173 16.896C12.5112 16.5195 12.7879 16.2489 13.1848 16.2434V16.244Z" fill="#18231C"/>
<path d="M21.3818 17.7985C21.3873 19.0629 22.5241 20.2139 23.768 20.2145C25.0045 20.2145 26.0843 19.0969 26.0781 17.8233C26.0713 16.4822 24.9748 15.4061 23.6182 15.4092C22.4195 15.4117 21.3762 16.5268 21.3818 17.7985ZM24.6033 16.2469C25.0063 16.2444 25.2911 16.5231 25.2899 16.9193C25.2887 17.3063 25.0323 17.5923 24.68 17.601C24.2813 17.6109 23.9606 17.2933 23.9488 16.8772C23.9389 16.5181 24.2181 16.2494 24.6033 16.2469Z" fill="#18231C"/>
<path d="M19.57 20.5331C19.6573 20.4167 19.6858 20.2266 19.6728 20.0761C19.6654 19.9882 19.5322 19.8699 19.4356 19.8452C19.3576 19.8254 19.2375 19.912 19.1583 19.9783C19.0902 20.0346 19.0567 20.1312 19.0022 20.2061C18.5694 20.8061 17.7261 20.7461 17.3831 20.091C17.2884 19.9102 17.2222 19.6786 16.9373 19.8161C16.7231 19.9195 16.6513 20.1882 16.8011 20.4315C17.4147 21.4321 18.8944 21.4357 19.57 20.5331Z" fill="#18231C"/>
<path d="M13.1848 16.2441C12.7879 16.2497 12.5112 16.5197 12.5173 16.8967C12.5235 17.3054 12.8288 17.6075 13.2213 17.5933C13.599 17.5797 13.8845 17.2837 13.8758 16.9153C13.8665 16.5147 13.5829 16.2392 13.1848 16.2448V16.2441Z" fill="white"/>
<path d="M24.6034 16.2461C24.2183 16.2486 23.939 16.5173 23.9489 16.8764C23.9601 17.2919 24.2814 17.6101 24.6802 17.6002C25.0325 17.5915 25.2888 17.3049 25.29 16.9185C25.2913 16.5223 25.0071 16.2436 24.6034 16.2461Z" fill="white"/>
<path d="M24.1491 22.8062C23.5794 22.8062 23.1176 22.3444 23.1176 21.7747C23.1176 21.205 23.5794 20.7432 24.1491 20.7432C24.7188 20.7432 25.1807 21.205 25.1807 21.7747C25.1807 22.3444 24.7188 22.8062 24.1491 22.8062Z" fill="#FEB7B7"/>
<path d="M11.6589 22.8062C11.0892 22.8062 10.6274 22.3444 10.6274 21.7747C10.6274 21.205 11.0892 20.7432 11.6589 20.7432C12.2286 20.7432 12.6904 21.205 12.6904 21.7747C12.6904 22.3444 12.2286 22.8062 11.6589 22.8062Z" fill="#FEB7B7"/>
<circle cx="25.8336" cy="6.18395" r="1.6909" transform="rotate(-90 25.8336 6.18395)" fill="#343A40" stroke="#343A40" stroke-width="0.338181"/>
<circle cx="25.8341" cy="6.18442" r="1.03335" transform="rotate(-90 25.8341 6.18442)" fill="#FAFDAC"/>
</svg>
